<svg id="Layer_1" enable-background="new 0 0 512 512" height="512" viewBox="0 0 512 512" width="512" xmlns="http://www.w3.org/2000/svg"><g><g><g><g><g><g id="XMLID_1464_"><g id="XMLID_1465_"><g id="XMLID_1466_"><g id="XMLID_1467_"><g id="XMLID_1468_"><g id="XMLID_1469_"><g id="XMLID_1470_"><g id="XMLID_1471_"><g id="XMLID_1472_"><g id="XMLID_1473_"><g id="XMLID_1474_"><g id="XMLID_1475_"><g id="XMLID_1476_"><g id="XMLID_1477_"><g id="XMLID_1478_"><circle cx="256" cy="256" fill="#f9710d" r="256"/></g></g></g></g></g></g></g></g></g></g></g></g></g></g></g></g></g><path d="m512 256c0-15.863-1.454-31.385-4.216-46.45l-103.199-103.2-326.736 89.336 17.857 17.712c-8.844 3.273-17.228 89.685-17.228 89.685l13.154 13.03-12.488 94.366 84.925 84.502c28.534 10.983 59.526 17.019 91.931 17.019 141.385 0 256-114.615 256-256z" fill="#e54c00"/><g><g><path d="m385.191 202.605h-290.863c-12.749 0-23.18-10.431-23.18-23.18v-60.429c0-12.749 10.431-23.18 23.18-23.18h290.863c12.749 0 23.18 10.431 23.18 23.18v60.429c0 12.749-10.431 23.18-23.18 23.18z" fill="#726e6b"/><path d="m408.369 119v60.43c0 12.74-10.43 23.18-23.18 23.18h-145.43v-106.79h145.43c12.75 0 23.18 10.43 23.18 23.18z" fill="#605e5c"/></g><g><path d="m385.191 309.395h-290.863c-12.749 0-23.18-10.431-23.18-23.18v-60.429c0-12.749 10.431-23.18 23.18-23.18h290.863c12.749 0 23.18 10.431 23.18 23.18v60.429c0 12.749-10.431 23.18-23.18 23.18z" fill="#595552"/><path d="m408.369 225.79v60.42c0 12.75-10.43 23.18-23.18 23.18h-145.43v-106.78h145.43c12.75 0 23.18 10.43 23.18 23.18z" fill="#474441"/></g><g><path d="m385.191 416.184h-290.863c-12.749 0-23.18-10.431-23.18-23.18v-60.429c0-12.749 10.431-23.18 23.18-23.18h290.863c12.749 0 23.18 10.431 23.18 23.18v60.429c0 12.749-10.431 23.18-23.18 23.18z" fill="#726e6b"/><path d="m408.369 332.57v60.43c0 12.75-10.43 23.18-23.18 23.18h-145.43v-106.79h145.43c12.75 0 23.18 10.44 23.18 23.18z" fill="#605e5c"/></g></g><g><path d="m239.759 343.994h130.955v37.59h-130.955z" fill="#d8d5d2"/></g><ellipse cx="188.262" cy="362.789" fill="#46f7d5" rx="17.325" ry="17.325" transform="matrix(.16 -.987 .987 .16 -200 490.507)"/><ellipse cx="121.46" cy="362.789" fill="#ffc136" rx="17.325" ry="17.325" transform="matrix(.23 -.973 .973 .23 -259.53 397.648)"/><g><g><path d="m239.759 237.205h130.955v37.59h-130.955z" fill="#d8d5d2"/></g></g><circle cx="188.262" cy="256" fill="#46f7d5" r="17.325"/><circle cx="121.46" cy="256" fill="#ffc136" r="17.325"/><g><g><path d="m239.759 130.416h130.955v37.59h-130.955z" fill="#d8d5d2"/></g></g><ellipse cx="188.262" cy="149.211" fill="#46f7d5" rx="17.325" ry="17.325" transform="matrix(.924 -.383 .383 .924 -42.77 83.403)"/><ellipse cx="121.46" cy="149.211" fill="#ffc136" rx="17.325" ry="17.325" transform="matrix(.707 -.707 .707 .707 -69.933 129.588)"/></g><circle cx="370.714" cy="345.465" fill="#ffc136" r="86.334"/><path d="m457.05 345.46c0 47.69-38.66 86.34-86.34 86.34v-172.67c47.68 0 86.34 38.65 86.34 86.33z" fill="#f4a300"/><path d="m353.111 345.668v-46.534h35.205v46.534h17.228l-34.83 47.646-34.83-47.646z" fill="#f4f2ef"/><path d="m388.316 299.134h-17.606v94.175l.004.005 34.83-47.646h-17.228z" fill="#e5e1dc"/></g></g></svg>