<svg height="512" viewBox="0 0 512 512" width="512" xmlns="http://www.w3.org/2000/svg"><g id="Filled_outline" data-name="Filled outline"><path d="m350.91 168h-189.82l62.31-94.54 32.6-49.46z" fill="#60d1e0"/><path d="m488 376h-464l68.55-104h326.9z" fill="#348fd9"/><path d="m350.909 168h-189.818l-68.546 104h326.91z" fill="#4db7e5"/><path d="m285.01 168-61.61-94.54 32.6-49.46 94.91 144z" fill="#5ac6d4"/><path d="m352.78 272-67.77-104h65.9l68.54 104z" fill="#48add9"/><path d="m488 376h-67.45l-67.77-104h66.67z" fill="#3086cd"/><path d="m248 464a24.006 24.006 0 0 1 -24 24h-176a24 24 0 0 1 0-48l1.41-.94a104.62 104.62 0 0 0 34.21-37.68 104.6 104.6 0 0 0 12.38-49.38v-24h80v24c0 .92.01 1.84.04 2.76a104.612 104.612 0 0 0 46.55 84.3l1.41.94a24 24 0 0 1 24 24z" fill="#95573a"/><path d="m248 464a24.006 24.006 0 0 1 -24 24h-173.21c41.72-26.31 86.58-67.66 125.25-133.24a104.612 104.612 0 0 0 46.55 84.3l1.41.94a24 24 0 0 1 24 24z" fill="#8f4d2e"/><rect fill="#a15d3d" height="48" rx="24" width="144" x="64" y="280"/><path d="m184 280h-32a24 24 0 0 1 0 48h32a24 24 0 0 0 0-48z" fill="#8f4d2e"/><path d="m176 280h-80l-16-48h112z" fill="#95573a"/><path d="m184 176-32-8 8 32h-48l8-32-32 8v-48l32 8-8-32h48l-8 32 19.96-4.99 12.04-3.01z" fill="#ffb531"/><path d="m96 200h80v32h-80z" fill="#8f4d2e"/><path d="m184 176-32-8 8 32h-47.83l59.79-68.99 12.04-3.01z" fill="#ffa912"/><path d="m96 328h80v24h-80z" fill="#8f4d2e"/><path d="m192 232h-25.684l-17.685 48h27.369z" fill="#8f4d2e"/><path d="m152 200h24v32h-24z" fill="#82462a"/><path d="m262.68 19.594c-2.953-4.485-10.407-4.492-13.36.008l-57.976 88 13.359 8.8 51.297-77.863 80.055 121.461h-128.055v16h138.6l58 88h-180.6v16h191.147l58 88h-273.147v16h288a8 8 0 0 0 6.68-12.406z"/><path d="m43.664 331.6-26.344 40a8 8 0 0 0 6.68 12.4h48v-16h-33.148l18.171-27.6z"/><path d="m244.73 80.221h14.539v15.996h-14.539z" transform="matrix(.55 -.835 .835 .55 39.731 250.171)"/><path d="m205.159 117.295h44.808v15.996h-44.808z" transform="matrix(.55 -.835 .835 .55 -2.231 246.446)"/><path d="m226.578 432.1a96.433 96.433 0 0 1 -42.578-80.1v-16a31.915 31.915 0 0 0 3-63.7l12.59-37.772a7.992 7.992 0 0 0 -7.59-10.528h-8v-24a8 8 0 0 0 -8-8h-9.757l-3.251-13.008 19.07 4.766a7.878 7.878 0 0 0 6.86-1.453 7.994 7.994 0 0 0 3.078-6.305v-48a8 8 0 0 0 -9.938-7.758l-19.07 4.766 4.766-19.07a8 8 0 0 0 -7.758-9.938h-48a8 8 0 0 0 -7.758 9.938l4.766 19.07-19.07-4.766a8 8 0 0 0 -9.938 7.758v48a8 8 0 0 0 9.938 7.758l19.07-4.766-3.251 13.008h-9.757a8 8 0 0 0 -8 8v24h-8a7.992 7.992 0 0 0 -7.586 10.531l12.586 37.769a31.915 31.915 0 0 0 3 63.7v16a96.433 96.433 0 0 1 -42.578 80.1 32 32 0 0 0 2.578 63.9h176a32 32 0 0 0 2.578-63.9zm-135.478-192.1h89.8l-10.664 32h-68.47zm34.554-77.656a7.974 7.974 0 0 0 -7.594-2.1l-22.06 5.506v-27.5l22.062 5.508a7.994 7.994 0 0 0 9.7-9.7l-5.512-22.058h27.5l-5.508 22.062a7.994 7.994 0 0 0 9.7 9.7l22.058-5.512v27.5l-22.062-5.508a7.994 7.994 0 0 0 -9.7 9.7l5.512 22.058h-27.5l5.508-22.062a7.982 7.982 0 0 0 -2.102-7.594zm-21.654 45.656h64v16h-64zm-32 96a16.021 16.021 0 0 1 16-16h96a16 16 0 0 1 0 32h-96a16.021 16.021 0 0 1 -16-16zm152 176h-176a16 16 0 0 1 0-32 8.011 8.011 0 0 0 4.438-1.344l1.406-.937a112.406 112.406 0 0 0 50.156-93.719v-16h64v16a112.207 112.207 0 0 0 33.628 80h-113.628v16h136a16 16 0 0 1 0 32z"/></g></svg>