<svg height="512pt" viewBox="0 0 512 512" width="512pt" xmlns="http://www.w3.org/2000/svg"><path d="m377 451h-136v-390h136v30h-106v330h106zm0 0" fill="#5a5a5a"/><path d="m180 241-30 15 30 15h197v-30zm0 0" fill="#5a5a5a"/><g fill="#ff7816"><path d="m362 361v151h150v-151zm0 0"/><path d="m362 181v150h150v-150zm0 0"/><path d="m362 0v151h150v-151zm0 0"/></g><path d="m90 151c-49.5 0-90 40.5-90 90v30h180v-30c0-49.5-40.5-90-90-90zm0 0" fill="#73bcff"/><path d="m180 241v30h-90v-120c49.5 0 90 40.5 90 90zm0 0" fill="#0095ff"/><path d="m90 31c-33 0-60 27-60 60s27 60 60 60 60-27 60-60-27-60-60-60zm0 0" fill="#73bcff"/><path d="m90 151v-120c33 0 60 27 60 60s-27 60-60 60zm0 0" fill="#0095ff"/><path d="m437 0h75v151h-75zm0 0" fill="#ff4b00"/><path d="m437 181h75v150h-75zm0 0" fill="#ff4b00"/><path d="m437 361h75v151h-75zm0 0" fill="#ff4b00"/><path d="m492.5 401.5-55.5 55.800781-15 15-40.5-40.800781 21-21 19.5 19.199219 15-15 34.5-34.199219zm0 0" fill="#ede9e8"/><path d="m471.5 380.5 21 21-55.5 55.800781v-42.601562zm0 0" fill="#dfd7d5"/><path d="m492.5 221.5-55.5 55.800781-15 15-40.5-40.800781 21-21 19.5 19.199219 15-15 34.5-34.199219zm0 0" fill="#ede9e8"/><path d="m471.5 200.5 21 21-55.5 55.800781v-42.601562zm0 0" fill="#dfd7d5"/><path d="m492.5 41.5-55.5 55.800781-15 15-40.5-40.800781 21-21 19.5 19.199219 15-15 34.5-34.199219zm0 0" fill="#ede9e8"/><path d="m492.5 41.5-55.5 55.800781v-42.601562l34.5-34.199219zm0 0" fill="#dfd7d5"/></svg>