<svg id="Capa_1" enable-background="new 0 0 498.151 498.151" height="512" viewBox="0 0 498.151 498.151" width="512" xmlns="http://www.w3.org/2000/svg"><g><path d="m448.803 347.648c26.962 0 49.602-22.06 49.346-49.021-.188-19.779-12.208-36.721-29.321-44.107-5.992-2.586-8.454-9.713-5.344-15.45 6.229-11.488 9.657-24.714 9.358-38.769-.87-40.791-33.618-74.345-74.377-76.172-8.597-.385-16.898.635-24.703 2.839-5.882 1.661-11.932-1.962-13.52-7.865-13.107-48.706-57.575-84.556-110.421-84.556-49.744 0-92.062 31.767-107.791 76.118-1.724 4.863-6.603 7.902-11.719 7.238-5.212-.677-10.534-1.007-15.941-.961-63.441.534-114.371 51.909-114.37 115.353.001 61.541 48.195 111.821 108.899 115.17z" fill="#b3dafe"/><g><path d="m50.34 269.538c-.001-63.444 50.929-114.819 114.371-115.352 5.407-.045 10.729.284 15.941.961 5.116.665 9.994-2.375 11.719-7.237 15.729-44.352 58.047-76.119 107.791-76.119 14.151 0 27.718 2.595 40.226 7.295-20.909-27.08-53.706-44.538-90.566-44.538-49.744 0-92.062 31.767-107.791 76.118-1.724 4.863-6.603 7.902-11.719 7.238-5.212-.677-10.534-1.007-15.941-.961-63.442.533-114.372 51.908-114.371 115.352.001 49.329 30.968 91.416 74.52 107.905-15.153-19.522-24.18-44.036-24.18-70.662z" fill="#8ac9fe"/></g><path d="m337.416 256.108c0-48.789-39.551-88.34-88.34-88.34-48.789 0-88.34 39.551-88.34 88.34v98.566h38v-98.566c0-27.758 22.583-50.34 50.341-50.34s50.34 22.582 50.34 50.34v96.655h35.941z" fill="#e2dee2"/><path d="m328.837 463.603h-159.523c-16.797 0-30.414-13.617-30.414-30.414v-126.923c0-9.583 7.768-17.351 17.351-17.351h185.65c9.583 0 17.351 7.768 17.351 17.351v126.922c0 16.798-13.617 30.415-30.415 30.415z" fill="#f79595"/><path d="m272.992 399.664-6.615-20.891c-.676-2.135-.182-4.445 1.243-6.172 3.747-4.542 5.874-10.469 5.496-16.899-.712-12.118-10.56-22.002-22.676-22.754-14.104-.875-25.815 10.304-25.815 24.219 0 5.854 2.073 11.224 5.525 15.416 1.429 1.735 1.935 4.049 1.256 6.191l-6.615 20.889c-1.58 4.99 2.145 10.076 7.379 10.076h33.443c5.235.002 8.959-5.085 7.379-10.075z" fill="#f37c7c"/></g></svg>