<?xml version="1.0" encoding="UTF-8" standalone="no"?>
<svg
   xmlns:dc="http://purl.org/dc/elements/1.1/"
   xmlns:cc="http://creativecommons.org/ns#"
   xmlns:rdf="http://www.w3.org/1999/02/22-rdf-syntax-ns#"
   xmlns:svg="http://www.w3.org/2000/svg"
   xmlns="http://www.w3.org/2000/svg"
   xmlns:sodipodi="http://sodipodi.sourceforge.net/DTD/sodipodi-0.dtd"
   xmlns:inkscape="http://www.inkscape.org/namespaces/inkscape"
   width="275.09537mm"
   height="440.1962mm"
   viewBox="0 0 275.09537 440.19619"
   version="1.1"
   id="svg4457"
   inkscape:version="0.92.3 (2405546, 2018-03-11)"
   sodipodi:docname="cortex.svg"
   inkscape:export-filename="/nfs_home/marcino/Documents/MyScans/work/process_iq/marketing/cortex/cortex2-text.v5.png"
   inkscape:export-xdpi="96"
   inkscape:export-ydpi="96">
  <defs
     id="defs4451">
    <rect
       x="17.097517"
       y="268.73221"
       width="178.32799"
       height="69.789757"
       id="rect128" />
    <rect
       x="-384.95163"
       y="-18.063662"
       width="351.93759"
       height="106.91199"
       id="rect199" />
    <rect
       id="rect128-7"
       height="69.789757"
       width="178.32799"
       y="268.73221"
       x="17.097517" />
    <rect
       id="rect147"
       height="69.789757"
       width="178.32799"
       y="268.73221"
       x="17.097517" />
  </defs>
  <sodipodi:namedview
     fit-margin-bottom="0"
     fit-margin-right="0"
     fit-margin-left="0"
     fit-margin-top="0"
     inkscape:showpageshadow="true"
     id="base"
     pagecolor="#ffffff"
     bordercolor="#666666"
     borderopacity="1.0"
     inkscape:pageopacity="0.0"
     inkscape:pageshadow="2"
     inkscape:zoom="2.0710963"
     inkscape:cx="192.70672"
     inkscape:cy="725.66355"
     inkscape:document-units="mm"
     inkscape:current-layer="layer2"
     showgrid="false"
     inkscape:window-width="2560"
     inkscape:window-height="1412"
     inkscape:window-x="2560"
     inkscape:window-y="0"
     inkscape:window-maximized="1"
     inkscape:document-rotation="0"
     showborder="true"
     borderlayer="false">
    <inkscape:grid
       originy="70.875918"
       originx="33.849527"
       type="xygrid"
       id="grid1102" />
  </sodipodi:namedview>
  <metadata
     id="metadata4454">
    <rdf:RDF>
      <cc:Work
         rdf:about="">
        <dc:format>image/svg+xml</dc:format>
        <dc:type
           rdf:resource="http://purl.org/dc/dcmitype/StillImage" />
        <dc:title />
      </cc:Work>
    </rdf:RDF>
  </metadata>
  <g
     transform="translate(33.849521,124.35172)"
     inkscape:label="Layer 1"
     inkscape:groupmode="layer"
     id="layer1"
     style="display:inline" />
  <g
     transform="translate(33.849521,124.35172)"
     inkscape:groupmode="layer"
     id="layer2"
     inkscape:label="Layer 2"
     style="display:inline">
    <circle
       id="path191"
       style="fill:#ffffff;stroke:#000000;stroke-width:0.26458299"
       cx="196.9509"
       cy="-228.93524"
       r="0.070644349" />
    <text
       xml:space="preserve"
       id="text197"
       style="font-style:normal;font-weight:normal;font-size:10.58329964px;line-height:1.25;font-family:sans-serif;white-space:pre;shape-inside:url(#rect199);fill:#000000;fill-opacity:1;stroke:none"
       x="1.4453305"
       y="-104.78646" />
    <path
       style="stroke-width:0.0352778"
       inkscape:connector-curvature="0"
       d="m 80.224442,-76.544989 c -3.704167,0.352778 -7.62,1.446389 -10.653888,2.998611 -1.869722,0.987778 -3.386666,2.187222 -6.314723,5.150556 l -3.81,3.880556 -2.54,-0.846667 c -3.245556,-1.093611 -9.031113,-1.164167 -12.558889,-0.141111 -11.747501,3.316111 -21.76639,14.287501 -25.25889,27.622502 -2.046111,7.796387 -1.199445,19.22639 1.622778,22.40139 l 0.987778,1.09361 -0.881945,1.975557 c -2.963333,6.561666 -4.1275,11.923885 -4.1275,18.873615 -0.03528,7.19666 1.164166,12.10027 4.268611,17.81527 1.446389,2.64584 2.116667,3.4925 3.139723,3.88056 0.635,0.24694 0.776111,0.77611 1.164166,4.19806 0.917223,8.60777 3.98639,15.59277 9.172223,20.955 2.187221,2.29305 5.820833,5.04472 6.879167,5.22111 0.529167,0.10583 0.917222,0.88194 1.622778,3.31611 2.187221,7.69056 6.596944,13.61722 12.029721,16.29833 2.892779,1.41112 4.762501,1.83445 8.219724,1.86973 3.069166,0 6.067779,-0.67028 9.136945,-2.01084 l 2.081388,-0.91722 1.799167,0.91722 c 2.716386,1.34056 4.833056,1.76389 8.184447,1.5875 3.91583,-0.21166 7.26722,-1.79916 10.37167,-4.90361 4.162769,-4.19805 7.761107,-13.0175 8.713607,-21.20194 0.91722,-8.18445 1.62278,-95.708619 0.84666,-106.468342 -0.74083,-10.406945 -1.79916,-13.476112 -6.349997,-17.991668 -4.69194,-4.691945 -9.94833,-6.35 -17.744721,-5.573889 z m 8.64306,8.396111 c 2.504721,0.917223 4.339161,2.504723 5.468051,4.727223 0.77611,1.481667 0.9525,2.293056 0.9525,4.445 0,2.293056 -0.14111,2.963334 -1.12889,5.009445 -2.2225,4.515555 -7.51416,9.348612 -13.29972,12.100278 -4.7625,2.257777 -8.960554,2.892777 -11.712221,1.76389 -3.845279,-1.622779 -6.84389,1.09361 -5.432779,4.868333 0.211666,0.564444 1.093612,1.234721 2.398889,1.869721 1.905,0.9525 2.328334,1.023056 6.455834,1.023056 3.704166,0 4.797777,-0.14111 6.879167,-0.846666 2.82222,-0.9525 7.72583,-3.386667 10.05417,-4.93889 0.88194,-0.599721 1.69333,-1.09361 1.83444,-1.09361 0.14111,0 0.74084,1.058333 1.34056,2.328333 1.023049,2.116667 1.128889,2.575277 0.98778,5.22111 -0.14112,3.810003 -1.51695,6.738057 -4.691951,9.842503 -4.97417,4.90361 -11.57111,7.161387 -15.769166,5.3975 -1.905001,-0.81139 -3.245558,-0.705557 -4.480278,0.352777 -2.257779,1.905 -1.658056,4.7625 1.340554,6.314723 6.879166,3.457223 17.462501,0.3175 24.765,-7.373057 1.02306,-1.09361 1.97556,-1.975556 2.15195,-1.975556 0.352771,0 -0.0353,35.665835 -0.458609,40.075555 -0.59973,6.31473 -2.46945,11.07723 -5.679731,14.49917 -3.59833,3.81 -8.07861,4.79778 -12.41778,2.82222 -2.398884,-1.09361 -3.104441,-1.16416 -4.444997,-0.35278 -1.799167,1.05834 -2.36361,3.84528 -1.09361,5.46806 0.987777,1.23472 4.409727,2.68111 7.514167,3.13972 4.90361,0.74084 10.30111,-0.91722 14.14639,-4.26861 0.88194,-0.77611 1.69333,-1.41111 1.86972,-1.41111 0.3175,0 -0.10583,9.91306 -0.59972,13.22917 -0.42333,2.99861 -1.76389,7.23194 -3.31611,10.58333 -3.70417,7.86695 -10.05417,9.77195 -15.592781,4.62139 -3.81,-3.52778 -6.17361,-9.63083 -6.6675,-17.21556 -0.14111,-2.01083 -0.45861,-4.09222 -0.740833,-4.62138 -0.987777,-1.94028 -4.1275,-2.29306 -5.785556,-0.635 -0.987777,0.98777 -1.023054,1.16416 -1.023054,4.37444 0,5.75028 1.446387,11.81806 4.056943,17.03917 0.846667,1.69333 1.481667,3.21028 1.375834,3.35139 -0.3175,0.52916 -4.198057,1.09361 -6.138334,0.91722 -4.198056,-0.35278 -7.866946,-3.42195 -10.265833,-8.53722 -1.693333,-3.63361 -2.469446,-6.59695 -2.751667,-10.75973 -0.599723,-8.96055 1.305277,-15.94555 5.573888,-20.56694 4.409723,-4.7625 10.548056,-5.82084 19.050002,-3.28084 2.645833,0.81139 3.033887,0.84667 4.092221,0.42334 1.48167,-0.635 2.29306,-1.83445 2.29306,-3.42195 0,-2.57528 -1.69334,-3.66889 -7.937504,-5.08 l -3.527777,-0.81139 0.03528,-1.69333 c 0.14111,-4.16278 3.421944,-8.99583 7.44361,-10.93611 1.658061,-0.81139 2.610561,-1.02306 5.785561,-1.16417 3.38666,-0.17639 3.88055,-0.3175 4.69194,-1.05833 1.79917,-1.69334 1.51694,-4.40972 -0.56444,-5.67972 -0.91723,-0.56445 -1.79917,-0.70556 -4.30389,-0.70556 -5.820837,0 -10.054171,1.72861 -14.181671,5.82083 -3.704166,3.66889 -5.785556,7.79639 -6.314723,12.34723 -0.388054,3.66889 -0.28222,3.52777 -2.716387,4.19805 C 49.321111,24.10251 42.83,33.4864 41.524722,45.93946 c -0.176389,1.69333 -0.423334,3.21028 -0.529167,3.31611 -0.246944,0.28222 -1.799167,-1.23472 -3.175,-3.10444 C 35.386388,42.76446 33.904722,39.27196 32.846388,34.36835 31.999721,30.34668 32.317221,23.15001 33.551944,18.74029 35.66861,11.08501 39.760833,5.58168 45.228888,3.04168 c 1.552223,-0.70556 2.363613,-0.81139 6.35,-0.84667 5.785557,-0.0706 5.362223,0.0353 6.35,-1.05833 1.12889,-1.19944 1.164167,-3.21028 0.141113,-4.48028 -2.151946,-2.786942 -11.183056,-2.610552 -16.968613,0.3175 -6.138333,3.10445 -11.077222,9.2075 -13.687778,16.89806 -0.529167,1.51694 -1.128889,2.8575 -1.305278,2.89278 -0.529167,0.17639 -1.552222,-3.56306 -1.905,-7.16139 -1.516944,-14.816669 7.937501,-31.115002 19.438056,-33.513892 3.81,-0.77611 7.47889,0.105833 11.43,2.786944 1.94028,1.340556 3.704167,1.27 5.11528,-0.141111 0.881943,-0.846666 1.09361,-1.375833 1.09361,-2.54 0,-1.234723 -0.211667,-1.622776 -1.5875,-2.928056 -3.4925,-3.245556 -10.124723,-5.3975 -15.134167,-4.90361 -5.432778,0.529166 -10.653889,3.069166 -15.522223,7.62 -2.610559,2.434166 -2.681114,2.469443 -2.998614,1.658056 -0.599723,-1.622779 -0.811389,-6.138333 -0.423334,-9.454446 1.340556,-11.147777 8.854723,-21.590001 18.450279,-25.682223 1.975556,-0.846667 2.681112,-0.917222 6.455833,-0.9525 3.98639,0 4.339167,0.07055 6.173613,1.023055 1.199443,0.599723 3.13972,2.222501 5.009443,4.127501 3.316113,3.421944 4.092223,3.739444 6.279446,2.610555 1.305277,-0.670278 1.763888,-1.516944 1.763888,-3.316111 0,-1.164167 -0.282221,-1.763889 -1.763888,-3.527778 -0.9525,-1.164167 -1.763889,-2.293056 -1.763889,-2.504722 0,-0.705556 2.928056,-3.880556 5.009443,-5.468056 4.445,-3.351389 12.523614,-4.586112 17.638894,-2.645834 z"
       id="path4177" />
    <path
       style="stroke-width:0.0352778"
       inkscape:connector-curvature="0"
       d="m 125.13306,-76.3686 c -5.82083,0.9525 -11.25362,5.009444 -13.93473,10.336389 -1.51694,2.998611 -2.18722,6.314723 -2.64583,12.911668 -0.74084,11.218334 -0.0706,98.601393 0.84666,106.538893 0.635,5.46806 1.97556,10.05417 4.51556,15.27528 4.76251,9.73667 13.58195,13.54667 22.29556,9.59556 l 2.39889,-1.09362 1.65806,0.74084 c 6.20889,2.82222 12.87639,2.89278 17.92111,0.21166 2.18722,-1.16416 5.11528,-3.70416 6.77333,-5.89139 1.76389,-2.32833 3.95111,-6.77333 4.79778,-9.70138 0.9525,-3.35139 1.12889,-3.66889 2.36361,-4.16278 1.905,-0.81139 5.89139,-4.23334 8.00806,-6.87917 2.46944,-3.10444 4.62139,-7.12611 5.82083,-10.83028 0.88195,-2.75167 1.97556,-8.78417 1.97556,-11.00667 0,-0.81138 0.21166,-1.16416 0.70555,-1.34055 2.15195,-0.67028 5.67972,-7.83167 7.12611,-14.46389 0.67028,-3.24556 0.56445,-12.065 -0.21166,-15.69861 -0.74084,-3.386669 -2.36361,-8.184446 -3.59834,-10.618615 l -0.81139,-1.622777 0.81139,-0.77611 c 0.9525,-0.881946 1.69334,-3.069167 2.54,-7.16139 0.70556,-3.4925 0.52917,-10.795 -0.35277,-14.569723 -2.82223,-11.818056 -10.65389,-22.048612 -20.49639,-26.775835 -4.37445,-2.081389 -7.09084,-2.786944 -11.1125,-2.786944 -2.54,-0.03528 -4.05695,0.176389 -6.24417,0.811389 l -2.89278,0.846666 -3.28083,-3.386666 c -4.83306,-4.974167 -8.04334,-6.808612 -14.07584,-8.043334 -3.175,-0.670278 -8.43139,-0.881945 -10.90083,-0.458611 z m 6.70278,7.514167 c 3.4925,0.458611 5.64444,1.023055 7.79639,2.116666 1.72861,0.881945 6.52639,5.362223 6.87916,6.420556 0.14111,0.423334 -0.24694,1.164167 -1.19944,2.328334 -1.83445,2.187222 -2.18722,2.928056 -2.18722,4.480278 0,1.763889 1.55222,3.351388 3.31611,3.351388 1.79916,0 2.68111,-0.529166 4.23333,-2.539999 3.81,-4.868334 9.77195,-6.949723 15.62806,-5.432778 9.03111,2.293056 17.145,11.218333 20.21417,22.260279 1.19944,4.198054 1.12888,14.2875 -0.0706,14.2875 -0.17639,0 -1.34056,-0.987776 -2.50472,-2.151943 -6.59695,-6.52639 -14.605,-9.101669 -22.43667,-7.16139 -2.89278,0.705554 -6.80861,2.71639 -8.5725,4.409723 -1.12889,1.058334 -1.34056,1.481667 -1.34056,2.716387 0,1.023057 0.24695,1.728613 0.91723,2.504723 1.34055,1.622777 3.45722,1.552224 6.0325,-0.176389 3.06916,-2.046111 5.43277,-2.716387 8.81944,-2.54 2.54,0.141113 3.28084,0.352779 5.82084,1.5875 9.8425,4.903613 17.10972,20.037778 15.52222,32.384998 -0.49389,3.70417 -1.44639,7.3025 -1.905,7.16139 -0.21167,-0.0706 -0.70556,-1.27 -1.16417,-2.64583 -3.13972,-9.94834 -10.72444,-17.53306 -19.33222,-19.296945 -4.79778,-0.987777 -9.56028,-0.49389 -11.25361,1.234725 -1.30528,1.30527 -1.37584,3.35138 -0.14111,4.79778 l 0.84666,0.98777 h 4.90361 4.90361 l 2.64584,1.30528 c 4.69194,2.32833 8.36083,6.985 10.54805,13.40556 1.44639,4.30389 1.905,7.65527 1.65806,12.87639 -0.21167,5.25638 -0.98778,8.36083 -3.10444,12.66472 -1.34056,2.71639 -4.93889,7.26722 -5.3975,6.80861 -0.10584,-0.10583 -0.35278,-1.62278 -0.52917,-3.35139 -0.49389,-4.62139 -1.5875,-8.32556 -3.56306,-12.3825 -2.99861,-6.0325 -7.86694,-10.33639 -13.72305,-12.10028 l -1.97556,-0.56444 -0.24694,-2.50472 c -0.91723,-8.99584 -7.40834,-16.61584 -15.83973,-18.62667 -2.68111,-0.635 -6.70278,-0.67028 -8.43139,-0.0706 -1.76389,0.59972 -2.71639,2.61056 -2.15194,4.51556 0.635,2.04611 1.55222,2.50472 5.57389,2.57527 2.89278,0.0705 3.77472,0.21167 5.46805,0.98778 3.77473,1.72861 6.49112,5.00945 7.54945,9.10167 0.91722,3.45722 0.81139,3.66889 -1.69333,4.16278 -3.77473,0.77611 -7.19667,1.86972 -8.21973,2.68111 -1.44639,1.16417 -1.62277,3.56306 -0.38805,5.04472 1.37583,1.62278 2.50472,1.72861 5.92666,0.59972 2.57528,-0.88194 3.4925,-0.98777 7.51417,-0.98777 4.48028,-0.0353 4.65667,0 6.87917,1.09361 5.53861,2.71639 8.99583,8.85472 9.91305,17.67417 0.98778,9.48972 -2.43416,19.61444 -7.97277,23.56555 -2.08139,1.44639 -3.66889,2.01084 -5.96195,2.01084 -1.79917,0.0353 -5.04472,-0.67028 -5.32694,-1.16417 -0.10584,-0.17639 0.52916,-1.62278 1.37583,-3.21028 2.68111,-5.15055 4.09222,-11.00667 4.09222,-17.10972 0,-2.99861 -0.0705,-3.28084 -0.91722,-4.1275 -1.16417,-1.16417 -2.01083,-1.44639 -3.4925,-1.16417 -1.83444,0.35278 -2.99861,1.97556 -2.99861,4.23333 0,5.43278 -1.72861,12.31195 -4.02167,15.87501 -4.86833,7.62 -12.27667,8.32555 -16.75694,1.55222 -1.905,-2.82222 -4.16278,-8.81945 -4.79778,-12.66473 -0.28222,-1.76388 -0.59973,-5.67972 -0.74084,-8.71361 l -0.24694,-5.53861 1.19945,0.98778 c 4.1275,3.35139 7.37305,4.79778 11.32416,5.11528 5.15056,0.38805 10.65389,-1.65806 11.78278,-4.37445 0.42333,-1.02305 0.42333,-1.37583 0,-2.39889 -1.02305,-2.43416 -3.21028,-2.99861 -6.10305,-1.5875 -2.43417,1.19945 -6.31473,1.19945 -8.74889,-0.0353 -3.56306,-1.72862 -6.35,-5.46806 -8.07862,-10.75973 -0.77611,-2.32833 -0.98778,-3.88055 -1.27,-8.81945 -0.49389,-9.41916 -0.81139,-37.923608 -0.42333,-37.923608 0.17638,0 0.59972,0.388056 0.91722,0.881946 0.91723,1.375834 5.82084,5.3975 8.255,6.773334 6.985,3.915833 15.52223,4.233333 19.3675,0.705556 1.79917,-1.62278 1.19945,-4.691946 -1.12888,-5.785556 -1.16417,-0.564447 -1.34056,-0.564447 -3.70417,0.211666 -1.94028,0.635 -2.89278,0.77611 -4.30389,0.599721 -5.85611,-0.776111 -12.10028,-5.221111 -14.78139,-10.512777 -1.16417,-2.328334 -1.69333,-5.3975 -1.30528,-7.584723 0.3175,-2.010834 1.51695,-4.656667 2.18722,-4.903611 0.3175,-0.105833 1.30528,0.282221 2.2225,0.917221 2.08139,1.375833 7.40834,3.951113 9.84251,4.727223 5.82083,1.905 13.6525,1.023056 15.45166,-1.72861 1.97556,-3.03389 -0.67028,-6.561667 -4.16278,-5.503334 -3.52777,1.023054 -4.16277,1.128888 -6.31472,0.705554 -7.76111,-1.375833 -16.47472,-7.655277 -19.54389,-14.005277 -1.12889,-2.328334 -1.30528,-3.069167 -1.30528,-5.185834 -0.0353,-5.256389 3.59834,-9.207501 9.24278,-10.01889 1.09361,-0.176388 2.01084,-0.3175 2.01084,-0.352777 0,0 1.37583,0.141111 2.99861,0.3175 z"
       id="path4179" />
    <path
       style="stroke-width:0.0352778"
       inkscape:connector-curvature="0"
       d="m 69.147221,88.83724 c -1.552222,0.91722 -2.081389,2.89278 -1.234723,4.445 0.3175,0.635 2.36361,2.61056 4.480277,4.445 8.890007,7.65528 11.041948,11.57111 10.124727,18.52084 -0.45861,3.24555 0,4.69194 1.65805,5.53861 1.44639,0.77611 2.575281,0.70555 3.70417,-0.17639 1.34056,-1.05833 1.552221,-1.5875 1.975561,-5.04472 0.9525,-7.65528 -2.25778,-15.24 -8.890001,-21.06084 -8.113894,-7.12611 -8.466673,-7.37305 -9.877784,-7.37305 -0.458609,0 -1.305277,0.3175 -1.940277,0.70555 z"
       id="path4181" />
    <path
       style="stroke-width:0.0352778"
       inkscape:connector-curvature="0"
       d="m 140.3025,88.69613 c -1.62277,1.16417 -6.13833,5.15056 -8.92527,7.86695 -5.715,5.53861 -8.11389,10.75972 -8.07862,17.49777 0.0706,5.89139 1.16417,8.11389 4.1275,8.11389 1.65806,0 2.8575,-0.77611 3.38667,-2.25777 0.21167,-0.49389 0.17639,-1.905 0,-3.56306 -0.91722,-7.16139 1.34056,-11.25361 10.37167,-18.87361 4.16278,-3.52778 4.90361,-4.62139 4.55083,-6.52639 -0.45861,-2.25778 -3.59833,-3.52778 -5.43278,-2.25778 z"
       id="path4183" />
    <path
       style="stroke-width:0.0352778;fill:#ffff00;fill-opacity:1"
       inkscape:connector-curvature="0"
       d="m 95.711393,89.93085 c -0.670281,0.52917 -0.917231,1.02306 -0.917231,2.01084 0,1.05833 0.28223,1.51694 1.728621,2.89277 l 1.72861,1.62278 0.52916,4.02167 c 0.3175,2.2225 0.81139,7.62 1.12889,11.99444 0.599717,8.04334 0.881947,9.70139 1.693337,9.41917 0.635,-0.21167 0.42333,-8.07861 -0.45862,-16.47472 -0.38805,-3.77472 -0.81138,-7.3025 -0.91722,-7.79639 -0.17639,-0.84667 -0.0706,-0.9525 1.30528,-1.16417 0.81139,-0.14111 1.62278,-0.10583 1.86972,0.0706 0.88195,0.70555 1.62278,0.70555 2.46945,0.0353 l 0.88194,-0.70556 1.05833,0.74083 c 0.81139,0.635 1.16417,0.70556 1.72862,0.38806 0.42333,-0.21167 1.27,-0.24695 2.2225,-0.10583 1.76388,0.3175 1.72861,0.21166 0.81138,4.40972 -0.56444,2.68111 -1.55222,13.82889 -1.55222,17.81528 0,2.46944 0.0353,2.57527 0.81139,2.46944 0.70556,-0.10583 0.77611,-0.3175 0.88195,-2.39889 0.24694,-6.35 1.23472,-16.05139 1.94027,-19.08528 0.74084,-3.28083 0.84667,-3.45722 2.36362,-4.58611 2.29306,-1.76389 2.82222,-4.65667 1.05833,-5.60917 -1.48167,-0.77611 -2.43417,0.10584 -3.56306,3.35139 -0.49389,1.44639 -0.77611,1.79917 -1.51694,1.86973 -0.77611,0.10583 -1.02306,-0.10584 -1.48167,-1.16417 -0.59972,-1.44639 -1.65805,-1.5875 -1.83444,-0.28222 -0.0705,0.42333 -0.35278,0.9525 -0.59973,1.16416 -0.70555,0.59973 -1.09361,-0.38805 -0.56444,-1.37583 0.49389,-0.91722 0.49389,-2.25778 -0.0353,-2.78694 -0.56444,-0.56445 -2.46944,-0.52917 -3.24556,0.0353 -0.67027,0.49389 -0.67027,1.30528 -0.0353,3.31611 0.17639,0.59973 0.10584,0.81139 -0.28222,0.81139 -0.28222,0 -0.635,-0.38805 -0.74083,-0.88194 -0.35278,-1.41111 -1.19945,-1.48167 -2.36361,-0.21167 -1.30528,1.44639 -2.116668,1.09361 -2.716388,-1.27 -0.42334,-1.51694 -1.5875,-3.28083 -2.18723,-3.28083 -0.14111,0 -0.67027,0.3175 -1.19944,0.74083 z m 1.55222,2.43417 c 0,0.17639 -0.14111,0.35278 -0.35278,0.35278 -0.17639,0 -0.35278,-0.17639 -0.35278,-0.35278 0,-0.21167 0.17639,-0.35278 0.35278,-0.35278 0.21167,0 0.35278,0.14111 0.35278,0.35278 z m 20.108337,0.14111 c 0,0.28222 -0.24695,0.56444 -0.52917,0.70556 -0.45862,0.14111 -0.49389,0.0705 -0.17639,-0.49389 0.45861,-0.81139 0.70556,-0.91723 0.70556,-0.21167 z"
       id="path4185" />
    <path
       style="stroke-width:0.0352778"
       inkscape:connector-curvature="0"
       d="m 83.505282,124.22085 c -1.27,0.635 -1.76389,1.86973 -1.76389,4.40973 0,2.01083 0.10583,2.36361 1.02305,3.28083 l 1.02306,1.02306 h 22.613048 22.57779 l 0.98777,-0.84667 c 0.91723,-0.81139 0.98778,-1.02306 0.98778,-3.70417 0,-2.46944 -0.10583,-2.92805 -0.81139,-3.63361 l -0.81139,-0.81139 -22.47195,-0.0705 c -17.568328,-0.0706 -22.648328,0 -23.353878,0.35277 z"
       id="path4187" />
    <path
       style="stroke-width:0.0352778"
       inkscape:connector-curvature="0"
       d="m 83.011392,135.12169 c -0.77611,0.70555 -0.91723,1.12889 -0.9525,3.28083 -0.0706,1.34056 0.0353,2.82222 0.17639,3.28084 0.599721,1.83444 0.52916,1.83444 24.553328,1.83444 h 22.29556 l 1.02306,-1.02306 c 0.9525,-0.9525 1.02305,-1.23472 1.02305,-3.73944 0,-2.36361 -0.10583,-2.78694 -0.88194,-3.52778 l -0.84667,-0.88194 H 106.6475 83.893332 Z"
       id="path4189" />
    <path
       style="stroke-width:0.0352778"
       inkscape:connector-curvature="0"
       d="m 83.223052,145.17586 c -1.23472,0.49388 -1.94027,4.48027 -1.16416,6.56166 0.811391,2.15195 -0.70556,2.01084 24.553328,2.01084 h 23.07167 l 0.70556,-0.91723 c 1.05833,-1.34055 1.05833,-5.64444 0,-6.985 l -0.70556,-0.91722 -23.00111,0.0353 c -12.664727,0 -23.212777,0.10583 -23.459727,0.21167 z"
       id="path4191" />
    <path
       style="stroke-width:0.0352778"
       inkscape:connector-curvature="0"
       d="m 91.231112,156.07669 c -0.74083,0.81139 -0.84667,1.23472 -0.84667,3.70417 0,2.39889 0.10584,2.8575 0.81139,3.56305 l 0.81139,0.81139 h 14.604998 c 14.60501,0 14.60501,0 15.41639,-0.77611 0.56445,-0.59972 0.81139,-1.34056 0.91723,-2.89278 0.17639,-2.57528 -0.0353,-3.4925 -0.98778,-4.55083 l -0.74083,-0.77611 H 106.6475 92.077782 Z"
       id="path4199" />
    <path
       inkscape:connector-curvature="0"
       style="display:inline;fill:#ffff00;stroke-width:0.75595164"
       d="m 59.264532,71.39267 c -2.754873,-1.11762 -6.384303,-5.54663 -8.04972,-9.8231 -1.24831,-3.20541 -1.650691,-5.91817 -1.693683,-11.41838 -0.05193,-6.64352 0.134475,-7.60184 2.356678,-12.11577 4.173141,-8.47685 9.785363,-11.00269 19.407092,-8.73437 6.974867,1.64434 8.779478,1.02872 8.779478,-2.99494 0,-2.34948 -0.32391,-2.79315 -2.792116,-3.82443 -1.535663,-0.64164 -3.946511,-1.35396 -5.357444,-1.58292 -3.206273,-0.5203 -3.604162,-1.52165 -2.066732,-5.20124 2.337705,-5.59492 6.643867,-8.60303 12.315383,-8.60303 3.711241,0 5.64942,-1.42642 5.64942,-4.15774 0,-2.77666 -1.948482,-4.15774 -5.865908,-4.15774 -10.538116,0 -19.634781,7.87199 -21.178204,18.327 -0.498444,3.37641 -0.705575,3.63872 -3.54506,4.48945 -4.384458,1.31362 -10.254493,6.9333 -12.746701,12.20308 -1.154171,2.44049 -2.50421,6.84263 -3.00009,9.78253 l -0.901596,5.34527 -1.475817,-1.82813 C 36.740619,44.17619 34.026965,37.93802 33.186183,33.5046 32.187772,28.23999 33.347341,19.50498 35.733589,14.31503 39.557551,5.99814 44.418618,2.55878 52.349438,2.55878 c 5.446688,0 6.804321,-0.90669 6.413907,-4.2835 C 58.61077,-3.04438 57.813488,-4.20668 56.629853,-4.834977 53.990407,-6.236049 45.605971,-5.512088 41.360628,-3.51654 35.35365,-0.69293 29.453357,6.33532 27.174325,13.38175 c -0.513288,1.587 -1.050887,2.76783 -1.194666,2.62405 -0.143778,-0.14377 -0.625808,-2.54241 -1.071175,-5.3303 -2.037622,-12.75501 5.598795,-28.582687 15.935852,-33.029568 4.506441,-1.938618 8.601477,-1.697104 12.615613,0.74404 2.954547,1.796767 5.666476,1.909479 7.273645,0.302307 1.57004,-1.57004 1.498237,-2.749399 -0.307131,-5.044553 -4.309843,-5.479077 -15.679637,-7.163165 -23.542093,-3.487047 -2.336654,1.092512 -5.633865,3.238013 -7.327135,4.767781 l -3.078675,2.781398 -0.520173,-2.772765 c -1.302126,-6.940931 2.47497,-17.821693 8.520836,-24.546152 5.040923,-5.606719 10.083294,-8.29238 15.585744,-8.30126 5.143926,-0.0083 6.479111,0.586182 11.257203,5.012195 3.906283,3.618447 4.744106,3.863885 7.234717,2.119392 2.130793,-1.492464 2.143326,-4.078044 0.03278,-6.761173 -1.50436,-1.912482 -1.552126,-2.263865 -0.550371,-4.048617 3.209216,-5.717622 15.209478,-8.789318 21.600234,-5.528998 3.066534,1.564429 5.562013,5.257747 5.527294,8.180425 -0.05903,4.969822 -7.472804,13.294024 -14.846686,16.669898 -4.008746,1.835264 -7.149117,2.251892 -13.03063,1.72875 -1.813692,-0.161321 -2.869916,0.182274 -3.590774,1.168107 -1.461674,1.998961 -1.273939,3.191592 0.834258,5.299789 1.672495,1.672495 2.475479,1.855518 8.140761,1.855518 5.825633,0 6.725383,-0.221115 12.304315,-3.02381 3.310491,-1.663094 6.127898,-3.023809 6.260907,-3.023809 0.133009,0 0.704363,1.106985 1.269674,2.459964 1.085977,2.599116 0.664443,7.109777 -0.943742,10.098563 -1.319884,2.452984 -6.143831,6.39653 -9.806358,8.016643 -2.651458,1.172863 -4.219027,1.35931 -8.012765,0.953034 -5.381707,-0.576331 -6.81485,0.306075 -6.398234,3.939476 0.367427,3.204385 4.271727,4.955837 10.117262,4.538557 5.63813,-0.402474 10.888726,-2.65171 15.740835,-6.743015 L 96.89751,-18.112417 96.498765,2.61753 c -0.448366,23.30948 -1.036905,26.68139 -5.523905,31.64796 -3.210465,3.5536 -6.295721,4.92131 -9.577028,4.24556 -6.909625,-1.42298 -7.972152,-1.38715 -8.874709,0.2993 -1.4698,2.74635 -0.646917,4.82543 2.522402,6.37306 5.906183,2.88408 12.629748,2.33863 18.258652,-1.48125 l 2.863874,-1.94348 -0.442944,7.04737 C 95.00285,60.29738 91.170824,68.74954 85.634367,71.06283 78.90356,73.87513 72.074625,65.39209 70.658186,52.45912 c -0.295534,-2.69842 -0.893035,-5.3348 -1.327777,-5.85863 -1.002945,-1.20848 -4.554612,-1.23647 -5.745795,-0.0453 -2.092513,2.09252 -0.739008,13.88531 2.437535,21.23775 0.681524,1.57745 1.038146,3.1933 0.792496,3.59077 -0.536562,0.86817 -5.417923,0.87396 -7.550113,0.009 z"
       id="path35" />
    <path
       inkscape:connector-curvature="0"
       style="display:inline;fill:#ffff00;stroke-width:0.75595164"
       d="m 59.264532,71.39267 c -2.754873,-1.11762 -6.384303,-5.54663 -8.04972,-9.8231 -1.24831,-3.20541 -1.650691,-5.91817 -1.693683,-11.41838 -0.05193,-6.64352 0.134475,-7.60184 2.356678,-12.11577 4.173141,-8.47685 9.785363,-11.00269 19.407092,-8.73437 6.974867,1.64434 8.779478,1.02872 8.779478,-2.99494 0,-2.34948 -0.32391,-2.79315 -2.792116,-3.82443 -1.535663,-0.64164 -3.946511,-1.35396 -5.357444,-1.58292 -3.206273,-0.5203 -3.604162,-1.52165 -2.066732,-5.20124 2.337705,-5.59492 6.643867,-8.60303 12.315383,-8.60303 3.711241,0 5.64942,-1.42642 5.64942,-4.15774 0,-2.77666 -1.948482,-4.15774 -5.865908,-4.15774 -10.538116,0 -19.634781,7.87199 -21.178204,18.327 -0.498444,3.37641 -0.705575,3.63872 -3.54506,4.48945 -4.384458,1.31362 -10.254493,6.9333 -12.746701,12.20308 -1.154171,2.44049 -2.50421,6.84263 -3.00009,9.78253 l -0.901596,5.34527 -1.475817,-1.82813 C 36.740619,44.17619 34.026965,37.93802 33.186183,33.5046 32.187772,28.23999 33.347341,19.50498 35.733589,14.31503 39.557551,5.99814 44.418618,2.55878 52.349438,2.55878 c 5.446688,0 6.804321,-0.90669 6.413907,-4.2835 C 58.61077,-3.04438 57.813488,-4.20668 56.629853,-4.834977 53.990407,-6.236049 45.605971,-5.512088 41.360628,-3.51654 35.35365,-0.69293 29.453357,6.33532 27.174325,13.38175 c -0.513288,1.587 -1.050887,2.76783 -1.194666,2.62405 -0.143778,-0.14377 -0.625808,-2.54241 -1.071175,-5.3303 -2.037622,-12.75501 5.598795,-28.582687 15.935852,-33.029568 4.506441,-1.938618 8.601477,-1.697104 12.615613,0.74404 2.954547,1.796767 5.666476,1.909479 7.273645,0.302307 1.57004,-1.57004 1.498237,-2.749399 -0.307131,-5.044553 -4.309843,-5.479077 -15.679637,-7.163165 -23.542093,-3.487047 -2.336654,1.092512 -5.633865,3.238013 -7.327135,4.767781 l -3.078675,2.781398 -0.520173,-2.772765 c -1.302126,-6.940931 2.47497,-17.821693 8.520836,-24.546152 5.040923,-5.606719 10.083294,-8.29238 15.585744,-8.30126 5.143926,-0.0083 6.479111,0.586182 11.257203,5.012195 3.906283,3.618447 4.744106,3.863885 7.234717,2.119392 2.130793,-1.492464 2.143326,-4.078044 0.03278,-6.761173 -1.50436,-1.912482 -1.552126,-2.263865 -0.550371,-4.048617 3.209216,-5.717622 15.209478,-8.789318 21.600234,-5.528998 3.066534,1.564429 5.562013,5.257747 5.527294,8.180425 -0.05903,4.969822 -7.472804,13.294024 -14.846686,16.669898 -4.008746,1.835264 -7.149117,2.251892 -13.03063,1.72875 -1.813692,-0.161321 -2.869916,0.182274 -3.590774,1.168107 -1.461674,1.998961 -1.273939,3.191592 0.834258,5.299789 1.672495,1.672495 2.475479,1.855518 8.140761,1.855518 5.825633,0 6.725383,-0.221115 12.304315,-3.02381 3.310491,-1.663094 6.127898,-3.023809 6.260907,-3.023809 0.133009,0 0.704363,1.106985 1.269674,2.459964 1.085977,2.599116 0.664443,7.109777 -0.943742,10.098563 -1.319884,2.452984 -6.143831,6.39653 -9.806358,8.016643 -2.651458,1.172863 -4.219027,1.35931 -8.012765,0.953034 -5.381707,-0.576331 -6.81485,0.306075 -6.398234,3.939476 0.367427,3.204385 4.271727,4.955837 10.117262,4.538557 5.63813,-0.402474 10.888726,-2.65171 15.740835,-6.743015 L 96.89751,-18.112417 96.498765,2.61753 c -0.448366,23.30948 -1.036905,26.68139 -5.523905,31.64796 -3.210465,3.5536 -6.295721,4.92131 -9.577028,4.24556 -6.909625,-1.42298 -7.972152,-1.38715 -8.874709,0.2993 -1.4698,2.74635 -0.646917,4.82543 2.522402,6.37306 5.906183,2.88408 12.629748,2.33863 18.258652,-1.48125 l 2.863874,-1.94348 -0.442944,7.04737 C 95.00285,60.29738 91.170824,68.74954 85.634367,71.06283 78.90356,73.87513 72.074625,65.39209 70.658186,52.45912 c -0.295534,-2.69842 -0.893035,-5.3348 -1.327777,-5.85863 -1.002945,-1.20848 -4.554612,-1.23647 -5.745795,-0.0453 -2.092513,2.09252 -0.739008,13.88531 2.437535,21.23775 0.681524,1.57745 1.038146,3.1933 0.792496,3.59077 -0.536562,0.86817 -5.417923,0.87396 -7.550113,0.009 z"
       id="path37" />
    <path
       inkscape:connector-curvature="0"
       style="display:inline;fill:#ffff00;stroke-width:0.75595164"
       d="m 126.24158,70.78231 c -4.85943,-2.48785 -8.64313,-11.97687 -9.35262,-23.45519 l -0.34012,-5.50248 1.97949,1.30286 c 4.6183,3.03968 6.6095,3.65431 11.80688,3.64449 8.50393,-0.0161 13.46419,-4.24869 9.55745,-8.15543 -1.47268,-1.47268 -1.87901,-1.52827 -5.02375,-0.68717 -7.83467,2.09545 -11.46027,0.28157 -15.48961,-7.74939 l -2.64044,-5.2627 -0.2808,-21.52493 -0.2808,-21.524929 3.67719,3.268718 c 4.83124,4.294576 9.35124,6.240531 15.38227,6.622383 6.08845,0.38549 10.08703,-1.303398 10.44757,-4.412763 0.39707,-3.424473 -1.55737,-4.541504 -6.97499,-3.986453 -3.80769,0.390109 -5.37684,0.192442 -8.12599,-1.023636 -6.8156,-3.014864 -11.97595,-10.685947 -10.91056,-16.219006 0.89907,-4.669277 1.14551,-4.704808 8.42034,-1.214099 5.95939,2.859519 7.30847,3.21836 12.0995,3.21836 6.84168,0 9.4194,-1.427459 9.4194,-5.216152 0,-3.099543 -1.54217,-3.829153 -6.51687,-3.083152 -9.4843,1.422259 -23.88462,-8.731986 -24.97993,-17.614371 -1.3171,-10.680911 14.54986,-14.610215 24.30899,-6.019892 1.87443,1.649941 3.40805,3.342547 3.40805,3.761351 0,0.418801 -0.68035,1.626391 -1.5119,2.683533 -1.81525,2.307712 -1.94569,4.956165 -0.32398,6.577875 1.94533,1.945331 3.96299,1.38017 7.76326,-2.174541 4.21679,-3.944311 6.51198,-4.953008 11.27007,-4.953008 7.37443,0 15.9881,6.771568 20.64903,16.233068 2.29468,4.658111 2.6279,6.100887 2.8627,12.394671 l 0.26572,7.122911 -4.43228,-3.482194 c -5.48175,-4.30671 -9.83759,-5.930977 -15.89439,-5.926929 -7.31072,0.0049 -15.35656,4.214643 -15.35656,8.034888 0,3.700026 4.40528,4.559535 8.95556,1.747308 3.96002,-2.447433 9.35839,-2.279345 13.99115,0.435631 4.27762,2.506853 9.4982,9.264632 11.92124,15.431447 1.88703,4.802621 2.8174,16.532631 1.57241,19.824671 -0.67529,1.78562 -0.83924,1.61881 -2.97186,-3.02381 -4.22811,-9.2044 -11.55367,-15.19144 -19.99299,-16.33989 -7.52324,-1.02379 -12.52273,1.89101 -10.57514,6.1655 0.78632,1.7258 1.2395,1.85892 6.32823,1.85892 4.8816,0 5.85521,0.25519 8.89955,2.33263 7.41429,5.05948 10.93439,13.449 10.43992,24.88165 -0.25206,5.8281 -0.69367,7.9785 -2.34317,11.41028 -1.11792,2.32579 -2.70626,4.8384 -3.52964,5.58355 -1.70494,1.54295 -1.64065,1.6537 -2.87307,-4.94913 -1.69104,-9.05995 -7.74123,-17.28517 -14.65716,-19.92639 -3.39434,-1.29631 -3.49567,-1.43203 -4.69371,-6.28681 -2.24086,-9.0806 -8.60803,-15.15661 -17.23928,-16.45095 -7.1701,-1.07522 -11.40631,1.80765 -8.70788,5.92598 0.99162,1.5134 1.96998,1.88271 5.70297,2.15273 6.74506,0.48789 11.67875,4.79601 12.35283,10.78654 0.22615,2.00978 -0.009,2.18807 -4.54728,3.44493 -2.63217,0.729 -5.06023,1.62114 -5.39569,1.98254 -1.46565,1.579 -1.52286,3.90736 -0.13803,5.61756 1.36605,1.687 1.616,1.72711 5.36684,0.86131 5.34071,-1.23278 12.50942,-1.1438 15.08333,0.18723 11.17374,5.77815 12.96844,28.12099 3.08268,38.37729 -3.04962,3.16394 -3.87419,3.61668 -6.58696,3.61668 -5.2515,0 -5.69152,-0.42602 -3.95531,-3.82928 3.31702,-6.50189 5.02646,-19.54282 2.84736,-21.72192 -1.26207,-1.26207 -4.76655,-1.13463 -5.88585,0.21405 -0.51178,0.61666 -1.21706,3.67644 -1.56731,6.79952 -1.0214,9.10784 -4.40828,15.30204 -9.56928,17.50112 -3.06097,1.30426 -3.0901,1.30292 -6.19678,-0.28758 z"
       id="path80" />
    <path
       inkscape:connector-curvature="0"
       id="path1104-8"
       d="m -1.0300064,-11.486675 c -0.401233,1.197995 -1.420537,2.313504 -2.619204,2.86642 -1.421856,0.655866 -1.861064,0.67437 -13.5353126,0.570336 l -10.647754,-0.09489 -0.800504,-0.369755 c -1.016039,-0.469311 -1.855026,-1.233244 -2.368689,-2.156786 -0.381231,-0.685436 -0.402721,-0.786026 -0.402721,-1.885013 0,-1.041181 0.03498,-1.2304 0.33914,-1.834366 0.442921,-0.879509 1.315319,-1.717567 2.246972,-2.158526 l 0.747676,-0.353875 11.554199,-0.116776 c 8.2104986,-0.08297 11.6905736,-0.08069 12.0254456,0.0079 1.368527,0.362073 2.671619,1.419476 3.239322,2.628568 0.37472,0.798078 0.476849,2.134127 0.22143,2.896747 z"
       style="display:inline;fill:#ffff00;stroke:#000000;stroke-width:2;stroke-miterlimit:4;stroke-dasharray:none;stroke-opacity:1" />
    <path
       inkscape:connector-curvature="0"
       id="path1104-8-6"
       d="m 105.52369,-87.54997 c -1.19799,-0.401233 -2.3135,-1.420537 -2.86642,-2.619204 -0.65587,-1.421856 -0.67437,-1.861064 -0.57034,-13.535316 l 0.0949,-10.64775 0.36976,-0.8005 c 0.46931,-1.01604 1.23324,-1.85503 2.15679,-2.36869 0.68543,-0.38123 0.78602,-0.40272 1.88501,-0.40272 1.04118,0 1.2304,0.035 1.83436,0.33913 0.87951,0.44293 1.71757,1.31532 2.15853,2.24698 l 0.35388,0.74767 0.11677,11.5542 c 0.083,8.210501 0.0807,11.690576 -0.008,12.025448 -0.36207,1.368527 -1.41947,2.671619 -2.62857,3.239322 -0.79807,0.37472 -2.13412,0.476849 -2.89674,0.22143 z"
       style="display:inline;fill:#ffff00;stroke:#000000;stroke-width:2;stroke-miterlimit:4;stroke-dasharray:none;stroke-opacity:1" />
    <path
       inkscape:connector-curvature="0"
       id="path1104-8-5"
       d="m 241.51448,-11.587174 c -0.40124,1.197995 -1.42054,2.313504 -2.61921,2.86642 -1.42185,0.655866 -1.86106,0.67437 -13.53531,0.570336 l -10.64775,-0.09489 -0.80051,-0.369755 c -1.01604,-0.469311 -1.85502,-1.233244 -2.36869,-2.156786 -0.38123,-0.685436 -0.40272,-0.786026 -0.40272,-1.885013 0,-1.041181 0.035,-1.2304 0.33914,-1.834366 0.44292,-0.879509 1.31532,-1.717567 2.24697,-2.158526 l 0.74768,-0.353875 11.5542,-0.116776 c 8.2105,-0.08297 11.69057,-0.08069 12.02544,0.0079 1.36853,0.362073 2.67162,1.419476 3.23933,2.628568 0.37472,0.798078 0.47684,2.134127 0.22143,2.896747 z"
       style="display:inline;fill:#ffff00;stroke:#000000;stroke-width:2;stroke-miterlimit:4;stroke-dasharray:none;stroke-opacity:1" />
    <path
       inkscape:connector-curvature="0"
       id="path1104-8-62"
       d="m 219.31732,-96.487139 c 0.56681,1.129114 0.63941,2.638442 0.18655,3.878375 -0.53719,1.470804 -0.83369,1.795355 -9.13738,10.001911 l -7.57357,7.484966 -0.82657,0.30709 c -1.04913,0.389773 -2.1824,0.446276 -3.19953,0.159527 -0.75489,-0.212822 -0.84139,-0.268492 -1.62084,-1.043237 -0.73845,-0.733993 -0.84799,-0.892195 -1.06193,-1.533692 -0.31154,-0.93416 -0.29092,-2.143703 0.0531,-3.115332 l 0.2761,-0.779754 8.06245,-8.277075 c 5.72925,-5.881741 8.18419,-8.348358 8.4831,-8.523412 1.22156,-0.715372 2.89014,-0.894153 4.14789,-0.444429 0.8302,0.296847 1.84978,1.166277 2.21061,1.88505 z"
       style="display:inline;fill:#ffff00;stroke:#000000;stroke-width:2;stroke-miterlimit:4;stroke-dasharray:none;stroke-opacity:1" />
    <path
       inkscape:connector-curvature="0"
       id="path1104-8-62-1"
       d="m -3.7806971,-95.54028 c -0.5668171,1.129114 -0.6394146,2.638442 -0.1865518,3.878375 0.5371859,1.470805 0.8336872,1.795355 9.1373815,10.001912 l 7.5735674,7.484966 0.826573,0.30709 c 1.049125,0.389773 2.182394,0.446276 3.199525,0.159527 0.754896,-0.212821 0.841388,-0.268492 1.620838,-1.043237 0.738452,-0.733993 0.847995,-0.892195 1.061934,-1.533692 0.311545,-0.93416 0.290924,-2.143703 -0.05311,-3.115332 l -0.276098,-0.779754 -8.062455,-8.277075 c -5.7292489,-5.881742 -8.1841887,-8.348358 -8.4830929,-8.523412 -1.2215586,-0.715372 -2.8901469,-0.894154 -4.1478981,-0.444429 -0.8301961,0.296847 -1.8497786,1.166277 -2.2106018,1.88505 z"
       style="display:inline;fill:#ffff00;stroke:#000000;stroke-width:2;stroke-miterlimit:4;stroke-dasharray:none;stroke-opacity:1" />
    <path
       inkscape:connector-curvature="0"
       id="path1104-8-3"
       d="m 128.8725,134.34558 c -0.60571,1.198 -2.14449,2.31351 -3.95405,2.86642 -2.1465,0.65587 -2.80953,0.67437 -20.43347,0.57034 l -16.074296,-0.0949 -1.208473,-0.36976 c -1.533855,-0.46931 -2.800425,-1.23324 -3.575872,-2.15678 -0.575523,-0.68544 -0.607965,-0.78603 -0.607965,-1.88502 0,-1.04118 0.05281,-1.2304 0.51198,-1.83436 0.668653,-0.87951 1.98566,-1.71757 3.392122,-2.15853 l 1.128724,-0.35387 17.4427,-0.11678 c 12.3949,-0.083 17.64857,-0.0807 18.15411,0.008 2.06599,0.36207 4.03319,1.41948 4.89022,2.62857 0.56568,0.79808 0.71987,2.13413 0.33427,2.89675 z"
       style="display:inline;fill:#ffff00;stroke:#000000;stroke-width:2.4573493;stroke-miterlimit:4;stroke-dasharray:none;stroke-opacity:1" />
    <path
       inkscape:connector-curvature="0"
       id="path1104-8-3-6"
       d="m 129.15472,144.92891 c -0.60571,1.198 -2.14449,2.31351 -3.95405,2.86642 -2.1465,0.65587 -2.80953,0.67437 -20.43347,0.57034 l -16.0743,-0.0949 -1.208473,-0.36976 c -1.533855,-0.46931 -2.800425,-1.23324 -3.575872,-2.15678 -0.575523,-0.68544 -0.607965,-0.78603 -0.607965,-1.88502 0,-1.04118 0.05281,-1.2304 0.51198,-1.83436 0.668653,-0.87951 1.98566,-1.71757 3.392122,-2.15853 l 1.128724,-0.35387 17.442704,-0.11678 c 12.3949,-0.083 17.64857,-0.0807 18.15411,0.008 2.06599,0.36207 4.03319,1.41948 4.89022,2.62857 0.56568,0.79808 0.71987,2.13413 0.33427,2.89675 z"
       style="display:inline;fill:#ffff00;stroke:#000000;stroke-width:2.4573493;stroke-miterlimit:4;stroke-dasharray:none;stroke-opacity:1" />
    <path
       inkscape:connector-curvature="0"
       id="path1104-8-3-6-7"
       d="m 122.6477,155.53226 c -0.42799,1.198 -1.51529,2.31351 -2.79393,2.86642 -1.51671,0.65587 -1.98521,0.67437 -14.43827,0.57034 l -11.358083,-0.0949 -0.853906,-0.36976 c -1.08382,-0.46931 -1.978777,-1.23324 -2.526708,-2.15678 -0.406664,-0.68544 -0.429587,-0.78603 -0.429587,-1.88502 0,-1.04118 0.03732,-1.2304 0.361765,-1.83436 0.472469,-0.87951 1.403065,-1.71757 2.39687,-2.15853 l 0.797555,-0.35387 12.324994,-0.11678 c 8.75823,-0.083 12.47047,-0.0807 12.82768,0.008 1.45983,0.36207 2.84985,1.41948 3.45543,2.62857 0.3997,0.79808 0.50865,2.13413 0.23619,2.89675 z"
       style="display:inline;fill:#ffff00;stroke:#000000;stroke-width:2.06563425;stroke-miterlimit:4;stroke-dasharray:none;stroke-opacity:1" />
  </g>
</svg>
