<svg height="504pt" viewBox="0 -56 504 504" width="504pt" xmlns="http://www.w3.org/2000/svg"><path d="m482.300781 322.992188h-460.601562c-9.773438 0-17.699219-7.925782-17.699219-17.699219v-283.59375c0-9.773438 7.925781-17.699219 17.699219-17.699219h460.601562c9.773438 0 17.699219 7.925781 17.699219 17.699219v283.59375c0 9.773437-7.925781 17.699219-17.699219 17.699219zm0 0" fill="#f4efed"/><path d="m482.300781 4h-20c9.773438 0 17.699219 7.925781 17.699219 17.699219v283.59375c0 9.773437-7.925781 17.699219-17.699219 17.699219h20c9.773438 0 17.699219-7.925782 17.699219-17.699219v-283.59375c0-9.773438-7.925781-17.699219-17.699219-17.699219zm0 0" fill="#d6d1cf"/><path d="m21.699219 322.992188h20c-9.773438 0-17.699219-7.925782-17.699219-17.699219v-283.59375c0-9.773438 7.925781-17.699219 17.699219-17.699219h-20c-9.773438 0-17.699219 7.925781-17.699219 17.699219v283.59375c0 9.773437 7.925781 17.699219 17.699219 17.699219zm0 0" fill="#fff"/><path d="m413.800781 388.710938h-323.601562v-23.707032c0-9.777344 7.921875-17.699218 17.699219-17.699218h288.203124c9.777344 0 17.699219 7.921874 17.699219 17.699218zm0 0" fill="#7bac51"/><path d="m396.101562 347.304688h-20c9.777344 0 17.699219 7.921874 17.699219 17.699218v23.710938h20v-23.710938c0-9.777344-7.921875-17.699218-17.699219-17.699218zm0 0" fill="#5d8e33"/><path d="m107.898438 347.304688h20c-9.777344 0-17.699219 7.921874-17.699219 17.699218v23.710938h-20v-23.710938c0-9.777344 7.921875-17.699218 17.699219-17.699218zm0 0" fill="#99ca6f"/><path d="m157.007812 322.992188h189.984376v24.3125h-189.984376zm0 0" fill="#5d8e33"/><path d="m20 78.40625c-2.207031 0-4-1.789062-4-4v-24c0-2.207031 1.792969-4 4-4s4 1.792969 4 4v24c0 2.210938-1.792969 4-4 4zm0 0" fill="#690589"/><path d="m413.800781 392.710938h-323.601562c-2.210938 0-4-1.789063-4-4v-23.707032c0-11.964844 9.734375-21.699218 21.699219-21.699218h288.203124c11.964844 0 21.699219 9.734374 21.699219 21.699218v23.707032c0 2.210937-1.789062 4-4 4zm-319.601562-8h315.601562v-19.707032c0-7.554687-6.144531-13.699218-13.699219-13.699218h-288.203124c-7.554688 0-13.699219 6.144531-13.699219 13.699218zm0 0" fill="#690589"/><path d="m346.992188 351.304688h-189.984376c-2.210937 0-4-1.792969-4-4v-24.3125c0-2.207032 1.789063-4 4-4h189.984376c2.207031 0 4 1.792968 4 4v24.3125c0 2.207031-1.789063 4-4 4zm-185.984376-8h181.984376v-16.3125h-181.984376zm0 0" fill="#690589"/><path d="m482.300781 326.992188h-460.601562c-11.964844 0-21.699219-9.734376-21.699219-21.699219v-283.59375c0-11.964844 9.734375-21.699219 21.699219-21.699219h460.601562c11.964844 0 21.699219 9.734375 21.699219 21.699219v283.59375c0 11.964843-9.734375 21.699219-21.699219 21.699219zm-460.601562-318.992188c-7.554688 0-13.699219 6.144531-13.699219 13.699219v283.59375c0 7.554687 6.144531 13.699219 13.699219 13.699219h460.601562c7.554688 0 13.699219-6.144532 13.699219-13.699219v-283.59375c0-7.554688-6.144531-13.699219-13.699219-13.699219zm0 0" fill="#690589"/><path d="m51.933594 175.996094h143.605468v24.910156h-143.605468zm0 0" fill="#7bac51"/><path d="m51.933594 217.5625h143.605468v24.910156h-143.605468zm0 0" fill="#7bac51"/><path d="m51.933594 259.128906h143.605468v24.910156h-143.605468zm0 0" fill="#7bac51"/><path d="m246.191406 84.925781h56.0625v110.363281h-56.0625zm0 0" fill="#ff4397"/><path d="m396.003906 41.117188h56.0625v154.171874h-56.0625zm0 0" fill="#7bac51"/><path d="m321.097656 63.023438h56.0625v132.265624h-56.0625zm0 0" fill="#fcc24c"/><path d="m302.253906 199.289062h-56.066406c-2.207031 0-4-1.792968-4-4v-110.363281c0-2.207031 1.792969-4 4-4h56.066406c2.207032 0 4 1.792969 4 4v110.363281c0 2.207032-1.792968 4-4 4zm-52.0625-8h48.0625v-102.363281h-48.0625zm0 0" fill="#690589"/><path d="m377.160156 199.289062h-56.0625c-2.210937 0-4-1.792968-4-4v-132.265624c0-2.210938 1.789063-4 4-4h56.0625c2.207032 0 4 1.789062 4 4v132.265624c0 2.207032-1.789062 4-4 4zm-52.0625-8h48.0625v-124.265624h-48.0625zm0 0" fill="#690589"/><path d="m452.066406 199.289062h-56.0625c-2.207031 0-4-1.792968-4-4v-154.171874c0-2.210938 1.792969-4 4-4h56.0625c2.210938 0 4 1.789062 4 4v154.171874c0 2.207032-1.789062 4-4 4zm-52.0625-8h48.0625v-146.171874h-48.0625zm0 0" fill="#690589"/><path d="m123.734375 155.988281h-63.347656c-6.5 0-10.558594-7.03125-7.3125-12.660156l31.679687-54.863281 31.675782-54.863282c3.246093-5.628906 11.371093-5.628906 14.617187 0l63.351563 109.726563c3.25 5.628906-.808594 12.660156-7.308594 12.660156zm0 0" fill="#fcc24c"/><g fill="#690589"><path d="m187.089844 159.988281h-126.703125c-4.5 0-8.527344-2.324219-10.773438-6.21875-2.25-3.894531-2.25-8.546875 0-12.441406l63.347657-109.722656c2.25-3.898438 6.277343-6.222657 10.773437-6.222657 4.5 0 8.527344 2.328126 10.777344 6.222657l63.347656 109.722656c2.25 3.894531 2.25 8.546875 0 12.441406-2.246094 3.894531-6.273437 6.21875-10.769531 6.21875zm-63.355469-126.605469c-.769531 0-2.6875.214844-3.84375 2.21875l-63.351563 109.726563c-1.15625 2.003906-.382812 3.773437 0 4.441406.386719.667969 1.53125 2.21875 3.847657 2.21875h126.703125c2.3125 0 3.457031-1.550781 3.84375-2.21875.382812-.667969 1.160156-2.4375 0-4.441406l-63.347656-109.726563c-1.160157-2.003906-3.078126-2.21875-3.851563-2.21875zm0 0"/><path d="m118.070312 112.660156v-42.015625c0-3.117187 2.597657-5.714843 5.71875-5.714843 3.121094 0 5.617188 2.597656 5.617188 5.714843v42.015625c0 3.222656-2.496094 5.71875-5.617188 5.71875-3.121093 0-5.71875-2.496094-5.71875-5.71875zm5.71875 25.0625c-3.117187 0-5.71875-2.492187-5.71875-5.714844v-2.082031c0-3.121093 2.597657-5.722656 5.71875-5.722656 3.121094 0 5.617188 2.601563 5.617188 5.722656v2.082031c-.003906 3.21875-2.5 5.714844-5.617188 5.714844zm0 0"/><path d="m452.066406 228.664062h-205.875c-2.210937 0-4-1.792968-4-4 0-2.207031 1.789063-4 4-4h205.875c2.210938 0 4 1.792969 4 4 0 2.207032-1.789062 4-4 4zm0 0"/><path d="m452.066406 258.351562h-205.875c-2.210937 0-4-1.792968-4-4 0-2.210937 1.789063-4 4-4h205.875c2.210938 0 4 1.789063 4 4 0 2.207032-1.789062 4-4 4zm0 0"/><path d="m349.128906 288.035156h-102.9375c-2.210937 0-4-1.792968-4-4 0-2.207031 1.789063-4 4-4h102.9375c2.207032 0 4 1.792969 4 4 0 2.207032-1.792968 4-4 4zm0 0"/><path d="m195.542969 204.90625h-143.609375c-2.210938 0-4-1.792969-4-4v-24.910156c0-2.207032 1.789062-4 4-4h143.605468c2.207032 0 4 1.792968 4 4v24.910156c.003907 2.207031-1.789062 4-3.996093 4zm-139.609375-8h135.605468v-16.910156h-135.605468zm0 0"/><path d="m195.542969 246.472656h-143.609375c-2.210938 0-4-1.792968-4-4v-24.910156c0-2.207031 1.789062-4 4-4h143.605468c2.207032 0 4 1.792969 4 4v24.910156c.003907 2.207032-1.789062 4-3.996093 4zm-139.609375-8h135.605468v-16.910156h-135.605468zm0 0"/><path d="m195.542969 288.035156h-143.609375c-2.210938 0-4-1.792968-4-4v-24.910156c0-2.207031 1.789062-4 4-4h143.605468c2.207032 0 4 1.792969 4 4v24.910156c.003907 2.210938-1.789062 4-3.996093 4zm-139.609375-8h135.605468v-16.910156h-135.605468zm0 0"/></g></svg>