<svg id="Layer_1" enable-background="new 0 0 512 512" height="512" viewBox="0 0 512 512" width="512" xmlns="http://www.w3.org/2000/svg"><g><g><g><g id="XMLID_525_"><g id="XMLID_526_"><g id="XMLID_527_"><g id="XMLID_528_"><g id="XMLID_530_"><g id="XMLID_532_"><g id="XMLID_533_"><g id="XMLID_534_"><g id="XMLID_535_"><g id="XMLID_536_"><g id="XMLID_537_"><g id="XMLID_538_"><g id="XMLID_539_"><g id="XMLID_540_"><g id="XMLID_541_"><circle cx="256" cy="256" fill="#f9710d" r="256"/></g></g></g></g></g></g></g></g></g></g></g></g></g></g></g></g></g><path d="m512 256c0-5.313-.181-10.582-.501-15.815l-58.283-58.283c-10.281-11.395-28.746-15.665-28.746-15.665l-59.762-59.589s-70.372-7.951-81.324-2.611l-27.801-27.63-187.977 231.268 73.453 73.553-2.646 47.022 81.666 81.229c11.739 1.649 23.728 2.521 35.921 2.521 141.385 0 256-114.615 256-256z" fill="#e54c00"/><g><path d="m385.911 151.96c-.208 0-.414.006-.621.008-4.938-41.058-39.871-72.889-82.26-72.889-13.879 0-26.95 3.429-38.443 9.459-14.545-23.884-40.828-39.834-70.837-39.834-45.774 0-82.881 37.107-82.881 82.881 0 2.648.137 5.264.38 7.849-43.432 10.13-75.786 49.088-75.786 95.605 0 54.218 43.953 98.171 98.171 98.171h252.275c50.051 0 90.625-40.574 90.625-90.625s-40.572-90.625-90.623-90.625z" fill="#f4f2ef"/><path d="m476.534 242.58c0 50.05-40.576 90.626-90.626 90.626h-129.908v-256.322c3.199 3.616 6.06 7.514 8.584 11.648 11.49-6.027 24.569-9.451 38.447-9.451 42.39 0 77.323 31.823 82.257 72.884h.62c50.049 0 90.626 40.565 90.626 90.615z" fill="#e5e1dc"/><g><path d="m132.418 209.538h247.163v205.754h-247.163z" fill="#96928f"/><path d="m255.999 209.539h123.582v205.755h-123.582z" fill="#726e6b"/><ellipse cx="256" cy="209.538" fill="#96928f" rx="123.581" ry="36.217"/><g><g><g><path d="m379.582 209.539c0 19.998-55.333 36.217-123.582 36.217v-72.435c68.249.001 123.582 16.211 123.582 36.218z" fill="#726e6b"/></g></g></g><g><g><g><path d="m256 245.755c-68.252 0-123.581-16.215-123.581-36.217v47.612c0 20.002 55.329 36.217 123.581 36.217s123.581-16.215 123.581-36.217v-47.612c0 20.002-55.329 36.217-123.581 36.217z" fill="#d8d5d2"/></g></g></g><g><g><g><path d="m256 325.718c-68.252 0-123.581-16.215-123.581-36.217v47.612c0 20.002 55.329 36.217 123.581 36.217s123.581-16.215 123.581-36.217v-47.612c0 20.002-55.329 36.217-123.581 36.217z" fill="#d8d5d2"/></g></g></g><g><g><g><path d="m379.58 289.496v47.62c0 20-55.33 36.21-123.58 36.21v-47.61c68.25 0 123.58-16.21 123.58-36.22z" fill="#b7b4b2"/></g></g></g><g><g><g><path d="m256 405.681c-68.252 0-123.581-16.215-123.581-36.217v47.612c0 20.002 55.329 36.217 123.581 36.217s123.581-16.215 123.581-36.217v-47.612c0 20.002-55.329 36.217-123.581 36.217z" fill="#d8d5d2"/></g></g></g><g><g><g><path d="m379.58 369.466v47.61c0 20-55.33 36.22-123.58 36.22v-47.62c68.25 0 123.58-16.21 123.58-36.21z" fill="#b7b4b2"/></g></g></g></g><g><g><g><path d="m379.58 209.536v47.61c0 20.01-55.33 36.22-123.58 36.22v-47.61c68.25 0 123.58-16.22 123.58-36.22z" fill="#b7b4b2"/></g></g></g></g></g></svg>