<svg id="Layer_1" enable-background="new 0 0 512 512" height="512" viewBox="0 0 512 512" width="512" xmlns="http://www.w3.org/2000/svg"><g><g><g><g><path d="m316 7.5h158.5c16.569 0 30 13.431 30 30v107c0 16.569-13.431 30-30 30h-50.371c-1.857 0-3.637.738-4.95 2.05l-28.955 28.955c-2.52 2.52-6.828.735-6.828-2.828v-21.177c0-3.866-3.134-7-7-7h-60.396c-16.569 0-30-13.431-30-30v-107c0-16.569 13.431-30 30-30z" fill="#f7e07f"/></g><g><path d="m474.5 7.5h-30c16.569 0 30 13.431 30 30v107c0 16.569-13.431 30-30 30h30c16.569 0 30-13.431 30-30v-107c0-16.569-13.431-30-30-30z" fill="#f0d16f"/></g></g><g><g><path d="m196 7.5h-158.5c-16.569 0-30 13.431-30 30v107c0 16.569 13.431 30 30 30h50.371c1.857 0 3.637.738 4.95 2.05l28.955 28.955c2.52 2.52 6.828.735 6.828-2.828v-21.177c0-3.866 3.134-7 7-7h60.396c16.569 0 30-13.431 30-30v-107c0-16.569-13.431-30-30-30z" fill="#bfe69f"/></g><g><path d="m196 7.5h-30c16.569 0 30 13.431 30 30v107c0 16.569-13.431 30-30 30h30c16.569 0 30-13.431 30-30v-107c0-16.569-13.431-30-30-30z" fill="#a4d9a6"/></g></g><g><g><g><path d="m492.632 502v-50.297c0-17.396-10.644-33.02-26.833-39.387l-20.627-8.112c-8.156-3.207-13.518-11.078-13.518-19.842v-16.859h-51.306v16.859c0 8.764-5.362 16.635-13.518 19.842l-20.627 8.112c-16.189 6.367-26.833 21.991-26.833 39.387v50.297c0 5.523 4.477 10 10 10h153.264c5.521 0 9.998-4.477 9.998-10z" fill="#bfe69f"/><g><path d="m465.799 412.316-20.627-8.112c-8.156-3.207-13.518-11.078-13.518-19.842v-16.859h-30v31.859c0 8.764 5.363 16.635 13.518 19.842l20.627 8.112c16.189 6.367 26.833 21.991 26.833 39.387v45.297h20c5.523 0 10-4.477 10-10v-50.297c0-17.396-10.644-33.02-26.833-39.387z" fill="#a4d9a6"/></g><path d="m406 420c14.632 0 27.701-6.688 36.321-17.172-6.531-3.765-25.668-10.771-25.668-18.466v-16.859h-36.306v16.859c0 7.696-4.137 14.701-10.668 18.466 8.62 10.485 21.689 17.172 36.321 17.172z" fill="#f2ccbc"/><path d="m414.988 419.124c10.936-2.12 20.525-8.015 27.333-16.295-6.044-3.515-10.692-10.226-10.668-18.466v-16.859h-30v31.859c0 8.695 5.285 16.507 13.335 19.761z" fill="#ecad9a"/><g><path d="m406.398 375.726c-1.466 0-3.314 3.731-4.745 3.599-23.778-2.193-42.398-22.195-42.398-46.545v-57.011c0-13.507 10.949-24.456 24.456-24.456h44.577c13.507 0 24.456 10.949 24.456 24.456v57.011c0 16.344-8.388 30.728-21.093 39.084-7.363 4.842-25.253 3.862-25.253 3.862z" fill="#f2ccbc"/><path d="m428.289 251.312h-30c13.507 0 24.456 10.949 24.456 24.456v57.011c.209 2.477 1.128 16.2-8.951 27.504-12.893 14.46-32.041 11.797-33.443 11.577 3.778 2.438 10.309 5.946 19.084 7.201 0 0 3.363.463 6.566.463 25.816 0 46.745-20.928 46.745-46.745v-57.011c-.001-13.507-10.951-24.456-24.457-24.456z" fill="#ecad9a"/><path d="m452.745 275.768c0-13.507-10.949-24.456-24.456-24.456h-44.577c-13.507 0-24.456 10.949-24.456 24.456v36.732c8.619 1.31 24.349 2.438 42.063-3.896 7.52-2.69 13.692-6.114 18.517-9.346 1.349-.904 3.173-.559 4.101.774 2.011 2.891 5.642 7.021 11.495 9.847 7.691 3.714 14.726 3.009 17.314 2.621v-36.732z" fill="#cf9772"/><path d="m428.289 251.312h-30c13.507 0 24.456 10.949 24.456 24.456v23.275c.462.215.879.54 1.191.988 2.011 2.891 5.642 7.021 11.495 9.847 7.691 3.714 14.726 3.009 17.314 2.621v-36.731c0-13.507-10.95-24.456-24.456-24.456z" fill="#c88556"/></g></g></g></g><g><circle cx="256" cy="313.66" fill="#dd8793" r="61.72"/><path d="m256 251.94c-5.175 0-10.197.646-15 1.845 26.836 6.702 46.72 30.962 46.72 59.875s-19.883 53.173-46.72 59.875c4.803 1.2 9.825 1.845 15 1.845 34.087 0 61.72-27.633 61.72-61.72s-27.633-61.72-61.72-61.72z" fill="#d5707e"/></g><g><g><g><path d="m195.764 502v-50.297c0-17.396-10.644-33.02-26.833-39.387l-20.627-8.112c-8.156-3.207-13.518-11.078-13.518-19.842v-16.859h-51.307v16.859c0 8.764-5.362 16.635-13.518 19.842l-20.627 8.112c-16.19 6.367-26.834 21.991-26.834 39.387v50.297c0 5.523 4.477 10 10 10h153.264c5.523 0 10-4.477 10-10z" fill="#bcd7fd"/><g><path d="m168.93 412.316-20.627-8.112c-8.156-3.207-13.518-11.078-13.518-19.842v-16.859h-30v31.859c0 8.764 5.363 16.635 13.518 19.842l20.627 8.112c16.189 6.367 26.833 21.991 26.833 39.387v45.297h20c5.523 0 10-4.477 10-10v-50.297c.001-17.396-10.644-33.02-26.833-39.387z" fill="#9bc6fd"/></g><path d="m109.132 420c14.632 0 27.701-6.688 36.321-17.172-6.531-3.765-25.668-10.771-25.668-18.466v-16.859h-36.306v16.859c0 7.696-4.137 14.701-10.668 18.466 8.62 10.485 21.689 17.172 36.321 17.172z" fill="#f2ccbc"/><path d="m118.12 419.124c10.936-2.12 20.525-8.015 27.333-16.295-6.044-3.515-10.692-10.226-10.668-18.466v-16.859h-30v31.859c0 8.695 5.284 16.507 13.335 19.761z" fill="#ecad9a"/><g><path d="m109.53 375.726c-1.466 0-3.314 3.731-4.745 3.599-23.778-2.193-42.398-22.195-42.398-46.545v-57.011c0-13.507 10.949-24.456 24.456-24.456h44.577c13.507 0 24.456 10.949 24.456 24.456v57.011c0 16.344-8.388 30.728-21.093 39.084-7.363 4.842-25.253 3.862-25.253 3.862z" fill="#f2ccbc"/><path d="m131.42 251.312h-30c13.507 0 24.456 10.949 24.456 24.456v57.011c.209 2.477 1.128 16.2-8.951 27.504-12.893 14.46-32.041 11.797-33.443 11.577 3.778 2.438 10.309 5.946 19.084 7.201 0 0 3.363.463 6.566.463 25.816 0 46.745-20.928 46.745-46.745v-57.011c0-13.507-10.95-24.456-24.457-24.456z" fill="#ecad9a"/><path d="m155.877 275.768c0-13.507-10.949-24.456-24.456-24.456h-44.578c-13.507 0-24.456 10.949-24.456 24.456v36.732c8.619 1.31 24.349 2.438 42.063-3.896 7.52-2.69 13.692-6.114 18.517-9.346 1.349-.904 3.173-.559 4.101.774 2.011 2.891 5.642 7.021 11.495 9.847 7.691 3.714 14.726 3.009 17.314 2.621z" fill="#cf9772"/><path d="m131.42 251.312h-30c13.507 0 24.456 10.949 24.456 24.456v23.275c.462.215.879.54 1.191.988 2.011 2.891 5.642 7.021 11.495 9.847 7.691 3.714 14.726 3.009 17.314 2.621v-36.731c.001-13.507-10.949-24.456-24.456-24.456z" fill="#c88556"/></g></g></g></g></g><path d="m87.664 182 28.808 28.808c3.318 3.32 8.261 4.263 12.533 2.493 4.313-1.787 7.099-5.957 7.099-10.625v-20.676h59.896c20.678 0 37.5-16.822 37.5-37.5v-107c0-20.678-16.822-37.5-37.5-37.5h-158.5c-20.678 0-37.5 16.822-37.5 37.5v42.701c0 4.142 3.358 7.5 7.5 7.5s7.5-3.358 7.5-7.5v-42.701c0-12.407 10.093-22.5 22.5-22.5h158.5c12.407 0 22.5 10.093 22.5 22.5v107c0 12.407-10.093 22.5-22.5 22.5h-60.396c-7.995 0-14.5 6.505-14.5 14.5v12.727l-22.979-22.979c-2.738-2.739-6.38-4.248-10.254-4.248h-50.371c-12.407 0-22.5-10.093-22.5-22.5v-29.299c0-4.142-3.358-7.5-7.5-7.5s-7.5 3.358-7.5 7.5v29.299c0 20.678 16.822 37.5 37.5 37.5zm63.1 283.003c-4.142 0-7.5 3.358-7.5 7.5v31.997c0 4.142 3.358 7.5 7.5 7.5s7.5-3.358 7.5-7.5v-31.997c0-4.142-3.358-7.5-7.5-7.5zm-41.565-413.92c-22.01 0-39.917 17.907-39.917 39.917s17.907 39.917 39.917 39.917c8.432 0 16.256-2.635 22.708-7.115l4.656 4.656c2.929 2.929 7.677 2.929 10.606 0s2.929-7.678 0-10.606l-4.751-4.751c4.227-6.332 6.697-13.933 6.697-22.101.001-22.01-17.906-39.917-39.916-39.917zm22.271 51.07-5.042-5.042c-2.929-2.929-7.678-2.929-10.606 0-2.929 2.929-2.929 7.678 0 10.606l5.207 5.207c-3.522 1.908-7.551 2.993-11.83 2.993-13.739 0-24.917-11.178-24.917-24.917s11.178-24.917 24.917-24.917 24.917 11.178 24.917 24.917c0 4.008-.957 7.795-2.646 11.153zm-63.97 362.85c-4.142 0-7.5 3.358-7.5 7.5v31.997c0 4.142 3.358 7.5 7.5 7.5s7.5-3.358 7.5-7.5v-31.997c0-4.142-3.358-7.5-7.5-7.5zm296.868 0c-4.143 0-7.5 3.358-7.5 7.5v31.997c0 4.142 3.357 7.5 7.5 7.5s7.5-3.358 7.5-7.5v-31.997c0-4.142-3.357-7.5-7.5-7.5zm39.368-408.158c-1.306-3.476-4.667-5.763-8.375-5.762h-.005c-3.685.002-7.061 2.272-8.364 5.744l-24.345 63.921c-1.475 3.871.469 8.204 4.34 9.678 3.866 1.476 8.203-.468 9.678-4.339l4.223-11.089h28.762l4.177 11.067c1.475 3.924 5.872 5.801 9.665 4.369 3.875-1.463 5.831-5.79 4.368-9.665zm-17.135 43.153 8.734-22.932 8.655 22.932zm81.946 305.343-20.636-8.122c-5.322-2.09-8.761-7.137-8.761-12.859v-8.689c12.819-9.931 21.095-25.459 21.095-42.892v-57.01c0-17.621-14.336-31.957-31.957-31.957h-44.576c-17.621 0-31.957 14.335-31.957 31.957v57.01c0 17.433 8.275 32.961 21.095 42.892v8.689c0 5.722-3.438 10.77-8.767 12.861l-20.625 8.118c-19.188 7.538-31.588 25.736-31.588 46.361v52.8c0 4.142 3.357 7.5 7.5 7.5s7.5-3.358 7.5-7.5v-52.8c0-14.415 8.664-27.132 22.077-32.401l18.864-7.425c10.152 9.99 23.775 15.626 38.189 15.626s28.036-5.636 38.188-15.626l18.869 7.426c13.408 5.268 22.072 17.985 22.072 32.4v52.8c0 4.142 3.357 7.5 7.5 7.5s7.5-3.358 7.5-7.5v-52.8c.001-20.625-12.399-38.823-31.582-46.359zm-101.792-129.572c0-9.35 7.606-16.957 16.957-16.957h44.576c9.351 0 16.957 7.606 16.957 16.957v29.332c-2.012-.279-4.253-.865-6.553-1.975-4.316-2.085-7.06-5.163-8.601-7.378-3.243-4.66-9.717-5.879-14.431-2.721-5.275 3.534-10.951 6.399-16.868 8.515-10.091 3.608-21.053 5.044-32.038 4.249v-30.022zm39.245 136.731c-9.345 0-18.228-3.279-25.268-9.154 4.614-5.22 7.216-12.14 7.118-19.456 5.679 2.023 11.786 3.134 18.15 3.134s12.472-1.111 18.15-3.134c-.18 7.272 2.565 14.267 7.117 19.456-7.04 5.875-15.922 9.154-25.267 9.154zm0-40.476c-21.64 0-39.245-17.605-39.245-39.245v-11.963c12.572.774 25.367-.958 37.089-5.15 5.773-2.065 11.351-4.723 16.63-7.923 2.693 3.048 6.513 6.387 11.695 8.89 4.677 2.259 9.205 3.222 13.076 3.543v12.603c0 21.639-17.605 39.245-39.245 39.245zm68.5-372.024h-158.5c-20.678 0-37.5 16.822-37.5 37.5v107c0 20.678 16.822 37.5 37.5 37.5h59.896v20.677c0 4.668 2.787 8.838 7.1 10.625 4.265 1.766 9.215.826 12.532-2.493l28.809-28.809h50.163c20.678 0 37.5-16.822 37.5-37.5v-107c0-20.678-16.822-37.5-37.5-37.5zm22.5 144.5c0 12.407-10.094 22.5-22.5 22.5h-50.371c-3.874 0-7.516 1.509-10.253 4.247l-22.979 22.979v-12.726c0-7.995-6.505-14.5-14.5-14.5h-60.397c-12.406 0-22.5-10.093-22.5-22.5v-107c0-12.407 10.094-22.5 22.5-22.5h158.5c12.406 0 22.5 10.093 22.5 22.5zm-49.368 320.503c-4.143 0-7.5 3.358-7.5 7.5v31.997c0 4.142 3.357 7.5 7.5 7.5s7.5-3.358 7.5-7.5v-31.997c0-4.142-3.358-7.5-7.5-7.5zm-124.585-134.074c1.441-5.615 2.173-11.425 2.173-17.269 0-38.168-31.052-69.22-69.22-69.22s-69.22 31.052-69.22 69.22c0 38.167 31.052 69.219 69.22 69.219 17.379 0 33.997-6.467 46.792-18.21 3.052-2.801 3.255-7.545.454-10.597-2.8-3.052-7.544-3.255-10.597-.454-10.021 9.196-23.036 14.261-36.649 14.261-29.897 0-54.22-24.323-54.22-54.219 0-29.897 24.323-54.22 54.22-54.22 29.896 0 54.22 24.323 54.22 54.22 0 4.586-.572 9.141-1.702 13.537-1.03 4.012 1.387 8.1 5.398 9.13 4.016 1.029 8.1-1.387 9.131-5.398zm-151.37 74.412-20.636-8.122c-5.322-2.09-8.761-7.138-8.761-12.859v-8.687c12.821-9.931 21.097-25.459 21.097-42.894v-57.01c0-17.621-14.335-31.957-31.957-31.957h-44.577c-17.621 0-31.956 14.335-31.956 31.957v57.01c0 17.432 8.275 32.96 21.093 42.891v8.69c0 5.725-3.438 10.771-8.767 12.861l-20.625 8.118c-19.189 7.538-31.588 25.736-31.588 46.361v52.8c0 4.142 3.358 7.5 7.5 7.5s7.5-3.358 7.5-7.5v-52.8c0-14.415 8.664-27.132 22.077-32.401l18.866-7.425c10.152 9.99 23.776 15.626 38.189 15.626s28.036-5.636 38.188-15.625l18.868 7.426c13.408 5.268 22.072 17.985 22.072 32.4v52.8c0 4.142 3.358 7.5 7.5 7.5s7.5-3.358 7.5-7.5v-52.8c0-20.626-12.399-38.824-31.583-46.36zm-101.79-129.572c0-9.35 7.606-16.957 16.956-16.957h44.577c9.35 0 16.957 7.606 16.957 16.957v29.331c-2.012-.279-4.253-.865-6.553-1.975-4.317-2.085-7.059-5.162-8.601-7.378-3.244-4.66-9.717-5.879-14.431-2.721-5.276 3.534-10.951 6.399-16.868 8.515-10.091 3.608-21.053 5.044-32.038 4.249v-30.021zm39.245 136.731c-9.345 0-18.228-3.279-25.268-9.154 4.612-5.219 7.213-12.142 7.116-19.456 5.679 2.023 11.787 3.134 18.152 3.134 6.363 0 12.47-1.111 18.148-3.133-.178 7.273 2.564 14.266 7.118 19.456-7.04 5.874-15.922 9.153-25.266 9.153zm0-40.476c-21.64 0-39.245-17.605-39.245-39.245v-11.963c12.571.774 25.368-.958 37.089-5.15 5.773-2.065 11.35-4.723 16.629-7.923 2.693 3.048 6.512 6.387 11.695 8.89 4.677 2.258 9.205 3.222 13.076 3.542v12.604c.001 21.639-17.605 39.245-39.244 39.245zm148.256-48.394c-1.368 2.251-3.952 3.54-6.559 3.292-2.713-.257-5.38-1.101-7.709-2.516-3.541-2.15-8.154-1.022-10.303 2.518-2.15 3.541-1.022 8.154 2.518 10.303 4.24 2.574 9.125 4.152 14.059 4.625 8.242.791 16.484-3.289 20.816-10.438l6.882-11.335c4.366-7.185 4.14-16.373-.438-23.437-2.668-4.118-6.295-7.641-10.488-10.188-3.54-2.151-8.154-1.024-10.304 2.517-2.15 3.54-1.023 8.153 2.517 10.303 2.317 1.407 4.306 3.391 5.785 5.675 1.432 2.21 1.474 5.093.106 7.343z"/></g></svg>