<svg height="512" viewBox="0 0 64 64" width="512" xmlns="http://www.w3.org/2000/svg"><g id="migrating"><path d="m8 18a5 5 0 0 0 0 10h34a5 5 0 0 0 0-10h-1c.28-.78 1-1.62 1-2.5a7.495 7.495 0 0 0 -14.01-3.71 10 10 0 1 0 -17.98 6.21z" fill="#57a4ff"/><path d="m10 61a7 7 0 0 1 0-14h.84a9.994 9.994 0 0 1 17.3-9.8 12.991 12.991 0 1 1 23.09 9.8h2.77a7 7 0 0 1 0 14z" fill="#e0e0e2"/><path d="m54 39a12.928 12.928 0 0 1 -2.77 8h-2a12.981 12.981 0 0 0 -9.25-20.96c.34-.03.68-.04 1.02-.04a13 13 0 0 1 13 13z" fill="#c6c5ca"/><path d="m61 34-2.6.65 1.38 2.3-2.83 2.83-2.3-1.38-.65 2.6h-4l-.65-2.6-2.3 1.38-2.83-2.83 1.38-2.3-2.6-.65v-4l2.6-.65-1.38-2.3.5-.5 2.05-2.05.28-.28 2.3 1.38.65-2.6h4l.65 2.6 2.3-1.38 2.83 2.83-1.38 2.3 2.6.65z" fill="#c0ab91"/><path d="m61 34-2.6.65 1.38 2.3-2.83 2.83-1.25-.75 2.08-2.08-1.38-2.3 2.6-.65v-4l-2.6-.65 1.38-2.3-2.08-2.08 1.25-.75 2.83 2.83-1.38 2.3 2.6.65z" fill="#b39a7c"/><path d="m61 54a7 7 0 0 1 -7 7h-2a7 7 0 0 0 0-14h2a7 7 0 0 1 7 7z" fill="#c6c5ca"/><circle cx="52" cy="32" fill="#ffeb99" r="3"/><circle cx="35" cy="54" fill="#ffeb99" r="3"/><g fill="#ffdaaa"><path d="m16 42.23c-1.84-.54-3-1.34-3-2.23v-6c0 1.66 4.03 3 9 3s9-1.34 9-3v6c0 1.66-4.03 3-9 3a21.5 21.5 0 0 1 -6-.77z"/><path d="m31 30.71v3.29c0 1.66-4.03 3-9 3s-9-1.34-9-3v-6c0 1.66 4.03 3 9 3s9-1.34 9-3z"/><path d="m31 24v4c0 1.66-4.03 3-9 3s-9-1.34-9-3v-6c0 1.66 4.03 3 9 3s9-1.34 9-3z"/></g><path d="m31 34v6c0 1.66-4.03 3-9 3-.36 0-.72-.01-1.07-.02 4.53-.15 8.07-1.42 8.07-2.98v-4.12c1.25-.51 2-1.17 2-1.88z" fill="#ffc477"/><path d="m31 28v6c0 .71-.75 1.37-2 1.88v-6c1.25-.51 2-1.17 2-1.88z" fill="#ffc477"/><path d="m31 22v6c0 .71-.75 1.37-2 1.88v-6c1.25-.51 2-1.17 2-1.88z" fill="#ffc477"/><ellipse cx="22" cy="22" fill="#ffcd00" rx="9" ry="3"/><path d="m31 22c0 1.66-4.03 3-9 3-.34 0-.67-.01-1-.02 4.5-.16 8-1.43 8-2.98s-3.5-2.82-8-2.98c.33-.01.66-.02 1-.02 4.97 0 9 1.34 9 3z" fill="#cca400"/><circle cx="16" cy="12" fill="#ffeb99" r="3"/><path d="m56 54h2a4 4 0 0 0 -4-4v2a2 2 0 0 1 2 2z"/><path d="m21 27h2v2h-2z"/><path d="m21 33h2v2h-2z"/><path d="m21 39h2v2h-2z"/><path d="m62 34v-4a1 1 0 0 0 -.757-.97l-1.292-.323.685-1.142a1 1 0 0 0 -.151-1.222l-2.828-2.828a1 1 0 0 0 -1.222-.151l-1.142.685-.323-1.292a1 1 0 0 0 -.97-.757h-4a1 1 0 0 0 -.97.757l-.323 1.292-.752-.451c.019-.2.045-.4.045-.6a6.009 6.009 0 0 0 -5.4-5.97 3.53 3.53 0 0 0 .4-1.528 8.492 8.492 0 0 0 -14.331-6.174 11 11 0 1 0 -20.461 7.674h-.208a6 6 0 0 0 0 12h4v6.471a10.955 10.955 0 0 0 -2.576 10.55 8 8 0 0 0 .576 15.979h44a8 8 0 0 0 0-16h-.887a13.837 13.837 0 0 0 1.611-4.33.978.978 0 0 0 .246-.427l.323-1.292 1.142.685a1 1 0 0 0 1.222-.151l2.828-2.828a1 1 0 0 0 .151-1.222l-.685-1.142 1.292-.323a1 1 0 0 0 .757-.97zm-58-11a4 4 0 0 1 4-4h2.01a1 1 0 0 0 .8-1.6 8.994 8.994 0 1 1 16.18-5.589 1 1 0 0 0 1.868.474 6.494 6.494 0 0 1 12.142 3.215 3.065 3.065 0 0 1 -.466 1.171 7.117 7.117 0 0 0 -.475.991 1 1 0 0 0 .941 1.338h1a4 4 0 0 1 4 4 3.944 3.944 0 0 1 -.135.993l-1.444 1.444a13.838 13.838 0 0 0 -10.86 1.714 13.607 13.607 0 0 0 -1.561 1.149v-3.3h3a1 1 0 0 0 1-1v-9h-2v8h-2v-1c0-2.558-4.493-3.819-9-3.981v-6.019a1 1 0 0 0 -1-1h-2.142a4 4 0 1 0 0 2h1.142v5.019c-4.507.162-9 1.423-9 3.981v5h-4a4 4 0 0 1 -4-4zm18 19c-5.25 0-8-1.486-8-2v-3.476a19.008 19.008 0 0 0 8 1.476 19.008 19.008 0 0 0 8-1.476v3.476c0 .514-2.75 2-8 2zm0-22c5.25 0 8 1.486 8 2s-2.75 2-8 2-8-1.486-8-2 2.75-2 8-2zm-8 4.524a19.008 19.008 0 0 0 8 1.476 19.008 19.008 0 0 0 8-1.476v3.476c0 .514-2.75 2-8 2s-8-1.486-8-2zm4-12.524a2 2 0 1 1 -2-2 2 2 0 0 1 2 2zm-4 18.524a19.008 19.008 0 0 0 8 1.476 19.008 19.008 0 0 0 8-1.476v3.476c0 .514-2.75 2-8 2s-8-1.486-8-2zm40 17.476a6 6 0 0 1 0 12h-44a6 6 0 0 1 0-12h.84a1 1 0 0 0 .915-1.4 8.953 8.953 0 0 1 .245-7.712v1.112c0 1.325 1.212 2.3 3 2.956v13.044h-3v2h4a1 1 0 0 0 1-1v-13.484a24.087 24.087 0 0 0 4 .465v10.019a1 1 0 0 0 1 1h9.142a4 4 0 1 0 0-2h-8.142v-9.019c4.507-.162 9-1.423 9-3.981v-2h4v9a1 1 0 0 0 1 1h5v-2h-4v-9a1 1 0 0 0 -1-1h-5v-4.908a11.855 11.855 0 0 1 2.626-2.248 12.06 12.06 0 0 1 8.615-1.628.979.979 0 0 0 .123.349l.685 1.142-1.292.323a1 1 0 0 0 -.757.97v4a1 1 0 0 0 .757.97l1.292.323-.685 1.142a1 1 0 0 0 .151 1.222l2.828 2.828a1 1 0 0 0 1.222.151l1.142-.685.323 1.292a1 1 0 0 0 .97.757h2.6a11.951 11.951 0 0 1 -2.155 4.383 1 1 0 0 0 .785 1.617zm-21 6a2 2 0 1 1 2 2 2 2 0 0 1 -2-2zm27-20.781-1.844.461a1 1 0 0 0 -.615 1.485l.978 1.63-1.719 1.724-1.63-.978a1 1 0 0 0 -1.485.615l-.466 1.844h-2.438l-.461-1.844a1 1 0 0 0 -1.485-.615l-1.63.978-1.724-1.719.978-1.63a1 1 0 0 0 -.615-1.485l-1.844-.466v-2.438l1.844-.461a1 1 0 0 0 .615-1.485l-.978-1.63 1.724-1.724 1.63.978a1 1 0 0 0 1.485-.615l.461-1.844h2.438l.461 1.844a1 1 0 0 0 1.485.615l1.63-.978 1.724 1.724-.978 1.63a1 1 0 0 0 .615 1.485l1.844.461z"/><path d="m52 28a4 4 0 1 0 4 4 4 4 0 0 0 -4-4zm0 6a2 2 0 1 1 2-2 2 2 0 0 1 -2 2z"/><path d="m34 11h2v2h-2z"/><path d="m44 46h2v2h-2z"/><path d="m8 56h2v2h-2z"/></g></svg>