<?xml version="1.0" encoding="iso-8859-1"?>
<!-- Generator: Adobe Illustrator 19.0.0, SVG Export Plug-In . SVG Version: 6.00 Build 0)  -->
<svg version="1.1" id="Capa_1" xmlns="http://www.w3.org/2000/svg" xmlns:xlink="http://www.w3.org/1999/xlink" x="0px" y="0px"
	 viewBox="0 0 496 496" style="enable-background:new 0 0 496 496;" xml:space="preserve">
<path style="fill:#91AAB4;" d="M376,360h48c35.2,0,64-28.8,64-64V168c0-35.2-28.8-64-64-64H280v64h128c8.8,0,16,7.2,16,16v96
	c0,8.8-7.2,16-16,16h-32"/>
<path d="M424,368h-48v-16h48c31.2,0,56-24.8,56-56V168c0-31.2-24.8-56-56-56H288v48h120c13.6,0,24,10.4,24,24v96
	c0,13.6-10.4,24-24,24h-32v-16h32c4.8,0,8-3.2,8-8v-96c0-4.8-3.2-8-8-8H280c-4.8,0-8-3.2-8-8v-64c0-4.8,3.2-8,8-8h144
	c40,0,72,32,72,72v128C496,336,464,368,424,368z"/>
<rect x="376" y="296" style="fill:#3E606F;" width="40" height="64"/>
<path d="M416,368h-40c-4.8,0-8-3.2-8-8v-64c0-4.8,3.2-8,8-8h40c4.8,0,8,3.2,8,8v64C424,364.8,420.8,368,416,368z M384,352h24v-48
	h-24V352z"/>
<path style="fill:#91AAB4;" d="M264,360h-64c-8.8,0-16,7.2-16,16v112h-64V360c0-35.2,28.8-64,64-64h80V360z"/>
<path d="M184,496h-64c-4.8,0-8-3.2-8-8V360c0-40,32-72,72-72h80c4.8,0,8,3.2,8,8v64c0,4.8-3.2,8-8,8h-64c-4.8,0-8,3.2-8,8v112
	C192,492.8,188.8,496,184,496z M128,480h48V376c0-13.6,10.4-24,24-24h56v-48h-72c-31.2,0-56,24.8-56,56V480z"/>
<rect x="232" y="8" style="fill:#A6A6A6;" width="32" height="32"/>
<path d="M264,48h-32c-4.8,0-8-3.2-8-8V8c0-4.8,3.2-8,8-8h32c4.8,0,8,3.2,8,8v32C272,44.8,268.8,48,264,48z M240,32h16V16h-16V32z"/>
<rect x="200" y="40" style="fill:#656A73;" width="96" height="32"/>
<path d="M296,80h-96c-4.8,0-8-3.2-8-8V40c0-4.8,3.2-8,8-8h96c4.8,0,8,3.2,8,8v32C304,76.8,300.8,80,296,80z M208,64h80V48h-80V64z"
	/>
<rect x="232" y="72" style="fill:#A6A6A6;" width="32" height="32"/>
<path d="M264,112h-32c-4.8,0-8-3.2-8-8V72c0-4.8,3.2-8,8-8h32c4.8,0,8,3.2,8,8v32C272,108.8,268.8,112,264,112z M240,96h16V80h-16
	V96z"/>
<rect x="216" y="104" style="fill:#656A73;" width="64" height="64"/>
<path d="M280,176h-64c-4.8,0-8-3.2-8-8v-64c0-4.8,3.2-8,8-8h64c4.8,0,8,3.2,8,8v64C288,172.8,284.8,176,280,176z M224,160h48v-48
	h-48V160z"/>
<path style="fill:#91AAB4;" d="M216,168H88c-8.8,0-16,7.2-16,16v304H8V168c0-35.2,28.8-64,64-64h144V168z"/>
<path d="M72,496H8c-4.8,0-8-3.2-8-8V168c0-40,32-72,72-72h144c4.8,0,8,3.2,8,8v64c0,4.8-3.2,8-8,8H88c-4.8,0-8,3.2-8,8v304
	C80,492.8,76.8,496,72,496z M16,480h48V184c0-13.6,10.4-24,24-24h120v-48H72c-31.2,0-56,24.8-56,56V480z"/>
<rect x="112" y="128" width="72" height="16"/>
<rect x="312" y="128" width="72" height="16"/>
<rect x="280" y="104" style="fill:#3E606F;" width="32" height="64"/>
<path d="M312,176h-32c-4.8,0-8-3.2-8-8v-64c0-4.8,3.2-8,8-8h32c4.8,0,8,3.2,8,8v64C320,172.8,316.8,176,312,176z M288,160h16v-48
	h-16V160z"/>
<rect x="184" y="104" style="fill:#3E606F;" width="32" height="64"/>
<path d="M216,176h-32c-4.8,0-8-3.2-8-8v-64c0-4.8,3.2-8,8-8h32c4.8,0,8,3.2,8,8v64C224,172.8,220.8,176,216,176z M192,160h16v-48
	h-16V160z"/>
<rect x="8" y="456" style="fill:#3E606F;" width="64" height="32"/>
<path d="M72,496H8c-4.8,0-8-3.2-8-8v-32c0-4.8,3.2-8,8-8h64c4.8,0,8,3.2,8,8v32C80,492.8,76.8,496,72,496z M16,480h48v-16H16V480z"
	/>
<rect x="120" y="456" style="fill:#3E606F;" width="64" height="32"/>
<path d="M184,496h-64c-4.8,0-8-3.2-8-8v-32c0-4.8,3.2-8,8-8h64c4.8,0,8,3.2,8,8v32C192,492.8,188.8,496,184,496z M128,480h48v-16
	h-48V480z"/>
<rect x="224" y="296" style="fill:#3E606F;" width="40" height="64"/>
<path d="M264,368h-40c-4.8,0-8-3.2-8-8v-64c0-4.8,3.2-8,8-8h40c4.8,0,8,3.2,8,8v64C272,364.8,268.8,368,264,368z M232,352h24v-48
	h-24V352z"/>
<circle style="fill:#A6A6A6;" cx="320" cy="328" r="64"/>
<path d="M320,400c-40,0-72-32-72-72s32-72,72-72s72,32,72,72S360,400,320,400z M320,272c-31.2,0-56,24.8-56,56s24.8,56,56,56
	s56-24.8,56-56S351.2,272,320,272z"/>
<circle style="fill:#656A73;" cx="320" cy="328" r="32"/>
<path d="M320,368c-22.4,0-40-17.6-40-40s17.6-40,40-40s40,17.6,40,40S342.4,368,320,368z M320,304c-13.6,0-24,10.4-24,24
	s10.4,24,24,24s24-10.4,24-24S333.6,304,320,304z"/>
<rect x="256" y="320" width="32" height="16"/>
<rect x="312" y="264" width="16" height="32"/>
<rect x="312" y="360" width="16" height="32"/>
<rect x="352" y="320" width="32" height="16"/>
<g>
</g>
<g>
</g>
<g>
</g>
<g>
</g>
<g>
</g>
<g>
</g>
<g>
</g>
<g>
</g>
<g>
</g>
<g>
</g>
<g>
</g>
<g>
</g>
<g>
</g>
<g>
</g>
<g>
</g>
</svg>
