<svg enable-background="new 0 0 24 24" height="512" viewBox="0 0 24 24" width="512" xmlns="http://www.w3.org/2000/svg"><g id="color"><g><g><path d="m20.766.75h-8.169c-.653 0-1.294.266-1.756.728l-8.913 8.913c-.968.968-.968 2.545 0 3.513l8.169 8.169c.485.485 1.121.727 1.756.727.636 0 1.272-.242 1.757-.727l8.913-8.913c.462-.462.728-1.103.728-1.756v-8.17c-.001-1.37-1.115-2.484-2.485-2.484z" fill="#ffc107"/></g></g><g><g><circle cx="19.5" cy="4.5" fill="#fff" r="1.5"/></g></g></g><g id="_x31_.5"><g><g><g><path d="m9.171 19.468c-.192 0-.384-.073-.53-.22l-3.535-3.536c-.238-.238-.289-.606-.123-.899.166-.294.506-.445.835-.358l3.029.758-1.621-1.621c-.293-.293-.293-.768 0-1.061s.768-.293 1.061 0l3.536 3.536c.238.238.289.606.123.899-.167.293-.509.44-.835.358l-3.03-.758 1.621 1.621c.293.293.293.768 0 1.061-.147.147-.339.22-.531.22z"/></g></g><g><g><path d="m12.707 15.932c-.192 0-.384-.073-.53-.22l-3.536-3.535c-.141-.141-.22-.331-.22-.53s.079-.39.22-.53l2.122-2.121c.293-.293.768-.293 1.061 0s.293.768 0 1.061l-1.591 1.591 2.475 2.475 1.591-1.591c.293-.293.768-.293 1.061 0s.293.768 0 1.061l-2.122 2.121c-.147.144-.339.218-.531.218z"/></g></g><g><g><path d="m10.939 14.164c-.192 0-.384-.073-.53-.22-.293-.293-.293-.768 0-1.061l2.121-2.121c.293-.293.768-.293 1.061 0s.293.768 0 1.061l-2.121 2.121c-.147.147-.339.22-.531.22z"/></g></g><g><g><path d="m16.95 11.689c-.145 0-.29-.042-.416-.126l-4.243-2.828c-.345-.229-.438-.695-.208-1.04s.696-.437 1.04-.208l2.144 1.429-.067-.155c-.121-.282-.058-.609.159-.826s.544-.279.826-.159l.156.067-1.429-2.145c-.23-.345-.137-.811.208-1.04.343-.229.81-.137 1.04.208l2.828 4.243c.184.276.165.641-.047.896-.212.256-.566.342-.872.21l-.751-.322.322.751c.131.306.045.66-.21.872-.139.115-.309.173-.48.173z"/></g></g></g><g><g><path d="m11.595 23.998c-.692 0-1.385-.263-1.912-.79l-8.892-8.892c-.51-.51-.791-1.189-.791-1.912 0-.722.281-1.4.792-1.911l9.701-9.701c.511-.511 1.19-.792 1.912-.792h8.891c1.491 0 2.704 1.213 2.704 2.704v8.892c0 .711-.289 1.408-.792 1.911l-9.701 9.701c-.527.527-1.219.79-1.912.79zm.81-22.498c-.321 0-.624.125-.852.353l-9.7 9.701c-.228.227-.353.529-.353.85 0 .322.125.624.353.852l8.892 8.892c.469.469 1.233.469 1.703 0l9.701-9.701c.224-.225.353-.534.353-.851v-8.892c0-.664-.54-1.204-1.204-1.204z"/></g></g><g><g><path d="m19.5 6.5c-1.103 0-2-.897-2-2s.897-2 2-2 2 .897 2 2-.897 2-2 2zm0-2.5c-.276 0-.5.225-.5.5s.224.5.5.5.5-.225.5-.5-.224-.5-.5-.5z"/></g></g></g></svg>