<svg id="OutlineExpandedColored" enable-background="new 0 0 64 64" height="512" viewBox="0 0 64 64" width="512" xmlns="http://www.w3.org/2000/svg"><path d="m37 17 16 36c-6.607 1.321-13.404 1.381-20.034.176l-1.933-.351c-6.629-1.206-13.426-1.146-20.033.175l16-36z" fill="#d34640"/><path d="m38 17s2-2 5-2 5 2 5 2v-11h2c2.209 0 4 1.791 4 4v9c0 2.209-1.791 4-4 4h-10v13l6 25h-8l-4.857-19h-2.143l-4 19h-8l5-25v-13l-7 4 7 6-4 4-6.409-5.423c-3.193-2.702-2.711-7.759.934-9.81l8.475-4.767z" fill="#4ac3ed"/><path d="m31 42-7-6v-2h16v2l-6.857 6z" fill="#e55648"/><path d="m28 23 2-2h4l2 2-4 4z" fill="#f4b34a"/><path d="m32 3c3.866 0 7 3.134 7 7s-3.134 7-7 7-7-3.134-7-7v-7z" fill="#4ac3ed"/><g fill="#153049"><path d="m55 19v-9c0-2.757-2.243-5-5-5h-2c-.552 0-1 .447-1 1v9.064c-.988-.544-2.359-1.064-4-1.064-2.673 0-4.633 1.38-5.379 2h-.347c1.667-1.467 2.726-3.61 2.726-6 0-4.411-3.589-8-8-8h-7c-.552 0-1 .447-1 1v7c0 2.39 1.059 4.533 2.726 6h-3.726c-.172 0-.341.044-.49.129l-8.475 4.767c-1.997 1.123-3.319 3.155-3.537 5.437s.697 4.527 2.447 6.009l4.466 3.779-7.325 16.474c-.152.342-.101.739.133 1.031.192.238.481.374.781.374.065 0 .131-.007.197-.02 2.742-.55 5.556-.866 8.381-.967l-1.558 7.79c-.059.294.017.599.207.83s.473.367.773.367h8c.473 0 .881-.331.979-.794l1.6-7.602c.424.066.851.126 1.269.199l1.944.36c.894.162 1.721.285 2.528.389l1.711 6.695c.114.443.512.753.969.753h8c.306 0 .596-.141.785-.381.19-.24.259-.555.187-.853l-1.399-5.831c2.527-.138 5.084-.451 7.622-.956.298-.059.553-.25.693-.521.14-.27.149-.589.026-.866l-12.709-28.592h8.795c2.757 0 5-2.243 5-5zm-29-9v-6h3.975c-.511.835-.975 1.889-.975 3 0 3 2.026 3 3 3 2 0 2-2.026 2-3h-2c0 .299 0 .771-.055 1-.927 0-.945-.019-.945-1 0-1.082.864-2.322 1.424-2.979 3.111.22 5.576 2.814 5.576 5.979 0 3.309-2.691 6-6 6s-6-2.691-6-6zm-13.511 16.521c.157-1.653 1.078-3.068 2.526-3.883l8.247-4.638h14.738c.265 0 .52-.105.707-.293.017-.017 1.737-1.707 4.293-1.707 2.526 0 4.278 1.693 4.293 1.707.286.286.714.372 1.09.217.373-.154.617-.52.617-.924v-10h1c1.654 0 3 1.346 3 3v9c0 1.654-1.346 3-3 3h-10c-.552 0-1 .447-1 1v10h-14v-10c0-.356-.19-.686-.498-.865-.309-.179-.689-.18-.998-.003l-7 4c-.282.161-.469.45-.5.773-.031.324.098.643.345.854l6.18 5.298-2.586 2.586-5.707-4.829c-1.268-1.074-1.904-2.638-1.747-4.293zm20.278 14.479h-1.397l-6.37-5.46v-.54h14v.546zm-14.039-13.836 3.565-2.037-1.64 3.687zm4.272 1.295v2.367l-.762-.654zm-10.317 23.219 6.319-14.212.353.298c.397.336.986.312 1.353-.057l2.292-2.293v.487l-3.019 15.094c-2.45.067-4.895.289-7.298.683zm13.505 8.322h-5.968l4.426-22.13 5.254 4.503zm6.964-7.804-1.95-.361c-.402-.07-.808-.127-1.211-.19l1.821-8.645h.555l2.42 9.466c-.527-.078-1.068-.167-1.635-.27zm5.624 7.804-4.512-17.652 5.15-4.506 5.317 22.158zm6.323-7.04-4.099-17.078v-7.42l10.572 23.787c-2.162.377-4.33.61-6.473.711z"/><path d="m31.293 27.707c.195.195.451.293.707.293s.512-.098.707-.293l4-4c.391-.391.391-1.023 0-1.414l-2-2c-.187-.188-.442-.293-.707-.293h-4c-.265 0-.52.105-.707.293l-2 2c-.391.391-.391 1.023 0 1.414zm-.879-5.707h3.172l1 1-2.586 2.586-2.586-2.586z"/></g></svg>