<svg id="Icons" height="512" viewBox="0 0 64 64" width="512" xmlns="http://www.w3.org/2000/svg"><path d="m54.974 45.053a16.991 16.991 0 0 0 -33.232-3.969 10.994 10.994 0 0 0 1.258 21.916h31a9 9 0 0 0 .974-17.947zm-19.767-.846a1 1 0 0 1 -1.414 0 6 6 0 0 0 -8.481 0 1 1 0 0 1 -1.412-1.414 8.007 8.007 0 0 1 11.309 0 1 1 0 0 1 -.002 1.414zm17 12a1 1 0 0 1 -1.414 0 7.842 7.842 0 0 0 -11.076 0 1 1 0 0 1 -1.417-1.414 9.842 9.842 0 0 1 13.9 0 1 1 0 0 1 .007 1.414z" fill="#c4a2fc"/><g fill="#151a6a"><path d="m22.3 21.746c-.52-.184-.983-.356-1.418-.524v-7a4.651 4.651 0 0 1 2.226.939 1 1 0 0 0 1.351-1.474 6.649 6.649 0 0 0 -3.579-1.487v-1.612a1 1 0 1 0 -2 0v1.689a7.524 7.524 0 0 0 -.856.2 5.134 5.134 0 0 0 -3.513 4.031 4.483 4.483 0 0 0 1.453 4.417 13.11 13.11 0 0 0 2.916 1.641v8.655a5.785 5.785 0 0 1 -3.473-1.178 1 1 0 1 0 -1.1 1.674 7.734 7.734 0 0 0 4.568 1.5v1.785a1 1 0 0 0 2 0v-1.86a6.235 6.235 0 0 0 5.177-5.165 5.454 5.454 0 0 0 -3.752-6.231zm-5.1-2.393a2.5 2.5 0 0 1 -.721-2.473 3.162 3.162 0 0 1 2.121-2.487c.1-.03.184-.036.279-.059v6.031a9.488 9.488 0 0 1 -1.679-1.012zm6.886 8.3a4.266 4.266 0 0 1 -3.2 3.454v-7.749c.244.09.487.179.752.273a3.49 3.49 0 0 1 2.446 4.022z"/><path d="m36 1h-32a3 3 0 0 0 -3 3v44.132a2 2 0 0 0 3.109 1.668l3.335-2.225a1 1 0 0 1 1.111 0l3.782 2.522a2.99 2.99 0 0 0 3.327 0l3.78-2.522a1 1 0 0 1 1.111 0l3.782 2.522a2.994 2.994 0 0 0 3.327 0l3.78-2.522a1 1 0 0 1 1.111 0l3.336 2.225a2 2 0 0 0 3.109-1.668v-44.132a3 3 0 0 0 -3-3zm-2.337 44.907a2.99 2.99 0 0 0 -3.327 0l-3.78 2.522a1 1 0 0 1 -1.111 0l-3.782-2.522a2.992 2.992 0 0 0 -3.327 0l-3.78 2.522a1 1 0 0 1 -1.111 0l-3.782-2.522a2.99 2.99 0 0 0 -3.327 0l-3.336 2.225v-44.132a1 1 0 0 1 1-1h32a1 1 0 0 1 1 1l.005 44.135z"/></g></svg>