<?xml version="1.0" encoding="UTF-8" standalone="no"?>
<!-- Created with Inkscape (http://www.inkscape.org/) -->

<svg
   xmlns:dc="http://purl.org/dc/elements/1.1/"
   xmlns:cc="http://creativecommons.org/ns#"
   xmlns:rdf="http://www.w3.org/1999/02/22-rdf-syntax-ns#"
   xmlns:svg="http://www.w3.org/2000/svg"
   xmlns="http://www.w3.org/2000/svg"
   xmlns:sodipodi="http://sodipodi.sourceforge.net/DTD/sodipodi-0.dtd"
   xmlns:inkscape="http://www.inkscape.org/namespaces/inkscape"
   version="1.1"
   id="svg885"
   width="2179.5"
   height="1302.3706"
   viewBox="0 0 2179.5 1302.3706"
   sodipodi:docname="BOARDWALK.svg"
   inkscape:version="0.92.3 (2405546, 2018-03-11)">
  <metadata
     id="metadata891">
    <rdf:RDF>
      <cc:Work
         rdf:about="">
        <dc:format>image/svg+xml</dc:format>
        <dc:type
           rdf:resource="http://purl.org/dc/dcmitype/StillImage" />
        <dc:title></dc:title>
      </cc:Work>
    </rdf:RDF>
  </metadata>
  <defs
     id="defs889" />
  <sodipodi:namedview
     pagecolor="#ffffff"
     bordercolor="#666666"
     borderopacity="1"
     objecttolerance="10"
     gridtolerance="10"
     guidetolerance="10"
     inkscape:pageopacity="0"
     inkscape:pageshadow="2"
     inkscape:window-width="2560"
     inkscape:window-height="1412"
     id="namedview887"
     showgrid="false"
     inkscape:zoom="0.24615077"
     inkscape:cx="445.61698"
     inkscape:cy="651.44365"
     inkscape:window-x="2560"
     inkscape:window-y="0"
     inkscape:window-maximized="1"
     inkscape:current-layer="svg885"
     fit-margin-top="0"
     fit-margin-left="0"
     fit-margin-right="0"
     fit-margin-bottom="0" />
  <path
     style="fill:#000000"
     d="m 2009.5,1300.9478 c -12.3922,-2.7267 -28.2177,-10.1903 -27.2151,-12.8353 0.2472,-0.652 1.5018,-4.4606 2.7881,-8.4635 1.8144,-5.6463 2.6849,-7.1443 3.8829,-6.6818 9.7571,3.7673 33.5107,7.0975 44.3938,6.2239 12.2266,-0.9814 21.3667,-7.5409 24.2294,-17.3884 1.84,-6.329 1.2045,-10.9588 -2.4396,-17.7744 -3.4863,-6.5204 -9.0775,-10.5107 -29.6395,-21.1532 -9.35,-4.8394 -19.5935,-10.5408 -22.7634,-12.6698 -26.0865,-17.521 -24.1756,-56.8758 3.5264,-72.6235 9.8069,-5.5749 18.7389,-7.6574 32.737,-7.6328 8.7416,0.015 14.4327,0.549 18.9278,1.7749 8.0336,2.1907 19.2962,7.6604 18.7642,9.1129 -0.2196,0.5996 -1.4209,4.2402 -2.6694,8.0902 -1.2486,3.85 -2.5519,7.3049 -2.8964,7.6776 -0.3444,0.3727 -5.8012,-0.7078 -12.1262,-2.4011 -14.7316,-3.944 -25.1609,-4.2507 -32.4449,-0.9543 -10.8271,4.8997 -15.4907,11.0883 -15.5331,20.6121 -0.043,9.6758 6.002,17.3973 18.2742,23.3416 26.0957,12.6401 32.1052,15.8673 37.3032,20.0319 7.0977,5.6865 13.7948,15.3005 16.0411,23.0275 2.2433,7.7167 2.0428,20.006 -0.4555,27.9128 -5.1247,16.2196 -17.8338,27.6863 -35.7704,32.2738 -9.1494,2.34 -27.4248,2.587 -36.9146,0.4989 z m -1208,-3.0252 c -4.7009,-2.5418 -8.299,-6.4209 -12.9816,-13.9956 -2.38,-3.85 -16.5447,-26.8 -31.4772,-51 -17.3055,-28.046 -28.6712,-45.4504 -31.3455,-48 l -4.1957,-4 -0.2581,58.25 -0.258,58.25 H 708.9919 697 v -81.5 -81.5 l 13.75,0.011 13.75,0.011 37.5,59.6943 37.5,59.6943 0.2579,-59.7051 0.2578,-59.7051 H 811.5079 823 v 80.8395 80.8395 l -2.75,1.2851 c -4.5224,2.1135 -15.2612,2.4178 -18.75,0.5315 z m 465.4166,-22.2456 -9.4166,-23.75 h -27.3735 -27.3735 l -8.6265,23.2485 -8.6265,23.2486 h -12.857 c -9.8665,0 -12.7492,-0.2892 -12.3936,-1.2485 0.2548,-0.6875 12.4354,-36.35 27.0679,-79.25 14.6325,-42.9 27.1162,-79.4625 27.7414,-81.25 l 1.137,-3.25 14.6521,0.01 14.6522,0.01 27.8958,81.5134 c 15.3427,44.8325 27.6414,81.7679 27.3305,82.0788 -0.5092,0.5092 -17.1664,2.2693 -22.3097,2.3573 -1.7961,0.031 -3.3821,-3.2397 -11.5,-23.7143 z M 1250,1224.3389 c 0,-0.5984 -4.0868,-13.6484 -9.0817,-29 -8.9875,-27.6224 -10.443,-30.6068 -12.7602,-26.1619 -0.9519,1.8259 -17.1581,54.2776 -17.1581,55.5325 0,0.3946 8.775,0.7175 19.5,0.7175 13.3856,0 19.5,-0.3412 19.5,-1.0881 z m 237.999,2.3559 v -72.2322 l -24.2271,-0.2678 -24.2271,-0.2678 -1.1584,-5.2186 c -0.7985,-3.5975 -0.8581,-6.6261 -0.1919,-9.75 l 0.9665,-4.5314 h 61.419 61.419 v 8.4204 8.4204 l -6.25,0.5558 c -3.4375,0.3057 -11.2,0.8032 -17.25,1.1055 -6.05,0.3023 -14.2625,0.8159 -18.25,1.1413 l -7.25,0.5916 v 71.3825 71.3825 l -2.25,0.106 c -1.2375,0.058 -6.863,0.3957 -12.501,0.75 l -10.2511,0.644 v -72.2322 z M 1695,1297.5373 c -1.925,-1.0619 -4.6818,-3.2086 -6.1263,-4.7705 -1.4444,-1.5619 -16.5154,-25.3398 -33.491,-52.8398 -29.8308,-48.3252 -36.0536,-57.5 -38.9991,-57.5 -1.1621,0 -1.3836,9.2047 -1.3836,57.5 v 57.5 h -12 -12 v -81.5 -81.5 h 13.7529 13.7529 l 37.4532,59.5684 c 20.5993,32.7626 37.8105,59.7891 38.2471,60.059 0.4367,0.2698 0.7939,-26.5359 0.7939,-59.5684 v -60.059 h 11 11 v 81.0248 81.0247 l -2.75,1.0887 c -1.5125,0.5988 -5.675,1.2719 -9.25,1.4958 -5.0933,0.319 -7.2574,-0.011 -10,-1.5237 z m 247.5212,0.6615 c -0.238,-0.6995 -3.2046,-11.3968 -6.5924,-23.7718 -3.3878,-12.375 -7.4379,-25.0355 -9.0003,-28.1345 -3.4352,-6.8138 -9.4359,-12.1877 -15.5075,-13.8876 -4.9264,-1.3793 -17.311,-0.8473 -23.671,1.0169 l -3.75,1.0992 v 31.953 31.953 h -12.5 -12.5 v -81.3467 -81.3468 l 11.25,-2.8744 c 10.2165,-2.6103 12.7658,-2.8701 27.75,-2.8284 14.5546,0.041 17.6482,0.3542 26.2387,2.6606 18.7328,5.0296 28.9197,12.4539 35.0654,25.5561 2.6658,5.6831 3.1902,8.0968 3.5154,16.1796 0.5939,14.7603 -3.2761,24.3317 -14.6681,36.2785 l -5.5101,5.7784 12.8406,39.2216 c 7.0624,21.5718 13.0307,39.7566 13.263,40.4105 0.5079,1.43 -2.8024,2.0047 -16.0179,2.7807 -7.4271,0.4361 -9.8769,0.2686 -10.2058,-0.6979 z m -22.3988,-93.4764 c 14.5446,-6.5135 21.569,-22.5526 15.5934,-35.6049 -3.3817,-7.3868 -9.1897,-13.0021 -15.8455,-15.3202 -7.7894,-2.7128 -21.4635,-2.4656 -29.1203,0.5265 l -5.75,2.2469 v 23.9091 23.9091 l 2.25,0.5463 c 12.5948,3.0582 25.7587,2.973 32.8724,-0.2128 z M 1064,1217.0717 v -81.3554 l 7.75,-1.6352 c 15.1308,-3.1925 22.7178,-3.8895 36.75,-3.3761 15.5125,0.5675 23.9183,2.4676 35.1548,7.9462 9.4192,4.5926 14.6869,9.6552 18.8241,18.0911 3.994,8.144 5.5211,14.9585 5.5211,24.6375 0,16.1384 -3.9439,26.1536 -14.4205,36.6196 -12.2094,12.197 -22.5689,15.8204 -49.0795,17.1662 l -15,0.7614 -0.2642,31.25 -0.2643,31.25 H 1076.4858 1064 Z m 57.9801,-5.3273 c 11.3184,-3.6554 20.0041,-15.9007 20.8236,-29.3578 0.8293,-13.6178 -8.167,-24.7494 -23.1851,-28.6884 -5.5674,-1.4602 -7.5993,-1.5355 -14.4593,-0.5356 -4.3899,0.6398 -9.5966,1.8381 -11.5704,2.6628 l -3.5889,1.4995 v 26.5125 26.5125 l 3.75,0.9627 c 6.9287,1.7786 7.7249,1.882 15.3852,1.9984 4.7266,0.072 9.6197,-0.525 12.8449,-1.5666 z M 1325,1216.9461 v -81.481 l 2.25,-0.5221 c 18.57,-4.309 35.2136,-5.8678 48.2343,-4.5176 10.1506,1.0525 25.158,5.444 31.4865,9.2136 24.8362,14.7935 27.6525,51.5283 5.4843,71.5359 l -6.4898,5.8572 14.0108,40.4474 c 7.706,22.2461 14.0138,40.5727 14.0174,40.7257 0,0.153 -6.1259,0.153 -13.621,0 l -13.6275,-0.2782 -5.8351,-21 c -6.8726,-24.7333 -9.9672,-32.5081 -15.2041,-38.1974 -5.7378,-6.2335 -10.5394,-7.7054 -22.9737,-7.0423 -5.6277,0.3001 -11.4696,1.0281 -12.9821,1.6179 l -2.75,1.0723 v 31.3765 31.3766 l -8.25,0.6422 c -4.5375,0.3532 -9.4875,0.6449 -11,0.6482 l -2.75,0.01 v -81.4809 z m 57.8326,-11.062 c 6.4432,-1.9134 11.539,-6.2835 14.776,-12.6715 6.4389,-12.7064 5.137,-23.1704 -4.0222,-32.3296 -4.2716,-4.2716 -6.5735,-5.6805 -12.0392,-7.3687 -8.0436,-2.4844 -14.9814,-2.6456 -23.0871,-0.5364 -11.2589,2.9296 -10.5366,0.9359 -10.2281,28.234 l 0.268,23.7151 5.5,1.1536 c 8.1547,1.7103 22.7463,1.6109 28.8326,-0.1965 z M 87,1216.498 v -80.9291 l 5.25,-1.5242 c 26.7645,-7.7702 53.3846,-5.6375 74.6844,5.9836 10.7762,5.8796 16.337,12.3305 19.9987,23.2001 2.5371,7.5314 2.7835,22.5333 0.5271,32.1055 -4.4653,18.9437 -19.9466,33.4866 -39.9602,37.538 -3.85,0.7793 -14.0875,1.7334 -22.75,2.1201 l -15.75,0.7032 v 30.8659 30.8659 H 98 87 Z m 58.5,-5.9165 c 13.8435,-6.2383 21.7069,-23.9835 16.9603,-38.274 -2.4074,-7.248 -10.0557,-14.8899 -17.4923,-17.4777 -7.3007,-2.5405 -21.2738,-2.4415 -28.968,0.2052 l -5.5,1.892 v 27 27 l 4.5,1.2219 c 2.5901,0.7032 8.9565,1.1081 15,0.9538 8.3476,-0.2131 11.5249,-0.73 15.5,-2.5212 z m 69.5,5.3455 v -81.5 h 11 11 v 81.5 81.5 h -11 -11 z m 58,-0.9111 v -82.4111 l 20.75,-0.3703 c 24.7603,-0.4419 42.4529,0.5281 50.0815,2.7459 21.9758,6.3885 34.1685,22.7511 34.1685,45.8542 0,17.8138 -6.5741,31.321 -20.512,42.144 -10.5893,8.2228 -20.8389,11.0187 -44.238,12.0673 l -15.25,0.6834 v 30.8488 30.8489 H 285.5 273 Z m 61.7935,-4.5419 c 10.2785,-4.5255 14.6505,-12.9414 14.5703,-28.047 -0.05,-9.3682 -2.5107,-17.9588 -6.4205,-22.4118 -6.7272,-7.6619 -22.6226,-9.456 -40.2093,-4.5384 l -3.766,1.053 0.266,27.192 0.266,27.1919 5,1.2138 c 8.1671,1.9826 23.9975,1.1185 30.2935,-1.6535 z M 403,1215.927 v -81.5 h 44.893 c 40.0141,0 44.959,0.1719 45.5,1.5818 0.3339,0.87 0.607,4.92 0.607,9 v 7.4182 h -32 -32 v 24 24 h 29.8176 29.8175 l 1.1134,10.7357 c 0.6124,5.9046 0.9889,10.8603 0.8366,11.0125 -0.2359,0.236 -54.82,3.1871 -59.8351,3.2351 -1.623,0.015 -1.75,1.9755 -1.75,27.0167 v 27 h 33.3834 33.3833 l 0.603,2.25 c 0.3317,1.2375 0.6091,5.2875 0.6166,9 l 0.014,6.75 h -47.5 -47.5 v -81.5 z m 121,0 v -81.5 h 12 12 v 72.5 72.5 h 33.3607 33.3607 l 0.6306,5.25 c 0.3468,2.8875 0.6345,6.9375 0.6393,9 l 0.01,3.75 h -46 -46 v -81.5 z m 117,0 v -81.5 h 10 10 v 81.5 81.5 h -10 -10 z m 218,0 v -81.5 h 43.8834 43.8833 l 0.603,2.25 c 0.3317,1.2375 0.6091,5.2875 0.6166,9 l 0.014,6.75 h -32.5 -32.5 v 24 24 h 30.5 30.5 l 0.01,4.75 c 0,2.6125 0.294,7.7875 0.6446,11.5 l 0.6375,6.75 h -31.1446 -31.1446 v 27.9867 27.9867 l 33.75,0.2633 33.75,0.2633 0.2889,8.75 0.289,8.75 h -46.039 -46.0389 v -81.5 z m 880,0 v -81.5 h 44.8641 44.8641 l 0.6359,4.6396 c 0.3497,2.5517 0.6359,6.6017 0.6359,9 v 4.3604 h -32.5 -32.5 v 23.4147 23.4147 l 7.25,0.5729 c 3.9875,0.3151 17.6,1.0699 30.25,1.6773 12.65,0.6074 23.0563,1.1755 23.1251,1.2624 0.069,0.087 0.3378,4.7705 0.5978,10.408 l 0.4728,10.25 h -30.8639 -30.8639 l 0.266,27.25 0.2661,27.25 33.2343,0.2635 33.2344,0.2634 0.4725,2.2366 c 0.2599,1.2301 0.6191,5.499 0.7983,9.4865 l 0.3259,7.25 H 1786.2827 1739 Z m 383,-4.3143 c -21.9549,-5.7386 -35.9295,-26.4549 -32.2674,-47.8339 3.7426,-21.8495 24.1093,-39.3822 45.6989,-39.3399 17.3582,0.034 32.2928,9.5579 40.257,25.6724 3.7779,7.644 3.8115,7.8183 3.8115,19.7638 0,11.479 -0.1518,12.3723 -3.1931,18.7927 -9.1155,19.2429 -31.801,28.8276 -54.3069,22.9449 z m 22.53,-9.7355 c 15.5712,-4.0558 25.47,-16.4627 25.47,-31.9234 0,-9.1322 -2.9211,-16.2474 -9.6572,-23.5233 -7.8183,-8.4446 -14.4478,-11.5093 -24.8428,-11.4842 -6.829,0.017 -8.7972,0.4361 -13.4461,2.8662 -7.5092,3.9254 -16.146,12.4513 -19.6115,19.3597 -7.4843,14.92 -0.5389,33.5981 15.5194,41.7354 9.168,4.6458 16.8404,5.5034 26.5682,2.9696 z M 2122,1169.5436 v -24.8833 l 2.25,-0.603 c 1.2375,-0.3317 5.5954,-0.6091 9.6843,-0.6166 8.983,-0.017 15.2783,2.563 17.7043,7.2543 2.2609,4.3721 1.3665,11.7255 -1.9559,16.0814 l -2.6191,3.4337 3.9682,11.8116 c 2.1825,6.4964 3.9682,11.9711 3.9682,12.166 0,0.1948 -1.8662,0.2159 -4.1471,0.047 l -4.1472,-0.3075 -2.2719,-7.8913 c -3.0483,-10.5879 -4.8085,-12.2209 -12.6838,-11.7671 l -2.75,0.1582 v 10 10 h -3.5 -3.5 z m 18.3157,-4.2799 c 9.9959,-5.3239 2.143,-19.0152 -8.5657,-14.9342 -2.6352,1.0043 -2.75,1.3377 -2.75,7.9894 0,4.6175 0.4185,7.1103 1.25,7.4458 2.3355,0.9424 7.8731,0.6668 10.0657,-0.501 z M 0,659.92696 v -413.5 H 1079.5 2159 v 413.5 413.50004 H 1079.5 0 Z m 2120,-1.0005 v -374.5005 l -1040.25,0.2505 -1040.25,0.2505 -0.2559,373 c -0.1407,205.15 -0.042,373.56254 0.2187,374.25004 0.3791,0.9989 209.4004,1.25 1040.5058,1.25 H 2120 Z M 409.5,954.74086 c -28.1649,-1.4454 -62.5081,-9.1269 -88.6301,-19.8239 -66.4996,-27.2316 -119.5999,-76.5013 -150.8087,-139.9295 -21.3918,-43.4764 -30.0941,-83.6884 -28.7666,-132.9262 0.5671,-21.0321 1.9886,-33.526 5.8747,-51.6343 12.7713,-59.5117 45.4034,-114.9995 90.8307,-154.449 42.5193,-36.9242 90.6333,-59.0007 146.5,-67.2195 17.1762,-2.5269 65.9129,-2.5193 83,0.013 32.1771,4.7685 58.8287,13.2095 87.5031,27.7137 43.5617,22.0344 81.8116,56.4007 109.5664,98.4419 38.8145,58.7936 54.0875,132.9135 41.9736,203.6979 -24.2204,141.5247 -152.5487,243.5313 -297.0431,236.116 z m 50.5,-61.8969 c 86.5311,-12.6038 159.4303,-76.6448 182.606,-160.417 5.1187,-18.5024 7.4505,-34.0576 8.0989,-54.0272 1.8055,-55.6045 -15.3189,-107.613 -49.2154,-149.4728 -35.709,-44.098 -87.8077,-73.1262 -146.4895,-81.6207 -13.0797,-1.8933 -45.1876,-1.6018 -59.5,0.5402 -66.7378,9.988 -122.8793,45.4956 -159.1139,100.6341 -35.0839,53.3876 -45.4839,121.8843 -27.8672,183.5396 23.6887,82.9061 93.6816,144.9903 180.2466,159.88 21.3831,3.678 49.8714,4.0555 71.2345,0.9438 z m 606,60.5485 c -114.0665,-6.3048 -213.1211,-80.6402 -250.0119,-187.6211 -11.8329,-34.3148 -16.7982,-68.0754 -15.6926,-106.6983 1.2232,-42.7264 9.94,-78.0903 28.6289,-116.1461 35.8738,-73.049 102.2329,-127.5045 180.3212,-147.9749 27.187,-7.1269 35.1008,-7.9739 74.7544,-8.0009 40.0386,-0.027 46.742,0.6538 73.5652,7.474 19.836,5.0437 31.3763,9.364 51.9348,19.4424 29.4777,14.4509 55.4626,33.378 78.5,57.1785 14.2776,14.7506 22.742,25.2246 33.7016,41.7034 23.0269,34.6234 38.4994,74.7328 45.0089,116.6775 2.567,16.5402 2.5611,64.5688 -0.01,81 -12.0093,76.7516 -50.5186,141.2767 -111.4299,186.7092 -54.0292,40.2993 -120.5037,60.0573 -189.2707,56.2563 z m 48,-60.5633 c 79.0478,-9.9804 148.2728,-63.3604 178.9611,-137.9984 17.6314,-42.8817 21.6932,-92.7268 11.0835,-136.0121 -10.1792,-41.5289 -30.8926,-78.3567 -60.9912,-108.4404 -34.2025,-34.1857 -78.3027,-56.6189 -124.0534,-63.1046 -14.3936,-2.0404 -57.5014,-1.7828 -71.5,0.4273 -48.1533,7.6025 -92.5798,30.8934 -126.3041,66.2158 -32.5687,34.112 -52.4536,74.8352 -59.8385,122.5459 -2.4735,15.9804 -2.4935,50.0582 -0.039,65.9643 10.0164,64.9014 44.4913,118.8618 99.1157,155.1368 45.02,29.897 98.6111,42.2038 153.5656,35.2654 z m 607.3712,60.6244 c -75.7372,-5.5737 -147.2655,-41.4246 -195.7939,-98.1343 -36.624,-42.7984 -58.757,-92.1755 -66.7401,-148.8923 -2.0717,-14.718 -1.7808,-60.451 0.477,-75 8.0561,-51.9132 28.5225,-99.1106 60.2752,-139 16.9928,-21.3473 47.2072,-48.1025 71.9106,-63.6777 32.5564,-20.5265 69.8593,-34.2689 110,-40.5241 20.434,-3.1842 59.7128,-3.158 80.3932,0.054 71.3762,11.0848 134.3726,46.655 180.2393,101.7702 56.3222,67.6789 77.5117,159.9212 56.7116,246.8779 -25.2973,105.7575 -110.5013,188.2955 -217.754,210.9406 -24.0595,5.0799 -56.0946,7.3246 -79.7189,5.586 z m 49.3276,-60.5588 c 79.7361,-10.3524 148.3031,-62.1291 178.8662,-135.0664 10.7614,-25.6816 16.1805,-51.1148 17.1312,-80.4014 0.9418,-29.0112 -2.5475,-53.6673 -11.3045,-79.8782 -11.2155,-33.5695 -28.2747,-61.0277 -53.8608,-86.6931 -37.2501,-37.3655 -82.8182,-59.2982 -133.9783,-64.486 -15.3099,-1.5525 -51.5039,-0.6973 -64.5387,1.5249 -52.688,8.9823 -99.4249,35.9607 -134.2046,77.4681 -38.1438,45.5222 -57.3341,106.8312 -51.7781,165.4207 9.8568,103.9444 90.5889,187.6374 194.9688,202.1195 13.4421,1.865 44.3048,1.8607 58.6988,-0.01 z M 377,204.77346 c -32.2842,-3.0756 -58.6664,-16.3572 -76.3206,-38.4222 -23.2989,-29.1201 -29.2626,-69.226202 -15.3632,-103.318902 9.8399,-24.1353 31.6755,-45.455 56.8996,-55.5553002 15.7567,-6.3092 23.2411,-7.55819998 44.7842,-7.47309998 21.2783,0.084 25.8485,0.8689 42.5395,7.30569998 24.7185,9.5324002 46.2478,30.6849002 56.1278,55.1454002 10.436,25.8369 9.4255,57.907602 -2.6356,83.645302 -15.9095,33.9499 -46.4977,54.4854 -86.859,58.3128 -10.4936,0.9951 -12.1768,1.0268 -19.1727,0.3603 z m 22.5717,-54.3648 c 4.3404,-1.1101 10.3105,-3.4726 13.2669,-5.25 11.0208,-6.6259 19.9235,-19.402 22.723,-32.6097 6.7211,-31.708302 -12.5001,-57.504902 -45.1784,-60.633702 -20.679,-1.9798 -42.9104,10.7799 -51.9514,29.8177 -8.5868,18.0813 -4.2302,39.960602 10.9753,55.119502 13.7642,13.722 31.1482,18.4197 50.1646,13.5562 z M 83.9993,102.22106 84,4.5151578 l 25.75,0.4911 c 47.5295,0.9064 70.5469,3.1333 80.7956,7.8170002 13.16,6.0142 21.7704,20.025 23.1094,37.6037 0.9398,12.3381 -2.0912,23.7174 -9.6601,36.2668 -2.1972,3.643 -3.9938,6.9858 -3.9925,7.4284 0,0.4427 2.5888,2.1417 5.75,3.7758 3.1612,1.634 8.2827,5.483202 11.3813,8.553702 9.7953,9.7066 13.8663,20.8136 13.8663,37.8315 0,21.5739 -9.4505,37.9669 -26.3472,45.7025 -11.187,5.1216 -30.7016,7.1899 -82.9035,8.7866 l -37.7506,1.1547 z m 80.6396,52.1366 c 3.7895,-1.4116 9.2865,-7.0011 10.2239,-10.396 1.1589,-4.1971 -0.063,-10.9814 -2.5925,-14.3929 -1.0773,-1.453 -3.8572,-3.9845 -6.1776,-5.6255 -3.5605,-2.5182 -5.3616,-3.0415 -11.5433,-3.3537 -4.8232,-0.2435 -9.2414,0.1874 -12.937,1.2617 L 136,123.48286 v 15.4001 15.4001 l 5.25,0.5725 c 10.9226,1.1912 12.3659,1.2588 16.75,0.7851 2.475,-0.2675 5.4625,-0.8448 6.6389,-1.283 z m -9.9156,-78.947802 c 5.7923,-2.533 8.5612,-7.0945 7.828,-12.896 -1.2505,-9.8946 -7.1892,-14.4395 -18.9878,-14.5317 l -7.0635,-0.055 -0.2763,14.6716 c -0.2511,13.3368 -0.1147,14.7175 1.5,15.1755 3.0925,0.8773 12.6159,-0.4472 16.9996,-2.3642 z M 989,101.92696 V 5.4269578 h 32.4656 c 35.0132,0 46.6003,0.9954 63.8961,5.4893002 35.7085,9.2778 58.0209,30.2025 68.2559,64.0107 2.4856,8.2108 2.7315,10.4908 2.8035,26.000002 0.064,13.7277 -0.2854,18.3474 -1.8138,24 -8.7083,32.2072 -32.1425,57.7986 -62.3448,68.084 -5.3694,1.8286 -12.6875,3.7918 -16.2625,4.3628 -3.7041,0.5916 -23.813,1.0413 -46.75,1.0456 l -40.25,0.01 v -96.5 z m 78.465,47.9671 c 8.5068,-2.2157 14.9634,-6.0824 20.9452,-12.5434 8.7917,-9.4961 12.5898,-20.1827 12.5898,-35.4237 0,-15.595902 -4.2204,-26.850902 -13.5773,-36.207802 -9.9951,-9.995 -23.2117,-13.9234 -39.8502,-11.8445 l -5.5725,0.6962 v 47.382702 47.3828 l 3.75,0.6272 c 2.0625,0.3449 4.2,0.7798 4.75,0.9663 2.6314,0.8925 11.6837,0.3398 16.965,-1.0358 z M 2025,197.50556 c -6.1691,-0.4387 -9.2604,-1.1494 -11.2731,-2.5915 -2.9686,-2.1272 -20.7381,-23.9485 -40.7054,-49.9871 -14.9332,-19.4739 -13.3988,-17.8324 -15.9208,-17.0319 -2.0799,0.6601 -2.1007,1.0029 -2.1007,34.5993 v 33.9326 h -26.5 -26.5 v -94.5 -94.5000022 h 26 26 V 39.926958 c 0,19.0701 0.3794,32.5 0.9182,32.5 0.505,0 1.5782,0.2533 2.3848,0.5628 1.5419,0.5917 19.8298,-22.2591 37.0683,-46.317 9.3467,-13.0442 14.3037,-17.4409002 22.4164,-19.8824002 3.2952,-0.9917 11.2472,-1.3634 29.1712,-1.3634 24.8785,0 27.0411,0.2952 27.0411,3.6917 0,0.7104 -16.0102,20.6792002 -35.5782,44.3750002 -19.568,23.6958 -35.3569,43.6121 -35.0864,44.2583 0.2705,0.6463 18.4638,23.225002 40.4296,50.175002 l 39.9377,49 -8.6013,0.6441 c -10.5439,0.7896 -37.5855,0.7535 -49.1014,-0.065 z m -1349.4655,-3.3286 c -0.7499,-1.7875 -3.8506,-8.5375 -6.8903,-15 l -5.5267,-11.75 h -31.5632 -31.5631 l -7.2296,14.5 -7.2296,14.5 h -27.266 c -14.9963,0 -27.2734,-0.3375 -27.2825,-0.75 -0.01,-0.4125 16.0784,-42.93 35.75,-94.4833 L 602.5,7.4603578 l 29.5665,-0.017 29.5666,-0.017 33.8178,90.2500002 c 18.5997,49.637502 34.6507,92.387502 35.6688,95.000002 l 1.8511,4.75 h -28.0364 -28.0365 l -1.3634,-3.25 z M 648,120.70146 c 0,-0.3991 -3.2548,-10.5241 -7.233,-22.500002 -5.6076,-16.8816 -7.6113,-21.7745 -8.9168,-21.7745 -1.3035,0 -3.2841,4.8008 -8.767,21.2505 C 619.1874,109.36526 616,119.49026 616,120.17746 c 0,0.9473 3.8702,1.2495 16,1.2495 8.8,0 16,-0.3265 16,-0.7255 z m 133,-18.1949 V 7.5861578 l 6.75,-0.8296 c 3.7125,-0.4563 23.85,-0.8296 44.75,-0.8296 43.2075,0 47.2842,0.5048 61.4877,7.6139002 19.7408,9.8806 29.0123,26.6056 29.0123,52.336 0,17.8759 -3.9617,29.1599 -14.0083,39.899802 -3.3529,3.5843 -8.7316,7.8581 -12.7953,10.167 -9.843,5.5925 -10.2092,6.4589 -5.4158,12.8142 2.1443,2.843 14.5611,19.4856 27.5931,36.9836 l 23.6944,31.8145 -31.4627,-0.3145 c -29.984,-0.2997 -31.5954,-0.4118 -34.2841,-2.3856 -3.5234,-2.5866 -10.5296,-12.7231 -28.6325,-41.4252 l -14.1888,-22.4963 -0.2635,33.2463 -0.2635,33.2463 H 806.9865 781 Z m 76.4263,-5.935002 c 18.6686,-10.4835 19.7544,-41.2256 1.8745,-53.0688 -5.4328,-3.5985 -12.9452,-5.3245 -19.4304,-4.4642 L 835,39.684658 v 29.8047 29.8048 l 2.75,0.4738 c 6.1052,1.052102 14.5553,-0.3206 19.6763,-3.1964 z m 506.5544,81.605402 c -3.3577,-10.5875 -7.4002,-23.3 -8.9833,-28.25 -1.5831,-4.95 -5.8524,-18.3375 -9.4874,-29.75 -5.1911,-16.2985 -6.9737,-20.748002 -8.3095,-20.740502 -1.3504,0.01 -5.0719,9.996302 -18.0757,48.515602 l -16.3753,48.5061 -27.5013,-0.2656 -27.5013,-0.2656 -18.9047,-63 C 1218.4445,98.276958 1205.741,55.864458 1200.6121,38.676958 l -9.3253,-31.2500002 h 27.6496 27.6496 l 14.957,54.0312002 c 13.4474,48.577902 15.1517,54.002902 16.8861,53.750002 1.6065,-0.2342 4.951,-9.2672 20,-54.017802 L 1316.5,7.4536578 l 21.5,-0.01 21.5,-0.01 16.9362,53.9949002 c 18.7733,59.851702 18.7154,59.728402 22.4107,47.744902 1.06,-3.4375 8.3391,-27.737502 16.1759,-54.000002 l 14.2485,-47.7500002 h 27.3644 c 18.2278,0 27.3643,0.3463 27.3643,1.037 0,0.8419 -48.4247,153.1204022 -57.6259,181.2130022 l -2.5383,7.75 h -26.8751 -26.875 l -6.105,-19.25 z m 128.9185,13.5 c 1.0285,-2.6125 16.7322,-43.4541 34.8971,-90.759 18.1649,-47.305002 33.7933,-87.924202 34.7299,-90.264902 l 1.7029,-4.2559002 28.9821,0.2649 28.982,0.2649 34.4102,91.0000002 c 18.9256,50.050002 35.0784,92.687502 35.8953,94.750002 l 1.4851,3.75 h -28.0438 -28.0438 l -6.8962,-14.5 -6.8962,-14.5 h -31.3149 -31.3148 l -7.4871,14.4811 -7.487,14.481 -27.7354,0.019 -27.7354,0.019 1.87,-4.75 z m 116.0058,-71 c -0.052,-0.4125 -3.3148,-10.425 -7.25,-22.250002 -5.0799,-15.2645 -7.59,-21.5 -8.655,-21.5 -1.0643,0 -3.5848,6.2454 -8.677,21.5 -3.9474,11.825002 -7.2099,21.837502 -7.25,22.250002 -0.04,0.4125 7.127,0.75 15.927,0.75 8.8,0 15.9572,-0.3375 15.905,-0.75 z M 1741,101.92696 V 7.4269578 h 27 27 V 79.267758 151.10866 l 28.5,1.3183 28.5,1.3183 v 21.3409 21.3408 h -55.5 -55.5 z"
     id="path914"
     inkscape:connector-curvature="0" />
</svg>
