<?xml version="1.0" encoding="UTF-8" standalone="no"?>
<!-- Created with Inkscape (http://www.inkscape.org/) -->

<svg
   xmlns:dc="http://purl.org/dc/elements/1.1/"
   xmlns:cc="http://creativecommons.org/ns#"
   xmlns:rdf="http://www.w3.org/1999/02/22-rdf-syntax-ns#"
   xmlns:svg="http://www.w3.org/2000/svg"
   xmlns="http://www.w3.org/2000/svg"
   xmlns:sodipodi="http://sodipodi.sourceforge.net/DTD/sodipodi-0.dtd"
   xmlns:inkscape="http://www.inkscape.org/namespaces/inkscape"
   version="1.1"
   id="svg967"
   width="2818.4504"
   height="992.67987"
   viewBox="0 0 2818.4504 992.67987"
   sodipodi:docname="dominianenergy.svg"
   inkscape:version="0.92.3 (2405546, 2018-03-11)">
  <metadata
     id="metadata973">
    <rdf:RDF>
      <cc:Work
         rdf:about="">
        <dc:format>image/svg+xml</dc:format>
        <dc:type
           rdf:resource="http://purl.org/dc/dcmitype/StillImage" />
        <dc:title></dc:title>
      </cc:Work>
    </rdf:RDF>
  </metadata>
  <defs
     id="defs971" />
  <sodipodi:namedview
     pagecolor="#ffffff"
     bordercolor="#666666"
     borderopacity="1"
     objecttolerance="10"
     gridtolerance="10"
     guidetolerance="10"
     inkscape:pageopacity="0"
     inkscape:pageshadow="2"
     inkscape:window-width="1095"
     inkscape:window-height="660"
     id="namedview969"
     showgrid="false"
     inkscape:zoom="0.047190562"
     inkscape:cx="-5286.7428"
     inkscape:cy="496.35921"
     inkscape:window-x="1211"
     inkscape:window-y="469"
     inkscape:window-maximized="0"
     inkscape:current-layer="svg967"
     fit-margin-top="0"
     fit-margin-left="0"
     fit-margin-right="0"
     fit-margin-bottom="0" />
  <path
     style="fill:#000000"
     d="m 0.75859467,992.23462 c -0.7737,-0.7737 -1.0842,-173.4139 -0.3119,-173.4139 0.2394,0 183.65429533,-56.025 407.58879533,-124.5 223.9344,-68.475 407.762,-124.5 408.5057,-124.5 0.7437,0 1.6014,0.4033 1.906,0.8961 1.3354,2.1608 -17.0747,41.6085 -29.4504,63.1039 -43.4072,75.3942 -102.5085,130.558 -180.5074,168.4814 -30.7877,14.9692 -61.7604,26.0139 -123.478,44.0318 -20.075,5.8607 -74.3,22.2791 -120.5,36.4853 -46.2,14.2062 -133.725,40.9771 -194.5,59.4909 -60.775,18.5138 -122.199995,37.2963 -136.499995,41.739 -26.6773003,8.288 -31.4560003,9.4823 -32.75280033,8.1855 z M 1984.5114,849.70722 c -18.8739,-2.0727 -38.4607,-7.7263 -44.6681,-12.8931 -4.2194,-3.5121 -4.7376,-7.4227 -4.7883,-36.1364 -0.039,-21.9478 0.1359,-24.7119 1.5973,-25.2727 2.2044,-0.8459 4.7125,0.047 9.826,3.498 7.4793,5.0478 20.7084,10.8299 31.0331,13.5638 8.578,2.2714 12.133,2.6599 25,2.732 17.8762,0.1002 27.2835,-1.7046 36.1265,-6.9309 12.0351,-7.1129 18.7124,-17.7409 18.8148,-29.9472 0.111,-13.2289 -1.557,-14.8014 -10.1249,-9.5453 -16.1379,9.9001 -42.798,12.6609 -63.6239,6.5887 -31.3054,-9.1277 -51.5676,-31.7387 -61.4231,-68.5434 -3.7011,-13.8213 -4.3514,-39.1087 -1.3775,-53.5647 5.7307,-27.8574 15.3784,-46.3566 30.6323,-58.7368 28.4111,-23.0588 69.5612,-26.941 97.9586,-9.2417 4.0994,2.555 7.7664,4.735 8.149,4.8444 0.3826,0.1093 1.4481,-2.0512 2.3679,-4.8012 l 1.6723,-5 33.5373,-0.2631 33.5372,-0.2632 1.164,2.8102 c 0.8656,2.0898 1.0861,28.0488 0.8601,101.2631 l -0.3039,98.453 -2.6177,9.5 c -5.3904,19.5618 -12.3752,32.3392 -24.7707,45.3135 -16.4421,17.2097 -37.4458,27.2474 -65.2843,31.1995 -13.9982,1.9872 -41.2987,2.6908 -53.294,1.3735 z m 56.68,-149.2785 c 6.7373,-3.1872 12.0975,-8.8268 15.6712,-16.488 2.5256,-5.4142 2.6349,-6.405 2.9875,-27.0569 0.2415,-14.1516 -0.02,-22.7258 -0.7705,-25.2298 -1.7476,-5.8329 -10.8446,-14.9978 -18.2862,-18.4225 -5.6727,-2.6107 -7.3004,-2.8896 -16.782,-2.8756 -8.8272,0.013 -11.3328,0.388 -15.727,2.3534 -9.7212,4.348 -16.3803,14.2459 -20.473,30.4305 -2.4663,9.753 -2.062,19.4015 1.2649,30.1809 4.81,15.5848 11.9766,24.0565 24.203,28.6104 7.6039,2.8323 20.1804,2.1553 27.9121,-1.5024 z m 161.5278,146.142 c -1.5388,-1.1487 -1.5519,-1.7157 -0.1606,-6.9975 0.8326,-3.1611 4.0289,-11.9361 7.1029,-19.5 3.074,-7.5639 7.0475,-18.0275 8.8299,-23.2525 1.7825,-5.225 5.1564,-13.9884 7.4976,-19.4742 6.5278,-15.2959 6.4219,-15.903 -10.294,-59.0258 -35.2525,-90.9429 -57.791,-150.3194 -58.3237,-153.6509 -0.4818,-3.0128 -0.2239,-3.8515 1.4618,-4.7537 1.3578,-0.7267 12.5376,-1.0954 33.2114,-1.0954 34.6582,0 36.4535,0.2909 39.3406,6.375 1.358,2.8619 5.5973,15.2067 28.757,83.7411 3.2742,9.6889 6.5832,18.4639 7.3535,19.5 1.3674,1.8394 1.4466,1.8367 3.3536,-0.1161 1.1797,-1.2081 8.5712,-21.9392 18.6671,-52.3567 13.126,-39.5466 17.3167,-51.0315 19.5214,-53.5 l 2.8073,-3.1433 32.2492,-0.2905 c 34.2861,-0.3088 33.8678,-0.3638 33.9019,4.4597 0.013,1.8421 -32.0196,87.1152 -90.4575,240.8045 -7.5231,19.7856 -14.3938,37.1847 -15.2681,38.6648 -0.8743,1.4801 -2.6614,3.1794 -3.9714,3.7763 -3.5888,1.6351 -63.37,1.4849 -65.5799,-0.1648 z m -591.837,-75.72 c -14.0428,-2.5591 -31.5772,-8.5084 -41.4152,-14.052 -10.2436,-5.7721 -23.6312,-18.8405 -29.2446,-28.5472 -16.7406,-28.9483 -20.8744,-70.7048 -10.1705,-102.7343 9.2252,-27.6046 30.1063,-51.911 53.4731,-62.2449 26.7589,-11.8341 67.4351,-12.1098 92.7561,-0.6287 21.8964,9.9283 39.6795,28.0907 48.6854,49.724 7.7169,18.5368 11.5744,43.3468 9.6025,61.7602 l -0.7168,6.6929 h -67.9451 -67.9452 l -1.0561,2.75 c -4.3284,11.2712 11.4799,29.6224 30.5641,35.4806 6.0041,1.843 9.4725,2.1617 23.5415,2.1633 19.6613,0 31.0504,-1.8008 44.3463,-7.0205 5.0345,-1.9765 10.8212,-3.8144 12.8593,-4.0843 3.3276,-0.4406 3.7716,-0.2282 4.3515,2.0825 0.3552,1.4153 0.4877,11.9668 0.2944,23.4479 -0.2667,15.8372 -0.6836,21.2747 -1.7276,22.5321 -1.7874,2.1526 -20.3721,8.0292 -35.6239,11.2645 -16.9549,3.5966 -48.8257,4.2938 -64.6292,1.4139 z m 54.4803,-136.28 c -3.6897,-12.5691 -12.5091,-22.787 -23.1044,-26.768 -11.8372,-4.4477 -25.8112,-1.1464 -36.1728,8.5456 -6.2855,5.8793 -9.0739,11.4994 -9.0739,18.2881 v 5.1843 h 34.9461 34.9461 z m -239.4787,131.5976 c -1.1176,-1.3456 -1.4719,-13.1817 -1.9084,-63.75 -0.496,-57.4689 -0.6753,-62.4653 -2.4061,-67.0301 -8.5424,-22.5294 -42.2961,-21.6487 -52.9522,1.3817 -2.0493,4.4288 -2.1191,6.1855 -2.6057,65.5508 -0.275,33.55 -0.8856,61.7875 -1.357,62.75 -0.7911,1.6154 -3.4641,1.75 -34.75,1.75 h -33.893 v -103.5 -103.5 h 33.9224 33.9225 l 0.9877,3.25 c 0.5433,1.7875 1.2618,4.4875 1.5966,6 0.7511,3.3921 3.7365,3.6473 8.0708,0.6898 5.6828,-3.8775 18.1155,-9.7656 25.5493,-12.1001 6.4938,-2.0392 9.4413,-2.3361 22.9507,-2.3119 14.8779,0.027 15.8793,0.159 24.9499,3.2979 5.1975,1.7986 12.1725,4.6959 15.5,6.4386 8.5371,4.4709 20.3807,16.4949 24.3646,24.7357 6.7379,13.9378 6.4999,10.7097 6.9395,94.1098 0.2827,53.619 0.074,76.8139 -0.7162,79.75 l -1.1149,4.1402 h -32.839 c -29.3157,0 -32.9863,-0.1773 -34.2115,-1.6524 z m 340.7723,-2.0976 c -0.3394,-2.0625 -1.1266,-18.825 -1.7494,-37.25 -1.1261,-33.317 -0.6027,-155.4186 0.6998,-163.25 l 0.6237,-3.75 h 33.3554 c 37.0833,0 34.3801,-0.5215 35.7909,6.9047 1.172,6.1694 2.2416,6.456 7.9767,2.1369 7.0706,-5.3246 17.8657,-10.6369 25.6575,-12.6259 7.2926,-1.8616 23.0099,-1.5426 28.765,0.5838 l 3.2643,1.2061 -0.2643,30.6472 -0.2643,30.6472 -3.3118,0.318 c -1.8215,0.1748 -6.1252,-0.3877 -9.5639,-1.25 -8.7753,-2.2008 -19.0123,-2.0008 -27.2111,0.5315 -5.7407,1.7732 -7.7528,3.0557 -12.9428,8.25 -6.7578,6.7633 -9.6342,12.7662 -11.4351,23.8639 -0.5993,3.693 -1.0233,27.781 -1.0277,58.3874 -0.01,35.231 -0.3631,53.1204 -1.1054,55.25 l -1.0979,3.1492 h -32.7713 -32.7713 z m -710.6447,-138.25 v -141 h 100 100 v 31 c 0,17.05 -0.1125,31.0719 -0.25,31.1598 -0.1375,0.088 -28.375,0.4254 -62.75,0.75 l -62.5,0.5902 -1.7009,3.5 c -3.9752,8.1799 -4.2796,23.0744 -0.7402,36.2188 l 1.0182,3.7812 h 53.3255 53.3256 l 0.6359,4.6396 c 0.8197,5.9802 0.8113,45.255 -0.011,52.1016 l -0.6296,5.2413 -52.5459,0.2587 -52.546,0.2588 -2.027,5.5 c -2.9715,8.063 -2.9905,30.1018 -0.033,38 l 2.0597,5.5 62.6842,0.2575 62.6841,0.2575 v 31.4925 31.4925 h -100 -100 v -141 z M 0.01139467,670.46562 v -87.4898 l 3.25000003,-1.0406 C 20.755595,576.33402 834.35569,327.84182 834.53049,328.04652 c 0.5632,0.6597 5.4929,27.267 6.906,37.2742 2.7605,19.5495 3.5733,32.5247 3.5706,57 0,28.8009 -2.0328,53.5129 -6.0938,74.1919 -0.903,4.5985 -1.3842,5.3086 -4.2107,6.2137 -1.7552,0.562 -189.4912,57.9738 -417.1912,127.5817 -227.7,69.608 -414.7874953,126.8046 -415.7499953,127.1037 -1.65750003,0.515 -1.75000003,-4.0819 -1.75000003,-86.9461 z M 2458.5114,667.80852 c -22.6906,-3.124 -41.6175,-18.5247 -49.171,-40.0104 -3.4621,-9.8478 -4.2578,-24.3718 -1.8889,-34.4774 5.0815,-21.6774 21.2185,-38.5844 43.0599,-45.1145 4.115,-1.2303 9.2987,-1.7939 16.5,-1.7939 7.2013,0 12.385,0.5636 16.5,1.7939 21.8414,6.5301 37.9784,23.4371 43.0599,45.1145 2.3689,10.1056 1.5732,24.6296 -1.8889,34.4774 -9.5279,27.102 -37.4223,43.9683 -66.171,40.0104 z m 20,-17.1708 c 14.4921,-3.624 28.0549,-17.3265 31.948,-32.2771 3.8679,-14.8538 0.1352,-29.6545 -10.2908,-40.8047 -9.9207,-10.6098 -19.6124,-14.9918 -33.1572,-14.9918 -13.5448,0 -23.2365,4.382 -33.1572,14.9918 -20.1923,21.5949 -13.3829,56.5852 13.5826,69.7944 10.618,5.2014 19.6148,6.1531 31.0746,3.2874 z m -33.5,-41.817 v -29 h 14.0572 c 7.7314,0 16.09,0.5119 18.5746,1.1375 11.7467,2.9579 16.6889,16.4026 10.2443,27.8691 -1.1219,1.9962 -3.0953,4.2739 -4.3853,5.0615 l -2.3455,1.4319 6.3819,11.25 6.382,11.25 -8.7046,-0.021 -8.7046,-0.021 -5.1246,-9.7293 c -4.663,-8.8528 -5.4062,-9.7574 -8.25,-10.0426 l -3.1254,-0.3133 v 10.0633 10.0634 h -7.5 -7.5 v -29 z m 28.6694,-5.4021 c 5.6206,-6.5343 0.6237,-12.5734 -10.4194,-12.5923 l -3.25,-0.01 v 8.1238 8.1239 l 5.6694,-0.4702 c 4.5972,-0.3812 6.1103,-0.9826 8,-3.1796 z M 1.0262947,433.89892 l 0.015,-87.5782 56.2350003,-17.1562 c 30.9293,-9.436 193.465895,-59.1169 361.192395,-110.4022 l 304.9572,-93.2459 7.6275,8.0374 c 34.0961,35.9283 62.2158,79.4528 81.9213,126.8003 2.2474,5.4 3.9411,10.2534 3.7638,10.7854 -0.1774,0.532 -183.7885,57.0756 -408.0248,125.6524 l -407.7022953,124.6852 0.015,-87.5782 z M 1409.3173,430.33522 c -22.3541,-4.0549 -42.2089,-15.0652 -58.6137,-32.5036 -5.7668,-6.1302 -8.6833,-10.3534 -12.5987,-18.2438 -8.5997,-17.3304 -12.122,-35.2122 -12.2314,-62.0973 -0.054,-13.1683 0.2751,-16.462 2.4916,-24.9638 3.0911,-11.8564 8.6926,-24.8364 14.7731,-34.233 17.1417,-26.4903 46.7261,-41.7972 83.4964,-43.201 16.6013,-0.6338 26.766,0.6072 39.7666,4.8549 46.6309,15.2358 72.7695,55.8745 70.2883,109.2799 -1.4839,31.9405 -10.6524,53.7773 -31.1089,74.0932 -11.2676,11.1901 -20.2151,16.8928 -33.9129,21.6142 -17.9872,6.1999 -45.03,8.5422 -62.3504,5.4003 z m 34.2728,-61.5526 c 10.6551,-5.158 18.2937,-16.6998 20.9633,-31.6749 3.6705,-20.5896 -0.027,-39.4539 -10.1887,-51.9872 -8.2712,-10.2012 -24.7186,-13.7806 -36.6034,-7.9659 -7.9083,3.8692 -12.938,9.9452 -16.592,20.0432 -7.3451,20.2993 -6.7664,38.0855 1.8249,56.0869 3.5249,7.3858 10.8604,14.573 17.2918,16.9424 6.1026,2.2482 17.0817,1.5677 23.3041,-1.4445 z m 1022.0182,61.8993 c -40.0478,-5.1388 -71.9833,-32.1071 -82.9873,-70.0796 -3.6794,-12.697 -4.8955,-25.3497 -4.3683,-45.45 0.409,-15.5945 0.8008,-18.9355 3.1231,-26.631 7.3007,-24.1924 21.7385,-44.6916 39.6267,-56.2635 16.4478,-10.64 35.3791,-16.2731 57.6321,-17.1486 22.2044,-0.8736 37.4571,2.217 55.3768,11.2208 26.0918,13.1098 43.5855,35.1627 51.5548,64.9907 3.5537,13.3013 4.5053,36.9459 2.0983,52.1426 -4.0549,25.6018 -13.4496,44.3304 -30.2774,60.3592 -11.8328,11.271 -22.1781,17.5962 -36.817,22.5103 -14.6389,4.9141 -36.8572,6.6723 -54.9618,4.3491 z m 31.8401,-62.2866 c 2.9844,-1.4601 6.8078,-4.2283 8.4965,-6.1516 16.5216,-18.8171 15.9768,-60.8787 -1.0154,-78.3879 -9.2337,-9.5148 -22.928,-12.2005 -34.1684,-6.7011 -13.8792,6.7905 -21.7586,23.1261 -21.7421,45.076 0.02,27.1267 7.6124,41.4719 25.2922,47.7892 7.0776,2.5289 15.9162,1.9083 23.1372,-1.6246 z m -1439.187,58.3066 -3.25,-0.9384 v -139.8489 c 0,-128.8411 0.1301,-139.957 1.6529,-141.2215 2.2097,-1.8346 98.3622,-2.5461 117.8471,-0.872 40.2759,3.4605 68.9544,15.3468 91.5536,37.946 23.9057,23.9057 36.0653,55.1014 37.6352,96.5536 1.7195,45.4036 -11.3903,84.2455 -37.1472,110.0595 -21.3306,21.378 -53.0544,34.9073 -90.0416,38.4001 -13.6343,1.2875 -113.7493,1.2212 -118.25,-0.078 z m 118.7492,-65.947 c 13.8206,-2.73 22.6835,-7.3999 32.131,-16.9301 6.0385,-6.0913 8.5961,-9.6587 12.2599,-17.1005 7.0039,-14.2261 8.8351,-22.4894 8.8427,-39.9036 0.019,-42.6023 -17.55,-68.7365 -51.8701,-77.159 -13.231,-3.247 -37.226,-2.8706 -49.6127,0.7783 -1.6466,0.485 -1.75,4.9665 -1.75,75.8628 v 75.3473 l 7.25,0.5972 c 18.5139,1.5251 29.3964,1.1452 42.7492,-1.4924 z m 390.0008,-37.4473 v -103.5132 l 34.25,0.2632 34.25,0.2631 1.8201,5.75 c 1.001,3.1625 2.1933,5.75 2.6495,5.75 0.4562,0 3.2371,-1.6388 6.1799,-3.6419 7.7082,-5.2466 16.6699,-9.1135 26.6412,-11.4954 7.2919,-1.7418 10.9063,-2.0066 22.2093,-1.6272 11.7282,0.3938 14.6812,0.856 22.5,3.5214 11.2268,3.8273 17.0808,7.0933 23.9236,13.3472 2.9462,2.6928 6.0115,4.8959 6.8116,4.8959 0.8001,0 4.2579,-1.8118 7.6839,-4.0261 9.0757,-5.8659 20.3879,-11.3404 30.0809,-14.5575 7.963,-2.6429 9.5741,-2.8233 25.5,-2.8549 16.5566,-0.033 17.25,0.051 26.5866,3.1971 20.7522,6.9934 33.45,19.6914 40.3245,40.3249 5.2979,15.9014 5.5805,20.6892 5.5849,94.6014 0,41.8932 -0.3721,69.174 -0.9712,70.75 l -0.9753,2.5651 h -34.3642 -34.3643 l -1.1605,-2.5471 c -0.8386,-1.8405 -1.1605,-18.8412 -1.1605,-61.2899 0,-49.7188 -0.2372,-59.6584 -1.5439,-64.7029 -1.9545,-7.5448 -5.3362,-12.6914 -10.6458,-16.2016 -3.6468,-2.4109 -5.1262,-2.7548 -11.7414,-2.729 -10.9207,0.043 -18.568,4.8073 -23.8831,14.8805 l -2.6858,5.09 -0.5507,61.5 c -0.3029,33.825 -0.9179,62.5125 -1.3666,63.75 l -0.816,2.25 h -33.4344 -33.4344 l -1.4489,-3.4679 c -1.2107,-2.8975 -1.449,-13.3352 -1.449,-63.4625 0,-57.4815 -0.084,-60.2178 -1.9936,-65.3229 -5.115,-13.6711 -19.8796,-19.6008 -32.7883,-13.1681 -5.9561,2.968 -10.512,8.2372 -13.5753,15.7006 -2.0891,5.09 -2.1553,6.7487 -2.6428,66.2208 -0.275,33.55 -0.8641,61.5625 -1.309,62.25 -0.6211,0.9596 -8.6954,1.25 -34.75,1.25 h -33.941 z m 357.5977,99.2631 c -3.2981,-22.2731 -3.3078,-193.5239 -0.011,-202.1143 0.564,-1.4698 4.0662,-1.6357 34.5207,-1.6357 18.6411,0 33.9011,0.3375 33.911,0.75 0.01,0.4125 0.4684,9.75 1.0189,20.75 1.1681,23.3391 1.4917,157.5252 0.4213,174.75 l -0.7301,11.75 h -34.2505 -34.2505 l -0.6294,-4.25 z m 112.4023,-99.75 v -104 h 32.845 c 30.5497,0 32.9607,0.1278 34.5,1.8287 0.9103,1.0058 1.6575,2.2433 1.6606,2.75 0,0.5067 0.4742,2.6088 1.047,4.6713 1.3899,5.005 3.3579,4.8828 12.4311,-0.7723 8.499,-5.2972 20.1196,-9.7277 30.1622,-11.4998 10.1968,-1.7994 28.8779,-0.8022 37.8541,2.0205 16.7514,5.2677 32.053,16.4007 39.0093,28.382 5.9512,10.25 7.6118,16.8836 8.5415,34.1196 1.0184,18.8803 1.0645,138.8684 0.055,142.5 l -0.6951,2.5 -34.1631,0.2631 -34.1632,0.2631 -0.8974,-3.7631 c -0.4937,-2.0697 -0.9857,-30.0881 -1.0936,-62.2631 -0.2236,-66.7358 -0.1602,-66.1198 -7.5668,-73.5263 -14.1985,-14.1986 -40.0381,-7.4232 -47.6013,12.4815 -1.8197,4.7891 -1.925,8.2408 -1.925,63.0876 0,48.4043 -0.2402,58.5962 -1.449,61.4893 l -1.4489,3.4679 h -33.5511 -33.551 v -104 z m 240,0.5 v -103.5 h 34.3834 34.3833 l 0.6069,2.25 c 0.3338,1.2375 1.1086,15.6958 1.7217,32.1295 1.1663,31.2582 0.6763,164.8018 -0.6234,169.8705 l -0.7051,2.75 h -34.8834 -34.8834 z m 342,0 v -103.5 h 34.4809 34.481 l 0.6229,2.75 c 1.8971,8.376 2.0741,8.7559 4.2263,9.0698 1.2866,0.1876 5.1883,-1.5325 9.4409,-4.1622 16.0795,-9.9432 27.9097,-13.0823 46.9268,-12.4518 11.7069,0.3881 14.4664,0.8324 22.7711,3.6658 13.8497,4.7254 20.6458,8.6736 28.7919,16.7269 5.3588,5.2977 8.1563,9.085 10.759,14.5655 6.9122,14.5553 6.856,13.7656 6.9315,97.336 0.054,59.3606 -0.2003,75.4692 -1.2175,77.25 l -1.2852,2.25 h -33.0158 -33.0159 l -1.4489,-3.4679 c -1.2096,-2.895 -1.449,-13.1901 -1.449,-62.3185 0,-64.4251 -0.032,-64.8158 -5.9003,-72.9172 -4.5009,-6.2134 -10.7116,-8.7991 -21.0997,-8.7844 -6.9104,0.01 -9.3026,0.4383 -12.7915,2.2915 -5.8238,3.0934 -11.3721,8.8424 -14.2578,14.7736 -3.2386,6.6565 -3.9166,20.9346 -3.7993,80.0118 0.066,33.1313 -0.2338,46.6965 -1.0652,48.25 -1.1505,2.1497 -1.336,2.1611 -35.1214,2.1611 h -33.9648 z M 0.25589467,198.09092 l 0.2555,-87.6296 L 37.511395,99.103022 c 20.35,-6.2471 69.399995,-21.4358 108.999995,-33.7527 100.5833,-31.2847 143.0971,-43.8846 175.5,-52.0134 88.3694,-22.1686996 172.6714,-16.7316996 256.5,16.5429 23.9698,9.5145 66.7985,32.4153 85.2599,45.5891 5.7136,4.0771 6.3421,4.8221 4.671,5.536 -1.062,0.4537 -150.6559,46.278798 -332.4309,101.833598 -181.775,55.5547 -331.7399953,101.4301 -333.2554953,101.9453 l -2.75540003014,0.9367 z m 1925.06130533,-6.6854 -2.8058,-2.4152 v -20.8348 c 0,-11.4591 0.3234,-21.6223 0.7186,-22.5848 0.6651,-1.6196 3.3251,-1.75 35.7047,-1.75 h 34.9861 l 0.492,3.25 c 1.1649,7.6956 1.5049,19.3449 0.9208,31.555 l -0.6269,13.1056 -2.9969,1.0447 c -1.8283,0.6373 -14.8097,1.0447 -33.2919,1.0447 h -30.295 z m 351.3192,-1.7098 c -0.3437,-1.7187 -0.625,-12.6913 -0.625,-24.3834 0,-21.2004 0.01,-21.26 2.25,-21.8613 3.7289,-0.9993 67.1154,-0.6847 68.738,0.3411 1.2221,0.7727 1.5547,4.787 1.8614,22.4725 0.2055,11.8424 0.09,22.6621 -0.257,24.0439 l -0.6305,2.5122 h -35.356 -35.3559 z"
     id="path1520"
     inkscape:connector-curvature="0" />
</svg>
