<?xml version="1.0" encoding="UTF-8" standalone="no"?>
<!-- Created with Inkscape (http://www.inkscape.org/) -->

<svg
   xmlns:dc="http://purl.org/dc/elements/1.1/"
   xmlns:cc="http://creativecommons.org/ns#"
   xmlns:rdf="http://www.w3.org/1999/02/22-rdf-syntax-ns#"
   xmlns:svg="http://www.w3.org/2000/svg"
   xmlns="http://www.w3.org/2000/svg"
   xmlns:sodipodi="http://sodipodi.sourceforge.net/DTD/sodipodi-0.dtd"
   xmlns:inkscape="http://www.inkscape.org/namespaces/inkscape"
   version="1.1"
   id="svg2"
   width="2880.031"
   height="604.98639"
   viewBox="0 0 2880.031 604.98639"
   sodipodi:docname="enbridge.svg"
   inkscape:version="0.92.3 (2405546, 2018-03-11)">
  <metadata
     id="metadata8">
    <rdf:RDF>
      <cc:Work
         rdf:about="">
        <dc:format>image/svg+xml</dc:format>
        <dc:type
           rdf:resource="http://purl.org/dc/dcmitype/StillImage" />
        <dc:title></dc:title>
      </cc:Work>
    </rdf:RDF>
  </metadata>
  <defs
     id="defs6" />
  <sodipodi:namedview
     pagecolor="#ffffff"
     bordercolor="#666666"
     borderopacity="1"
     objecttolerance="10"
     gridtolerance="10"
     guidetolerance="10"
     inkscape:pageopacity="0"
     inkscape:pageshadow="2"
     inkscape:window-width="1368"
     inkscape:window-height="634"
     id="namedview4"
     showgrid="false"
     inkscape:zoom="0.0472"
     inkscape:cx="-1763.0046"
     inkscape:cy="302.56491"
     inkscape:window-x="1192"
     inkscape:window-y="516"
     inkscape:window-maximized="0"
     inkscape:current-layer="svg2"
     fit-margin-top="0"
     fit-margin-left="0"
     fit-margin-right="0"
     fit-margin-bottom="0" />
  <path
     style="fill:#000000"
     d="m 92.353393,604.36837 c -40.5468,-4.1957 -69.2474,-20.6952 -83.4503998,-47.9743 -6.3179,-12.1344 -8.19809999,-20.1866 -8.78039999,-37.6022 -0.6129,-18.3302 0.98409999,-29.3207 6.79459999,-46.7612 7.3834998,-22.1616 21.3203998,-46.7338 38.3447998,-67.6058 8.5946,-10.537 8.3631,-9.4329 4.5078,-21.5034 -3.368,-10.5445 -3.234,-28.5429 0.3088,-41.5 8.3806,-30.65 27.5412,-58.7158 60.274797,-88.2889 63.7816,-57.6233 175.0929,-109.7111 234.4517,-109.7111 10.7819,0 12.1073,0.2136 17.0679,2.75 2.958,1.5125 6.2217,3.914 7.2526,5.3366 8.3794,11.5637 -6.0834,37.9134 -20.81,37.9134 -8.8557,0 -10.0683,-6.6057 -2.8136,-15.3267 3.0501,-3.6666 2.9718,-6.0401 -0.2835,-8.6007 -3.1906,-2.5098 -8.0004,-2.6485 -21.3651,-0.6162 -51.6087,7.8477 -126.7866,46.2124 -179.449,91.5761 -13.4283,11.5673 -30.7303,29.7018 -37.7908,39.6091 -6.5058,9.129 -13.550997,22.4211 -16.764497,31.6291 -2.795,8.0086 -3.793,22.8477 -1.854,27.5656 l 1.3712,3.3363 9.9936,-8.3522 c 63.478997,-53.0532 149.413097,-94.3489 205.381397,-98.6962 30.5018,-2.3692 52.177,7.5649 57.2057,26.2185 1.9941,7.3973 0.6656,21.0662 -2.9402,30.2498 -13.4969,34.376 -59.6467,74.0451 -114.6611,98.5595 -27.0078,12.0347 -55.2197,20.4476 -82.1871,24.5085 -15.0899,2.2723 -47.2219,2.3111 -56.9206,0.069 -9.815497,-2.2693 -19.500597,-6.0474 -26.675097,-10.4057 l -6.0517,-3.6762 -2.7175,3.2551 c -1.4946,1.7903 -5.1991,8.0572 -8.2322,13.9264 -17.0742,33.0395 -16.1172,61.2251 2.7061,79.6932 15.8673,15.568 41.713697,22.3392 74.543697,19.5287 43.9144,-3.7594 93.8339,-19.5901 151.5421,-48.0578 56.4187,-27.8317 107.961,-60.8144 158.5,-101.4269 22.9782,-18.4649 25.5705,-20.9472 26.8706,-25.7303 0.6482,-2.3846 4.7437,-24.7359 9.1011,-49.6696 4.3574,-24.9336 8.4515,-45.9711 9.0979,-46.75 0.9763,-1.1763 7.6555,-1.4161 39.4513,-1.4161 h 38.2761 l 10.4862,-15.75 c 23.7294,-35.6411 37.3205,-66.5639 42.25,-96.1279 2.2917,-13.7444 1.6187,-35.9893 -1.4379,-47.5305 -11.4371,-43.183996 -46.0807,-69.263996 -100.5393,-75.686596 -14.7536,-1.74 -60.0815,-0.594 -79.209,2.0026 -94.309,12.8028 -203.9831,55.3982 -289.2883,112.354096 -37.3432,24.933 -64.083997,46.4222 -95.338897,76.6154 -9.1338,8.8235 -17.5272,16.1087 -18.9786,16.473 -6.1006,1.5312 -9.6618,-2.6291 -8.3296,-9.7307 2.9891,-15.933 55.2607,-63.2631 109.258497,-98.9296 103.9633,-68.669596 214.1128,-110.786996 319.8299,-122.2920955 19.7907,-2.1538 66.9524,-2.4695 82,-0.5488 55.7846,7.1201 97.0212,32.9771995 115.509,72.4290995 8.1742,17.4434 11.9757,36.454696 11.9851,59.937596 0.012,30.9267 -7.2027,61.8658 -23.0878,99.0035 -3.2943,7.7016 -7.3363,16.6708 -8.9824,19.9316 -1.646,3.2608 -2.7257,6.3609 -2.3993,6.889 0.3678,0.5951 21.7935,0.9603 56.3433,0.9603 43.028,0 56.1372,0.2852 57.4471,1.25 1.576,1.1606 1.2267,3.8956 -4.8827,38.2365 -3.619,20.3426 -7.0451,37.5469 -7.6134,38.2317 -0.8043,0.9691 -17.847,1.3047 -76.8765,1.5135 -53.7368,0.1901 -76.1652,0.5906 -76.9485,1.3741 -0.608,0.6082 -2.7679,10.8802 -4.7997,22.8266 -3.6326,21.3585 -3.6618,21.7447 -1.7531,23.1443 1.6266,1.1926 11.3956,1.4233 60.2814,1.4233 49.3104,0 58.4241,0.2185 58.8819,1.4115 0.5101,1.3293 -12.205,74.1333 -13.2397,75.8073 -0.2655,0.4297 -27.1813,0.7812 -59.8129,0.7812 -55.0597,0 -59.4773,0.126 -61.3741,1.75 -1.6583,1.4199 -2.7165,5.5982 -5.6096,22.149 -2.6393,15.0988 -3.2797,20.7436 -2.4648,21.7255 0.8929,1.0759 15.2582,1.3784 76.0356,1.601 81.5816,0.2988 77.4637,-0.012 76.3965,5.7745 -0.2536,1.375 -2.9803,17.125 -6.0594,35 -3.079,17.875 -6.0557,33.9625 -6.6147,35.75 l -1.0164,3.25 h -127.8634 c -79.9917,0 -128.0841,-0.3569 -128.4527,-0.9533 -0.446,-0.7217 17.9013,-108.152 21.0571,-123.2967 0.3592,-1.7237 0.1486,-2.75 -0.5641,-2.75 -0.6255,0 -7.9737,5.1306 -16.3295,11.4012 -104.3889,78.3398 -221.7622,125.0712 -319.1923,127.0844 -10.45,0.2159 -23.049997,-0.026 -27.999997,-0.5387 z m 65.999997,-212.9676 c 56.6436,-6.321 126.1061,-40.0896 157.7549,-76.6911 15.6043,-18.0463 16.7364,-32.7564 3.0317,-39.3919 -4.1179,-1.9938 -6.164,-2.2937 -14.6464,-2.1468 -20.1264,0.3484 -41.8947,6.4867 -75.1402,21.1884 -33.1769,14.6714 -68.5593,36.6782 -99.3511,61.7935 -11.6461,9.4991 -26.1489,23.0639 -26.1489,24.4575 0,1.4819 7.5971,5.8467 13.727,7.8866 11.7383,3.9063 23.9779,4.778 40.773,2.9038 z m 2132.00001,212.9285 c -50.8693,-3.9998 -87.7087,-24.6348 -103.9711,-58.2378 -7.7075,-15.9259 -11.2426,-34.1302 -10.0337,-51.67 1.3702,-19.8811 19.9335,-123.4486 25.0608,-139.8181 4.4584,-14.2336 13.507,-32.1363 21.8545,-43.2392 7.8695,-10.4669 22.5265,-24.6167 32.9111,-31.7719 26.1087,-17.9895 60.0854,-28.3685 97.6784,-29.838 54.9299,-2.1473 102.8867,16.2186 123.6361,47.3487 8.5919,12.8902 13.3639,29.0262 13.3639,45.188 0,12.7337 -2.7615,32.3049 -4.7805,33.8805 -1.2267,0.9573 -11.9173,1.2468 -45.6606,1.2363 -24.2324,-0.01 -45.0064,-0.268 -46.1645,-0.5788 -1.975,-0.5302 -2.099,-1.1962 -2,-10.7364 0.094,-9.0125 -0.1928,-10.8074 -2.5142,-15.7576 -5.2136,-11.1174 -14.1468,-17.0351 -28.3802,-18.7999 -22.2185,-2.755 -42.9948,6.388 -53.8772,23.7094 -5.4141,8.6176 -5.9103,10.7666 -17.126,74.177 -3.0644,17.325 -6.2864,35.4911 -7.16,40.3691 -2.1318,11.9037 -1.4829,27.304 1.4264,33.8505 2.919,6.5684 10.0464,13.1895 17.0158,15.8072 7.2534,2.7243 21.3913,3.6661 30.7817,2.0506 20.3361,-3.4987 32.0623,-15.8203 36.8663,-38.7382 1.155,-5.5103 1.1294,-6.4628 -0.2041,-7.5712 -1.0999,-0.9144 -7.5491,-1.3561 -23.1241,-1.5839 -11.8793,-0.1737 -21.977,-0.6869 -22.4392,-1.1404 -1.1187,-1.0975 9.1565,-59.9121 10.9703,-62.7937 l 1.4162,-2.25 h 70.8952 c 38.9923,0 71.6069,0.2731 72.4769,0.607 0.9871,0.3788 1.5818,1.8119 1.5818,3.8117 0,5.678 -13.9327,83.0055 -16.6811,92.5813 -9.7388,33.9315 -37.265,63.9347 -74.8189,81.552 -29.2824,13.7369 -67.5368,20.8297 -99,18.3558 z M 947.96029,592.81477 c -1.8729,-0.795 -4.6127,-4.737 -9.7305,-14 -60.1171,-108.8077 -85.9201,-155.1591 -87.0615,-156.3933 -1.0824,-1.1704 -1.5576,-1.2244 -2.1627,-0.2457 -0.4265,0.6898 -7.2237,38.4898 -15.1047,84 -7.8811,45.5101 -14.7047,83.7582 -15.1636,84.9957 l -0.8344,2.25 h -46.0247 -46.0248 l 0.039,-2.25 c 0.021,-1.2375 13.0096,-75.5609 28.8628,-165.1631 23.9895,-135.5892 29.1306,-163.1373 30.6522,-164.25 2.8198,-2.0619 79.373,-1.9432 83.3807,0.1293 2.2376,1.1571 11.856,17.2333 45.6205,76.25 48.2272,84.296 49.2017,85.927 50.5408,84.5879 0.5253,-0.5253 5.8996,-31.2961 11.943,-68.3796 6.0434,-37.0835 11.8678,-72.7614 12.9432,-79.2843 1.0754,-6.5229 2.4745,-12.4854 3.109,-13.25 0.9536,-1.1489 8.81211,-1.3875 45.28131,-1.3749 24.8031,0.01 44.7583,0.4144 45.5678,0.9266 1.7303,1.0948 4.5002,-15.5448 -27.5601,165.5581 -28.6333,161.7443 -29.1716,164.7024 -30.1385,165.6227 -1.3099,1.2468 -75.23211,1.5028 -78.13471,0.2706 z m 896.58731,0.9319 c -2.0932,-0.2489 -4.0127,-0.9915 -4.2654,-1.6502 -0.2528,-0.6587 12.5524,-74.9657 28.456,-165.1268 23.7829,-134.8303 29.2335,-164.1616 30.7066,-165.2387 1.4394,-1.0525 16.9113,-1.3093 78.8497,-1.3087 44.899,5e-4 81.6497,0.4294 88.0589,1.0277 30.3286,2.8311 57.6881,14.2137 75.3184,31.3354 14.9211,14.4906 22.6663,30.5831 25.1972,52.3531 1.7533,15.081 -0.1749,30.7639 -10.5469,85.783 -12.9879,68.8957 -14.8445,76.2825 -23.5256,93.602 -5.5067,10.9864 -14.2839,23.0972 -22.0805,30.467 -21.4496,20.2752 -54.2282,33.5213 -92.3626,37.3244 -9.9962,0.997 -166.6139,2.2872 -173.8058,1.4318 z m 163.1744,-81.7778 c 13.8056,-3.6745 25.5269,-13.2806 31.5776,-25.8791 3.8035,-7.9195 4.9871,-13.5896 15.5932,-74.7023 6.7774,-39.0515 6.9848,-43.074 2.6566,-51.5286 -3.245,-6.3387 -9.8975,-12.7691 -15.9894,-15.4555 -10.8825,-4.7991 -52.2444,-5.5826 -54.6778,-1.0358 -1.3439,2.5111 -30.2308,167.918 -29.5249,169.0602 1.0153,1.6428 43.9375,1.2517 50.3647,-0.4589 z m -942.8686,78.9945 c 0,-2.3491 53.3985,-306.0343 56.5302,-321.4952 0.8303,-4.0993 2.0632,-7.8049 2.7397,-8.2347 1.938,-1.231 184.2006,-0.9913 195.3957,0.257 22.4187,2.4998 41.4901,11.0867 55.3039,24.9005 7.0463,7.0463 12.0518,15.1899 15.6984,25.5401 2.6988,7.6599 2.8128,8.735 2.7562,25.9904 -0.055,16.6074 -0.2676,18.6814 -2.7539,26.8075 -8.3091,27.1572 -26.9159,47.1077 -51.4202,55.1337 -2.8875,0.9457 -5.25,2.3198 -5.25,3.0535 0,0.7337 3.8357,3.1906 8.5237,5.4597 12.0307,5.8232 21.1923,14.6197 26.4929,25.4372 5.9321,12.1062 7.4101,18.9042 7.4157,34.1084 0.01,16.1316 -2.1818,25.2135 -9.8888,41.0518 -16.984,34.9025 -45.4795,56.1952 -84.2536,62.9569 -7.2117,1.2576 -24.9077,1.4913 -112.9209,1.4913 h -104.369 z m 189.5,-77.5033 c 6.4798,-3.1899 15.0157,-11.7275 17.769,-17.7725 1.6102,-3.5354 2.1785,-6.744 2.2009,-12.4261 0.027,-6.9417 -0.2549,-8.0658 -3.0086,-11.9875 -2.033,-2.895 -4.9875,-5.3246 -8.9262,-7.34 l -5.8874,-3.0125 -32.7501,-0.3221 c -31.0016,-0.305 -32.8028,-0.2236 -33.7382,1.5242 -0.9989,1.8665 -9.1594,46.3785 -9.1594,49.9607 0,4.36 0.7768,4.4505 35.4989,4.1361 32.7544,-0.2967 33.0385,-0.3173 38.0011,-2.7603 z m 24,-127.0022 c 11.5594,-5.6956 18.5152,-16.9189 18.4835,-29.8239 -0.026,-10.5496 -5.1374,-17.4942 -14.8659,-20.1965 -2.0711,-0.5753 -17.1603,-1.0072 -35.2962,-1.0104 -34.5122,-0.01 -34.029,-0.085 -35.2256,5.7341 -2.0254,9.8492 -7.5958,42.4731 -7.5958,44.4857 0,1.3427 0.3215,2.7628 0.7145,3.1558 0.393,0.393 16.0305,0.5805 34.75,0.4167 33.8656,-0.2964 34.0605,-0.3102 39.0355,-2.7615 z m 105.8338,205.391 c -0.332,-0.865 2.2025,-17.4025 5.6322,-36.75 3.4296,-19.3476 16.4936,-93.1432 29.0311,-163.9904 12.5375,-70.8471 23.1045,-129.1221 23.4822,-129.5 1.147,-1.1474 164.8841,-1.3657 176.2953,-0.2351 14.1528,1.4024 24.93,4.325 36.8556,9.9947 35.3723,16.8169 51.3144,41.3336 53.0307,81.5534 1.626,38.1048 -12.3353,74.3957 -37.6066,97.7545 -8.4986,7.8555 -16.1504,12.7236 -28.0369,17.8371 -6.0236,2.5913 -8.6035,4.2283 -8.8114,5.591 -0.1616,1.0598 8.9509,27.4131 20.25,58.5629 11.2992,31.1498 20.544,57.5667 20.544,58.7042 0,2.0677 -0.014,2.0682 -51.7149,1.8093 l -51.7149,-0.259 -18.1469,-52.5 c -9.9808,-28.875 -18.905,-53.5125 -19.8317,-54.75 -1.582,-2.1126 -2.4108,-2.25 -13.5669,-2.25 -9.4683,0 -12.201,0.3192 -13.4533,1.5714 -0.8643,0.8643 -1.5714,1.7496 -1.5714,1.9673 0,1.1305 -18.1233,103.2246 -18.5879,104.7113 -0.5114,1.6363 -3.8249,1.75 -51.0109,1.75 -44.9703,0 -50.5297,-0.1712 -51.0674,-1.5726 z m 194.8993,-182.216 c 7.2018,-2.628 12.9604,-6.5687 18.9328,-12.9559 6.2095,-6.6408 9.6105,-13.6461 11.0168,-22.6922 2.6473,-17.0276 -5.2104,-29.4028 -21.9529,-34.574 -5.669,-1.751 -9.3087,-1.9893 -30.3862,-1.9893 h -23.9457 l -1.2931,3.25 c -2.0017,5.0308 -13.0406,68.1718 -12.2697,70.1809 0.6382,1.6631 2.4598,1.7513 27.4243,1.327 23.9494,-0.407 27.339,-0.6728 32.4737,-2.5465 z m 121.7669,180.6351 c 0,-4.6537 56.7912,-325.5879 58.0215,-327.8867 1.0197,-1.9053 2.4058,-1.9598 49.8226,-1.9598 38.7588,0 49.1434,0.2704 50.5744,1.3167 1.708,1.249 0.3208,9.7022 -26.9546,164.25 -15.8154,89.6133 -29.1286,163.9458 -29.5848,165.1833 l -0.8296,2.25 h -50.5247 -50.5248 z m 783.4739,1.9035 c -0.2548,-0.6875 12.5786,-75.05 28.5186,-165.25 23.0779,-130.5919 29.3289,-164.2546 30.6858,-165.25 1.3418,-0.9843 28.403,-1.25 127.3217,-1.25 98.9225,0 125.9784,0.2656 127.3147,1.25 1.5756,1.1607 1.2316,3.8877 -4.8134,38.1529 -3.5806,20.2966 -7.0133,37.5091 -7.6282,38.25 -0.9192,1.1076 -14.4849,1.3471 -76.3044,1.3471 -58.6117,0 -75.5464,0.2756 -76.8192,1.25 -1.1302,0.8653 -2.5769,6.4531 -4.7006,18.1548 -4.5781,25.2269 -4.7301,27.1603 -2.2403,28.4928 1.4331,0.7669 19.7394,1.1024 60.157,1.1024 50.4063,0 58.1725,0.1962 58.6659,1.482 0.5467,1.4247 -12.0992,73.8478 -13.2079,75.6416 -0.3003,0.4859 -27.0249,0.8764 -59.9826,0.8764 -58.1077,0 -59.4859,0.045 -61.441,2 -1.1,1.1 -2.0031,2.3375 -2.0069,2.75 0,0.4125 -1.518,9.4097 -3.3648,19.9938 -2.534,14.5225 -3.0843,19.6111 -2.2431,20.7407 0.9695,1.3018 10.8521,1.5307 75.8151,1.7562 53.0049,0.184 75.0221,0.5811 75.8081,1.3673 0.8103,0.8106 -0.6789,11.2816 -5.5466,39 -3.6599,20.8406 -6.8625,38.2295 -7.1171,38.642 -0.2545,0.4125 -58.0503,0.75 -128.4351,0.75 -101.4641,0 -128.0683,-0.2589 -128.4357,-1.25 z m 358.0261,-274.6418 c -15.2304,-4.1089 -24.0946,-16.1552 -23.3271,-31.7014 0.8673,-17.5696 13.5455,-29.0525 31.8271,-28.8264 11.65,0.144 21.1203,6.2669 26.1556,16.9105 7.4386,15.7236 0.6361,34.8479 -14.8285,41.6886 -4.8156,2.1302 -15.3,3.1501 -19.8271,1.9287 z m 18.0959,-10.6115 c 17.9154,-10.4992 13.9181,-36.1503 -6.4661,-41.4931 -6.4274,-1.6846 -12.8733,0.1383 -18.7355,5.2984 -10.8217,9.5256 -11.1665,23.0246 -0.8442,33.0495 7.0649,6.8614 17.545,8.127 26.0458,3.1452 z m -22.5959,-19.0932 v -14.5966 l 9.5895,0.3466 c 8.653,0.3127 9.776,0.577 11.5,2.7073 2.6441,3.2673 2.5891,10.4606 -0.1007,13.1504 l -2.0112,2.0112 2.5112,4.9555 c 1.3812,2.7256 2.5112,5.1956 2.5112,5.4889 0,0.2932 -1.6875,0.5327 -3.75,0.5322 -3.4584,-0.001 -3.9683,-0.3897 -6.5577,-5 -3.7098,-6.6053 -5.6923,-6.6049 -5.6923,0 v 5 h -4 -4 v -14.5965 z m 14.0657,-1.4387 c 4.2474,-2.2731 1.389,-7.9648 -4,-7.9648 -1.7816,0 -2.0657,0.6189 -2.0657,4.5 0,3.8811 0.2841,4.5 2.0657,4.5 1.1362,0 2.9362,-0.4658 4,-1.0352 z"
     id="path817"
     inkscape:connector-curvature="0" />
</svg>
