<?xml version="1.0" encoding="UTF-8" standalone="no"?>
<!-- Created with Inkscape (http://www.inkscape.org/) -->

<svg
   xmlns:dc="http://purl.org/dc/elements/1.1/"
   xmlns:cc="http://creativecommons.org/ns#"
   xmlns:rdf="http://www.w3.org/1999/02/22-rdf-syntax-ns#"
   xmlns:svg="http://www.w3.org/2000/svg"
   xmlns="http://www.w3.org/2000/svg"
   xmlns:sodipodi="http://sodipodi.sourceforge.net/DTD/sodipodi-0.dtd"
   xmlns:inkscape="http://www.inkscape.org/namespaces/inkscape"
   version="1.1"
   id="svg2"
   width="3448.1055"
   height="792.51813"
   viewBox="0 0 3448.1055 792.51813"
   sodipodi:docname="energytransfer.svg"
   inkscape:version="0.92.3 (2405546, 2018-03-11)">
  <metadata
     id="metadata8">
    <rdf:RDF>
      <cc:Work
         rdf:about="">
        <dc:format>image/svg+xml</dc:format>
        <dc:type
           rdf:resource="http://purl.org/dc/dcmitype/StillImage" />
        <dc:title></dc:title>
      </cc:Work>
    </rdf:RDF>
  </metadata>
  <defs
     id="defs6" />
  <sodipodi:namedview
     pagecolor="#ffffff"
     bordercolor="#666666"
     borderopacity="1"
     objecttolerance="10"
     gridtolerance="10"
     guidetolerance="10"
     inkscape:pageopacity="0"
     inkscape:pageshadow="2"
     inkscape:window-width="723"
     inkscape:window-height="480"
     id="namedview4"
     showgrid="false"
     inkscape:zoom="0.0472"
     inkscape:cx="-1623.5821"
     inkscape:cy="313.86305"
     inkscape:window-x="1243"
     inkscape:window-y="470"
     inkscape:window-maximized="0"
     inkscape:current-layer="svg2"
     fit-margin-top="0"
     fit-margin-left="0"
     fit-margin-right="0"
     fit-margin-bottom="0" />
  <path
     style="fill:#000000"
     d="m 223.37552,791.96607 c -22.32758,-2.8974 -44.40794,-8.6898 -56.56467,-14.8387 -14.8328,-7.5024 -24.58666,-16.4066 -29.54608,-26.9723 -1.80715,-3.85 -7.22037,-19.375 -12.02937,-34.5 l -8.74366,-27.5 -0.0504,-13 c -0.0555,-14.3032 1.11878,-19.7932 6.6679,-31.1742 4.77159,-9.7862 4.32043,-9.6277 18.04888,-6.3426 6.48041,1.5507 15.6124,3.3631 20.29331,4.0276 8.45884,1.2007 8.5019,1.2216 7.06065,3.4212 -4.70582,7.182 -13.09847,23.487 -16.64639,32.3402 -4.21089,10.5075 -9.35807,28.8266 -8.63151,30.72 1.2543,3.2686 25.7393,9.0265 45.14138,10.6154 14.96957,1.2259 50.21876,0.6238 61.49996,-1.0505 3.575,-0.5306 11.675,-1.4603 18,-2.0661 28.4514,-2.7247 85.5271,-14.102 136,-27.1098 37.9775,-9.7875 47.3825,-12.6522 157,-47.8226 6.325,-2.0294 15.4641,-5.1925 20.3092,-7.0293 7.5376,-2.8574 9.0035,-3.1367 10.1551,-1.9344 1.3139,1.3717 21.0069,52.514 28.6454,74.3914 l 3.8358,10.9863 -2.2824,1.1959 c -3.5724,1.8718 -60.0297,19.6856 -85.3272,26.9231 -40.7009,11.6443 -84.8999,22.3736 -125.2979,30.4161 -70.8011,14.0953 -97.563,17.0809 -150.9705,16.8425 -18.4621,-0.082 -34.9175,-0.3251 -36.56746,-0.5392 z m 863.99998,-157.4231 -67,-70.0858 -0.2572,65.5989 -0.2572,65.599 h -9.9928 -9.99278 v -90.0833 c 0,-55.1761 0.36078,-89.9542 0.93098,-89.75 0.512,0.1833 30.4878,31.266 66.6129,69.0725 36.125,37.8066 66.0811,68.4926 66.569,68.191 0.5013,-0.3098 0.8871,-28.5303 0.8871,-64.8822 0,-57.7417 0.1621,-64.3962 1.5818,-64.941 2.3078,-0.8856 15.7022,-0.7135 17.1736,0.2206 0.995,0.6318 1.2024,19.4936 1,90.9716 l -0.2554,90.1746 z m 1604.5,-0.5673 -66.5,-69.5706 -0.2571,66.125 -0.2572,66.125 h -9.4928 -9.4929 l 0.019,-90.75 0.019,-90.75 5.7662,6 c 3.1714,3.3 33.2004,34.7565 66.7311,69.9033 l 60.9649,63.9033 0.2572,-65.5385 0.2571,-65.5386 2.2429,-0.6011 c 1.2335,-0.3306 5.7303,-0.6072 9.9928,-0.6147 l 7.75,-0.014 v 90.5 c 0,49.775 -0.3375,90.4755 -0.75,90.4455 -0.4125,-0.03 -30.675,-31.3611 -67.25,-69.6249 z m -1055.5,64.2052 c -19.5417,-4.2835 -38.6216,-17.2682 -52.5656,-35.7734 -9.7732,-12.97 -14.8042,-24.7711 -17.0197,-39.9231 -3.6136,-24.7137 6.7264,-56.249 24.8939,-75.9222 10.9117,-11.816 24.759,-19.6047 42.8351,-24.0933 11.959,-2.9697 35.36,-3.1846 45.8563,-0.4213 8.9232,2.3492 19.4921,7.1842 27.6219,12.6363 6.8467,4.5916 22.8781,20.2191 22.8781,22.3016 0,1.249 -13.8266,14.2297 -14.4136,13.5318 -17.398,-20.6858 -30.5493,-29.0841 -50.0974,-31.9915 -9.2991,-1.383 -20.5627,0.023 -32.1314,4.0103 -11.5062,3.966 -18.5424,8.3516 -27.0282,16.8462 -5.6328,5.6386 -8.2196,9.2654 -11.7687,16.5 -5.9229,12.0736 -7.6601,18.8533 -8.2851,32.3351 -0.9791,21.1171 4.4996,34.5069 20.6378,50.4377 15.6761,15.4747 27.1631,20.9544 45.6056,21.7554 12.9155,0.561 20.172,-0.8977 30.981,-6.2274 18.2373,-8.9925 30.1529,-24.2149 32.1314,-41.0487 l 0.644,-5.4793 h -25.0439 -25.0438 l -0.685,-4.9806 c -0.3768,-2.7394 -0.3795,-6.7894 -0.01,-9 l 0.6791,-4.0194 h 35.4121 35.4121 v 11.5526 c 0,14.5861 -1.8888,23.2802 -7.6789,35.3458 -3.8114,7.9424 -5.851,10.731 -13.1656,18 -4.7605,4.7309 -11.2763,10.1392 -14.4794,12.0185 -7.5636,4.4375 -21.1699,9.5038 -30.8839,11.4995 -9.2585,1.9022 -26.8645,1.9567 -35.2922,0.1094 z m 1236.1011,-0.053 c -19.4565,-4.9283 -34.0223,-19.2202 -39.063,-38.3283 -1.0457,-3.9641 -1.0984,-5.3728 -0.2134,-5.7023 5.73,-2.1337 17.6753,-5.0129 17.6753,-4.2603 0,0.522 1.5256,4.2511 3.3902,8.2868 6.6142,14.3154 17.776,22.5312 30.6106,22.5312 17.4127,0 31.2622,-10.3421 35.4871,-26.5 2.5771,-9.8562 0.019,-18.5585 -7.771,-26.4367 -5.3498,-5.4104 -8.9237,-7.4829 -27.836,-16.1427 -31.8555,-14.5863 -39.9326,-22.2381 -42.9851,-40.7215 -4.6419,-28.1075 17.0538,-51.199 48.1042,-51.199 8.9218,0 17.3909,2.0084 24.3852,5.7829 5.8563,3.1603 15.2534,12.0848 18.3495,17.4267 l 2.1501,3.7095 -3.0849,2.5959 c -1.6968,1.4277 -5.2,3.6675 -7.785,4.9774 l -4.6999,2.3817 -3.8067,-4.9917 c -6.9908,-9.1668 -14.4807,-12.8884 -25.9075,-12.8726 -11.7004,0.016 -21.226,5.5837 -26.023,15.21 -3.3291,6.6805 -3.3149,11.9084 0.051,18.6621 4.2963,8.6216 11.2649,13.3759 33.7434,23.0211 32.9286,14.1292 43.6487,26.4371 43.7136,50.1878 0.029,10.6434 -1.3305,16.4295 -5.9695,25.4062 -6.2272,12.0497 -18.0252,21.7229 -31.8194,26.0887 -7.0618,2.2351 -23.4987,2.7102 -30.6955,0.8872 z m -1465.6011,-88.5906 v -87.1178 l 22.75,0.4813 c 21.0444,0.4451 23.4247,0.6834 31.75,3.1784 18.4686,5.5349 27.9684,14.3899 32.1051,29.9261 1.8304,6.8745 1.7595,21.8298 -0.138,29.1148 -4.3818,16.823 -17.5913,29.2947 -34.5644,32.6339 -3.2465,0.6387 -5.9027,1.344 -5.9027,1.5672 0,0.2233 11.925,17.2359 26.5,37.8059 14.575,20.5699 26.5,37.6676 26.5,37.9947 0,0.3272 -5.4971,0.4685 -12.2159,0.3141 l -12.2159,-0.2808 -25.7383,-37 c -14.1561,-20.35 -26.4339,-37.1455 -27.2841,-37.3233 -1.3726,-0.2871 -1.5458,3.8735 -1.5458,37.143 0,33.2419 -0.1784,37.5348 -1.5818,38.0733 -0.87,0.3339 -5.37,0.607 -10,0.607 h -8.4182 z m 41,-7.926 c 17.3907,-2.7522 27,-13.4136 27,-29.9562 0,-12.295 -5.4325,-21.6182 -15.4535,-26.521 -6.0992,-2.9841 -22.4196,-5.3071 -28.7965,-4.0989 l -3.75,0.7105 v 30.4547 30.4547 l 7.25,-0.01 c 3.9875,0 10.175,-0.4704 13.75,-1.0362 z m 404.8033,59.2938 c -0.2917,-33.4071 -0.449,-36.1105 -2.4009,-41.25 -1.1489,-3.025 -8.3761,-16.3 -16.0606,-29.5 -28.797,-49.466 -37.666,-65.5758 -36.6569,-66.5849 0.5637,-0.5637 5.4425,-0.8654 11.3492,-0.7019 l 10.3606,0.2868 21.5526,37.663 c 11.854,20.7146 21.8543,37.3646 22.223,37 0.3686,-0.3647 9.2934,-15.738 19.8329,-34.163 10.5394,-18.425 20.267,-35.2031 21.6168,-37.2846 l 2.4541,-3.7845 10.2012,0.2845 c 8.437,0.2354 10.2545,0.563 10.5093,1.8943 0.1694,0.8853 -11.492,22.0353 -25.9142,47 -14.4222,24.9646 -26.7983,46.9653 -27.5024,48.8903 -0.9449,2.5832 -1.2917,12.5808 -1.3241,38.1682 -0.024,19.0675 -0.317,35.38 -0.6509,36.25 -0.4935,1.2861 -2.3522,1.5818 -9.9423,1.5818 h -9.3353 z m 262.8634,35.0833 c -0.3667,-0.3666 -0.6667,-35.2416 -0.6667,-77.5 v -76.8333 h -20.393 c -17.6733,0 -20.474,-0.211 -21,-1.5818 -0.3339,-0.87 -0.607,-4.924 -0.607,-9.009 v -7.4272 l 51.75,0.259 51.75,0.259 0.2901,8.2296 0.2901,8.2296 -20.7901,0.2704 -20.7901,0.2704 -0.2563,76.9448 c -0.1999,60.0321 -0.5296,77.1185 -1.5,77.7347 -1.5091,0.9584 -17.1395,1.0914 -18.077,0.1538 z m 274.6179,-2.13 c 13.447,-31.6612 79.3782,-179.8739 79.7975,-179.3838 0.7238,0.8462 77.9179,180.7302 77.9179,181.5707 0,0.3354 -4.8994,0.6098 -10.8874,0.6098 h -10.8875 l -6.0093,-14.25 c -3.3051,-7.8375 -7.9469,-18.8625 -10.3152,-24.5 l -4.306,-10.25 h -36.6475 -36.6476 l -10.4555,24.25 -10.4556,24.25 -11.1595,0.2824 -11.1596,0.2825 z m 106.7297,-65.9533 c 0.039,-2.0311 -27.4651,-66.1921 -28.0883,-65.524 -0.8341,0.8943 -27.926,64.5021 -27.926,65.5664 0,0.953 55.9961,0.9107 56.0143,-0.042 z m 516.9857,-17.75 v -86.5 h 39.5 39.5 v 8.5 8.5 h -29.5 -29.5 v 25.4844 25.4845 l 28.25,0.2655 28.25,0.2656 0.2889,8.75 0.289,8.75 h -28.539 -28.5389 v 43.5 43.5 h -10 -10 z m 154,0 v -86.5 h 44.9809 44.981 l 0.5752,2.2917 c 0.3163,1.2604 0.4374,4.9729 0.269,8.25 l -0.3061,5.9583 -34.75,0.263 -34.75,0.2629 v 25.4871 25.487 h 33.3834 33.3833 l 0.603,2.25 c 0.3317,1.2375 0.603,4.5 0.603,7.25 0,2.75 -0.2713,6.0125 -0.603,7.25 l -0.603,2.25 h -33.3833 -33.3834 v 33.5 33.5 h 34.375 34.375 l 0.625,3.125 c 0.7865,3.9324 0.7839,10.6803 -0.01,13.625 l -0.603,2.25 h -44.8833 -44.8834 v -86.5 z m 251.4326,80.7234 c -2.237,-3.1479 -10.9502,-15.8484 -19.3626,-28.2234 -21.0531,-30.9701 -29.2768,-42.0124 -31.07,-41.7187 -1.2966,0.2123 -1.5356,5.2955 -1.7622,37.4822 l -0.2621,37.2365 h -9.9879 -9.9878 v -86.607 -86.6069 l 22.75,0.4635 c 19.1823,0.3908 24.0046,0.8019 30.75,2.6216 16.634,4.4873 25.2347,10.7664 31.155,22.7452 3.4166,6.913 3.7335,8.3059 4.1413,18.2034 0.5199,12.6183 -0.7336,19.7341 -4.9693,28.2105 -5.5061,11.0186 -18.3767,20.9439 -29.3515,22.6347 -4.4569,0.6867 -6.7768,2.1076 -6.1419,3.7618 0.2335,0.6086 11.4263,16.624 24.873,35.5898 13.4466,18.9659 25.2528,35.7209 26.2359,37.2334 l 1.7875,2.75 -12.365,-0.027 -12.365,-0.027 -4.0674,-5.7234 z m -22.3533,-91.1126 c 11.9587,-4.5586 19.0963,-14.5084 19.2905,-26.8912 0.1423,-9.07 -1.8391,-15.3352 -6.5381,-20.6735 -7.0101,-7.9639 -19.6863,-12.026 -35.4056,-11.3458 l -6.9261,0.2997 -0.2655,29.4885 c -0.146,16.2186 -0.024,30.1175 0.271,30.8864 0.8662,2.2574 22.3926,0.9733 29.5738,-1.7641 z m -2567.07928,9.8892 v -86 h 45 45 v 8.5 8.5 h -34.5 -34.5 v 25.4865 25.4865 l 33.25,0.2635 33.25,0.2635 0.2875,9.25 0.2876,9.25 h -33.5376 -33.5375 v 33.5 33.5 h 34.5 34.5 v 9 9 h -45 -45 z m 406.99998,0.01 v -86.0102 h 45 45 v 8.5 8.5 h -35 -35 v 25.5 25.5 h 33.393 c 29.5276,0 33.4633,0.1831 34,1.5818 0.3339,0.87 0.607,5.145 0.607,9.5 v 7.9182 h -34 -34 v 33.5 33.5 h 34.9387 34.9388 l 0.6341,4.25 c 0.3487,2.3375 0.4888,6.275 0.3113,8.75 l -0.3229,4.5 -45.25,0.2602 -45.25,0.2602 z m 1004,-0.6172 v -86.6069 l 22.75,0.4635 c 19.1456,0.3901 24.0033,0.8031 30.6603,2.607 15.4467,4.1858 24.6377,10.3036 29.8405,19.8629 7.6156,13.9924 7.7629,35.1641 0.3441,49.4635 -5.8712,11.3164 -13.4122,17.3618 -27.1802,21.7894 -4.9031,1.5767 -8.8176,3.2405 -8.6989,3.6972 0.1187,0.4567 11.8187,17.2256 26,37.2642 14.1813,20.0386 25.9342,36.8011 26.1175,37.25 0.1834,0.4489 -5.2166,0.7982 -12,0.7762 l -12.3333,-0.04 -25.8932,-37.4599 c -14.2413,-20.603 -26.5038,-37.46 -27.25,-37.46 -1.1183,0 -1.3568,6.5928 -1.3568,37.5 v 37.5 h -10.5 -10.5 v -86.607 z m 44.5541,-7.704 c 11.8213,-2.4785 19.0879,-8.8277 23.5127,-20.5442 5.1574,-13.6561 -1.2352,-29.0884 -14.947,-36.0837 -5.2615,-2.6842 -15.0786,-4.2249 -24.6198,-3.8638 l -8,0.3027 -0.2645,30.75 -0.2644,30.75 9.2644,-0.021 c 5.0955,-0.012 11.9888,-0.5921 15.3186,-1.2902 z m -2086.05408,34.6286 c -17.7738,-0.9018 -45.17682,-3.659 -53.48012,-5.381 -13.45873,-2.7911 -30.43376,-8.8034 -39.50431,-13.9919 -9.159665,-5.2395 -19.595125,-14.4793 -22.929625,-20.3024 -3.63356,-6.3454 -21.4118,-62.2453 -22.66742,-71.2729 -1.82869,-13.1478 0.12507,-24.1661 6.84798,-38.6192 3.99157,-8.5812 4.8395,-9.75 7.07339,-9.75 4.00347,0 40.181415,7.1519 39.770605,7.8621 -16.620615,28.7343 -24.268585,46.5413 -26.181075,60.9583 l -0.66571,5.0184 4.23399,2.16 c 5.17154,2.6384 25.313475,6.6823 39.231795,7.8767 9.95434,0.8542 54.74002,-0.1075 57.7705,-1.2405 0.825,-0.3085 6.72636,-1.0282 13.11413,-1.5994 l 11.61414,-1.0385 12.88583,-7.8345 c 29.1886,-17.7466 67.0478,-37.2717 96.8859,-49.967 20.5851,-8.7584 44.3217,-17.478 45.9147,-16.8667 1.5223,0.5842 5.2945,9.8369 5.7803,14.1781 0.296,2.646 -0.2684,2.9731 -19.195,11.1232 -33.306,14.3422 -70.5825,33.4177 -66.7708,34.1687 5.0559,0.9961 72.6405,-16.508 127.1316,-32.9265 10.9234,-3.2913 19.9942,-5.8466 20.1574,-5.6783 0.5627,0.5803 31.4818,85.5502 31.4818,86.5165 0,0.5326 -1.1945,1.5126 -2.6544,2.1778 -5.5136,2.5122 -82.964,21.4372 -109.1558,26.6722 -29.3449,5.8653 -74.6085,12.6827 -95.6898,14.4124 -26.7453,2.1944 -52.25378,4.0208 -53.60391,3.8379 -0.76785,-0.104 -4.09609,-0.3261 -7.39609,-0.4935 z m -82.75788,-161.3444 c -34.721705,-2.6008 -62.175475,-11.0892 -80.427205,-24.8673 -12.24033,-9.2402 -14.51304,-13.2463 -22.75222,-40.1057 -3.12121,-10.175 -7.2341497,-23.0732 -9.1398697,-28.6628 -4.43361,-13.0039 -5.41023,-24.934 -3.05559,-37.3264 8.7770697,-46.1935 74.5875697,-100.8112 184.1327647,-152.8164 29.35118,-13.9341 60.2983,-26.1944 66.1192,-26.1944 2.7083,0 3.1229,0.5351 5.7541,7.4266 1.5595,4.0846 2.5628,7.8677 2.2296,8.4069 -0.3332,0.5391 -5.6677,3.0937 -11.8544,5.6768 -26.02505,10.8663 -30.72297,12.9652 -44.80867,20.0198 -8.13071,4.0722 -22.35587,11.7314 -31.61147,17.0204 -51.86086,29.6357 -93.347165,66.1675 -118.615135,104.4495 -11.1787,16.9362 -15.19933,25.8068 -23.01333,50.7734 l -3.52832,11.2735 3.77688,1.9268 c 4.91471,2.5073 16.11429,5.411 29.68403,7.6962 15.08882,2.541 61.332435,2.5684 78.668735,0.047 6.49067,-0.9441 13.7269,-1.7166 16.08052,-1.7166 4.86797,0 6.66883,-0.8711 28.61826,-13.8425 17.4859,-10.3336 58.6599,-31.4189 76,-38.9197 12.4892,-5.4025 53.2466,-21.2378 54.6625,-21.2378 0.7847,0 7.709,17.0768 7.0938,17.4949 -0.1409,0.096 -4.0813,1.6749 -8.7563,3.509 -26.3045,10.32 -73.1992,33.2734 -75.4633,36.9367 -0.288,0.4659 5.661,-0.4602 13.2199,-2.0581 55.1999,-11.6688 147.2758,-39.1033 219.1191,-65.2877 2.4067,-0.8771 4.7209,-1.5948 5.1428,-1.5948 2.6012,0 35.0366,84.4838 33.4321,87.0799 -0.5277,0.8539 -38.5812,13.2926 -62.4506,20.4135 -26.3733,7.8679 -96.6104,26.0697 -125.5,32.5231 -47.9736,10.7164 -102.86013,19.502 -131,20.9689 -27.00944,1.408 -60.07038,1.863 -71.75788,0.9876 z M 20.954465,1.0717746 c 0.048,-1.16500003 0.28494,-1.40190003 0.60416,-0.60420003 0.28887,0.72190003 0.25335,1.58440003 -0.0789,1.91670003 -0.33229,0.3323 -0.56864,-0.2584 -0.52522,-1.3125 z"
     id="path817"
     inkscape:connector-curvature="0" />
</svg>
