<?xml version="1.0" encoding="UTF-8" standalone="no"?>
<!-- Created with Inkscape (http://www.inkscape.org/) -->

<svg
   xmlns:dc="http://purl.org/dc/elements/1.1/"
   xmlns:cc="http://creativecommons.org/ns#"
   xmlns:rdf="http://www.w3.org/1999/02/22-rdf-syntax-ns#"
   xmlns:svg="http://www.w3.org/2000/svg"
   xmlns="http://www.w3.org/2000/svg"
   xmlns:sodipodi="http://sodipodi.sourceforge.net/DTD/sodipodi-0.dtd"
   xmlns:inkscape="http://www.inkscape.org/namespaces/inkscape"
   version="1.1"
   id="svg2"
   width="3587.4546"
   height="947.72412"
   viewBox="0 0 3587.4546 947.72412"
   sodipodi:docname="iroquois.svg"
   inkscape:version="0.92.3 (2405546, 2018-03-11)">
  <metadata
     id="metadata8">
    <rdf:RDF>
      <cc:Work
         rdf:about="">
        <dc:format>image/svg+xml</dc:format>
        <dc:type
           rdf:resource="http://purl.org/dc/dcmitype/StillImage" />
        <dc:title></dc:title>
      </cc:Work>
    </rdf:RDF>
  </metadata>
  <defs
     id="defs6" />
  <sodipodi:namedview
     pagecolor="#ffffff"
     bordercolor="#666666"
     borderopacity="1"
     objecttolerance="10"
     gridtolerance="10"
     guidetolerance="10"
     inkscape:pageopacity="0"
     inkscape:pageshadow="2"
     inkscape:window-width="1115"
     inkscape:window-height="729"
     id="namedview4"
     showgrid="false"
     inkscape:zoom="0.0472"
     inkscape:cx="-4007.5661"
     inkscape:cy="473.69004"
     inkscape:window-x="1441"
     inkscape:window-y="433"
     inkscape:window-maximized="0"
     inkscape:current-layer="svg2"
     fit-margin-top="0"
     fit-margin-left="0"
     fit-margin-right="0"
     fit-margin-bottom="0" />
  <path
     style="fill:#000000"
     d="m 345.94274,947.07879 c -26.2245,-4.8065 -48.27167,-21.0545 -59.86978,-44.122 -5.36369,-10.6679 -7.9849,-20.5387 -8.66827,-32.6425 -2.27665,-40.3243 23.1606,-75.2177 62.20715,-85.3322 11.1222,-2.8811 27.8676,-2.9177 39.7093,-0.087 16.5151,3.9481 28.9764,11.2322 40.9754,23.9518 8.3667,8.8691 13.8313,18.0746 17.9198,30.1871 2.8137,8.3356 3.2623,11.1547 3.66,23 0.3794,11.303 0.1146,14.9174 -1.6272,22.2093 -7.076,29.6219 -28.9807,52.4711 -58.3163,60.8305 -8.2057,2.3383 -28.1187,3.4476 -35.9901,2.0049 z m 1869.56736,-1.8788 c -12.3803,-3.6563 -21.2855,-11.3112 -25.615,-22.0188 l -2.2833,-5.6471 -0.2711,-88.25 c -0.1491,-48.5375 -0.4147,-88.25 -0.5903,-88.25 -0.1755,0 -2.9785,1.307 -6.2289,2.9043 -3.2503,1.5974 -8.2943,3.3974 -11.2089,4 -3.4511,0.7136 -23.7314,1.0957 -58.1506,1.0957 -48.2948,0 -53.8606,-0.1725 -64.5566,-2.0011 -53.7193,-9.1838 -91.9853,-45.905 -97.4803,-93.545 -0.8009,-6.9439 -1.0332,-32.6335 -0.7679,-84.9539 0.3713,-73.2603 0.4308,-75.1924 2.5627,-83.2939 11.3571,-43.1571 49.1633,-74.1803 99.5093,-81.656 15.2293,-2.2613 112.1359,-2.2613 127.3652,0 52.13,7.7405 91.6727,41.5802 100.435,85.9499 1.1499,5.8228 1.3824,42.316 1.3824,217 v 210 l -2.2854,5.6525 c -4.4706,11.0575 -12.2205,18.3817 -23.7146,22.412 -7.5511,2.6477 -29.9743,3.0016 -38.1017,0.6014 z m -28.3983,-352.2231 c 0,-61.5804 -0.3228,-86.3524 -1.1695,-89.75 -0.9188,-3.6869 -2.5799,-6.1059 -7.75,-11.2854 -10.7019,-10.7216 -8.7371,-10.4074 -65.0805,-10.4074 -54.0684,0 -53.8613,-0.027 -62.8586,8.0627 -9.1278,8.2068 -8.6026,3.332 -8.924,82.8193 -0.2447,60.5249 -0.077,70.5909 1.2566,75.1766 2.0267,6.9717 9.6197,15.358 17.3359,19.1472 l 5.6901,2.7942 51.5,0.5461 c 55.133,0.5846 55.3456,0.604 65,5.9368 1.925,1.0633 3.8375,1.9521 4.25,1.9752 0.4125,0.023 0.75,-38.2338 0.75,-85.0153 z M 537.23954,945.01729 c -19.5209,-2.7227 -39.8748,-14.1478 -52.1235,-29.2583 -6.5428,-8.0715 -13.5257,-21.6492 -16.175,-31.4512 -3.0045,-11.116 -2.9779,-31.5218 0.056,-42.7737 7.6899,-28.5222 30.0255,-50.8641 58.615,-58.6316 11.3485,-3.0833 31.634,-3.0894 42.942,-0.013 23.3192,6.3445 42.1039,21.9402 52.5687,43.6444 6.6833,13.8614 8.3651,21.2156 8.3471,36.5 -0.022,18.9371 -3.6438,31.0865 -13.867,46.5207 -11.0409,16.6688 -28.488,28.8026 -48.7875,33.93 -7.4888,1.8916 -23.4477,2.6661 -31.5756,1.5325 z m 164.5166,-94.5113 c -31.6214,-5.9966 -56.3493,-29.2841 -64.7431,-60.9719 -2.9743,-11.2282 -2.9717,-29.7904 0.01,-41 6.2942,-23.6971 21.5196,-42.6696 42.5931,-53.0756 13.327,-6.5809 22.3891,-8.6779 37.5,-8.6779 15.0941,0 24.1471,2.0914 37.5014,8.6637 20.7944,10.2339 36.0744,28.8883 42.6674,52.0898 1.8585,6.5402 2.2726,10.4634 2.2694,21.5 0,14.2603 -1.1397,20.5062 -5.8459,32.1578 -7.0406,17.4307 -22.0479,33.5556 -39.2848,42.2104 -14.4012,7.231 -36.3673,10.194 -52.6632,7.1037 z m -521.6443,-0.1031 c -19.31289,-3.7208 -34.66743,-11.9127 -47.17022,-25.1664 -19.75814,-20.9446 -26.88786,-50.0348 -19.3719,-79.0398 7.0207,-27.0938 30.3751,-50.1864 58.54212,-57.8858 9.13005,-2.4957 33.80382,-2.4557 43,0.07 9.00895,2.474 21.23617,8.6132 29.22455,14.6732 12.9871,9.8522 24.10605,26.582 28.94317,43.5484 3.02073,10.5954 3.24293,31.3679 0.44852,41.9318 -7.59887,28.7267 -29.60451,51.4115 -57.78761,59.5712 -7.19528,2.0832 -29.51278,3.5144 -35.82863,2.2976 z m 249.5,-76.7973 c -22.9938,-4.8033 -42.2368,-10.971 -62.7209,-20.103 -13.0713,-5.8273 -30.8989,-15.4229 -30.3951,-16.36 6.9711,-12.9702 92.2403,-164.9938 93.0193,-165.8411 0.8908,-0.9688 2.4128,-0.7125 7.115,1.1987 l 5.9817,2.4311 -0.01,30.0514 c -0.025,93.6245 -0.5871,171.0431 -1.2421,170.986 -0.4125,-0.036 -5.7,-1.0993 -11.75,-2.3631 z m 38.5246,-7.7336 c 0.014,-3.4858 0.6775,-43.4629 1.4754,-88.8379 0.7979,-45.375 1.4695,-87 1.4924,-92.5 l 0.042,-10 5.7329,-2.318 c 3.1531,-1.2749 6.4079,-2.5277 7.2329,-2.7841 1.1143,-0.3463 11.6576,18.4911 41,73.2528 21.725,40.5455 41.8579,78.107 44.7399,83.4699 l 5.2399,9.7509 -13.7399,6.9503 c -28.1148,14.2219 -57.9659,23.8458 -88.9899,28.6903 l -4.25,0.6637 0.025,-6.3379 z m 689.29256,-15.2714 c -12.5529,-2.8698 -20.8956,-8.0809 -26.1266,-16.3195 -6.6747,-10.5123 -6.1906,10.0026 -6.1906,-262.3394 0,-237.166 0.072,-246.9596 1.8482,-252.6677 3.8248,-12.289 13.0351,-20.9465 26.3155,-24.7359 7.7947,-2.2241 25.8823,-2.5474 33.8363,-0.6047 16.8823,4.1232 27.5101,15.5416 30.0891,32.3273 0.6044,3.9342 0.8607,97.2561 0.6873,250.2734 l -0.2764,244 -2.2825,5.6448 c -4.7172,11.6662 -12.5002,19.0173 -24.2175,22.874 -8.4431,2.779 -24.9744,3.5386 -33.6828,1.5477 z m 161.4462,0.4693 c -16.7644,-3.0658 -27.6474,-11.5799 -32.4723,-25.404 -1.681,-4.8163 -1.7911,-12.1405 -1.7911,-119.1318 0,-113.8487 0,-114.0108 2.1721,-122.1325 6.8341,-25.5866 20.7817,-44.9069 43.187,-59.8227 14.8015,-9.8537 28.2264,-15.4619 47.3637,-19.7859 8.6781,-1.9607 12.8719,-2.1219 64.9385,-2.4946 34.175,-0.2447 57.7221,-0.017 61,0.5888 14.8353,2.7433 25.2157,10.0308 30.4191,21.3554 2.5903,5.6375 2.8863,7.331 2.8477,16.2915 -0.034,7.9348 -0.507,11.1775 -2.2893,15.7016 -4.4734,11.3546 -15.3077,19.8509 -28.938,22.6933 -3.4124,0.7116 -21.3938,1.1078 -50.5,1.1127 -26.3021,0 -47.8645,0.4397 -51.5716,1.0412 -10.8123,1.7545 -18.964,7.1217 -23.4668,15.4512 l -2.1624,4 -0.5037,111 c -0.4688,103.3216 -0.6266,111.3113 -2.2815,115.5 -4.2766,10.8243 -12.6936,18.3577 -24.6724,22.0819 -7.3985,2.3003 -23.7871,3.324 -31.279,1.9539 z m 1822.7649,-0.034 c -18.7942,-3.4016 -30.2682,-14.4088 -33.5552,-32.19 -0.6615,-3.5785 -0.9189,-55.8716 -0.7427,-150.8942 l 0.2696,-145.418 2.2825,-5.6448 c 6.7387,-16.6654 18.5426,-23.7997 40.7175,-24.6098 24.2457,-0.8858 38.6237,6.12 46.3396,22.5795 l 2.6604,5.6751 0.2782,149 c 0.2774,148.556 0.272,149.0194 -1.8024,155.5 -5.4524,17.0338 -18.8884,25.6213 -41.4758,26.509 -5.5,0.2162 -12.2373,-0.012 -14.9717,-0.5068 z m -1460.5283,-6.6553 c -41.9811,-3.9994 -75.3563,-21.9167 -94.3785,-50.6667 -8.9732,-13.562 -13.6857,-26.7793 -15.6553,-43.9087 -1.3187,-11.4687 -1.2468,-143.06 0.084,-153.7973 1.5092,-12.1766 3.5153,-19.2354 8.427,-29.652 5.3351,-11.3144 8.913,-16.5779 17.3438,-25.515 17.2143,-18.2481 42.1057,-31.2627 69.6789,-36.432 9.0863,-1.7035 15.5738,-1.8746 71,-1.8721 60.0242,0 61.1673,0.04 71.4567,2.3111 25.7762,5.6901 45.6958,16.0722 63.1856,32.9325 16.5914,15.9942 25.9296,34.2405 28.8591,56.3892 0.7523,5.6884 0.9991,32.6792 0.7713,84.3645 -0.3275,74.3005 -0.3832,76.1716 -2.4939,83.6754 -5.1742,18.3958 -13.1684,32.2047 -26.2769,45.3896 -20.4027,20.5215 -47.4316,32.9358 -79.2125,36.382 -8.6953,0.9429 -103.5584,1.2789 -112.7894,0.3995 z m 113.1605,-85.6263 c 6.7403,-3.31 12.3039,-9.129 13.7674,-14.3994 1.3302,-4.7904 1.4365,-138.044 0.1146,-143.7434 -1.0991,-4.7389 -3.6336,-8.3335 -7.9461,-11.2693 -6.5271,-4.4435 -11.4259,-4.8081 -64.5964,-4.8081 -45.6988,0 -50.5161,0.1582 -56,1.839 -7.3923,2.2657 -11.6397,5.3828 -14.1093,10.3546 -1.8008,3.6254 -1.8907,7.183 -1.8907,74.8064 0,39.05 0.3629,72.7143 0.8065,74.8097 1.5462,7.3038 8.121,12.4515 19.1935,15.0274 1.1,0.2559 25.175,0.3972 53.5,0.3141 l 51.5,-0.1512 z m 650.8395,85.1983 c -56.9615,-6.4713 -99.6473,-43.5451 -105.9885,-92.054 -0.7498,-5.7359 -1.0019,-42.7755 -0.8024,-117.8645 l 0.2909,-109.5 2.2825,-5.6448 c 4.5486,-11.2492 10.7307,-17.135 23.1687,-22.0585 7.6913,-3.0445 31.5877,-3.3014 40.0488,-0.4305 11.7833,3.9982 20.1461,11.4339 24.242,21.5545 l 2.258,5.5793 0.5,111.5 c 0.5511,122.8958 0.053,113.9192 6.6749,120.2112 6.6992,6.3651 5.4196,6.2538 75.5593,6.5709 l 63.7341,0.2881 0.2659,-119.7851 0.2658,-119.7851 2.6604,-5.6751 c 7.2677,-15.5035 21.3636,-22.8488 43.7733,-22.8101 18.9735,0.033 32.6511,6.286 39.8317,18.2105 6.4141,10.6516 6.1981,5.2154 6.2172,156.4755 0.012,97.7496 -0.3056,138.7245 -1.1058,142.5 -2.9948,14.129 -13.2019,25.2175 -28.6281,31.1 l -5.7487,2.1922 -91,0.1388 c -50.05,0.076 -94.375,-0.2446 -98.5,-0.7133 z m 389,0.428 c -54.8735,-5.2276 -94.3675,-34.1008 -107.1172,-78.311 -3.608,-12.5107 -4.0513,-24.7386 -3.6452,-100.5355 0.3775,-70.4764 0.4642,-73.2766 2.5068,-81 4.4083,-16.6685 11.9578,-30.6176 23.0086,-42.5128 17.9122,-19.2807 42.3955,-32.2972 70.747,-37.6124 9.0794,-1.7022 15.5699,-1.8748 70.5,-1.8748 54.143,0 61.4215,0.1877 69.2699,1.786 52.0993,10.6099 88.4987,44.8672 94.6478,89.0776 1.4575,10.479 1.4775,148.5735 0.023,159.314 -5.6716,41.8829 -41.3059,77.101 -89.3761,88.3322 -14.6561,3.4243 -26.1595,3.9945 -77.2752,3.8302 -27.3842,-0.088 -51.3644,-0.3101 -53.2894,-0.4935 z m 113.1605,-85.6263 c 6.7403,-3.31 12.3039,-9.129 13.7674,-14.3994 1.3302,-4.7904 1.4365,-138.044 0.1146,-143.7434 -1.0991,-4.7389 -3.6336,-8.3335 -7.9461,-11.2693 -6.5271,-4.4435 -11.4259,-4.8081 -64.5964,-4.8081 -45.6988,0 -50.5161,0.1582 -56,1.839 -7.3923,2.2657 -11.6397,5.3828 -14.1093,10.3546 -1.8008,3.6254 -1.8907,7.183 -1.8907,74.8064 0,39.05 0.3629,72.7143 0.8065,74.8097 1.5462,7.3038 8.121,12.4515 19.1935,15.0274 1.1,0.2559 25.175,0.3972 53.5,0.3141 l 51.5,-0.1512 z m 341.1902,84.8258 c -14.0247,-2.592 -25.1409,-11.0238 -29.3441,-22.2578 -7.4359,-19.8743 0.1684,-41.5488 17.4444,-49.7217 10.5492,-4.9906 8.6768,-4.8931 105.549,-5.4965 l 91.5,-0.57 4.7505,-2.3604 c 9.7375,-4.8382 16.7495,-15.3522 16.7495,-25.1145 0,-9.1736 -8.1959,-18.1145 -20.4715,-22.3323 -1.8621,-0.6398 -24.9815,-1.2983 -60.0285,-1.7096 -56.7079,-0.6655 -57.0538,-0.6821 -67.5,-3.2366 -25.9134,-6.3367 -43.6554,-15.6904 -60.5784,-31.9371 -14.1417,-13.5767 -22.975,-28.7786 -27.6209,-47.5352 -3.2582,-13.1539 -3.0425,-35.0819 0.476,-48.3954 10.2585,-38.8166 43.3214,-67.3287 90.5243,-78.0646 9.5673,-2.176 10.9846,-2.2107 104.3596,-2.5527 104.5928,-0.3831 101.9451,-0.5205 114.0216,5.9162 11.238,5.9898 16.9355,15.6595 17.6295,29.9205 0.9438,19.3933 -6.9955,31.9688 -24.7064,39.134 l -5.6053,2.2677 -91,0.5393 c -61.148,0.3623 -91.9935,0.8927 -94.0285,1.6166 -9.3851,3.3388 -16.1924,9.0384 -19.0966,15.9893 -0.7562,1.8098 -1.3707,6.1175 -1.3655,9.5727 0.016,10.6501 6.9558,20.0576 18.945,25.681 l 5.5456,2.6011 55,0.5709 c 60.205,0.6249 62.7903,0.8463 82.2588,7.0429 33.0913,10.5327 59.0918,32.724 69.2728,59.1243 5.298,13.7383 6.3611,19.848 6.3095,36.2619 -0.04,12.8714 -0.4152,16.3862 -2.6411,24.7682 -5.9426,22.3779 -19.7059,41.7803 -40.3972,56.949 -8.6995,6.3775 -24.0689,14.0165 -35.5597,17.674 -20.8882,6.6486 -16.7873,6.4188 -119.7431,6.7108 -74.1268,0.2103 -94.9813,-0.01 -100.6493,-1.056 z M 290.08762,714.33499 c -15.79693,-15.2885 -26.44711,-27.526 -37.64698,-43.2578 -8.48398,-11.917 -17.76487,-26.9404 -17.07127,-27.634 1.04474,-1.0447 166.02447,-106.4088 166.60937,-106.4048 0.3482,0 2.0343,2.9015 3.7469,6.4425 l 3.1137,6.4383 -50.8308,88.8074 c -27.9569,48.8441 -51.46771,88.9428 -52.24614,89.1082 -0.77843,0.1653 -7.83208,-5.9096 -15.67478,-13.4998 z m 265.27472,-76.9955 -49.2495,-89.6906 2.8382,-7.351 2.8382,-7.3511 82.6613,55.0161 c 45.4637,30.2589 82.6613,55.558 82.6613,56.2202 0,1.9411 -16.0365,25.4485 -25.1233,36.8275 -12.2157,15.2972 -43.3705,46.0307 -46.6524,46.0215 -0.3984,0 -22.8866,-40.3628 -49.9738,-89.6926 z m 247.7495,41.6814 c -31.848,-4.3579 -59.1377,-28.0812 -68.0515,-59.1582 -2.7298,-9.5174 -3.6831,-27.4787 -1.9727,-37.1714 4.7087,-26.6835 21.5423,-48.9516 45.5242,-60.2207 13.5731,-6.378 20.5902,-7.8793 36.5,-7.8091 11.6537,0.051 14.7045,0.4245 22.3075,2.7283 27.3207,8.2787 46.6346,26.8184 55.8844,53.6443 3.1848,9.2362 3.2757,9.9582 3.2757,26 0,16.0281 -0.093,16.7674 -3.2484,25.8506 -4.3328,12.4717 -9.9415,21.7979 -18.5792,30.8934 -11.4103,12.0151 -23.7539,19.3209 -39.4084,23.3246 -8.9394,2.2864 -23.2968,3.1408 -32.2316,1.9182 z m -722,-3.5317 c -18.79639,-4.0076 -35.89042,-14.7385 -47.33886,-29.7175 -18.94347,-24.7853 -22.84117,-57.618 -10.13961,-85.4123 10.13216,-22.1717 29.41671,-38.6924 53.17929,-45.5577 6.49166,-1.8755 10.23009,-2.2533 22.29918,-2.2533 12.06909,0 15.80752,0.3778 22.29918,2.2533 29.03681,8.3891 50.15768,30.1733 57.91349,59.7324 2.74269,10.453 2.88916,28.7819 0.31164,39 -7.99913,31.7112 -32.4781,55.4925 -63.73215,61.9159 -9.34951,1.9215 -25.87655,1.9401 -34.79216,0.039 z m 140,-42.8847 c 0,-0.275 0.9,-0.9817 2,-1.5704 1.1,-0.5887 2,-0.8454 2,-0.5704 0,0.275 -0.9,0.9817 -2,1.5704 -1.1,0.5887 -2,0.8454 -2,0.5704 z m 468.5071,-0.5589 c -0.3504,-0.5669 0.051,-0.7346 0.941,-0.3931 1.7324,0.6648 2.0493,1.3816 0.6109,1.3816 -0.5175,0 -1.2159,-0.4448 -1.5519,-0.9885 z M 216.7599,604.58639 c -10.40025,-27.1716 -16.45969,-55.2983 -19.10504,-88.6817 l -0.60456,-7.6294 65.78077,-0.6095 c 36.17942,-0.3352 82.31237,-0.8664 102.51777,-1.1804 l 36.7369,-0.5709 -0.6245,3.3098 c -0.3434,1.8204 -0.9414,3.9143 -1.3289,4.6531 -0.5613,1.0703 -157.2599,88.4619 -175.15443,97.6845 l -4.63394,2.3883 z m 385.35194,-42.3946 c -84.9991,-49.0758 -89.5575,-51.8501 -90.6438,-55.1661 -0.6291,-1.9204 -1.0685,-3.5772 -0.9765,-3.6818 0.3295,-0.3744 206.6569,5.394 207.0274,5.7879 0.6926,0.7366 -1.437,21.2328 -3.5226,33.9023 -2.4412,14.8296 -7.4949,34.9956 -11.9037,47.5 -4.3723,12.4007 -9.036,23.5168 -9.8241,23.4161 -0.3612,-0.046 -40.9317,-23.3374 -90.1567,-51.7584 z M 0.62733,426.44099 C 9.48428,314.80709 54.1002,216.01139 131.03462,137.67249 183.2076,84.546988 243.56617,46.813788 313.61184,23.534088 c 133.2915,-44.2996 279.6655,-25.4138996 396.9201,51.212 84.7252,55.367902 149.6317,138.479102 182.47,233.648202 12.7038,36.8172 21.6863,79.7857 23.7369,113.5469 l 0.6911,11.3802 -36.409,-0.6385 c -121.9818,-2.1389 -758.10704,-1.3962 -854.21502,0.9974 L 0,434.34789 Z m 3136.48447,-78.6827 c -17.693,-6.0543 -28.1889,-17.3329 -31.2006,-33.5275 -2.2988,-12.3608 2.8343,-27.0856 12.4583,-35.7385 24.1547,-21.7171 65.7997,-15.4782 79.2332,11.8702 11.6959,23.8107 -1.9173,51.0778 -29.0259,58.1387 -8.9386,2.3282 -23.4942,1.9845 -31.465,-0.7429 z"
     id="path817"
     inkscape:connector-curvature="0" />
</svg>
