<?xml version="1.0" encoding="UTF-8" standalone="no"?>
<!-- Created with Inkscape (http://www.inkscape.org/) -->

<svg
   xmlns:dc="http://purl.org/dc/elements/1.1/"
   xmlns:cc="http://creativecommons.org/ns#"
   xmlns:rdf="http://www.w3.org/1999/02/22-rdf-syntax-ns#"
   xmlns:svg="http://www.w3.org/2000/svg"
   xmlns="http://www.w3.org/2000/svg"
   xmlns:sodipodi="http://sodipodi.sourceforge.net/DTD/sodipodi-0.dtd"
   xmlns:inkscape="http://www.inkscape.org/namespaces/inkscape"
   version="1.1"
   id="svg2"
   width="3585"
   height="824.43549"
   viewBox="0 0 3585 824.43549"
   sodipodi:docname="kindermorgan.svg"
   inkscape:version="0.92.3 (2405546, 2018-03-11)">
  <metadata
     id="metadata8">
    <rdf:RDF>
      <cc:Work
         rdf:about="">
        <dc:format>image/svg+xml</dc:format>
        <dc:type
           rdf:resource="http://purl.org/dc/dcmitype/StillImage" />
        <dc:title></dc:title>
      </cc:Work>
    </rdf:RDF>
  </metadata>
  <defs
     id="defs6" />
  <sodipodi:namedview
     pagecolor="#ffffff"
     bordercolor="#666666"
     borderopacity="1"
     objecttolerance="10"
     gridtolerance="10"
     guidetolerance="10"
     inkscape:pageopacity="0"
     inkscape:pageshadow="2"
     inkscape:window-width="970"
     inkscape:window-height="657"
     id="namedview4"
     showgrid="false"
     inkscape:zoom="0.047190562"
     inkscape:cx="-1555.6271"
     inkscape:cy="411.4355"
     inkscape:window-x="1086"
     inkscape:window-y="313"
     inkscape:window-maximized="0"
     inkscape:current-layer="svg2"
     fit-margin-top="0"
     fit-margin-left="0"
     fit-margin-right="0"
     fit-margin-bottom="0" />
  <path
     style="fill:#000000"
     d="m 1574.0154,824.4061 c -0.01,-0.3267 15.5027,-40.571 34.4693,-89.4319 18.9666,-48.8609 34.3791,-88.9293 34.25,-89.0407 -0.1291,-0.1115 -19.5637,35.9539 -43.188,80.1453 -23.6243,44.1914 -43.0771,80.2241 -43.2284,80.0728 -0.1514,-0.1513 1.2894,-4.2606 3.2017,-9.1316 1.9123,-4.871 3.2921,-9.0412 3.0663,-9.2671 -0.2259,-0.2258 -2.5308,3.6943 -5.122,8.7114 -2.5912,5.0171 -4.8753,8.958 -5.0757,8.7576 -0.2005,-0.2004 21.9085,-58.1164 49.1311,-128.7022 27.2225,-70.5858 49.3665,-128.4668 49.209,-128.6244 -0.1576,-0.1575 -17.803,7.3459 -39.212,16.6743 -21.409,9.3285 -39.2543,16.8415 -39.6562,16.6956 -0.4018,-0.1459 2.407,-6.9608 6.2419,-15.1444 3.8349,-8.1836 6.8431,-14.9952 6.6851,-15.1369 -0.1581,-0.1418 -7.3969,2.8414 -16.0861,6.6292 -8.6892,3.7878 -15.9875,6.8869 -16.2186,6.8869 -0.231,0 -0.1409,-0.7274 0.2002,-1.6163 0.534,-1.3917 0.3092,-1.4499 -1.617,-0.419 -1.2305,0.6585 -2.4046,1.03 -2.6091,0.8255 -0.2045,-0.2045 27.9785,-61.0464 62.629,-135.2043 34.6504,-74.158 62.8687,-134.9432 62.7074,-135.0783 -0.1613,-0.1352 -23.9183,9.9971 -52.7933,22.5162 -28.875,12.5191 -52.6299,22.6427 -52.7888,22.497 -0.1588,-0.1458 3.0724,-7.2976 7.1805,-15.8929 4.1081,-8.5953 7.1285,-15.6279 6.712,-15.6279 -0.4165,0 -7.0227,2.7695 -14.6805,6.1544 -8.0994,3.5802 -15.676,6.2749 -18.1137,6.4424 l -4.1905,0.288 4.2974,-9.1924 C 1554.1416,300.0852 1688.2436,18.2563 1693.6838,7 l 3.3831,-7 -0.5531,5.5 -0.5531,5.5 3.0034,-6 c 2.1934,-4.3817 2.8726,-5.1909 2.5185,-3 -8.3994,51.962 -12.4244,77.8915 -12.136,78.18 0.1985,0.1984 7.0441,-13.8059 15.2125,-31.1209 8.1684,-17.3149 14.9219,-31.3866 15.0077,-31.2704 0.086,0.1162 -6.2849,40.7113 -14.1572,90.2113 -7.8722,49.5 -14.3349,90.9737 -14.3614,92.1638 -0.044,1.9514 4.9824,-4e-4 51.2018,-19.8843 30.068,-12.9355 52.7608,-22.1423 54.9054,-22.276 l 3.6554,-0.2279 -1.804,4.1122 c -0.9923,2.2617 -4.3316,9.4505 -7.4207,15.9751 -3.0892,6.5245 -5.0473,11.6315 -4.3514,11.3487 0.6959,-0.2827 8.1922,-3.4941 16.6584,-7.1364 8.4662,-3.6422 15.4737,-6.4992 15.5722,-6.3487 0.099,0.1504 -25.4041,54.6727 -56.6726,121.1607 -31.2684,66.4879 -56.7259,120.9867 -56.5722,121.1084 0.1537,0.1217 15.5345,-6.465 34.1794,-14.6372 18.645,-8.1721 34.1057,-14.8584 34.357,-14.8584 0.2514,0 0.1941,0.6854 -0.1274,1.5231 -0.4832,1.2592 -0.227,1.3318 1.4787,0.419 1.1347,-0.6073 2.2984,-0.8689 2.5859,-0.5813 0.2875,0.2875 -3.1365,7.3635 -7.609,15.7243 -4.4725,8.3609 -8.0035,15.3298 -7.8468,15.4865 0.1567,0.1568 7.7047,-2.9911 16.7733,-6.9953 9.0686,-4.0042 16.6553,-7.1426 16.8592,-6.9742 0.3142,0.2594 -209.7793,394.53 -219.4865,411.8979 -1.8444,3.3 -3.3604,5.7327 -3.3689,5.4061 z M 2276,525.8918 c -27.207,-2.3244 -47.6445,-8.957 -66.7082,-21.6489 -31.4468,-20.9361 -51.656,-57.3447 -57.7515,-104.0441 -2.0477,-15.6889 -2.043,-47.4944 0.01,-61.5705 9.6624,-66.2732 47.8468,-109.0022 107.9504,-120.7981 12.3217,-2.4182 41.2812,-2.4434 54.2236,-0.047 27.166,5.0297 48.8545,16.1992 67.3214,34.6701 27.4385,27.4444 42.955,69.9055 42.955,117.5469 0,49.3578 -14.8935,90.5025 -42.9276,118.5911 -23.5931,23.639 -52.9727,35.8615 -89.5724,37.2637 -6.05,0.2318 -13.025,0.2485 -15.5,0.037 z m 21.0047,-72.9611 C 2323.044,447.0082 2338,416.8804 2338,370.3486 c 0,-36.4543 -10.9687,-64.7108 -29.7623,-76.6709 -14.3993,-9.1636 -34.6413,-7.9463 -48.3453,2.9075 -5.2244,4.1378 -12.3755,14.3014 -15.5546,22.1071 -13.932,34.2077 -11.0517,89.308 6.0125,115.0162 11.1747,16.8354 27.5268,23.5727 46.6544,19.2222 z M 2848,525.4011 c -26.6388,-2.5966 -52.3973,-14.5329 -70.8849,-32.8474 -21.4737,-21.2726 -34.5546,-50.3178 -39.6565,-88.0537 -1.9144,-14.1599 -1.8719,-45.7315 0.082,-60.6988 8.9831,-68.823 47.7046,-114.1849 107.4597,-125.8877 14.131,-2.7676 42.7573,-2.5486 56.7337,0.4339 24.4981,5.2278 42.6233,14.5946 59.0093,30.495 12.9425,12.5589 22.3151,27.6273 29.0212,46.6576 2.5607,7.2666 3.8078,12.1648 6.8107,26.75 l 0.4632,2.25 h -40.8851 -40.885 l -2.0979,-5.75 c -8.7724,-24.0434 -31.6882,-36.3823 -54.3148,-29.2454 -19.1466,6.0392 -31.3625,26.0917 -35.9399,58.9954 -1.7709,12.7301 -1.5252,40.651 0.4561,51.8226 5.5157,31.1001 18.7336,47.9126 41.4548,52.7282 8.6109,1.825 13.3834,1.8061 20.6321,-0.082 15.6219,-4.069 31.1522,-17.6074 34.0911,-29.7188 l 0.6673,-2.75 h -18.6084 -18.6084 V 388 355.5 h 58.5 58.5 v 82 82 h -27.4205 -27.4206 l -0.5388,-2.75 c -0.2964,-1.5125 -1.0418,-7.25 -1.6565,-12.75 -0.6146,-5.5 -1.2858,-10.5417 -1.4914,-11.2037 -0.2057,-0.662 -3.4335,1.977 -7.173,5.8645 -15.5489,16.1642 -33.769,24.3283 -59.7992,26.7951 -12.1533,1.1517 -14.1657,1.1476 -26.5,-0.055 z M 0,371 V 223.5 h 42.99011 42.99011 l 0.25989,46.73 0.25989,46.73 37,-46.7166 37,-46.7167 50.82037,-0.013 50.82038,-0.013 -8.88,10.25 c -6.60366,7.6225 -74.45771,86.5921 -84.9781,98.8988 -1.25045,1.4628 4.52111,11.9898 51.15394,93.3023 C 248.34646,476.3613 272,517.8109 272,518.062 c 0,0.2512 -23.20026,0.3401 -51.55614,0.1977 l -51.55614,-0.259 -31.00574,-57.9785 c -17.05316,-31.8883 -31.12306,-58.0959 -31.26645,-58.2393 -0.14339,-0.1434 -4.84054,5.1013 -10.43812,11.6548 L 86,425.3525 V 471.9263 518.5 H 43 0 Z m 304,0 V 223.5 h 43 43 V 371 518.5 h -43 -43 z m 138,0 V 223.5 h 40.8426 40.8426 l 45.9074,79.4281 c 27.8755,48.2297 46.0326,78.6729 46.2263,77.5053 0.1753,-1.0576 -0.3872,-17.4091 -1.25,-36.3367 C 613.7004,325.0465 613,290.445 613,266.5914 V 223.5 H 654.5 696 V 371 518.5 l -40.75,-0.01 -40.75,-0.01 -46,-79.5617 c -25.3,-43.7589 -46.1438,-78.8651 -46.3195,-78.0138 -0.1758,0.8514 0.3867,17.0407 1.25,35.9763 0.8755,19.2044 1.5695,53.7041 1.5695,78.0197 v 43.5914 H 483.5 442 v -147.5 z m 302,0.01 V 223.4042 l 71.25,0.3828 c 77.0903,0.4142 75.6869,0.3237 96.25,6.2125 11.3748,3.2575 29.0276,11.9053 37.5933,18.4161 23.3925,17.781 37.5972,43.5113 44.0632,79.8157 1.9543,10.9727 2.2759,16.222 2.2837,37.2714 0.015,39.8905 -4.8359,64.8762 -17.4923,90.102 -14.3117,28.525 -37.0587,46.9839 -69.4739,56.3775 -19.9571,5.7833 -21.2455,5.8677 -95.724,6.2659 L 744,518.6158 Z m 123.329,76.0778 c 9.4797,-2.6034 16.7385,-6.7012 23.1793,-13.0851 14.4817,-14.3539 20.2823,-35.9933 19.166,-71.5 -0.904,-28.7589 -4.9858,-43.5583 -15.096,-54.7341 C 884.909,297.0775 869.7039,292.5 843.869,292.5 H 830 v 77.8333 c 0,42.8084 0.3375,78.1837 0.75,78.612 1.2926,1.3419 30.2887,-0.1327 36.579,-1.8602 z M 1031,371 V 223.5 h 107 107 v 34.5 34.5 h -64.0203 -64.0203 l 0.2703,20.75 0.2703,20.75 53.75,0.2587 53.75,0.2587 V 369.0087 403.5 h -54.0188 -54.0187 l 0.2687,22.75 0.2688,22.75 66.25,0.2571 66.25,0.2572 V 484.0071 518.5 H 1140.5 1031 Z m 258,0 V 223.5 h 73.2561 c 58.4246,0 75.7857,0.3 85.75,1.4816 38.5553,4.5722 61.2041,16.7174 71.8308,38.5184 5.1359,10.5366 6.8726,17.2438 8.3436,32.2237 2.2393,22.8037 -2.3662,45.4107 -12.2665,60.2129 -6.2501,9.3447 -12.2019,14.5604 -22.2677,19.5139 l -7.8537,3.8649 9.5235,4.5708 c 15.7716,7.5697 24.8687,17.8037 28.9906,32.6138 3.0272,10.8769 3.9205,21.0026 4.6316,52.5 0.4604,20.3902 1.1435,33.0127 1.883,34.7913 0.6384,1.5352 2.5118,3.5602 4.1633,4.5 2.5976,1.4781 3.0036,2.2836 3.0091,5.9692 l 0.01,4.2605 -43.75,-0.2605 -43.75,-0.2605 -1.2269,-7 c -0.6748,-3.85 -1.6761,-19.3099 -2.2251,-34.3553 -1.3853,-37.964 -2.8068,-44.2415 -11.8138,-52.1697 -7.4365,-6.5459 -19.7774,-8.924 -46.4842,-8.9577 L 1375,415.5 v 51.5 51.5 h -43 -43 z m 142.3808,-23.4208 c 12.0726,-4.7643 17.1786,-12.5765 17.045,-26.0792 -0.087,-8.7597 -1.6737,-13.0548 -7.0035,-18.9543 -7.8836,-8.7263 -13.4444,-10.0187 -43.1723,-10.0338 L 1375,292.5 v 29.0883 29.0882 l 25.25,-0.3883 c 23.5516,-0.3622 25.6456,-0.5444 31.1308,-2.709 z M 1814,371 V 223.5 l 51.75,0.014 51.75,0.014 22.489,90.5752 c 12.369,49.8164 22.7212,90.7187 23.0049,90.894 0.2837,0.1754 10.8547,-40.5895 23.491,-90.5887 L 2009.46,223.5 h 51.77 51.77 V 371 518.5 h -38.6559 -38.6558 l 0.6072,-68.25 c 0.5102,-57.3542 0.9413,-72.0721 2.7004,-92.191 1.1512,-13.1675 1.9606,-24.8096 1.7986,-25.8712 -0.162,-1.0616 -10.8661,40.4243 -23.787,92.191 L 1993.515,518.5 h -30.1358 -30.1357 l -23.3687,-93.5093 c -12.8527,-51.4301 -23.5264,-93.0359 -23.7193,-92.4573 -0.1928,0.5786 0.3699,9.6953 1.2505,20.2593 2.3747,28.4877 3.5729,68.5909 3.5841,119.9573 l 0.01,45.75 h -38.5 -38.5 V 371 Z m 646,-0.055 V 223.39 l 79.25,0.3643 c 84.9048,0.3904 85.9105,0.4456 105.5657,5.7874 28.9131,7.8579 45.2531,23.293 52.3581,49.4583 1.8821,6.9308 2.1724,10.6061 2.1724,27.5 0,16.8741 -0.2919,20.5773 -2.1673,27.5 -5.4649,20.1728 -15.7798,33.8283 -31.2328,41.3478 l -8.2648,4.0217 8.4094,3.9147 c 19.9858,9.3038 28.3581,20.3793 32.5128,43.0104 1.1437,6.2301 1.7827,18.2812 2.2473,42.3826 0.6165,31.9823 0.7538,33.8193 2.7276,36.5 1.1432,1.5525 3.0557,3.267 4.25,3.8099 1.7348,0.7886 2.1716,1.8446 2.1716,5.25 V 518.5 h -43.9121 -43.9121 l -0.6116,-3.75 c -1.4669,-8.9951 -2.5164,-24.8549 -2.5642,-38.75 -0.061,-17.8703 -1.3328,-32.0105 -3.54,-39.3735 -2.1844,-7.2867 -8.8531,-14.3816 -16.0483,-17.0737 -6.8818,-2.5748 -24.4256,-4.2499 -40.4117,-3.8587 l -12.5,0.3059 -0.2591,51.25 -0.2591,51.25 H 2502.9909 2460 Z m 143.5,-23.3917 c 8.323,-3.2598 13.8261,-8.9273 16.0302,-16.5093 3.2868,-11.3062 0.089,-23.1882 -8.2054,-30.4893 -7.7854,-6.853 -10.4787,-7.3852 -39.5748,-7.8196 L 2546,292.3506 v 29.1617 29.1618 l 25.75,-0.3854 c 24.1613,-0.3617 26.1202,-0.5304 31.75,-2.7354 z m 425.8819,168.5612 c 0.3324,-1.3242 21.3074,-67.516 46.6112,-147.0928 C 3101.2969,289.4449 3122,224.1437 3122,223.9079 c 0,-0.2358 19.8735,-0.3115 44.1634,-0.1683 l 44.1634,0.2604 46.3366,146.9302 C 3282.1485,451.7418 3303,518.0091 3303,518.1909 c 0,0.1818 -19.2006,0.2132 -42.6679,0.07 l -42.668,-0.2607 -5.0394,-19.2606 -5.0394,-19.2606 -42.5323,0.2606 -42.5323,0.2606 -5.0104,19 -5.0103,19 -41.8612,0.2611 -41.8612,0.261 0.6043,-2.4076 z M 3191.5171,412.75 c -0.7563,-2.6125 -6.5972,-25 -12.9797,-49.75 -6.3825,-24.75 -11.9827,-45.9 -12.4448,-47 -1.0034,-2.3882 0.645,-8.2688 -14.5765,52 -6.3898,25.3 -11.8503,46.7875 -12.1344,47.75 -0.4829,1.6362 1.2398,1.75 26.497,1.75 h 27.0135 z M 3333,370.9887 V 223.4773 l 40.2305,0.2614 40.2305,0.2613 46.0195,78.9218 c 42.2155,72.3982 46.0453,78.6162 46.3314,75.2237 0.1716,-2.0339 -0.3909,-15.7688 -1.25,-30.5219 C 3503.535,329.9876 3503,304.1359 3503,272.1499 V 223.5 h 41 41 V 371 518.5 l -40.25,-0.042 -40.25,-0.042 -46,-79.0488 c -25.3,-43.4768 -46.3331,-79.2569 -46.7402,-79.5113 -0.4071,-0.2543 -0.5106,2.1489 -0.2299,5.3405 2.0391,23.1862 3.4701,67.4466 3.4701,107.3302 v 45.9728 h -41 -41 V 370.9881 Z"
     id="path836"
     inkscape:connector-curvature="0" />
</svg>
