<?xml version="1.0" encoding="UTF-8" standalone="no"?>
<!-- Created with Inkscape (http://www.inkscape.org/) -->

<svg
   xmlns:dc="http://purl.org/dc/elements/1.1/"
   xmlns:cc="http://creativecommons.org/ns#"
   xmlns:rdf="http://www.w3.org/1999/02/22-rdf-syntax-ns#"
   xmlns:svg="http://www.w3.org/2000/svg"
   xmlns="http://www.w3.org/2000/svg"
   xmlns:sodipodi="http://sodipodi.sourceforge.net/DTD/sodipodi-0.dtd"
   xmlns:inkscape="http://www.inkscape.org/namespaces/inkscape"
   version="1.1"
   id="svg2"
   width="4322.8564"
   height="892.27301"
   viewBox="0 0 4322.8564 892.27301"
   sodipodi:docname="midamericanenergy.svg"
   inkscape:version="0.92.3 (2405546, 2018-03-11)">
  <metadata
     id="metadata8">
    <rdf:RDF>
      <cc:Work
         rdf:about="">
        <dc:format>image/svg+xml</dc:format>
        <dc:type
           rdf:resource="http://purl.org/dc/dcmitype/StillImage" />
        <dc:title></dc:title>
      </cc:Work>
    </rdf:RDF>
  </metadata>
  <defs
     id="defs6" />
  <sodipodi:namedview
     pagecolor="#ffffff"
     bordercolor="#666666"
     borderopacity="1"
     objecttolerance="10"
     gridtolerance="10"
     guidetolerance="10"
     inkscape:pageopacity="0"
     inkscape:pageshadow="2"
     inkscape:window-width="1216"
     inkscape:window-height="818"
     id="namedview4"
     showgrid="false"
     inkscape:zoom="0.0472"
     inkscape:cx="-1180.5984"
     inkscape:cy="476.1926"
     inkscape:window-x="1104"
     inkscape:window-y="370"
     inkscape:window-maximized="0"
     inkscape:current-layer="svg2"
     fit-margin-top="0"
     fit-margin-left="0"
     fit-margin-right="0"
     fit-margin-bottom="0" />
  <path
     style="fill:#000000"
     d="m 649.56266,678.7317 -212.79659,-213.5413 11.79659,-10.009 c 113.47939,-96.2833 409.87629,-345.6735 410.10569,-345.0655 0.6101,1.617 -6.1218,16.1869 -10.7662,23.3015 -7.6099,11.6571 -15.9975,20.6578 -34.851,37.3984 -17.7734,15.7815 -30.9676,28.6946 -40.5395,39.6755 -2.8338,3.251 -22.0677,22.151 -42.7419,42 -99.37452,95.408 -166.07101,160.5933 -181.57524,177.4611 -11.38793,12.3895 -23.62491,27.1717 -23.00577,27.7908 0.49443,0.4945 16.11794,-6.0707 19.10583,-8.0285 2.72846,-1.7877 58.27412,-46.8919 183.56468,-149.058 83.7315,-68.2775 108.5974,-88.1229 127.7125,-101.9273 l 5.2125,-3.7643 1.4246,3.4095 c 4.836,11.5743 2.3274,20.3192 -8.378,29.2053 -2.4594,2.0414 -14.5966,13.2462 -26.9716,24.8994 -21.5114,20.2569 -45.6037,42.76 -141.6012,132.2612 -39.1997,36.547 -57.76182,55.3118 -67.9559,68.698 -3.41903,4.4897 -3.51924,4.8037 -1.32127,4.1401 1.3081,-0.3949 5.97837,-2.3911 10.37837,-4.436 8.75695,-4.0699 11.31675,-6.0261 130.9961,-100.1089 37.3978,-29.3993 76.0882,-59.2241 85.9787,-66.2774 l 17.9827,-12.8241 1.959,4.3241 c 2.7664,6.106 2.8436,19.7573 0.1431,25.3241 -2.9201,6.0198 -12.6882,15.2929 -77.5596,73.6291 -32.725,29.4283 -61.6766,55.9303 -64.337,58.8934 -4.8343,5.3843 -8.686,11.9569 -11.2261,19.1563 -0.7415,2.1016 -1.245,3.8212 -1.1189,3.8212 0.1261,0 34.8686,-25.8064 77.2056,-57.3476 42.337,-31.5411 77.0632,-57.2918 77.1694,-57.2237 0.3258,0.2092 3.307,35.4506 3.307,39.0938 0,3.2513 -1.863,5.0546 -37.25,36.0571 -20.4875,17.949 -37.3452,32.9239 -37.4617,33.2775 -0.1164,0.3536 0.839,1.9286 2.1231,3.5001 l 2.3347,2.8572 30.3769,-20.3572 c 28.1267,-18.8491 32.877,-21.8148 32.877,-20.5256 0,0.263 0.6533,6.2585 1.4518,13.3233 6.3628,56.2956 9.2401,257.5837 5.4939,384.3451 -0.9659,32.6831 -2.5365,62.3492 -3.7773,71.3463 l -0.6684,4.8463 z M 1929.3315,868.3304 c 0.3822,-2.0625 0.9132,-4.875 1.18,-6.25 0.3722,-1.9182 -0.055,-2.7327 -1.8336,-3.5 -3.2441,-1.3991 -3.7604,-7.5582 -0.8757,-10.443 2.7707,-2.7707 9.3124,-2.8016 12.057,-0.057 2.6634,2.6634 2.5234,5.7736 -0.7061,15.6905 l -2.7061,8.3095 h -3.9052 -3.9052 z m 1792.0278,-6.8081 c -1.1,-0.2539 -4.475,-0.961 -7.5,-1.5713 -7.3401,-1.4809 -13.6344,-4.7793 -18.9327,-9.9211 l -4.3645,-4.2357 8.8962,-8.2229 8.8963,-8.2228 3.893,3.3323 c 5.4114,4.6319 12.5241,6.8796 21.6117,6.8294 8.2725,-0.046 12.8807,-1.792 15.5735,-5.9016 3.8045,-5.8064 -0.6868,-8.8113 -17.3662,-11.6192 -13.4998,-2.2726 -20.877,-5.2965 -24.4891,-10.0382 -5.1812,-6.8014 -5.961,-18.0121 -1.8927,-27.2092 3.6938,-8.3505 11.9709,-14.4647 24.7172,-18.2582 8.247,-2.4545 25.8068,-2.4726 33.9573,-0.035 6.099,1.8239 15.8181,7.299 15.29,8.6132 -0.1595,0.397 -3.5201,4.2125 -7.4678,8.479 l -7.1776,7.7574 -5.7258,-2.8014 c -9.8183,-4.8036 -26.614,-3.5624 -28.7977,2.1283 -2.472,6.4418 0.4292,8.4807 15.4495,10.8579 11.1063,1.7577 17.1554,4.1009 22.3411,8.654 5.7608,5.058 7.8952,10.1522 7.8074,18.6336 -0.1627,15.7007 -9.5385,26.1148 -27.7191,30.7889 -6.0652,1.5594 -23.315,2.8133 -27,1.9627 z m 426.9821,-0.8977 c -3.8598,-0.7014 -9.2779,-2.4205 -12.0401,-3.8202 -29.3354,-14.8654 -23.3397,-65.761 9.9719,-84.6487 15.6255,-8.8595 38.584,-10.2186 52.5201,-3.1089 4.5422,2.3173 12.3043,8.8983 11.8501,10.0471 -0.1563,0.3955 -4.2899,4.0991 -9.1859,8.2304 l -8.9016,7.5114 -4.3712,-3.3366 c -2.4042,-1.8352 -5.979,-3.6383 -7.944,-4.0069 -5.2722,-0.9891 -15.5007,0.081 -19.2364,2.0132 -19.6417,10.1571 -23.7747,38.2598 -7.0662,48.0472 5.2887,3.098 15.7093,2.6995 23.6566,-0.9045 3.4295,-1.5553 6.7471,-3.4443 7.3724,-4.1978 0.6254,-0.7534 1.7016,-1.3699 2.3917,-1.3699 1.1507,0 11.038,12.6313 12.1446,15.5152 1.2371,3.2239 -15.7153,11.9535 -27.1798,13.996 -9.596,1.7097 -14.7166,1.7168 -23.9822,0.033 z m -3118.4821,-1.3585 c -16.585,-4.335 -27.6421,-16.5617 -31.51715,-34.8509 -1.8278,-8.6265 -1.8221,-13.0616 0.028,-21.8348 4.92895,-23.3722 22.75925,-37.5 47.32815,-37.5 16.4798,0 30.8811,7.2706 38.7419,19.5592 15.2123,23.7807 8.2243,58.4398 -14.2476,70.6643 -10.4164,5.6663 -27.4223,7.3369 -40.3333,3.9622 z m 26.7619,-12.7076 c 6.8769,-2.0423 15.1935,-9.6467 18.2725,-16.708 3.4401,-7.8891 3.845,-19.5163 1.0051,-28.8658 -1.9143,-6.3025 -3.0113,-8.0563 -8.3712,-13.3837 -7.746,-7.6988 -14.026,-10.0174 -25.1925,-9.3007 -13.0348,0.8365 -21.7903,6.8285 -27.3748,18.7345 -2.2853,4.8722 -2.6011,6.8232 -2.6011,16.0666 0,9.8766 0.2017,10.9307 3.292,17.2081 5.768,11.7165 15.3555,17.6199 28.7765,17.7188 3.8877,0.029 9.3747,-0.6328 12.1935,-1.4698 z m 166.242,12.9715 c -8.1956,-2.2883 -14.9945,-6.5358 -19.7539,-12.3408 -2.3376,-2.8511 -4.25,-5.5532 -4.25,-6.0047 0,-0.4515 2.3741,-2.3973 5.2757,-4.3239 l 5.276,-3.503 3.9054,4.4896 c 7.2602,8.346 21.68,12.829 32.9972,10.2585 10.9418,-2.4853 15.7872,-6.9126 15.9528,-14.5763 0.1936,-8.9597 -6.4594,-13.2919 -25.4071,-16.5442 -6.875,-1.1801 -14.75,-2.9822 -17.5,-4.0049 -10.6566,-3.9628 -16.4419,-11.6543 -16.4725,-21.8999 -0.023,-7.615 1.3863,-11.9552 5.4052,-16.6504 11.2963,-13.1971 44.364,-14.7751 58.3712,-2.7855 7.0395,6.0256 7.0923,6.8204 0.7341,11.042 l -5.5058,3.6557 -3.88,-3.5053 c -5.4629,-4.9355 -12.6505,-7.1179 -21.5312,-6.5378 -12.0589,0.7877 -19.0755,5.8905 -19.0755,13.8728 0,7.264 5.9509,10.91 22.6024,13.8478 14.0173,2.4731 19.5542,4.11 25.3082,7.4821 8.5186,4.9922 12.105,12.4922 11.307,23.6453 -0.8274,11.5649 -7.0361,19.1249 -19.2631,23.4557 -6.9982,2.4788 -27.0124,3.0168 -34.4961,0.9272 z m 177.4961,0.1904 c -10.5272,-2.7752 -16.7932,-6.9342 -22.6832,-15.0561 l -2.84,-3.916 5.6871,-3.7767 5.6871,-3.7767 2.5745,3.4198 c 5.9192,7.8628 15.1879,11.9431 27.0912,11.9263 13.7278,-0.019 21.8595,-5.1165 22.7373,-14.2519 0.4207,-4.3785 0.1455,-5.2535 -2.6551,-8.4432 -3.9801,-4.5331 -8.3513,-6.2476 -22.3302,-8.7582 -13.6267,-2.4474 -19.0581,-4.1708 -24.9796,-7.9261 -11.1692,-7.0833 -12.8012,-25.5839 -3.1348,-35.5371 14.1767,-14.5973 50.5716,-13.2555 62.0636,2.2882 l 2.1818,2.9511 -5.5589,3.6909 -5.5589,3.6909 -2.6409,-2.4726 c -10.3892,-9.7268 -31.0076,-10.3032 -39.0944,-1.0929 -5.6674,6.4549 -3.4573,14.4183 4.9333,17.7756 2.2095,0.8841 9.1838,2.5324 15.4984,3.6629 25.7229,4.6054 34.0776,10.5946 36.1057,25.8833 1.5726,11.855 -5.9026,23.4532 -18.084,28.0583 -7.4843,2.8294 -27.0454,3.7573 -35,1.6602 z m 87.5039,-0.1904 c -8.1956,-2.2883 -14.9945,-6.5358 -19.7539,-12.3408 -2.3376,-2.8511 -4.25,-5.5532 -4.25,-6.0047 0,-0.4515 2.3741,-2.3973 5.2757,-4.3239 l 5.276,-3.503 3.9054,4.4896 c 7.2602,8.346 21.68,12.829 32.9972,10.2585 10.9418,-2.4853 15.7872,-6.9126 15.9528,-14.5763 0.1936,-8.9597 -6.4594,-13.2919 -25.4071,-16.5442 -6.875,-1.1801 -14.75,-2.9822 -17.5,-4.0049 -10.6566,-3.9628 -16.4419,-11.6543 -16.4725,-21.8999 -0.023,-7.615 1.3863,-11.9552 5.4052,-16.6504 11.2963,-13.1971 44.364,-14.7751 58.3712,-2.7855 7.0395,6.0256 7.0923,6.8204 0.7341,11.042 l -5.5058,3.6557 -3.88,-3.5053 c -5.4629,-4.9355 -12.6505,-7.1179 -21.5312,-6.5378 -12.0589,0.7877 -19.0755,5.8905 -19.0755,13.8728 0,7.264 5.9509,10.91 22.6024,13.8478 14.0173,2.4731 19.5542,4.11 25.3082,7.4821 8.5186,4.9922 12.105,12.4922 11.307,23.6453 -0.8274,11.5649 -7.0361,19.1249 -19.2631,23.4557 -6.9982,2.4788 -27.0124,3.0168 -34.4961,0.9272 z m 1227.4961,0.1904 c -10.5272,-2.7752 -16.7931,-6.9342 -22.6832,-15.0561 l -2.8401,-3.916 5.6872,-3.7767 5.6871,-3.7767 2.5745,3.4198 c 5.9192,7.8628 15.1879,11.9431 27.0912,11.9263 13.7278,-0.019 21.8595,-5.1165 22.7372,-14.2519 0.4208,-4.3785 0.1456,-5.2535 -2.655,-8.4432 -3.9802,-4.5331 -8.3513,-6.2476 -22.3302,-8.7582 -13.6267,-2.4474 -19.0582,-4.1708 -24.9796,-7.9261 -11.1692,-7.0833 -12.8012,-25.5839 -3.1348,-35.5371 14.1767,-14.5973 50.5716,-13.2555 62.0636,2.2882 l 2.1818,2.9511 -5.5589,3.6909 -5.5589,3.6909 -2.6409,-2.4726 c -10.3892,-9.7268 -31.0076,-10.3032 -39.0944,-1.0929 -5.6674,6.4549 -3.4573,14.4183 4.9333,17.7756 2.2095,0.8841 9.1838,2.5324 15.4984,3.6629 25.7229,4.6054 34.0776,10.5946 36.1057,25.8833 1.5726,11.855 -5.9026,23.4532 -18.084,28.0583 -7.4843,2.8294 -27.0454,3.7573 -35,1.6602 z m 87.5039,-0.1904 c -8.1956,-2.2883 -14.9944,-6.5358 -19.7539,-12.3408 -2.3376,-2.8511 -4.25,-5.5532 -4.25,-6.0047 0,-0.4515 2.3741,-2.3973 5.2757,-4.3239 l 5.276,-3.503 3.9054,4.4896 c 7.2602,8.346 21.6799,12.829 32.9971,10.2585 10.9419,-2.4853 15.7873,-6.9126 15.9528,-14.5763 0.1937,-8.9597 -6.4594,-13.2919 -25.407,-16.5442 -6.875,-1.1801 -14.75,-2.9822 -17.5,-4.0049 -10.6566,-3.9628 -16.4419,-11.6543 -16.4725,-21.8999 -0.023,-7.615 1.3863,-11.9552 5.4052,-16.6504 11.2963,-13.1971 44.364,-14.7751 58.3712,-2.7855 7.0395,6.0256 7.0923,6.8204 0.7341,11.042 l -5.5058,3.6557 -3.88,-3.5053 c -5.4629,-4.9355 -12.6505,-7.1179 -21.5312,-6.5378 -12.0589,0.7877 -19.0755,5.8905 -19.0755,13.8728 0,7.264 5.9509,10.91 22.6024,13.8478 14.0173,2.4731 19.5542,4.11 25.3082,7.4821 8.5186,4.9922 12.105,12.4922 11.307,23.6453 -0.8274,11.5649 -7.0361,19.1249 -19.2631,23.4557 -6.9982,2.4788 -27.0124,3.0168 -34.4961,0.9272 z m 576.7562,-0.01 c -15.2257,-3.6904 -24.7967,-13.0082 -28.2018,-27.4557 -4.2839,-18.1764 1.1478,-37.8242 14.0272,-50.7397 15.5746,-15.6183 44.0377,-21.3921 65.567,-13.3005 15.6204,5.8708 23.8699,19.0291 23.8327,38.0138 -0.065,32.9793 -24.482,55.2763 -60.1826,54.9566 -5.1164,-0.046 -11.8857,-0.7094 -15.0425,-1.4745 z m 31.8033,-23.7008 c 9.8469,-5.0291 16.278,-14.8979 17.201,-26.3959 0.7,-8.7214 -2.8323,-16.1252 -9.5886,-20.0968 -6.1555,-3.6185 -16.0868,-3.7805 -23.6758,-0.3863 -17.7477,7.9378 -24.9415,30.8875 -13.6151,43.4355 5.1048,5.6556 8.2086,6.814 17.1151,6.3882 5.5891,-0.2673 8.7901,-1.0175 12.5634,-2.9447 z m 79.6022,23.7247 c -10.9764,-2.3825 -18.1937,-7.8656 -22.3323,-16.9661 -3.5749,-7.8612 -3.0552,-18.065 2.498,-49.0424 2.5678,-14.3234 4.6686,-26.3609 4.6686,-26.75 0,-0.3892 5.8858,-0.7076 13.0795,-0.7076 h 13.0794 l -0.5731,2.75 c -2.7778,13.3303 -8.8263,50.8887 -8.8975,55.25 -0.1115,6.8272 2.0593,11.1778 6.6688,13.3652 4.1995,1.9928 11.5585,2.1147 15.9857,0.2649 4.1368,-1.7284 9.9533,-8.4557 11.5587,-13.3687 0.676,-2.0688 3.3669,-15.9114 5.9799,-30.7614 l 4.7508,-27 13.0977,-0.2784 c 12.116,-0.2576 13.0677,-0.1452 12.6972,1.5 -0.2203,0.9781 -2.4426,13.4784 -4.9386,27.7784 -6.358,36.4276 -8.2348,42.0381 -17.3064,51.7364 -10.7275,11.4686 -30.8523,16.3894 -50.0164,12.2297 z M 1607.6578,814.8304 c -10.2836,-24.8875 -19.0006,-46.0566 -19.3712,-47.0424 -0.6192,-1.6471 -3e-4,-1.7688 7.6333,-1.5 l 8.3072,0.2924 14.5661,37.2441 c 8.0114,20.4842 14.8358,37.2467 15.1654,37.25 0.3296,0 4.0965,-8.8816 8.3708,-19.7441 4.2742,-10.8625 10.9133,-27.7375 14.7535,-37.5 l 6.9822,-17.75 h 8.4322 c 7.7208,0 8.3533,0.1477 7.4963,1.75 -0.5149,0.9625 -8.449,19.975 -17.6312,42.25 -9.1822,22.275 -17.6072,42.6375 -18.7222,45.25 l -2.0272,4.75 h -7.6289 -7.629 z m 2388.8214,43.5 c -0.8891,-3.0226 -21.6199,-90.8021 -21.6199,-91.5442 0,-0.3882 6.452,-0.7058 14.3378,-0.7058 h 14.3379 l 3.633,18.75 c 1.9981,10.3125 4.3863,23.7 5.3069,29.75 0.9206,6.05 1.9705,11.5737 2.3328,12.2748 0.3863,0.7474 4.0505,-5.2514 8.8571,-14.5 4.5091,-8.6761 11.9492,-22.5248 16.5337,-30.7748 l 8.3354,-15 14.7356,-0.2772 14.7355,-0.2771 -2.5776,4.2771 c -1.4177,2.3525 -13.9298,23.5147 -27.8046,47.0272 l -25.2269,42.75 h -12.701 c -11.2333,0 -12.7604,-0.2022 -13.2157,-1.75 z m 303.3032,-1.1731 c -5.3513,-5.3512 -2.8558,-15.5358 4.5667,-18.6371 6.6034,-2.759 16.2834,-1.0789 17.889,3.105 1.1665,3.0399 0.6235,8.6427 -1.1288,11.6461 -2.3161,3.9698 -8.0652,6.8091 -13.7871,6.8091 -3.7694,0 -5.1532,-0.5365 -7.5398,-2.9231 z M 1110.8593,812.4832 V 765.886 l 26.25,0.4093 c 24.0891,0.3756 26.7077,0.5895 31.8115,2.5985 5.9844,2.3557 11.1208,6.7211 13.6795,11.6258 0.8949,1.7155 1.7634,6.3573 1.976,10.5608 0.3264,6.4533 0.055,8.0582 -1.9457,11.5 -1.2788,2.2 -4.024,5.1031 -6.1005,6.4514 l -3.7755,2.4514 3.3023,1.7088 c 14.5427,7.5251 15.8808,30.8355 2.3024,40.1074 -7.2403,4.944 -13.2796,5.781 -41.7101,5.781 h -25.7899 z m 50.088,32.4849 c 3.4394,-0.7376 6.4033,-2.2275 8.7991,-4.4232 3.1272,-2.8658 3.6129,-3.9172 3.6129,-7.822 0,-3.6365 -0.5817,-5.13 -3,-7.7029 -5.7196,-6.0853 -9.0189,-6.8932 -28.25,-6.9176 l -17.25,-0.022 v 13.3333 c 0,7.3334 0.3,13.6334 0.6667,14 1.1086,1.1087 29.8606,0.747 35.4213,-0.4456 z m 2.194,-41.2497 c 7.2217,-3.0566 9.7024,-10.4685 5.5507,-16.5839 -4.6202,-6.8051 -7.231,-7.5541 -26.3327,-7.5541 h -17 l -0.2799,12.75 -0.2799,12.75 h 17.5619 c 12.578,0 18.4754,-0.3865 20.7799,-1.362 z m 131.718,8.862 v -46.5 h 34 34 v 7 7 h -26.5 -26.5 v 13 13 h 25.5 25.5 v 6.5 6.5 h -25.5 -25.5 v 13 13 h 27 27 v 7 7 h -34.5 -34.5 z m 264,0 v -46.5 h 7.5 7.5 v 46.5 46.5 h -7.5 -7.5 z m 136,0 v -46.5 h 34 34 v 6.9837 6.9836 l -26.75,0.2664 -26.75,0.2663 v 12.5 12.5 l 25.75,0.2669 25.75,0.2669 v 6.4662 6.4662 l -25.75,0.2669 -25.75,0.2669 -0.2799,12.75 -0.2799,12.75 h 27.0299 27.0299 v 7 7 h -34 -34 z m 88,0 v -46.5 h 7.5 7.5 v 40 40 h 24.5 24.5 v 6.5 6.5 h -32 -32 z m 90,27.563 v -18.937 l -17.3311,-26.313 c -9.532,-14.4722 -17.6586,-26.8755 -18.059,-27.563 -0.5596,-0.9609 1.3292,-1.25 8.1661,-1.25 h 8.8942 l 12.7691,20.5 c 7.0231,11.275 12.8977,20.5 13.0548,20.5 0.1571,0 6.2239,-9.225 13.4816,-20.5 l 13.196,-20.5 h 8.9141 c 4.9027,0 8.9141,0.1808 8.9141,0.4018 0,0.2209 -8.325,12.5799 -18.5,27.4643 l -18.5,27.0627 v 19.0356 19.0356 h -7.5 -7.5 z m 123,-27.563 v -46.5 l 21.25,0.01 c 11.6875,0 24.1129,0.472 27.6118,1.0398 11.3016,1.8338 18.4437,6.7289 23.2753,15.9526 1.9943,3.8071 2.3577,5.9628 2.36,14 0,8.6855 -0.2543,9.9653 -2.9971,14.9274 -3.2526,5.8843 -8.9674,10.2732 -16,12.2875 -2.2,0.6302 -4.1634,1.2655 -4.3632,1.4119 -0.1997,0.1464 5.9878,7.488 13.75,16.3146 7.7623,8.8266 14.1132,16.2756 14.1132,16.5535 0,0.2778 -3.8086,0.5051 -8.4637,0.5051 h -8.4636 l -13.7864,-15.9335 -13.7863,-15.9335 -10.25,-0.066 -10.25,-0.066 v 16 16 h -7 -7 v -46.5 z m 48.3444,0.4213 c 12.5758,-3.492 16.4439,-19.2034 6.9886,-28.3863 -4.5967,-4.4644 -7.5246,-5.035 -25.833,-5.035 h -15 l -0.2765,15.9599 c -0.152,8.7779 -0.054,16.5404 0.2187,17.25 0.628,1.6366 28.1514,1.8083 33.9022,0.2114 z m 47.6556,-0.4213 v -46.5 h 34 34 v 7 7 h -26.5 -26.5 v 13 13 h 25.5 25.5 v 6.5 6.5 h -25.5 -25.5 v 13 13 h 27 27 v 7 7 h -34.5 -34.5 z m 89,0 v -46.5 h 6.9885 6.9886 l 0.2614,39.75 0.2615,39.75 24.75,0.2675 24.75,0.2674 v 6.4826 6.4825 h -32 -32 z m 78,0 v -46.5 h 34 34 v 7 7 h -26.5 -26.5 v 13 13 h 25.5 25.5 v 6.5 6.5 h -25.5 -25.5 v 13 13 h 27 27 v 7 7 h -34.5 -34.5 z m 89,0 v -46.5 h 5.4074 5.4074 l 26.3426,32.9517 26.3426,32.9518 0.2635,-32.9518 0.2635,-32.9517 h 7.4865 7.4865 v 46.5 46.5 h -5.8734 -5.8734 l -26.3766,-32.75 -26.3766,-32.75 -0.2637,32.75 -0.2637,32.75 h -6.9863 -6.9863 z m 123.7615,6.75 -0.2615,-39.75 -15.25,-0.276 -15.25,-0.2761 v -6.4739 -6.474 h 38 38 v 6.474 6.4739 l -15.25,0.2761 -15.25,0.276 -0.2615,39.75 -0.2614,39.75 h -6.9771 -6.9771 z m 60.2385,-6.75 v -46.5 h 6.9885 6.9886 l 0.2614,39.75 0.2615,39.75 24.75,0.2675 24.75,0.2674 v 6.4826 6.4825 h -32 -32 z m 78,0 v -46.5 h 34 34 v 7 7 h -26.5 -26.5 v 13 13 h 25.5 25.5 v 6.5 6.5 h -25.5 -25.5 v 13 13 h 27 27 v 7 7 h -34.5 -34.5 z m 265,0 v -46.5 h 6.9885 6.9886 l 0.2614,39.75 0.2615,39.75 24.75,0.2675 24.75,0.2674 v 6.4826 6.4825 h -32 -32 z m 90,27.563 v -18.937 l -17.3311,-26.313 c -9.532,-14.4722 -17.6586,-26.8755 -18.059,-27.563 -0.5596,-0.9609 1.3292,-1.25 8.1661,-1.25 h 8.8942 l 12.7691,20.5 c 7.0231,11.275 12.8977,20.5 13.0548,20.5 0.1571,0 6.2239,-9.225 13.4816,-20.5 l 13.196,-20.5 h 8.9141 c 4.9027,0 8.9141,0.1808 8.9141,0.4018 0,0.2209 -8.325,12.5799 -18.5,27.4643 l -18.5,27.0627 v 19.0356 19.0356 h -7.5 -7.5 z m 76.9296,17.187 c 0.5498,-0.9625 13.5446,-21.775 28.8769,-46.25 l 27.877,-44.5 13.4083,-0.2693 13.4082,-0.2694 12.5803,46.5194 12.5802,46.5193 h -13.638 -13.638 l -1.4669,-7.25 -1.4668,-7.25 -21.1956,-0.2698 -21.1955,-0.2698 -4.2799,7.5092 -4.2798,7.5092 -14.2852,0.011 c -13.3208,0.01 -14.2177,-0.1075 -13.2852,-1.7394 z m 72.5399,-38.5 c -0.3416,-1.7875 -1.8341,-8.3992 -3.3168,-14.6926 l -2.6959,-11.4427 -4.4233,7.4427 c -2.4328,4.0934 -6.353,10.7051 -8.7115,14.6926 l -4.288,7.25 h 12.0283 12.0283 z m 55.6585,35.594 c 0.4842,-2.5918 3.1548,-17.567 5.9347,-33.2782 2.7797,-15.7112 5.3017,-29.5783 5.6042,-30.8158 l 0.5499,-2.25 h -13.6084 c -7.4846,0 -13.618,-0.3375 -13.6297,-0.75 -0.012,-0.4125 0.7545,-5.3625 1.7027,-11 l 1.7237,-10.25 h 40.2975 c 31.5981,0 40.2865,0.2698 40.2469,1.25 -0.028,0.6875 -0.835,5.525 -1.7937,10.75 l -1.7434,9.5 -13.7062,0.2782 c -7.5384,0.153 -13.7246,0.378 -13.7472,0.5 -0.023,0.122 -2.8488,15.9718 -6.2807,35.2218 l -6.2398,35 -13.0954,0.2782 -13.0954,0.2781 z m 111.5566,2.4341 c 0.23,-1.253 1.6998,-9.4673 3.2662,-18.2541 l 2.8482,-15.976 -12.8995,-27.6879 c -7.0948,-15.2283 -12.8995,-27.9516 -12.8995,-28.274 0,-0.3224 6.4124,-0.5781 14.25,-0.5683 l 14.25,0.018 6.4034,15.2322 c 3.5219,8.3777 6.6719,15.5427 7,15.9223 0.3281,0.3795 6.3609,-6.483 13.4061,-15.25 l 12.8096,-15.9401 h 15.4404 c 8.4923,0 15.4405,0.2579 15.4405,0.5731 0,0.3153 -10.2554,12.5778 -22.7897,27.25 -12.5344,14.6723 -23.1958,27.3363 -23.6921,28.1423 -0.4964,0.8059 -2.2979,9.3559 -4.0034,19 l -3.101,17.5346 -13.0736,0.2781 -13.0736,0.2781 0.418,-2.2781 z m 284.3154,1.6313 c 0,-0.3249 3.5999,-21.0119 8,-45.9712 4.4,-24.9593 8,-45.6556 8,-45.9917 0,-0.3362 12.4875,-0.46 27.75,-0.275 26.4535,0.3206 27.9836,0.4437 32.75,2.6337 12.476,5.7322 17.7894,16.3637 15.4614,30.9366 -1.8335,11.4771 -7.5143,18.8947 -18.2114,23.7792 -3.1625,1.4441 -5.75,2.8405 -5.75,3.103 0,0.2626 3.8262,6.9459 8.5027,14.8519 4.6763,7.9059 8.7793,15.0958 9.1178,15.9774 0.5495,1.4324 -0.9091,1.5734 -13.7052,1.3249 l -14.3202,-0.2782 -7.8968,-14.75 -7.8966,-14.75 h -5.401 c -2.9704,0 -5.4007,0.1239 -5.4007,0.2753 0,0.1514 -1.125,6.6888 -2.5,14.5276 -1.375,7.8388 -2.5,14.465 -2.5,14.7247 0,0.2598 -5.85,0.4724 -13,0.4724 -7.1501,0 -13,-0.2658 -13,-0.5906 z m 58.6185,-50.0327 c 4.515,-2.1425 7.5346,-6.5561 8.136,-11.892 0.4153,-3.6845 0.103,-4.718 -2.0877,-6.9087 -2.4775,-2.4776 -3.0279,-2.576 -14.4014,-2.576 h -11.8253 l -1.7271,10.25 c -0.9498,5.6375 -1.7239,10.8125 -1.72,11.5 0.011,1.9953 19.2755,1.6909 23.6255,-0.3733 z m 160.3815,50.0166 c 0,-0.3336 3.6,-21.0692 8,-46.079 4.3999,-25.0098 8,-45.6618 8,-45.8933 0,-0.2316 16.0052,-0.421 35.5673,-0.421 33.39,0 35.538,0.1071 35.0874,1.75 -0.264,0.9625 -0.761,3.55 -1.1042,5.75 -0.3434,2.2 -1.0895,6.3625 -1.6582,9.25 l -1.0341,5.25 h -22.3221 c -17.7615,0 -22.4274,0.2744 -22.8376,1.3432 -0.2835,0.7388 -0.8335,3.8888 -1.2222,7 l -0.7067,5.6568 h 21.2236 21.2236 l -0.5415,2.25 c -0.2979,1.2375 -1.045,5.175 -1.6603,8.75 -0.6153,3.575 -1.3479,7.2786 -1.628,8.2303 -0.4587,1.5585 -2.6099,1.7571 -21.6711,2 l -21.1618,0.2697 -0.7498,4.5 c -0.4124,2.475 -0.9956,5.5125 -1.2961,6.75 l -0.5463,2.25 h 24.6275 24.6274 l -0.5415,2.25 c -0.2979,1.2375 -1.032,5.175 -1.6313,8.75 -0.5993,3.575 -1.3129,7.5125 -1.5859,8.75 l -0.4962,2.25 h -36.981 c -20.3395,0 -36.9809,-0.273 -36.9809,-0.6067 z m 89,0.016 c 0,-0.3249 3.6,-21.0119 8,-45.9712 4.3999,-24.9593 8,-45.6556 8,-45.9917 0,-0.3362 12.4875,-0.46 27.75,-0.275 26.4535,0.3206 27.9835,0.4437 32.75,2.6337 12.4759,5.7322 17.7893,16.3637 15.4614,30.9366 -1.8335,11.4771 -7.5143,18.8947 -18.2114,23.7792 -3.1626,1.4441 -5.75,2.8405 -5.75,3.103 0,0.2626 3.8262,6.9459 8.5027,14.8519 4.6764,7.9059 8.7794,15.0958 9.1178,15.9774 0.5496,1.4324 -0.9091,1.5734 -13.7052,1.3249 l -14.3202,-0.2782 -7.8968,-14.75 -7.8967,-14.75 h -5.4009 c -2.9704,0 -5.4008,0.1239 -5.4008,0.2753 0,0.1514 -1.125,6.6888 -2.5,14.5276 -1.375,7.8388 -2.5,14.465 -2.5,14.7247 0,0.2598 -5.85,0.4724 -13,0.4724 -7.15,0 -13,-0.2658 -12.9999,-0.5906 z m 58.6185,-50.0327 c 4.5151,-2.1425 7.5346,-6.5561 8.1361,-11.892 0.4152,-3.6845 0.103,-4.718 -2.0877,-6.9087 -2.4775,-2.4776 -3.0279,-2.576 -14.4014,-2.576 h -11.8253 l -1.7271,10.25 c -0.9499,5.6375 -1.7239,10.8125 -1.7201,11.5 0.011,1.9953 19.2755,1.6909 23.6255,-0.3733 z m 137.3815,50.0636 c 0,-0.3079 3.6,-20.8677 8,-45.6885 4.3999,-24.8207 8,-45.4938 8,-45.9402 0,-0.4463 5.85,-0.8115 13,-0.8115 7.1499,0 13,0.273 13,0.6067 0,0.3336 -3.6001,21.0692 -8,46.079 -4.4,25.0098 -8,45.6618 -8,45.8933 0,0.2316 -5.8501,0.421 -13,0.421 -7.15,0 -13,-0.2519 -13,-0.5598 z m 140,-0.047 c 0,-0.3336 3.6,-21.0692 8,-46.079 4.3999,-25.0098 8,-45.6618 8,-45.8933 0,-0.2316 16.0052,-0.421 35.5673,-0.421 33.39,0 35.538,0.1071 35.0874,1.75 -0.264,0.9625 -0.761,3.55 -1.1042,5.75 -0.3434,2.2 -1.0895,6.3625 -1.6582,9.25 l -1.0341,5.25 h -22.3221 c -17.7615,0 -22.4274,0.2744 -22.8376,1.3432 -0.2835,0.7388 -0.8335,3.8888 -1.2222,7 l -0.7067,5.6568 h 21.2236 21.2236 l -0.5415,2.25 c -0.2979,1.2375 -1.045,5.175 -1.6603,8.75 -0.6153,3.575 -1.3479,7.2786 -1.628,8.2303 -0.4587,1.5585 -2.6099,1.7571 -21.6711,2 l -21.1618,0.2697 -0.7498,4.5 c -0.4124,2.475 -0.9956,5.5125 -1.2961,6.75 l -0.5463,2.25 h 24.6275 24.6274 l -0.5415,2.25 c -0.2979,1.2375 -1.032,5.175 -1.6313,8.75 -0.5993,3.575 -1.3129,7.5125 -1.5859,8.75 l -0.4962,2.25 h -36.981 c -20.3395,1e-4 -36.9809,-0.2729 -36.9809,-0.6066 z M 1882.3088,661.6862 c -11.4517,-2.1893 -18.4317,-4.5226 -27.4495,-9.1763 -25.9458,-13.3892 -40.9473,-40.499 -40.9869,-74.069 -0.05,-42.5936 23.0987,-74.2142 61.8935,-84.5444 11.0443,-2.9408 35.7772,-3.6692 47.0477,-1.3855 15.9464,3.2312 29.3442,10.3689 42.4172,22.5981 l 6.7565,6.3204 -15.8023,15.8254 -15.8023,15.8255 h 16.7383 16.7383 v 38.3042 38.3042 l -2.83,4.4458 c -7.3847,11.6011 -21.8738,20.9076 -39.7992,25.5635 -12.2365,3.1784 -37.3557,4.1992 -48.9213,1.9881 z m 34.033,-50.1433 c 7.3801,-1.9222 8.5175,-2.8683 8.5175,-7.0849 v -3.3776 h -19 -19 v -23.9816 -23.9815 l 23.25,-0.2685 23.25,-0.2684 -5,-3.7356 c -8.0645,-6.0252 -14.4766,-8.0731 -25.5,-8.1441 -7.9044,-0.051 -10.3867,0.3346 -14.7794,2.2951 -11.7249,5.2329 -18.2206,17.2059 -18.2206,33.5846 0,12.7872 2.7422,20.4022 9.9382,27.5982 4.1547,4.1547 7.1119,6.1684 10.6562,7.2565 6.4466,1.9791 18.5111,2.0293 25.8881,0.1078 z M 998.85925,577.0804 v -82 h 65.50005 65.5 v 25 25 h -37.5 -37.5 v 3.5 3.5 h 35.5 35.5 v 24.5 24.5 h -35.5 -35.5 v 4 4 h 39 39 v 25 25 h -67 -67.00005 z m 196.00005,0 v -82 h 23.2584 23.2587 l 25.4913,32.9442 c 14.0203,18.1193 25.7165,32.9696 25.9916,33.0006 0.275,0.031 0.3699,-14.7938 0.2112,-32.9442 l -0.2888,-33.0006 h 28.5388 28.5388 v 82 82 h -23.4659 -23.466 l -25.284,-32.5025 -25.2841,-32.5025 -0.2637,32.5025 -0.2636,32.5025 h -28.4864 -28.4863 z m 223,0 v -82 h 65.5 65.5 v 25 25 h -37.5 -37.5 v 3.5 3.5 h 35.5 35.5 v 24.5 24.5 h -35.5 -35.5 v 4 4 h 39 39 v 25 25 h -67 -67 z m 195,-0.069 v -82.069 l 47.75,0.3837 c 46.0943,0.3704 48.0098,0.4619 55.2429,2.6398 21.5024,6.4746 36.8837,21.7625 41.4697,41.2177 1.8688,7.9282 1.9603,23.7273 0.176,30.3969 -3.4552,12.9157 -12.2362,23.9915 -25.4758,32.1337 -0.1855,0.1141 7.577,10.4232 17.25,22.9093 l 17.5872,22.7019 v 5.8775 5.8776 l -29.25,-0.036 -29.25,-0.036 -17.0416,-23.7139 c -12.2425,-17.0355 -17.6637,-23.8039 -19.25,-24.0335 l -2.2084,-0.3195 v 24.0695 24.0696 h -28.5 -28.5 v -82.0691 z m 87.5477,-14.5769 c 4.5014,-4.8571 2.5481,-16.2265 -3.1607,-18.397 -1.3845,-0.5263 -8.1129,-0.957 -14.9521,-0.957 h -12.4349 v 11 11 h 14.0477 c 13.9065,0 14.0725,-0.027 16.5,-2.646 z m 369.4523,64.8592 V 595.507 l -28.5,-44.1994 -28.5,-44.1993 v -6.0139 -6.0139 h 29.3465 29.3465 l 13.2822,22.0713 c 9.7776,16.2475 13.5768,21.7767 14.3986,20.9549 0.6139,-0.6139 6.9958,-10.4335 14.1819,-21.8212 l 13.0656,-20.705 29.6894,-0.2649 29.6893,-0.2649 v 5.7649 5.7649 l -29.9975,44.3594 -29.9975,44.3593 v 31.8907 31.8906 h -28 -28 V 627.2937 Z M 424.20785,442.7955 C 398.19731,421.0846 352.17392,376.5207 242.80278,267.1428 110.90309,135.2351 30.07857,51.2544 5.98793,21.0804 L 0,13.5804 217.51125,13.3281 c 119.63119,-0.1387 315.10203,-0.1387 434.37965,0 l 216.86835,0.2523 -217.15703,218 c -119.43639,119.9 -217.46953,218.1352 -217.85142,218.3005 -0.3819,0.1652 -4.67623,-3.0232 -9.54295,-7.0854 z M 1737.1062,366.0363 c -41.4142,-5.1548 -70.6537,-33.0515 -82.2633,-78.4853 -4.1274,-16.1522 -5.3288,-28.947 -4.6872,-49.9142 0.9611,-31.409 7.6506,-54.2128 22.4237,-76.4399 13.571,-20.4188 32.667,-34.6162 55.3472,-41.1492 10.2081,-2.9405 33.3945,-3.8089 43.6108,-1.6334 14.1859,3.0208 26.189,9.2025 36.9582,19.034 l 6.4276,5.8679 -0.282,-56.3679 c -0.275,-54.9719 -0.3338,-56.4667 -2.3737,-60.3558 -3.2583,-6.2119 -8.7867,-8.5615 -20.7301,-8.8106 l -9.6581,-0.2015 -0.01,-4.75 -0.01,-4.75 h 58.482 58.4819 l 0.2681,158.25 0.268,158.25 2.5,4.4163 c 3.4154,6.0334 7.904,8.1743 18.5276,8.837 l 8.4724,0.5286 v 4.244 4.2439 L 1877.6,356.9653 c -28.7028,5.664 -53.7753,10.1151 -56.9769,10.1151 h -5.7177 l -0.273,-17.6287 -0.2731,-17.6287 -3.4591,5.3411 c -8.5778,13.2447 -24.781,24.1878 -40.5409,27.3802 -9.4698,1.9182 -24.4349,2.5896 -33.2531,1.492 z m 49.293,-32.4888 c 10.8687,-2.7954 21.1494,-11.9468 26.3832,-23.4852 1.9813,-4.3681 2.0335,-6.2637 2.0549,-74.6453 l 0.022,-70.1633 -8.2297,-7.6455 c -10.8877,-10.115 -20.2417,-14.8612 -30.2885,-15.3686 -8.5925,-0.4339 -13.0834,1.4436 -18.9285,7.9135 -7.3711,8.159 -13.0123,25.595 -15.5062,47.9273 -2.926,26.2013 -2.2316,68.721 1.4833,90.8304 4.2732,25.4316 14.0395,40.9448 28.1683,44.7437 6.3582,1.7095 7.8193,1.699 14.8412,-0.107 z m 1100.4601,32.4692 c -29.2798,-2.5428 -54.7059,-13.4247 -74.2414,-31.7739 -44.9908,-42.2591 -49.1221,-121.2424 -8.9629,-171.3619 17.4921,-21.8305 42.2241,-36.7962 71.7043,-43.3893 11.2017,-2.5053 37.2521,-3.0078 49.5259,-0.9555 23.897,3.9959 42.5003,13.1394 58.0608,28.537 19.4184,19.2152 29.0771,42.7436 31.5097,76.7573 l 0.6616,9.25 h -75.1604 c -65.8224,0 -75.2317,0.186 -75.7349,1.4971 -0.9138,2.3815 1.5712,20.9861 4.1735,31.2443 6.7462,26.5947 20.8953,45.9545 40.7489,55.7555 12.0721,5.9596 21.1906,7.8661 34.2149,7.1538 5.5,-0.3007 12.1509,-1.2277 14.7797,-2.0599 13.8076,-4.3709 27.3552,-14.7376 38.3237,-29.3256 3.2111,-4.2708 5.8948,-7.8835 5.9638,-8.0282 0.069,-0.1446 2.6658,0.8606 5.7709,2.2338 l 5.6455,2.4967 -2.0578,5.2663 c -6.8531,17.5373 -22.3053,36.5782 -38.2284,47.1062 -22.6752,14.9926 -55.1601,22.3352 -86.6974,19.5963 z m 46.7138,-171.6863 c -0.7538,-31.0421 -3.7212,-42.4324 -13.6265,-52.3032 -6.717,-6.6937 -11.7251,-8.4561 -21.9495,-7.7246 -23.0756,1.6511 -35.1379,25.3382 -35.1379,69.0016 v 12.7762 h 35.621 35.6209 z m 633.2862,171.6726 c -76.531,-8.5811 -123.9891,-72.2464 -108.9496,-146.1563 5.0787,-24.9582 15.8862,-44.8891 34.3565,-63.3594 18.8948,-18.8949 41.039,-30.6265 69.5931,-36.8692 10.4313,-2.2806 36.3238,-3.1203 48.6336,-1.5771 34.5684,4.3334 63.0788,20.3876 73.2849,41.2666 1.7618,3.6041 3.5552,9.4667 4.2154,13.78 1.5117,9.8757 -0.4146,17.1722 -6.1867,23.4343 -11.0009,11.9346 -38.0614,15.1921 -55.3793,6.6665 -11.4921,-5.6575 -15.7378,-13.8552 -19.6005,-37.8456 -3.7082,-23.0303 -10.7547,-30.1106 -28.92,-29.059 -9.7625,0.5651 -15.7072,3.3336 -23.0649,10.7415 -26.8817,27.0647 -24.5525,95.9087 4.7337,139.9233 15.2875,22.9755 38.6649,38.5913 60.8908,40.674 20.8231,1.9513 45.4567,-7.2448 62.5894,-23.3654 l 3.6965,-3.4781 5.4807,2.8696 5.4808,2.8695 -1.5549,2.6324 c -2.5873,4.3798 -14.7083,17.6694 -21.9685,24.0862 -18.2345,16.1163 -41.2341,27.2007 -65.0628,31.3561 -11.1176,1.9387 -31.4916,2.6184 -42.2682,1.4101 z m 212.9116,-0.027 c -29.9935,-3.8753 -49.9584,-23.978 -49.8905,-50.2349 0.058,-22.4187 14.404,-40.1854 48.0182,-59.4674 18.8349,-10.8042 38.0714,-18.9757 86.9607,-36.9401 l 18.5,-6.7978 V 184.058 c 0,-27.2923 -0.09,-28.6462 -2.1657,-32.5227 -3.1563,-5.8951 -10.1454,-11.8609 -16.9155,-14.4389 -7.4389,-2.8326 -25.476,-3.8619 -36.1439,-2.0626 -13.4513,2.2689 -26.9612,10.9786 -29.214,18.8342 -1.7016,5.9331 0.3785,9.9585 9.9549,19.2648 7.0315,6.8332 9.0393,9.4383 9.9871,12.958 4.7981,17.819 -12.1746,30.9316 -40.0929,30.9746 -25.4228,0.039 -43.2234,-10.7904 -45.4609,-27.6575 -0.7866,-5.9299 1.3905,-15.4251 5.0993,-22.2394 13.0144,-23.9117 52.5932,-43.2095 99.8433,-48.6815 17.6992,-2.0498 51.1758,-1.4867 65.6083,1.1035 30.3253,5.4425 49.9803,17.627 58.1208,36.0301 5.3939,12.1939 5.2151,9.3652 5.8174,91.9596 0.3982,54.5733 0.895,77.7281 1.7057,79.5 4.444,9.7126 14.5456,9.8584 22.9723,0.3315 l 4.1162,-4.6536 4.1125,2.9111 c 2.2618,1.601 4.122,3.4331 4.1337,4.0712 0.068,3.6924 -16.5871,20.2563 -25.7928,25.6516 -13.6518,8.0011 -25.4255,11.0769 -42.1858,11.0208 -17.5432,-0.059 -30.1766,-4.1905 -40.1042,-13.1162 -5.6426,-5.0731 -8.5056,-9.4433 -11.3712,-17.3574 l -2.0982,-5.7946 -5.9632,3.9987 c -27.6464,18.5389 -53.3066,29.4715 -74.7976,31.8679 -10.7015,1.1933 -13.2763,1.1893 -22.754,-0.035 z m 77.6283,-44.3984 c 3.2781,-0.8264 10.5726,-3.7692 16.2101,-6.5395 l 10.25,-5.0369 v -39.9605 c 0,-21.9783 -0.2898,-39.9605 -0.644,-39.9605 -0.3543,0 -7.1493,3.3635 -15.1,7.4745 -27.9211,14.4366 -42.7128,26.5773 -49.7645,40.8456 -3.4303,6.9407 -3.851,8.6143 -3.8917,15.481 -0.039,6.6892 0.3406,8.4024 2.8985,13.0631 7.3422,13.3784 22.723,18.9994 40.0416,14.6332 z m -2889.53995,34.651 v -4.8518 l 7.75,-0.6121 c 15.7347,-1.2429 24.174,-5.7568 28.95115,-15.4849 l 2.7988,-5.6994 v -144.5 c 0,-163.9437 0.7554,-149.7459 -8.42385,-158.3321 -5.6628,-5.2968 -11.8775,-7.5291 -23.3261,-8.3786 l -7.75,-0.5751 V 12.9309 8.0672 l 71.74455,0.2566 71.7445,0.2566 48.6826,112 c 26.7754,61.6 48.8788,112.45 49.1186,113 0.2398,0.55 0.7535,0.7066 1.1416,0.3479 0.3881,-0.3586 23.1021,-51.2086 50.4756,-113 l 49.77,-112.3479 70.6613,-0.2567 70.6613,-0.2567 v 4.8621 4.8621 l -6.25,0.6032 c -20.1605,1.9456 -29.6052,10.7724 -31.7644,29.686 -1.2439,10.8952 -1.2806,260.3607 -0.04,272.1469 1.6291,15.4779 6.97,23.4329 18.6723,27.8113 3.2338,1.2099 8.9177,2.4546 12.6309,2.7659 l 6.7512,0.566 v 4.8549 4.855 h -89.5 -89.5 v -5 -5 l 7.25,-0.017 c 14.5682,-0.035 26.073,-3.9216 31.682,-10.7036 6.9604,-8.4158 6.5199,1.4101 6.8364,-152.529 0.1659,-80.6268 -0.087,-138.75 -0.6047,-138.75 -0.8528,0 -11.6832,24.3792 -99.0671,223 l -38.9359,88.5 -5.3427,0.2928 -5.3428,0.2928 -67.4126,-154.9936 c -37.077,-85.2465 -67.7839,-154.7642 -68.2376,-154.4838 -1.1602,0.717 -1.0113,258.7826 0.1557,269.8789 1.7513,16.6523 8.2767,24.5916 22.9561,27.9303 3.8269,0.8704 9.6817,1.5826 13.0106,1.5826 h 6.0526 v 5 5 h -54.0001 -53.99995 v -4.8518 z m 509.00005,-0.029 v -4.8807 l 9.2932,-0.4065 c 14.0215,-0.6132 18.8933,-4.2205 20.7136,-15.3375 1.3125,-8.0152 1.3139,-174.9652 0,-182.9795 -2.2518,-13.7514 -8.011,-18.9677 -22.2584,-20.16 l -7.75,-0.6486 v -4.3532 -4.3533 h 57.4742 57.4743 l 0.2757,108.25 c 0.2706,106.1946 0.3138,108.3145 2.2758,111.6455 3.5645,6.0516 6.4537,7.4385 16.4954,7.9186 l 9.0046,0.4305 v 4.8777 4.8777 h -71.5 -71.5 v -4.8807 z m 475,0.01 v -4.8722 l 3.9895,-0.638 c 15.3903,-2.461 24.4673,-10.4972 34.5827,-30.6176 2.6268,-5.225 33.9013,-79.25 69.4988,-164.5 l 64.7228,-155 6.3926,-0.2909 6.3927,-0.2909 61.8295,155.2909 c 34.0063,85.41 64.2992,160.3409 67.3176,166.5132 8.8402,18.0772 18.2583,26.8125 31.1271,28.8703 l 4.1466,0.663 v 4.8722 4.8722 h -82.5 -82.5 v -5 -5 h 6.8635 c 13.4196,0 22.9322,-3.0448 26.3057,-8.42 3.426,-5.4589 0.6805,-17.0851 -11.1769,-47.33 l -7.1549,-18.25 h -58.346 -58.346 l -3.0016,7.75 c -1.6509,4.2625 -5.994,15.4 -9.6513,24.75 -10.2549,26.2168 -9.8831,32.6849 2.1966,38.2152 4.3386,1.9863 7.7867,2.693 14.9738,3.0689 l 9.3372,0.4884 v 4.8638 4.8637 h -48.5 -48.5 z m 192,-98.4822 c 0,-0.6551 -48.133,-121.1119 -48.569,-121.5479 -0.237,-0.2371 -0.6938,-0.1682 -1.015,0.1529 -0.63,0.6301 -49.2938,117.098 -50.1393,119.9994 -0.4809,1.6502 2.3489,1.75 49.6067,1.75 27.5641,0 50.1166,-0.1595 50.1166,-0.3544 z m 183,98.353 c 0,-4.7826 0.1196,-5.001 2.75,-5.022 4.6401,-0.037 10.9585,-3.5296 12.9337,-7.1494 1.7203,-3.1526 1.8163,-8.5374 1.8163,-101.8286 0,-92.1484 -0.1139,-98.7285 -1.7662,-102.0439 -2.08,-4.1736 -5.6182,-6.463 -11.4838,-7.4307 l -4.25,-0.7012 v -4.4121 -4.4121 h 51 51 v 15 c 0,8.25 0.2874,15 0.6388,15 0.3515,0 4.0986,-3.3054 8.3273,-7.3454 13.2632,-12.6716 28.6525,-21.5647 44.5339,-25.7351 11.5304,-3.0278 33.2401,-3.7541 44.55,-1.4904 17.3569,3.4739 34.1762,14.8406 42.95,29.0261 1.925,3.1123 4.0072,6.3946 4.6271,7.2939 0.9822,1.425 2.1385,0.7255 9,-5.4451 19.617,-17.6419 38.4519,-27.8249 57.8066,-31.253 3.2635,-0.5781 11.3635,-1.0451 18,-1.0379 37.4668,0.041 59.0839,14.8667 67.7811,46.4869 2.1625,7.8622 2.2101,9.438 2.7599,91.5 0.4375,65.2927 0.8428,84.1542 1.859,86.5 2.0332,4.6937 5.2163,7.4838 9.8769,8.6573 l 4.2894,1.0801 v 4.8813 4.8813 h -58 -58 l 0.011,-4.75 0.011,-4.75 5.2107,-2 c 6.3557,-2.4395 9.3836,-6.5109 10.2633,-13.8005 0.3451,-2.8597 0.477,-40.9745 0.2932,-84.6995 -0.3026,-71.961 -0.4972,-79.9825 -2.0526,-84.5884 -4.0153,-11.8905 -9.2558,-15.9116 -20.7368,-15.9116 -12.0801,0 -19.1004,3.7652 -34.2782,18.3844 l -8.7782,8.4551 0.2782,80.5802 c 0.2703,78.297 0.3349,80.6929 2.2782,84.5525 2.5527,5.0698 6.9552,7.5774 14.5056,8.262 l 5.9944,0.5436 v 4.8611 4.8611 h -62 -62 v -4.8722 -4.8722 l 3.9226,-0.6272 c 4.9756,-0.7957 9.5685,-4.6342 11.2606,-9.4111 1.0486,-2.9602 1.3168,-20.6219 1.3168,-86.7173 0,-76.9199 -0.1311,-83.4241 -1.7894,-88.7894 -4.6199,-14.9472 -20.1562,-19.8381 -37.3938,-11.7717 -5.0183,2.3484 -9.0043,5.4864 -16.9396,13.3357 l -10.3772,10.2646 0.01,75.9804 c 0.01,77.574 0.3891,86.6422 3.8475,91.4804 2.7512,3.8487 7.9058,5.9967 14.3949,5.9984 h 5.75 v 5 5 h -63 -63 v -5 z m 714,0.1223 v -4.8777 l 8.75,-0.4399 c 11.0963,-0.558 14.6689,-2.3102 17.5875,-8.6257 2.1582,-4.6699 2.163,-4.8536 2.4579,-94.1788 0.1902,-57.6173 -0.075,-92.5279 -0.7432,-98 -1.6279,-13.3225 -5.3381,-16.6943 -19.4677,-17.6914 l -8.5845,-0.6059 v -4.3514 -4.3515 h 56.4801 56.4801 l 0.2699,21.25 0.2699,21.25 3.3735,-6.5 c 11.0613,-21.3116 29.3518,-37.2814 47.0452,-41.076 7.7868,-1.67 22.502,-0.7027 28.2509,1.8569 6.577,2.9284 11.9671,8.1516 15.3916,14.9149 2.766,5.4629 2.9388,6.5097 2.9388,17.8042 0,11.0765 -0.2057,12.3897 -2.6724,17.0635 -3.5349,6.6979 -9.2399,11.6958 -16.4469,14.4083 -5.0052,1.884 -7.3694,2.1544 -15.8807,1.8167 -11.3172,-0.449 -13.8707,-1.4418 -25.4637,-9.9004 -17.6361,-12.8677 -28.5602,-8.7361 -33.3717,12.6215 -3.2234,14.308 -3.7862,28.9748 -3.4728,90.4904 0.2993,58.7582 0.3667,60.5997 2.3436,63.9646 3.446,5.8658 7.4421,7.4644 19.7146,7.8867 l 10.75,0.3699 v 4.8894 4.8894 h -73 -73 z m 240,0 v -4.8807 l 9.2932,-0.4065 c 13.7383,-0.6009 18.7147,-4.1397 20.6972,-14.7186 1.4001,-7.4701 1.3493,-175.4163 -0.056,-184.1135 -2.1532,-13.3304 -8.1907,-18.6442 -22.4052,-19.7192 l -7.5296,-0.5695 v -4.3556 -4.3557 h 57.4783 57.4783 l 0.2717,107.75 c 0.266,105.4915 0.3136,107.8325 2.2717,111.6855 3.2586,6.412 6.1573,7.8844 16.4953,8.3786 l 9.0047,0.4305 v 4.8777 4.8777 h -71.5 -71.5 v -4.8807 z m 754,0.011 v -4.87 l 4.6142,-0.5201 c 5.6724,-0.6393 9.2664,-3.1505 11.8858,-8.3045 1.9588,-3.8544 2,-5.914 2,-99.9355 0,-90.6061 -0.1028,-96.2663 -1.8286,-100.7392 -2.2982,-5.9564 -5.5508,-8.5433 -11.7809,-9.3697 l -4.8905,-0.6488 v -4.3711 -4.3712 h 51.5 51.5 v 15.5 c 0,8.525 0.2489,15.5 0.5532,15.5 0.3044,0 3.5669,-2.4264 7.25,-5.3919 16.65,-13.4059 34.458,-23.3248 50.6968,-28.2373 8.3017,-2.5114 10.3966,-2.7284 27,-2.7967 15.9622,-0.066 18.9017,0.187 25.9649,2.2318 22.3872,6.4813 35.1689,19.8603 41.7433,43.6941 2.1724,7.8752 2.2151,9.3104 2.7493,92 0.5185,80.2855 0.6276,84.1714 2.4666,87.8769 2.1502,4.3322 7.8158,7.5639 13.3259,7.6011 3.2304,0.022 3.25,0.052 3.25,5.022 v 5 h -61 -61 v -4.8865 -4.8864 l 4.2825,-0.6422 c 5.6175,-0.8424 10.1921,-3.7122 12.4189,-7.7907 1.6899,-3.0954 1.7985,-8.2435 1.7985,-85.2942 0,-75.3254 -0.144,-82.5291 -1.7696,-88.5 -2.1082,-7.7439 -5.9681,-13.6506 -10.7422,-16.4389 -4.5317,-2.6467 -16.2106,-2.7384 -23.7276,-0.1863 -6.7491,2.2915 -17.7737,9.512 -27.5748,18.0601 l -7.7525,6.7613 0.2834,81.1519 c 0.2609,74.7226 0.4205,81.4024 2.0134,84.3136 2.5495,4.6593 6.3722,7.2166 11.8795,7.9472 l 4.8905,0.6488 v 4.8711 4.8712 h -61 -61 z M 1536.7264,69.5711 c -9.0088,-1.7946 -16.8062,-5.6684 -23.233,-11.5421 -16.6398,-15.2079 -12.2076,-39.0583 9.2734,-49.9019 25.2675,-12.755 59.8889,-4.5862 69.7334,16.4533 3.3658,7.1933 3.2874,17.2444 -0.189,24.2206 -8.1361,16.3271 -32.3914,25.3905 -55.5848,20.7701 z m 1803.7343,-0.1328 c -26.0969,-5.5953 -39.3873,-26.1317 -29.6766,-45.8567 14.2998,-29.0469 71.998,-28.4892 85.6481,0.8279 3.4355,7.3788 3.3861,17.3538 -0.121,24.3915 -4.9745,9.9826 -16.5317,17.7691 -30.7259,20.7009 -9.2577,1.9123 -15.9884,1.8952 -25.1246,-0.064 z"
     id="path817"
     inkscape:connector-curvature="0" />
</svg>
