<?xml version="1.0" encoding="UTF-8" standalone="no"?>
<!-- Created with Inkscape (http://www.inkscape.org/) -->

<svg
   xmlns:dc="http://purl.org/dc/elements/1.1/"
   xmlns:cc="http://creativecommons.org/ns#"
   xmlns:rdf="http://www.w3.org/1999/02/22-rdf-syntax-ns#"
   xmlns:svg="http://www.w3.org/2000/svg"
   xmlns="http://www.w3.org/2000/svg"
   xmlns:sodipodi="http://sodipodi.sourceforge.net/DTD/sodipodi-0.dtd"
   xmlns:inkscape="http://www.inkscape.org/namespaces/inkscape"
   version="1.1"
   id="svg2"
   width="3606.0386"
   height="2098.8411"
   viewBox="0 0 3606.0386 2098.8411"
   sodipodi:docname="nationalfuel.svg"
   inkscape:version="0.92.3 (2405546, 2018-03-11)">
  <metadata
     id="metadata8">
    <rdf:RDF>
      <cc:Work
         rdf:about="">
        <dc:format>image/svg+xml</dc:format>
        <dc:type
           rdf:resource="http://purl.org/dc/dcmitype/StillImage" />
        <dc:title></dc:title>
      </cc:Work>
    </rdf:RDF>
  </metadata>
  <defs
     id="defs6" />
  <sodipodi:namedview
     pagecolor="#ffffff"
     bordercolor="#666666"
     borderopacity="1"
     objecttolerance="10"
     gridtolerance="10"
     guidetolerance="10"
     inkscape:pageopacity="0"
     inkscape:pageshadow="2"
     inkscape:window-width="853"
     inkscape:window-height="560"
     id="namedview4"
     showgrid="false"
     inkscape:zoom="0.047190562"
     inkscape:cx="-1545.1046"
     inkscape:cy="1049.4963"
     inkscape:window-x="1190"
     inkscape:window-y="409"
     inkscape:window-maximized="0"
     inkscape:current-layer="svg2"
     fit-margin-top="0"
     fit-margin-left="0"
     fit-margin-right="0"
     fit-margin-bottom="0" />
  <path
     style="fill:#000000"
     d="m 829.52252,2097.6917 c -32.2339,-2.2378 -44.8737,-10.6353 -49.6232,-32.9683 -1.9296,-9.0735 -1.3039,-21.2407 2.128,-41.3785 2.9426,-17.2667 5.9405,-29.14 17.3882,-68.8671 12.0046,-41.6598 23.3316,-83.7416 22.7083,-84.3649 -0.278,-0.278 -8.7142,-1.1392 -18.7472,-1.9139 -10.033,-0.7747 -18.3951,-1.5617 -18.5823,-1.749 -0.1873,-0.1872 2.9427,-12.4375 6.9554,-27.2228 l 7.2959,-26.8823 20.5387,-0.2697 20.5386,-0.2697 6.9179,-24.0241 c 3.8048,-13.2133 7.1746,-24.4395 7.4883,-24.9472 0.5125,-0.8293 71.9072,-15.9893 75.3003,-15.9893 1.0854,0 -0.2339,7.2711 -5.8028,31.9816 -3.9641,17.5899 -6.9742,32.2149 -6.6891,32.5 0.2851,0.2851 15.2933,0.5184 33.3517,0.5184 h 32.8333 v 5.5929 c 0,7.3053 -3.0363,21.8329 -7.8181,37.4071 l -3.8379,12.5 -34.922,0.5 -34.922,0.5 -9.7257,33.9784 c -15.9992,55.8956 -27.8082,105.1866 -27.7523,115.8378 0.046,8.6803 6.0017,16.5178 14.2735,18.7822 6.0273,1.6499 30.8895,0.4535 42.7045,-2.0551 5.225,-1.1094 9.7826,-2.0229 10.1279,-2.0302 1.1379,-0.024 -1.95,12.4116 -5.4714,22.0342 -1.9025,5.199 -5.8061,15.1551 -8.6745,22.1246 l -5.2154,12.672 -7.8942,2.1301 c -22.5264,6.0782 -45.7139,7.897 -74.8724,5.8728 z m 135.456,-0.5928 c 1.6422,-4.2793 19.2804,-65.8285 27.5836,-96.254 14.20748,-52.0602 34.50608,-134.2163 41.44668,-167.75 l 0.6726,-3.25 h 41.5275 c 36.1947,0 41.4549,0.1895 40.9614,1.4754 -0.3114,0.8115 -4.3835,15.099 -9.0491,31.75 -18.4545,65.8613 -35.95,135.4573 -50.2464,199.8765 l -7.6791,34.6019 -14.0866,0.6444 c -7.7476,0.3545 -27.0722,0.6461 -42.94358,0.6481 -27.0474,0 -28.815,-0.1058 -28.187,-1.7423 z m 276.54398,1.0456 c -49.4713,-3.8586 -82.3226,-21.7891 -100.0145,-54.5886 -17.1275,-31.7533 -15.683,-77.5478 3.8781,-122.9433 10.141,-23.5343 21.2752,-39.904 39.6364,-58.2739 16.1013,-16.1089 27.4369,-24.2484 48,-34.466 17.5372,-8.7141 28.0218,-12.4881 45.5,-16.3782 16.6267,-3.7005 26.1737,-4.6519 46.4738,-4.6313 73.206,0.074 117.589,29.4003 127.1013,83.9817 2.1668,12.4326 1.4496,36.2282 -1.5103,50.1111 -11.4102,53.5179 -36.5961,94.3224 -75.5648,122.4251 -11.187,8.0676 -35.5054,20.2524 -49.7441,24.9245 -25.5425,8.381 -56.2294,11.9859 -83.7559,9.8389 z m 50.5,-57.764 c 32.1755,-8.5735 59.8739,-38.6041 72.8978,-79.0356 6.9805,-21.6705 9.0851,-45.2954 5.3005,-59.5 -9.9317,-37.2762 -45.3974,-50.3996 -89.1905,-33.0031 -35.6829,14.1747 -56.6164,42.9439 -68.0364,93.5031 -6.5037,28.7934 -3.3413,46.0549 11.2871,61.6073 8.8427,9.4013 21.1894,15.5599 35.7772,17.8456 8.0922,1.268 24.6403,0.5342 31.9643,-1.4173 z m 1566.3756,57.0122 c -15.5493,-2.2305 -35.375,-7.4332 -43.2171,-11.3408 -19.7759,-9.8544 -31.1417,-31.9636 -27.8924,-54.2575 1.5493,-10.6294 16.5728,-70.9206 36.7419,-147.4495 9.1319,-34.65 17.0458,-64.6875 17.5863,-66.75 l 0.9828,-3.75 h 39.9614 c 21.9788,0 39.9615,0.2859 39.9615,0.6353 0,0.3495 -5.3768,19.812 -11.9485,43.25 -24.7119,88.1355 -32.4133,117.3812 -34.0956,129.4765 -2.1044,15.1307 2.3142,28.9696 12.1605,38.0854 8.1445,7.5405 14.2774,9.725 28.8836,10.2881 30.9469,1.1932 59.4724,-13.4919 77.8212,-40.0626 14.1176,-20.4435 24.6436,-51.5974 44.6575,-132.1727 l 12.1709,-49 39.6752,-0.2615 c 26.266,-0.1731 39.6752,0.081 39.6752,0.7504 0,0.5565 -6.5014,24.2992 -14.4475,52.7615 -18.4254,65.9984 -29.0105,105.7363 -45.6811,171.4929 l -13.3714,52.7433 -35.643,0.01 c -31.5833,0.01 -35.7122,-0.1735 -36.25,-1.5751 -1.2081,-3.1482 -0.5306,-13.0789 1.393,-20.4182 1.0811,-4.125 1.9734,-8.4644 1.9829,-9.643 0.039,-4.8462 -6.0314,-2.9969 -11.6292,3.5429 -3.8344,4.4796 -19.8374,15.4008 -29.8537,20.3736 -9.6722,4.8019 -20.1257,8.4633 -32.5,11.383 -13.2969,3.1375 -41.8477,4.0828 -57.1244,1.8913 z m 395.7178,0.3337 c -56.2102,-4.3115 -93.1489,-24.8949 -106.0141,-59.0745 -4.4248,-11.7556 -5.8846,-21.0963 -5.9086,-37.807 -0.081,-56.2902 24.0259,-114.148 62.0545,-148.9339 39.9166,-36.5129 94.4979,-51.6326 157.3002,-43.574 20.7706,2.6653 35.6473,7.7788 49.5576,17.0344 11.3332,7.5408 18.4014,15.649 24.386,27.9735 6.1332,12.6306 7.9527,19.9549 8.6948,35 0.9249,18.7505 -1.9422,35.5089 -9.8799,57.75 l -4.1935,11.75 h -101.32 -101.3199 l -0.904,2.3778 c -1.7211,4.5267 -3.2972,22.8992 -2.619,30.5287 2.9777,33.4978 22.4016,51.2086 60.4917,55.1565 19.1942,1.9895 38.3218,-0.4198 80.1281,-10.0929 14.4073,-3.3335 26.4093,-5.8468 26.671,-5.5851 0.2617,0.2617 -4.2107,12.7696 -9.9388,27.7954 -9.1755,24.0693 -10.786,27.5706 -13.5369,29.4294 -2.1677,1.4648 -7.1923,2.7515 -16.4325,4.2081 -41.2664,6.5054 -68.9479,8.232 -97.2167,6.0636 z m 112.0182,-186.6315 c 0.4155,-3.1625 0.7554,-10.475 0.7553,-16.25 -3e-4,-22.6923 -7.0432,-33.1541 -26.3669,-39.1665 -6.0934,-1.8958 -9.6568,-2.3235 -19,-2.2801 -13.5246,0.063 -20.2824,1.6716 -33.5,7.9757 -22.6382,10.7971 -40.8138,31.6117 -46.0364,52.7209 l -0.6804,2.75 h 62.0364 62.0365 z M 478.02252,2096.7141 c -33.4852,-3.2015 -51.6816,-17.0206 -59.0816,-44.8692 -2.3681,-8.9119 -2.364,-25.3155 0.01,-34.5 5.2165,-20.1931 19.8635,-41.291 38.0211,-54.7667 4.3715,-3.2444 12.9215,-8.315 19,-11.268 18.9554,-9.2089 32.0049,-13.1193 96.5518,-28.933 34.7277,-8.5081 50.9551,-13.3777 59.3026,-17.7958 7.0329,-3.7224 14.8644,-12.0129 16.4978,-17.4648 2.7356,-9.1306 0.8217,-19.1473 -4.9007,-25.6483 -5.9071,-6.7108 -9.5875,-7.7761 -29.8997,-8.6543 -34.7408,-1.502 -58.1564,2.1514 -108.2858,16.8952 -15.9237,4.6834 -16.7509,4.8265 -16.1049,2.7863 3.0656,-9.6807 18.5478,-49.1296 19.5164,-49.7283 1.736,-1.0729 45.7782,-9.5785 61.3743,-11.8528 23.5443,-3.4335 36.7222,-4.4156 59,-4.3972 54.1036,0.045 87.2615,10.8093 97.4692,31.6429 8.3792,17.1018 7.0381,27.8938 -13.0718,105.1848 -6.2949,24.1943 -38.4127,144.1486 -39.4262,147.25 -0.3175,0.9716 -9.0831,1.25 -39.3592,1.25 h -38.9508 l 0.8807,-3.25 c 0.4843,-1.7875 9.0023,-32.7122 18.9288,-68.7216 9.9265,-36.0094 17.9315,-65.775 17.7888,-66.1457 -0.2885,-0.7495 -58.9993,16.7567 -85.9634,25.6322 -21.6673,7.132 -29.3823,11.1057 -38.0305,19.5884 -15.1599,14.8697 -18.2034,33.7277 -7.1072,44.0367 10.5452,9.797 30.7455,12.3426 58.025,7.3122 7.5991,-1.4013 14.8783,-2.8124 16.1759,-3.1359 2.226,-0.5548 2.3174,-0.3967 1.6183,2.7979 -1.5553,7.1065 -7.7899,24.6309 -10.7481,30.2108 -5.7658,10.8758 -13.7901,14.7818 -34.2295,16.6616 -12.8392,1.1809 -42.074,1.1185 -55,-0.1174 z m 1426.97208,0.1166 c -29.9965,-3.1697 -50.7002,-18.964 -56.9505,-43.4459 -1.936,-7.5832 -1.9719,-24.2928 -0.071,-33.2245 7.2094,-33.8822 28.6463,-57.3701 66.7816,-73.1712 18.8372,-7.805 35.9248,-12.6806 75.7682,-21.619 40.0986,-8.9955 57.4458,-14.4797 69.4314,-21.95 16.4948,-10.2807 22.0998,-22.4499 16.1878,-35.1461 -4.6481,-9.982 -12.1815,-13.6976 -31.4693,-15.5209 -28.2014,-2.6658 -58.4064,1.7748 -106.9734,15.727 -10.6279,3.0532 -19.5396,5.3351 -19.8037,5.0709 -0.2642,-0.2642 3.8463,-11.9153 9.1343,-25.8914 l 9.6147,-25.4111 14.1891,-2.8011 c 70.4793,-13.9135 111.047,-16.4433 152.6891,-9.5218 22.6204,3.7598 35.3875,9.3027 44.9343,19.5083 8.0625,8.6188 10.2769,14.5635 10.8426,29.1076 0.529,13.5996 0.054,15.9963 -13.8338,69.8034 -9.3225,36.1194 -38.1367,145.2505 -41.5191,157.25 l -1.4799,5.25 h -38.972 c -21.4347,0 -38.965,-0.1125 -38.9563,-0.25 0.01,-0.1375 8.5168,-31.075 18.9069,-68.75 10.3901,-37.675 18.7758,-68.6197 18.6349,-68.766 -0.141,-0.1463 -5.6116,1.5143 -12.1569,3.6902 -6.5454,2.1758 -21.8007,6.6961 -33.9007,10.0448 -55.4602,15.3492 -71.6984,22.9762 -84.2343,39.5644 -8.9467,11.8387 -10.5538,20.9445 -5.3103,30.0866 3.2518,5.6697 8.9466,9.9851 17.9393,13.5942 8.3058,3.3334 30.3877,3.112 48.6013,-0.4873 7.1478,-1.4125 13.18,-2.3843 13.4048,-2.1594 0.7236,0.7235 -5.9432,22.5708 -8.8044,28.8526 -6.632,14.5603 -14.2741,18.5319 -39.5964,20.5784 -13.6386,1.1023 -42.5421,1.0953 -53.0279,-0.013 z m 560.5279,-4.028 c 0,-7.2603 2.4568,-18.1266 7.9954,-35.3635 2.6675,-8.3019 9.6458,-32.6443 15.5073,-54.0943 13.8992,-50.864 36.0177,-129.8316 39.2134,-140 3.036,-9.6603 17.6187,-43.2715 22.9947,-53 16.0292,-29.0066 37.0188,-49.4724 65.1244,-63.4995 17.7066,-8.8371 37.2145,-14.1798 62.6648,-17.1623 17.8039,-2.0865 88.2477,-1.7842 106.5,0.457 14.1419,1.7365 31.0006,4.372 31.5628,4.9343 0.1543,0.1543 -1.4803,11.5282 -3.6324,25.2755 -2.1521,13.7472 -3.9168,25.2524 -3.9216,25.5671 0,0.3146 -4.6115,-0.2498 -10.237,-1.2543 -36.9556,-6.5986 -73.6477,-6.3634 -102.5158,0.6572 -28.2897,6.8798 -56.2994,22.3551 -73.8292,40.7904 -14.7729,15.536 -22.9299,32.1577 -26.9835,54.9846 l -0.6659,3.75 h 90.5923 90.5922 l 0.6755,2.6913 c 1.067,4.2516 -1.233,18.2902 -5.5158,33.6667 -2.1665,7.7781 -4.2137,15.3795 -4.5494,16.892 l -0.6103,2.75 -91.231,0.01 -91.2309,0.01 -18.9305,73.7433 c -10.4117,40.5588 -19.5416,75.8808 -20.2887,78.4933 l -1.3583,4.75 h -38.9612 -38.9613 v -5.0422 z m -1000,3.4615 c 0,-0.3194 3.3964,-11.9069 7.5476,-25.75 21.6339,-72.1438 46.0445,-163.3513 65.9513,-246.4193 l 0.5392,-2.25 h 38.4619 38.4619 l 0.6281,2.5027 c 0.8193,3.2644 0.2426,7.0937 -2.6697,17.7263 -2.2299,8.1413 -2.2788,8.841 -0.727,10.3929 1.5519,1.5519 2.0896,1.3262 7.9853,-3.3514 21.6973,-17.2143 44.9463,-28.0134 72.066,-33.4746 9.5125,-1.9155 14.4299,-2.2665 31.7554,-2.2668 69.0982,-9e-4 96.1562,22.3325 91.1691,75.2501 -1.5726,16.6874 -5.8823,37.2848 -12.7048,60.7208 -9.1931,31.5795 -15.6998,55.8255 -27.5741,102.75 l -11.324,44.75 h -40.9208 -40.9208 l 0.6558,-5.75 c 0.3606,-3.1625 3.385,-13.625 6.7208,-23.25 6.6466,-19.178 20.6882,-65.0162 26.9385,-87.94 5.1488,-18.8836 8.4165,-33.455 11.114,-49.56 1.8947,-11.3118 2.0321,-13.9989 1.0579,-20.6925 -3.1963,-21.9605 -18.9225,-33.0961 -46.7116,-33.076 -40.2958,0.029 -73.131,24.8468 -93.0172,70.3051 -5.5455,12.6766 -13.1256,34.4049 -18.4312,52.833 -4.1256,14.3293 -22.4911,86.9431 -23.6178,93.3804 l -0.6564,3.75 h -40.8887 c -22.4888,0 -40.8887,-0.2613 -40.8887,-0.5807 z m 703,-0.01 c 0,-0.325 6.044,-22.2625 13.4311,-48.75 34.3816,-123.2804 63.5225,-234.6037 80.7316,-308.4091 l 3.3227,-14.25 h 41.3643 c 36.2506,0 41.2935,0.1844 40.792,1.4913 -0.9708,2.53 -19.2352,67.9759 -30.1427,108.0087 -19.4117,71.2459 -49.0223,185.4321 -62.0418,239.25 l -5.6246,23.25 h -40.9163 c -22.504,0 -40.9163,-0.2659 -40.9163,-0.5909 z m 1258,0.024 c 0,-0.3117 8.3079,-30.6069 18.462,-67.3228 31.9186,-115.4127 62.0561,-231.1659 76.119,-292.3604 l 2.7003,-11.75 h 41.328 c 32.6254,0 41.2372,0.2632 40.8971,1.25 -0.2369,0.6875 -5.143,18.125 -10.9024,38.75 -25.0692,89.7755 -49.4119,181.7622 -73.3684,277.2467 l -13.7356,54.7467 h -40.75 c -22.4125,0 -40.75,-0.2517 -40.75,-0.5635 z M 0.00995488,2094.6058 C 2.2232449,2088.1606 31.392965,1960.7396 41.413245,1913.7453 c 10.77285,-50.5238 31.10928,-154.8035 31.10928,-159.5199 0,-0.2093 18.9,-0.3805 41.999995,-0.3805 32.94021,0 41.99722,0.2696 41.98711,1.25 -0.007,0.6875 -1.57629,10.475 -3.48711,21.75 -1.91082,11.275 -3.48002,21.0959 -3.48711,21.8242 -0.007,0.7284 3.86013,-2.1216 8.59381,-6.3332 29.15206,-25.937 57.65985,-40.1863 93.3933,-46.6816 8.94302,-1.6256 15.83575,-2.109 31,-2.1741 34.4511,-0.1478 61.2829,5.3113 84.5,17.1921 12.8356,6.5683 24.6239,18.2946 30.3321,30.1726 5.5478,11.544 7.1995,19.0193 7.8436,35.5 0.7492,19.1678 -0.2675,25.4453 -15.5477,96 -15.1515,69.9605 -23.4511,110.3902 -29.6636,144.5 -2.4543,13.475 -4.6964,25.5125 -4.9824,26.75 l -0.5201,2.25 h -48.0483 c -45.30107,0 -48.01725,-0.1001 -47.504,-1.75 1.28443,-4.1291 28.00122,-110.7835 33.00319,-131.75 14.49821,-60.7714 16.92301,-88.0428 9.72209,-109.342 -3.98399,-11.784 -7.00623,-16.9287 -14.75916,-25.1244 -25.13225,-26.5678 -65.28959,-24.2784 -105.64318,6.0227 -27.18744,20.4148 -45.27918,47.682 -58.57191,88.2774 -10.609,32.3995 -17.2534,61.444 -33.895445,148.1663 l -4.79751,25 -42.20661,0.2608 c -33.6107501,0.2077 -42.11842012,0 -41.77363012,-1 z M 1043.9891,1791.5949 c 0.2221,-0.6875 1.5903,-7.5328 3.0403,-15.2117 1.45,-7.679 3.9753,-18.1415 5.6117,-23.25 l 2.9753,-9.2883 h 41.06 c 33.1074,0 40.9642,0.2497 40.5653,1.2895 -0.2722,0.7092 -3.0456,10.9467 -6.1632,22.75 -3.1176,11.8033 -5.8984,22.248 -6.1796,23.2105 -0.4759,1.6294 -3.2964,1.75 -40.9124,1.75 -31.8697,0 -40.3159,-0.264 -39.9974,-1.25 z m 712.0334,-374.8795 c -154.1371,-9.9864 -302.4578,-71.5683 -421,-174.797 -15.7906,-13.7507 -44.8692,-42.4262 -58.8901,-58.0735 -38.323,-42.7687 -68.4387,-85.4507 -95.033,-134.6869 -7.3546,-13.6161 -24.5769,-49.19875 -24.5769,-50.77765 0,-0.2945 0.9,-0.5355 2,-0.5355 1.1,0 2,-0.45 2,-1 0,-0.55 -1.0255,-1 -2.2789,-1 -1.9634,0 -3.0877,-1.8347 -8.1195,-13.25 -43.6911,-99.1171 -62.1911,-213.7115 -53.0392,-328.5401 17.7153,-222.274 133.2034,-417.7537 317.4923,-537.3999 41.1454,-26.712997 89.6037,-51.789397 132.4453,-68.538397 68.9716,-26.9646 140.5912,-42.7093998 215.5,-47.37529984 23.8715,-1.4869 81.7289,-0.6204 104.5,1.56500004 216.2964,20.7586998 405.2838,133.4827968 523.6297,312.3258968 89.2585,134.8866 130.9522,294.5037 118.3139,452.9444 -16.0059,200.6598 -118.3555,386.18265 -279.9436,507.43685 -111.0781,83.3519 -246.1337,132.975 -385.9829,141.8207 -18.5442,1.1729 -68.1255,1.1053 -87.0171,-0.1186 z m 90,-41.8937 c 67.961,-4.9276 127.1215,-17.331 184.5,-38.6815 118.9026,-44.2436 215.68,-112.8799 291.582,-206.7953 27.6189,-34.1735 55.6844,-76.965 76.0804,-116 l 7.8376,-15.00005 4.25,-0.3075 c 5.1014,-0.3691 5.7251,-2.1925 0.75,-2.1925 -2.1818,0 -3.5,-0.4833 -3.5,-1.2833 0,-0.7058 2.4794,-6.7676 5.5097,-13.4705 30.1823,-66.7616 47.6462,-134.4024 55.7027,-215.7462 2.0219,-20.4138 1.6872,-97.5199 -0.5144,-118.5 -10.8179,-103.0925 -39.2968,-191.3079 -89.3236,-276.6856 -71.0403,-121.2401 -178.7919,-217.0311 -308.8744,-274.588597 -110.5237,-48.9033 -239.1956,-66.4487 -360.5,-49.1568 -180.0876,25.6715 -341.2783,122.937197 -448.1638,270.430997 -85.6562,118.1991 -129.6592,259.4103 -126.5141,406 0.9244,43.0837 4.5679,76.5945 12.7676,117.4276 12.3435,61.4687 29.893,112.8283 56.4048,165.07245 63.907,125.9346 158.8068,223.8808 282.389,291.4539 77.243,42.2354 171.0673,69.9686 260.6165,77.0348 7.15,0.5642 14.8,1.1719 17,1.3505 10.0055,0.812 69.4241,0.5494 82,-0.3624 z m -70.7708,-75.9668 c -28.8402,-1.6415 -77.1303,-7.5487 -81.6996,-9.9942 -1.0911,-0.5839 -2.4285,-1.8927 -2.9722,-2.9085 -0.9153,-1.7103 0.2476,-2.0868 15.7271,-5.0921 97.3962,-18.9091 169.1193,-53.9235 225.2792,-109.9786 22.3901,-22.3483 36.0468,-40.7028 48.341,-64.9695 16.0899,-31.7589 22.9425,-61.0282 22.9595,-98.0671 0.01,-15.87175 -0.4159,-21.91895 -2.274,-32.50005 -6.7433,-38.3996 -22.6718,-74.1516 -53.4128,-119.8867 -23.4886,-34.9454 -42.457,-58.1435 -102.7101,-125.6133 -50.7472,-56.8253 -65.2195,-73.9913 -80.1033,-95.0124 -21.2966,-30.0782 -32.2803,-51.6877 -38.6232,-75.9876 -2.7191,-10.4168 -2.7401,-10.7496 -2.6549,-42 0.047,-17.325 0.8392,-56.925 1.76,-88 2.9786,-100.5231 3.6373,-145.6503 3.6458,-249.75 l 0.01,-102.249997 h 2.1153 c 4.0897,0 103.5387,87.301097 163.0092,143.097297 27.13,25.4538 95.6524,94.2991 117.8474,118.4027 99.7276,108.3035 176.7641,213.4671 216.0991,295 34.7319,71.9916 49.3418,137.8195 47.6064,214.5 -1.1249,49.7032 -8.4685,93.5452 -23.3424,139.357 -58.2697,179.47175 -206.6222,294.32015 -401.2524,310.63305 -17.5242,1.4688 -57.8728,2.015 -75.3534,1.02 z m -141.2292,-49.1187 c -41.4357,-4.4795 -82.2962,-21.1149 -113.5,-46.209 -11.2527,-9.0494 -37.4153,-35.8068 -46.6338,-47.6939 -24.6201,-31.7472 -39.7522,-61.5972 -48.9138,-96.4884 -15.6974,-59.78265 -11.3354,-123.93855 13.496,-198.50005 16.6671,-50.0465 42.0026,-99.9073 79.7754,-157 26.2505,-39.677 49.3056,-70.6578 111.2538,-149.5 22.9039,-29.15 46.3412,-59.1711 52.0829,-66.7136 l 10.4395,-13.7136 0.3034,60.7136 c 0.2878,57.57 -0.3076,107.2933 -2.99,249.7136 -1.6412,87.1406 -1.649,203.9594 -0.015,228.50005 4.0857,61.3711 13.0524,104.0168 28.7907,136.9293 10.0964,21.114 22.0264,36.3513 37.7425,48.2057 7.4899,5.6495 23.923,14.6034 29.7528,16.2113 l 2.4158,0.6664 -2.5,1.9841 c -1.375,1.0913 -8.8,5.1205 -16.5,8.9538 -21.709,10.8074 -46.7246,18.5955 -72.5,22.5713 -12.6608,1.953 -49.6129,2.7626 -62.5,1.3694 z m 169.0856,-59.6413 c -2.9316,-36.4954 -3.9608,-115.7201 -2.8803,-221.71825 l 0.7947,-77.9683 10.0153,11.9683 c 37.7767,45.143 58.6087,86.65 65.9829,131.46825 2.2589,13.7285 2.988,38.2137 1.5782,53 -4.3707,45.8444 -19.8151,76.3 -49.3971,97.4093 -6.6967,4.7787 -22.4082,13.546 -24.3252,13.574 -0.7115,0.01 -1.3819,-2.9214 -1.7685,-7.7333 z"
     id="path817"
     inkscape:connector-curvature="0" />
</svg>
