<?xml version="1.0" encoding="UTF-8" standalone="no"?>
<!-- Created with Inkscape (http://www.inkscape.org/) -->

<svg
   xmlns:dc="http://purl.org/dc/elements/1.1/"
   xmlns:cc="http://creativecommons.org/ns#"
   xmlns:rdf="http://www.w3.org/1999/02/22-rdf-syntax-ns#"
   xmlns:svg="http://www.w3.org/2000/svg"
   xmlns="http://www.w3.org/2000/svg"
   xmlns:sodipodi="http://sodipodi.sourceforge.net/DTD/sodipodi-0.dtd"
   xmlns:inkscape="http://www.inkscape.org/namespaces/inkscape"
   version="1.1"
   id="svg2"
   width="142.55951"
   height="49.759998"
   viewBox="0 0 142.55951 49.759998"
   sodipodi:docname="nng.svg"
   inkscape:version="0.92.3 (2405546, 2018-03-11)">
  <metadata
     id="metadata8">
    <rdf:RDF>
      <cc:Work
         rdf:about="">
        <dc:format>image/svg+xml</dc:format>
        <dc:type
           rdf:resource="http://purl.org/dc/dcmitype/StillImage" />
        <dc:title></dc:title>
      </cc:Work>
    </rdf:RDF>
  </metadata>
  <defs
     id="defs6" />
  <sodipodi:namedview
     pagecolor="#ffffff"
     bordercolor="#666666"
     borderopacity="1"
     objecttolerance="10"
     gridtolerance="10"
     guidetolerance="10"
     inkscape:pageopacity="0"
     inkscape:pageshadow="2"
     inkscape:window-width="1413"
     inkscape:window-height="824"
     id="namedview4"
     showgrid="false"
     inkscape:zoom="2.3963004"
     inkscape:cx="4.8438477"
     inkscape:cy="8.4276007"
     inkscape:window-x="67"
     inkscape:window-y="27"
     inkscape:window-maximized="0"
     inkscape:current-layer="svg2"
     fit-margin-top="0"
     fit-margin-left="0"
     fit-margin-right="0"
     fit-margin-bottom="0" />
  <path
     style="fill:#000000;stroke-width:0.31999999"
     d="m 43.520702,48.959998 c 0.283459,-0.958822 1.07696,-2.56 1.268672,-2.56 0.274365,0 1.448429,2.98449 1.246825,3.169453 -0.114227,0.1048 -0.271974,0.01056 -0.350547,-0.209453 -0.07857,-0.22 -0.462057,-0.4 -0.852189,-0.4 -0.390134,0 -0.89832,0.18 -1.129299,0.4 -0.343385,0.327059 -0.376841,0.254118 -0.183462,-0.4 z m 1.629664,-0.826173 c -0.106832,-0.278393 -0.198615,-0.674393 -0.203968,-0.88 -0.0053,-0.205603 -0.157146,-0.120688 -0.337319,0.188707 -0.349932,0.600903 -0.150572,1.197466 0.400173,1.197466 0.184442,0 0.247943,-0.227776 0.141114,-0.506173 z m 3.005763,-0.113552 c 0,-1.331651 0.09975,-1.619401 0.56,-1.615376 0.962067,0.0084 1.30993,0.440468 1.41673,1.759607 0.09958,1.229974 0.06615,1.279072 -0.93673,1.375769 l -1.04,0.100275 z m 1.6,0.779725 c 0,-0.266666 -0.284445,-0.48 -0.64,-0.48 -0.355555,0 -0.64,0.213334 -0.64,0.48 0,0.266666 0.284445,0.48 0.64,0.48 0.355555,0 0.64,-0.213334 0.64,-0.48 z m -0.506173,-0.994237 c 0.715008,-0.274374 0.629133,-0.765763 -0.133827,-0.765763 -0.355555,0 -0.64,0.213334 -0.64,0.48 0,0.538576 0.05861,0.560221 0.773827,0.285763 z m 1.786173,0.194237 c 0,-1.564445 0.02134,-1.6 0.96,-1.6 0.528,0 0.96,0.144 0.96,0.32 0,0.176 -0.36,0.32 -0.8,0.32 -1.102349,0 -1.035213,0.881859 0.08,1.0508 l 0.88,0.133309 -0.88,0.04795 c -0.52847,0.0288 -0.88,0.231197 -0.88,0.506692 0,0.254796 0.391226,0.518009 0.88,0.592054 0.819059,0.124077 0.807978,0.136627 -0.16,0.181254 l -1.04,0.04795 z m 2.56,0.178886 c 0,-1.581081 0.308432,-1.931484 1.448307,-1.645395 0.634419,0.159229 0.764794,0.383661 0.731853,1.259847 -0.02205,0.586358 0.0629,1.232729 0.188765,1.436384 0.125865,0.203654 0.07635,0.370278 -0.110039,0.370278 -0.186387,0 -0.338886,-0.288 -0.338886,-0.64 0,-0.426666 -0.213334,-0.64 -0.64,-0.64 -0.426666,0 -0.64,0.213334 -0.64,0.64 0,0.352 -0.144,0.64 -0.32,0.64 -0.176,0 -0.32,-0.639501 -0.32,-1.421114 z m 1.84015,-0.738886 c 0.07812,-0.234618 -0.142451,-0.4 -0.533484,-0.4 -0.393066,0 -0.666666,0.206621 -0.666666,0.503462 0,0.588122 0.998541,0.502039 1.20015,-0.103462 z m 1.429607,0.56 c -0.0037,-1.103065 0.07274,-1.479849 0.204896,-1.009446 l 0.210854,0.75055 0.606842,-0.67055 c 0.333763,-0.368807 0.753625,-0.670554 0.933027,-0.670554 0.179402,0 0.02394,0.324 -0.345485,0.72 -0.667504,0.71553 -0.667798,0.724752 -0.04778,1.485331 0.343139,0.420935 0.536554,0.852669 0.429808,0.959415 -0.106746,0.106745 -0.505632,-0.233607 -0.886416,-0.75634 l -0.692333,-0.950419 -0.203725,0.951005 c -0.15008,0.700582 -0.205296,0.487555 -0.209688,-0.808992 z m 3.038269,1.401357 c -0.125415,-0.125411 -0.228026,-0.376823 -0.228026,-0.558691 0,-0.197927 0.15415,-0.176516 0.384,0.05333 0.522794,0.522794 1.536,0.485856 1.536,-0.056 0,-0.242 -0.432,-0.5264 -0.96,-0.632 -1.104493,-0.220899 -1.35033,-1.320985 -0.365082,-1.633693 0.689255,-0.218758 1.645082,0.07825 1.645082,0.511188 0,0.17063 -0.264077,0.155692 -0.620579,-0.0351 -0.438394,-0.234621 -0.68529,-0.227424 -0.840999,0.02451 -0.23591,0.381712 0.388829,0.912121 1.083834,0.920188 0.253917,0.0029 0.381491,0.291936 0.32,0.7249 -0.07074,0.498102 -0.352499,0.749184 -0.91423,0.814691 -0.446589,0.05208 -0.914589,-0.0079 -1.04,-0.133335 z m 3.063497,-1.401357 c 0.0026,-0.968 0.06519,-1.355347 0.139533,-0.860771 0.105917,0.704653 0.28312,0.877757 0.818938,0.8 0.410454,-0.05957 0.772195,-0.419005 0.904992,-0.899229 0.149712,-0.541405 0.217443,-0.231091 0.209539,0.96 -0.0064,0.968 -0.07409,1.436 -0.150359,1.04 -0.09711,-0.504195 -0.36512,-0.72 -0.894166,-0.72 -0.529046,0 -0.797053,0.215805 -0.894166,0.72 -0.07627,0.396 -0.136711,-0.072 -0.134311,-1.04 z m 3.204368,0 c 0,-0.968 0.05999,-1.364 0.133309,-0.88 0.07332,0.484 0.07332,1.276 0,1.76 -0.07332,0.484 -0.133309,0.088 -0.133309,-0.88 z m 1.227687,0.08 c -0.04655,-1.794525 0.259411,-2.054141 1.584848,-1.344787 0.46384,0.24824 0.549692,0.472189 0.330896,0.863158 -0.173252,0.309584 -0.179584,0.832714 -0.0153,1.264787 0.173712,0.456932 0.16158,0.736842 -0.03195,0.736842 -0.171645,0 -0.31208,-0.288 -0.31208,-0.64 0,-0.921654 -1.194634,-0.852106 -1.374166,0.08 -0.07627,0.396 -0.158288,-0.036 -0.182256,-0.96 z m 1.476572,-0.64 c 0.07812,-0.234618 -0.142451,-0.4 -0.533484,-0.4 -0.393066,0 -0.666666,0.206621 -0.666666,0.503462 0,0.588122 0.998541,0.502039 1.20015,-0.103462 z m 1.35985,0.56 c 0,-1.564445 0.02134,-1.6 0.96,-1.6 0.528,0 0.96,0.144 0.96,0.32 0,0.176 -0.372,0.32 -0.826666,0.32 -1.026483,0 -0.880259,0.694496 0.210391,0.999277 0.764307,0.213584 0.76271,0.217421 -0.103725,0.248825 -0.535933,0.01942 -0.88,0.211261 -0.88,0.490644 0,0.254796 0.391226,0.518009 0.88,0.592054 0.819059,0.124077 0.807978,0.136627 -0.16,0.181254 l -1.04,0.04795 z m 3.84,0.178886 c 0,-0.781612 0.144,-1.510111 0.32,-1.618886 0.182333,-0.112688 0.32,0.164096 0.32,0.64337 0,0.685196 0.131053,0.822185 0.706883,0.738886 0.434074,-0.06279 0.792256,-0.410998 0.928103,-0.902256 0.149712,-0.541405 0.217443,-0.231091 0.209539,0.96 -0.0064,0.968 -0.07409,1.436 -0.150359,1.04 -0.186172,-0.966576 -1.694166,-1.037786 -1.694166,-0.08 0,0.352 -0.144,0.64 -0.32,0.64 -0.176,0 -0.32,-0.639501 -0.32,-1.421114 z m 3.364573,0.781114 c 0.283459,-0.958822 1.07696,-2.56 1.268672,-2.56 0.274365,0 1.448429,2.98449 1.246825,3.169453 -0.114227,0.1048 -0.271974,0.01056 -0.350547,-0.209453 -0.07857,-0.22 -0.462057,-0.4 -0.852189,-0.4 -0.390134,0 -0.89832,0.18 -1.129299,0.4 -0.343385,0.327059 -0.376841,0.254118 -0.183462,-0.4 z m 1.629664,-0.826173 c -0.106832,-0.278393 -0.198615,-0.674393 -0.203968,-0.88 -0.0053,-0.205603 -0.157146,-0.120688 -0.337319,0.188707 -0.349932,0.600903 -0.150572,1.197466 0.400173,1.197466 0.184442,0 0.247943,-0.227776 0.141114,-0.506173 z m 2.10167,0.266173 c -0.0399,-0.970707 -0.193305,-1.36 -0.535907,-1.36 -0.264,0 -0.48,-0.144 -0.48,-0.32 0,-0.176 0.576,-0.32 1.28,-0.32 0.704,0 1.28,0.144 1.28,0.32 0,0.176 -0.279722,0.32 -0.6216,0.32 -0.498749,0 -0.645811,0.26879 -0.744093,1.36 l -0.122496,1.36 z m 1.864093,-0.418886 c 0,-0.99777 0.122774,-1.543005 0.32,-1.421114 0.176,0.108775 0.32,0.477274 0.32,0.818886 0,0.40778 0.219821,0.621114 0.64,0.621114 0.420179,0 0.64,-0.213334 0.64,-0.621114 0,-0.341612 0.144,-0.710111 0.32,-0.818886 0.197226,-0.121891 0.32,0.423344 0.32,1.421114 0,0.890387 -0.144,1.618886 -0.32,1.618886 -0.176,0 -0.32,-0.288 -0.32,-0.64 0,-0.426666 -0.213334,-0.64 -0.64,-0.64 -0.426666,0 -0.64,0.213334 -0.64,0.64 0,0.352 -0.144,0.64 -0.32,0.64 -0.176,0 -0.32,-0.728499 -0.32,-1.618886 z m 3.494675,0.315856 c 0.922813,-2.061171 1.136976,-2.096743 1.878663,-0.312042 0.369158,0.888288 0.535174,1.615072 0.368928,1.615072 -0.166247,0 -0.302266,-0.144 -0.302266,-0.32 0,-0.176 -0.432,-0.32 -0.96,-0.32 -0.528,0 -0.96,0.144 -0.96,0.32 0,0.176 -0.13696,0.32 -0.304355,0.32 -0.167395,0 -0.04183,-0.586362 0.27903,-1.30303 z m 1.305325,-0.29697 c 0,-0.352 -0.144,-0.64 -0.32,-0.64 -0.176,0 -0.32,0.288 -0.32,0.64 0,0.352 0.144,0.64 0.32,0.64 0.176,0 0.32,-0.288 0.32,-0.64 z m 1.626832,0.133994 C 88.987143,46.244344 89.25611,45.884897 89.796436,47.68834 l 0.404663,1.35065 0.347769,-1.239498 c 0.40752,-1.45247 0.832727,-1.469475 1.309859,-0.05238 0.363751,1.080352 0.554423,0.974416 0.908733,-0.504877 0.120899,-0.504768 0.289437,-0.848137 0.374528,-0.763046 0.270832,0.270829 -0.627609,3.133555 -0.949741,3.026179 -0.1699,-0.05663 -0.472473,-0.670509 -0.672387,-1.364173 l -0.363478,-1.2612 -0.306314,1.255395 c -0.427725,1.752995 -0.945475,1.752471 -1.387107,-0.0013 z m 4.544208,-0.133994 c 0.371789,-0.88 0.772202,-1.6 0.889805,-1.6 0.117606,0 0.513046,0.72 0.878758,1.6 0.365709,0.88 0.528909,1.6 0.362663,1.6 -0.166247,0 -0.302266,-0.144 -0.302266,-0.32 0,-0.176 -0.432,-0.32 -0.96,-0.32 -0.528,0 -0.96,0.144 -0.96,0.32 0,0.176 -0.131613,0.32 -0.29247,0.32 -0.160858,0 0.01171,-0.72 0.38351,-1.6 z m 1.18896,0 c 0,-0.352 -0.144,-0.64 -0.32,-0.64 -0.176,0 -0.32,0.288 -0.32,0.64 0,0.352 0.144,0.64 0.32,0.64 0.176,0 0.32,-0.288 0.32,-0.64 z m 1.92,0.861162 c 0,-0.406362 -0.211421,-1.018362 -0.469824,-1.36 -0.764787,-1.011139 -0.532214,-1.34064 0.261674,-0.370727 l 0.728835,0.890435 0.433731,-0.810435 c 0.23855,-0.44574 0.565142,-0.810435 0.725757,-0.810435 0.160614,0 -0.0077,0.484999 -0.374074,1.07777 -0.366355,0.592774 -0.666099,1.312774 -0.666099,1.6 0,0.287228 -0.144,0.52223 -0.32,0.52223 -0.176,0 -0.32,-0.332477 -0.32,-0.738838 z m 3.520001,-0.861162 c 0,-1.564445 0.0213,-1.6 0.96,-1.6 0.528,0 0.96,0.144 0.96,0.32 0,0.176 -0.372,0.32 -0.82667,0.32 -1.02648,0 -0.88025,0.694496 0.21039,0.999277 0.76431,0.213584 0.76272,0.217421 -0.10372,0.248825 -0.53593,0.01942 -0.88,0.211261 -0.88,0.490644 0,0.254796 0.39123,0.518009 0.88,0.592054 0.81906,0.124077 0.80798,0.136627 -0.16,0.181254 l -1.04,0.04795 z m 2.92541,0.08 c -0.025,-0.924 0.0759,-1.68 0.2242,-1.68 0.14828,0 0.54103,0.504 0.87277,1.12 0.33174,0.616 0.70572,1.12 0.83107,1.12 0.12536,0 0.2844,-0.54 0.35344,-1.2 0.10326,-0.987197 0.13506,-0.902077 0.17932,0.48 0.064,1.997994 -0.33411,2.143082 -1.317,0.48 l -0.70921,-1.2 -0.19459,1.28 c -0.19045,1.252781 -0.19556,1.244275 -0.24,-0.4 z m 3.15459,-0.08 c 0,-1.564445 0.0213,-1.6 0.96,-1.6 0.528,0 0.96,0.144 0.96,0.32 0,0.176 -0.288,0.32 -0.64,0.32 -0.87817,0 -0.8112,0.882512 0.08,1.054166 l 0.72,0.138679 -0.72,0.04358 c -1.02416,0.06199 -0.89662,0.934311 0.16,1.094378 0.70786,0.107229 0.64526,0.142688 -0.32,0.181254 l -1.2,0.04795 z m 2.92358,0.08 c -0.0452,-1.743136 0.0639,-1.8572 1.4261,-1.491465 0.54705,0.146867 0.67361,0.43926 0.6911,1.596655 0.0118,0.779274 -0.10957,1.335901 -0.26968,1.236951 -0.1601,-0.09895 -0.2911,-0.387415 -0.2911,-0.641027 0,-0.771972 -1.21988,-0.542154 -1.37417,0.258886 -0.0763,0.396 -0.15828,-0.036 -0.18225,-0.96 z m 1.47657,-0.64 c 0.0781,-0.234618 -0.14245,-0.4 -0.53348,-0.4 -0.39307,0 -0.66667,0.206621 -0.66667,0.503462 0,0.588122 0.99854,0.502039 1.20015,-0.103462 z m 1.74385,1.776 c -0.5655,-0.565501 -0.4673,-1.681421 0.2012,-2.286403 0.72737,-0.658262 1.4545,-0.676525 1.9748,-0.0496 0.44557,0.536883 -0.006,0.66608 -0.52249,0.149511 -0.63498,-0.634983 -1.43877,0.02224 -1.33474,1.091337 0.0735,0.75575 0.27263,1.024061 0.81723,1.101408 0.77703,0.110355 1.03996,-0.719814 0.32,-1.010326 -0.22,-0.08877 -0.076,-0.172772 0.32,-0.186666 0.5614,-0.01971 0.72,0.150954 0.72,0.774736 0,0.691718 -0.14293,0.8 -1.056,0.8 -0.5808,0 -1.2288,-0.1728 -1.44,-0.384 z m 4.13312,-0.05823 c -0.0204,-0.331226 -0.33686,-1.087226 -0.70322,-1.68 -0.36635,-0.592771 -0.53469,-1.07777 -0.37407,-1.07777 0.16061,0 0.4872,0.364695 0.72575,0.810435 l 0.43374,0.810435 0.72883,-0.890435 c 0.88068,-1.075952 0.99517,-0.692185 0.14921,0.500167 -0.33145,0.467168 -0.67474,1.137398 -0.76288,1.489398 -0.14681,0.586381 -0.16335,0.589546 -0.19736,0.03777 z m 3.56063,0.07198 c -0.55066,-0.550663 -0.49765,-1.724138 0.10511,-2.326896 0.63219,-0.632195 1.22496,-0.639997 1.73714,-0.02285 0.25121,0.302684 0.27266,0.48 0.0581,0.48 -0.18716,0 -0.42541,-0.137712 -0.52943,-0.306026 -0.37111,-0.600461 -1.12864,0.06422 -1.12864,0.990304 0,1.087555 0.72368,1.509117 1.49612,0.871523 0.45118,-0.372429 0.50517,-0.366003 0.37124,0.0442 -0.2001,0.61288 -1.5889,0.790464 -2.10961,0.269753 z m 2.75,-0.416647 c -0.28711,-0.630137 -0.25241,-0.948864 0.17423,-1.6 0.29303,-0.447209 0.81414,-0.813107 1.15802,-0.813107 0.34388,0 0.86499,0.365898 1.15802,0.813107 0.77142,1.177347 0.1846,2.386893 -1.15802,2.386893 -0.72378,0 -1.06575,-0.201987 -1.33225,-0.786893 z m 2.22843,-0.520499 c 0.12515,-1.076662 -0.69199,-1.820435 -1.37618,-1.252608 -0.49742,0.412826 -0.65011,1.643226 -0.25317,2.040166 0.51726,0.517255 1.53485,0.02541 1.62935,-0.787558 z m 1.38923,-0.239274 c -0.0513,-1.928441 0.5362,-2.171286 1.03609,-0.428262 0.3735,1.302294 0.61422,1.279606 1.11493,-0.105072 0.58665,-1.622365 1.01045,-1.374675 0.95816,0.56 -0.0448,1.656858 -0.0482,1.662368 -0.2478,0.4 l -0.20239,-1.28 -0.41701,1.2 c -0.22936,0.66 -0.53869,1.2 -0.68739,1.2 -0.1487,0 -0.45803,-0.54 -0.68739,-1.2 l -0.41701,-1.2 -0.20239,1.28 c -0.19769,1.250266 -0.20345,1.240352 -0.2478,-0.426666 z m 4.15817,0.02666 c -0.0369,-1.423555 0.0448,-1.679999 0.53526,-1.679999 0.31836,0 0.85292,0.200416 1.18792,0.445372 0.5175,0.378407 0.54486,0.522752 0.18198,0.96 -0.23491,0.283043 -0.68746,0.514627 -1.00566,0.514627 -0.34557,0 -0.63441,0.289956 -0.71725,0.72 -0.0763,0.396 -0.15828,-0.036 -0.18225,-0.96 z m 1.47657,-0.64 c 0.0781,-0.234608 -0.14245,-0.39999 -0.53348,-0.39999 -0.39307,0 -0.66667,0.206621 -0.66667,0.503462 0,0.588122 0.99854,0.502039 1.20015,-0.103462 z m 1.10025,0.56 c 0.36571,-0.88 0.76115,-1.599999 0.87876,-1.599999 0.1176,0 0.51801,0.719999 0.8898,1.599999 0.37179,0.88 0.54437,1.6 0.38351,1.6 -0.16086,10e-6 -0.29247,-0.14399 -0.29247,-0.31999 0,-0.176 -0.432,-0.32 -0.96,-0.32 -0.528,0 -0.96,0.144 -0.96,0.32 0,0.176 -0.13602,0.32 -0.30227,0.32 -0.16624,0 -0.003,-0.72 0.36267,-1.6 z m 1.2196,10e-6 c 0,-0.352 -0.1286,-0.64 -0.28576,-0.64 -0.3597,0 -0.69522,0.832358 -0.43886,1.088714 0.38521,0.385206 0.72462,0.175027 0.72462,-0.448714 z m 1.6,0 c 0,-0.888134 0.14717,-1.6 0.33079,-1.6 0.18194,0 0.64994,0.54 1.04,1.2 l 0.70921,1.2 0.19459,-1.28 c 0.23279,-1.531273 0.30839,-1.442326 0.47598,0.56 0.1581,1.888883 -0.37672,2.012006 -1.3764,0.316867 l -0.70584,-1.196867 -0.0142,1.2 c -0.008,0.66 -0.15815,1.2 -0.33415,1.2 -0.176,0 -0.32,-0.72 -0.32,-1.6 z m 4.51712,1.15777 c -0.0204,-0.331226 -0.33686,-1.087226 -0.70322,-1.68 -0.36635,-0.592771 -0.53469,-1.07777 -0.37407,-1.07777 0.16061,0 0.4872,0.364695 0.72575,0.810435 l 0.43374,0.810435 0.72883,-0.890435 c 0.88068,-1.075952 0.99517,-0.692185 0.14921,0.500167 -0.33145,0.467168 -0.67474,1.137398 -0.76288,1.489398 -0.14681,0.586381 -0.16335,0.589546 -0.19736,0.03777 z m -110.652462,-9.555222 -9.655342,-9.682547 8.009803,-6.72 c 9.030237,-7.576115 11.46088,-9.557757 11.46088,-9.343763 0,0.08145 -3.636,3.638092 -8.08,7.903652 -4.444,4.265561 -8.128,7.882587 -8.186667,8.037838 -0.368084,0.974064 1.490952,-0.25699 6.228523,-4.12453 8.833581,-7.21134 10.038144,-8.128818 10.038144,-7.645745 0,0.250092 -2.808,3.018922 -6.24,6.152955 -3.432,3.134034 -6.24,5.743547 -6.24,5.798918 0,0.05537 0.252,0.09779 0.56,0.09427 0.504632,-0.0058 3.64521,-2.328691 9.76,-7.218951 1.955965,-1.564269 2.16,-1.658568 2.16,-0.998286 0,0.53646 -1.114403,1.698321 -4.216822,4.396401 -6.531926,5.680616 -4.27975,4.864861 3.816822,-1.38248 0.298947,-0.230669 0.398918,-0.07643 0.395722,0.610541 -0.0035,0.743943 -0.413469,1.25423 -2.150608,2.676608 -1.511172,1.237351 -1.986119,1.78828 -1.604935,1.86169 0.297773,0.05735 1.229546,-0.421369 2.070611,-1.06381 l 1.52921,-1.168073 0.08765,5.486869 c 0.04821,3.017779 0.04821,7.854797 0,10.748931 l -0.08765,5.262058 z m 27.514231,2.503571 c -0.784496,-0.352899 -1.07105,-0.725527 -1.236615,-1.608061 -0.447753,-2.386726 1.138419,-4.143261 4.097725,-4.53784 1.284381,-0.171254 1.52,-0.310368 1.52,-0.897443 0,-0.382125 -0.1728,-0.867574 -0.384,-1.078774 -0.472176,-0.472176 -2.153853,-0.498244 -3.328618,-0.0516 -0.982873,0.373689 -1.394006,0.02253 -1.402483,-1.197901 -0.0058,-0.839386 1.386307,-1.2267 4.10504,-1.142088 3.275152,0.101928 3.891296,1.228235 3.865031,7.06524 l -0.01612,3.582348 h -1.259424 c -1.079747,0 -1.259424,-0.09926 -1.259424,-0.695779 v -0.695782 l -0.754112,0.708454 c -0.96208,0.903827 -2.639763,1.137277 -3.946998,0.549226 z m 3.882966,-2.497322 c 0.852883,-1.217664 0.648403,-1.848797 -0.598998,-1.848797 -1.193744,0 -2.102858,0.678541 -2.102858,1.569524 0,0.778432 0.281558,0.990476 1.315187,0.990476 0.555415,0 1.075277,-0.26663 1.386669,-0.711203 z m 7.639062,2.62897 c -1.128691,-0.454762 -1.380918,-1.356461 -1.380918,-4.93673 v -3.381036 h -0.96 c -0.883808,0 -0.96,-0.08889 -0.96,-1.12 0,-1.031111 0.07619,-1.12 0.96,-1.12 0.936112,0 0.96,-0.03903 0.96,-1.568696 0,-1.471812 0.06224,-1.590393 1.00775,-1.92 1.519252,-0.529614 1.55225,-0.496266 1.55225,1.568696 v 1.92 h 1.28 c 1.249523,0 1.28,0.02666 1.28,1.12 0,1.093334 -0.03046,1.12 -1.28,1.12 h -1.28 v 2.840819 c 0,3.144726 0.32888,3.786963 1.755843,3.428819 0.740567,-0.185872 0.804157,-0.115946 0.804157,0.884265 0,0.960429 -0.115706,1.109239 -1,1.286096 -1.274355,0.254871 -1.868986,0.228336 -2.739082,-0.122233 z m 7.04,0 c -1.181772,-0.476147 -1.380918,-1.349603 -1.380918,-6.05673 v -4.501036 h 1.28 1.28 v 3.960819 c 0,3.235622 0.09347,4.038393 0.510534,4.384521 0.425536,0.353165 0.651184,0.344759 1.35537,-0.05049 1.321171,-0.741556 1.644208,-1.755069 1.649379,-5.174851 l 0.0047,-3.12 h 1.28 1.28 v 5.28 5.279999 h -1.12 c -1.006125,0 -1.120989,-0.08947 -1.129731,-0.88 -0.0086,-0.781004 -0.04831,-0.813628 -0.352679,-0.290016 -0.680825,1.171235 -3.126118,1.784458 -4.656672,1.167783 z m 17.019082,-0.03121 c -1.748781,-1.000422 -2.005942,-3.289846 -0.534784,-4.761005 0.890538,-0.890537 2.72033,-1.600262 4.134784,-1.603766 0.544278,-0.0013 0.72,-0.187469 0.72,-0.762605 0,-0.418448 -0.217162,-0.941043 -0.482582,-1.161324 -0.446612,-0.370653 -0.87594,-0.362951 -3.837418,0.06883 -0.508768,0.07418 -0.660112,-0.113914 -0.738083,-0.91729 -0.08851,-0.911933 0.0052,-1.033686 0.96,-1.247021 1.82591,-0.407975 4.688166,-0.248692 5.53808,0.308195 0.984504,0.645069 1.056974,1.004941 1.214154,6.029427 l 0.12763,4.08 h -1.230891 c -1.023607,0 -1.23089,-0.109389 -1.23089,-0.64958 V 40.94084 l -0.890579,0.658432 c -1.092791,0.807933 -2.889872,1.099001 -3.749421,0.607283 z m 3.821856,-2.59776 c 0.82112,-1.172313 0.644429,-1.848797 -0.482893,-1.848797 -1.371968,0 -2.218963,0.5336 -2.218963,1.397927 0,0.954489 0.234934,1.162073 1.315187,1.162073 0.555415,0 1.075277,-0.26663 1.386669,-0.711203 z M 43.356129,35.039999 v -7.2 h 1.700733 c 1.597158,0 1.73288,0.06334 2.228611,1.04 0.290336,0.572 1.547478,2.84 2.793654,5.04 l 2.26577,3.999999 -0.09438,-4.959999 -0.09438,-4.96 1.36,-0.0984 1.36,-0.0984 v 7.218399 7.218399 l -1.84,-3.17e-4 -1.84,-3.13e-4 -1.44,-2.624202 c -0.792,-1.443312 -1.98,-3.626211 -2.64,-4.850883 l -1.2,-2.226681 v 4.851196 4.8512 h -1.280008 -1.28 z m 42.56,1.92 v -5.28 h 1.28 c 1.159446,0 1.28,0.07703 1.28,0.817843 v 0.817846 l 0.72,-0.805798 c 0.396,-0.443187 1.138342,-0.904436 1.649651,-1.024996 0.861898,-0.203225 0.914691,-0.163288 0.724371,0.547953 -0.112905,0.421932 -0.207251,1.091152 -0.209654,1.487152 -0.0034,0.551702 -0.189638,0.72 -0.796992,0.72 -1.330499,0 -1.847069,1.23263 -2.019795,4.819583 l -0.153146,3.180416 h -1.237219 -1.237216 z m 16.960001,-2.4 v -7.68 h 1.28 1.28 v 7.68 7.679999 h -1.28 -1.28 z m 13.86888,7.373564 c -1.73986,-0.414557 -3.11918,-1.432921 -3.94133,-2.909923 -1.0715,-1.924928 -1.11485,-5.570889 -0.0896,-7.533939 0.91137,-1.745002 2.64518,-3.219353 4.31784,-3.671699 1.31869,-0.35662 5.57598,-0.280427 6.20954,0.111131 0.17087,0.105608 0.25008,0.711106 0.17601,1.345551 l -0.13467,1.153535 -1.48334,-0.251072 c -3.35443,-0.567775 -5.63755,0.215718 -6.48569,2.22568 -0.5951,1.410295 -0.51395,4.007914 0.16563,5.302381 0.60641,1.155075 2.13405,1.97479 3.68027,1.97479 1.8262,0 1.95645,-0.183366 1.95645,-2.754236 v -2.365763 h 1.29083 1.29082 l -0.0908,3.438332 -0.0908,3.438333 -1.6,0.370947 c -1.8396,0.426499 -3.71778,0.472246 -5.17112,0.125952 z m 10.09736,-0.03541 c -0.87109,-0.335019 -1.56624,-1.475268 -1.56624,-2.569102 0,-1.883657 1.94568,-3.426288 4.71521,-3.738454 1.23035,-0.138678 1.35833,-0.229517 1.17369,-0.833123 -0.39765,-1.299994 -0.8282,-1.554035 -2.35648,-1.390442 -0.79883,0.08551 -1.69075,0.255069 -1.98204,0.376797 -0.40792,0.17047 -0.58035,-0.0097 -0.75045,-0.784134 -0.12146,-0.553005 -0.12321,-1.103162 -0.004,-1.222579 0.40406,-0.404394 5.49937,-0.455612 6.23361,-0.06266 1.21842,0.652076 1.61036,2.208604 1.61036,6.395263 v 3.850278 h -1.28 c -1.10087,0 -1.28,-0.09737 -1.28,-0.695779 v -0.695782 l -0.75411,0.708454 c -0.87631,0.823245 -2.56582,1.120403 -3.75965,0.661261 z m 3.61903,-2.458154 c 0.26646,-0.308 0.5633,-0.884 0.65964,-1.28 0.15696,-0.645142 0.0561,-0.72 -0.96967,-0.72 -1.64437,0 -2.96933,1.479245 -2.10191,2.346666 0.42056,0.420557 1.93673,0.20264 2.41194,-0.346666 z m 5.77473,2.58807 c -0.22,-0.08877 -0.4,-0.62449 -0.4,-1.19048 0,-0.987511 0.0452,-1.023802 1.11913,-0.898426 2.89554,0.338039 3.73045,-1.154601 1.28087,-2.289913 -2.57604,-1.193927 -3.25813,-2.518067 -2.3377,-4.538192 0.54296,-1.191664 1.84694,-1.751059 4.08181,-1.751059 h 1.93589 v 0.96 c 0,0.935452 -0.0399,0.96 -1.56082,0.96 -1.57484,0 -2.54951,0.583708 -2.12408,1.272067 0.1156,0.187056 0.90998,0.69471 1.76527,1.128121 2.65071,1.343213 3.27227,3.103786 1.73906,4.925898 -1.09367,1.299753 -3.96341,2.041782 -5.49943,1.421984 z M 9.9161288,19.199999 0,9.2799997 h 19.996129 19.996128 l -9.916128,9.9199993 c -5.453871,5.456 -9.989871,9.92 -10.08,9.92 -0.09013,0 -4.626129,-4.464 -10.0800002,-9.92 z m 48.8271392,4.239503 c -1.493222,-0.764471 -2.267139,-2.350872 -2.267139,-4.647258 0,-3.58763 1.855411,-5.668791 5.055891,-5.671048 3.279591,-0.0023 4.674666,1.519235 4.693325,5.118803 0.0086,1.652469 -0.147373,2.33442 -0.758669,3.317786 -1.352781,2.176163 -4.453302,3.043922 -6.723408,1.881717 z m 4.212861,-2.70276 c 0.72241,-0.835471 0.759971,-3.668838 0.06186,-4.665541 -0.639741,-0.913357 -2.372061,-0.966016 -3.159379,-0.09604 -0.751616,0.830527 -1.002989,2.976492 -0.492909,4.207936 0.682045,1.646603 2.414403,1.913732 3.590432,0.553644 z m 14.075347,2.931563 c -1.055446,-0.424019 -1.355347,-1.558961 -1.355347,-5.129138 0,-3.177779 -3.49e-4,-3.179168 -0.8,-3.179168 -0.700954,0 -0.8,-0.138666 -0.8,-1.12 0,-0.981333 0.09905,-1.12 0.8,-1.12 0.74521,0 0.8,-0.108104 0.8,-1.578435 0,-1.304582 0.111037,-1.6099369 0.64,-1.7599999 2.088362,-0.5924556 1.92,-0.7149445 1.92,1.3968709 v 1.941564 h 1.28 c 1.249523,0 1.28,0.02667 1.28,1.12 0,1.093334 -0.03046,1.12 -1.28,1.12 h -1.28 v 2.581037 c 0,3.18498 0.340707,3.958822 1.629507,3.701062 0.879555,-0.175911 0.930493,-0.127268 0.930493,0.888579 0,0.843976 -0.154563,1.116099 -0.72,1.267631 -0.994627,0.26655 -2.18399,0.215766 -3.044653,-0.130003 z m 18.938627,0.0066 c -1.233657,-0.381918 -1.991136,-1.205748 -2.550355,-2.773747 -1.218301,-3.416007 0.372423,-7.237625 3.225456,-7.74896 2.827338,-0.506729 4.697206,0.631985 5.246936,3.195294 0.52309,2.439102 0.41062,2.532483 -3.050248,2.532483 -2.992813,0 -3.005763,0.0034 -3.005763,0.8 0,1.772721 2.537558,2.681011 4.939171,1.76792 0.78041,-0.296713 0.82083,-0.259006 0.82083,0.765764 0,0.710958 -0.18161,1.147534 -0.53354,1.282582 -0.98446,0.377773 -4.096643,0.486961 -5.092487,0.178664 z m 3.386026,-7.290906 c 0,-1.315001 -1.822739,-1.820808 -2.934803,-0.814403 -1.079184,0.976647 -0.729587,1.390403 1.174803,1.390403 1.481482,0 1.76,-0.09115 1.76,-0.576 z m -56,0.07928 V 9.2465536 l 1.667373,0.096723 1.667376,0.096723 1.373469,2.3328844 c 0.755408,1.283086 1.961449,3.443086 2.680086,4.8 0.71864,1.356913 1.366262,2.527115 1.439158,2.600449 0.0729,0.07333 0.132538,-3.202667 0.132538,-7.28 0,-6.3762961 -0.06715,-7.4133332 -0.48,-7.4133332 -0.264,0 -0.48,-0.1481065 -0.48,-0.3291254 C 51.356129,3.7393762 53.230452,0 53.436711,0 c 0.08325,0 0.658992,1.0079999 1.279418,2.2399999 0.86393,1.7155321 1.014717,2.2399999 0.644022,2.2399999 -0.421273,0 -0.484022,1.2445376 -0.484022,9.5999992 v 9.6 l -1.84,-3.15e-4 -1.84,-3.15e-4 -1.44,-2.624203 c -0.792,-1.443311 -1.98,-3.626208 -2.64,-4.850883 l -1.2,-2.226681 v 4.851199 4.851198 h -1.28 -1.28 z m 24.64,1.936723 v -5.28 h 1.12 c 0.997814,0 1.12,0.09237 1.12,0.846728 v 0.846727 l 0.78472,-0.846727 c 0.431597,-0.4657 0.923818,-0.846728 1.093827,-0.846728 0.17001,0 0.536887,-0.08741 0.81528,-0.194236 0.416423,-0.159796 0.506173,0.06716 0.506173,1.28 0,1.421879 -0.0338,1.474236 -0.951782,1.474236 -1.451719,0 -1.928218,1.221783 -1.928218,4.944109 v 3.055891 h -1.28 -1.28 z m 14.72,-2.4 V 8.3199998 h 1.301251 1.301255 l -0.101255,3.1623512 -0.101251,3.162352 0.904554,-0.762352 c 1.386918,-1.168888 3.528697,-1.135014 4.615446,0.073 0.673981,0.749184 0.72,1.085545 0.72,5.262495 v 4.462155 h -1.270438 -1.270442 l -0.08956,-4.08 -0.08956,-4.08 -1.032704,-0.09973 c -0.875264,-0.08453 -1.131206,0.06183 -1.678803,0.96 -0.531207,0.871281 -0.646314,1.614553 -0.647296,4.17973 l -0.0012,3.12 h -1.28 -1.28 z m 21.120001,2.4 v -5.28 h 1.12 c 1.00612,0 1.12099,0.08947 1.12973,0.88 0.009,0.781004 0.0483,0.81363 0.35268,0.290017 0.28601,-0.492026 2.07253,-1.490017 2.66731,-1.490017 0.0937,0 0.17028,0.638877 0.17028,1.419726 0,1.365635 -0.0393,1.423545 -1.0327,1.52 -1.47537,0.143257 -1.83694,1.089141 -1.84258,4.820274 l -0.005,3.12 h -1.27972 -1.28 z m 6.72,0 v -5.28 h 1.28 c 1.14535,0 1.28,0.08255 1.28,0.784721 v 0.78472 l 0.84673,-0.78472 c 1.20347,-1.115338 3.66259,-1.173081 4.75327,-0.111612 0.57092,0.555624 0.65118,1.122837 0.74361,5.254873 l 0.10361,4.632018 h -1.30361 -1.30361 v -3.653828 c 0,-2.009605 -0.0874,-3.881605 -0.19424,-4.16 -0.31764,-0.827766 -1.9043,-0.62695 -2.66253,0.336983 -0.57408,0.729825 -0.66323,1.28898 -0.66323,4.16 v 3.316845 h -1.44 -1.44 z"
     id="path817"
     inkscape:connector-curvature="0" />
</svg>
