<?xml version="1.0" encoding="UTF-8" standalone="no"?>
<!-- Created with Inkscape (http://www.inkscape.org/) -->

<svg
   xmlns:dc="http://purl.org/dc/elements/1.1/"
   xmlns:cc="http://creativecommons.org/ns#"
   xmlns:rdf="http://www.w3.org/1999/02/22-rdf-syntax-ns#"
   xmlns:svg="http://www.w3.org/2000/svg"
   xmlns="http://www.w3.org/2000/svg"
   xmlns:sodipodi="http://sodipodi.sourceforge.net/DTD/sodipodi-0.dtd"
   xmlns:inkscape="http://www.inkscape.org/namespaces/inkscape"
   version="1.1"
   id="svg2"
   width="3440.7378"
   height="1058.699"
   viewBox="0 0 3440.7378 1058.699"
   sodipodi:docname="oneok.svg"
   inkscape:version="0.92.3 (2405546, 2018-03-11)">
  <metadata
     id="metadata8">
    <rdf:RDF>
      <cc:Work
         rdf:about="">
        <dc:format>image/svg+xml</dc:format>
        <dc:type
           rdf:resource="http://purl.org/dc/dcmitype/StillImage" />
        <dc:title></dc:title>
      </cc:Work>
    </rdf:RDF>
  </metadata>
  <defs
     id="defs6" />
  <sodipodi:namedview
     pagecolor="#ffffff"
     bordercolor="#666666"
     borderopacity="1"
     objecttolerance="10"
     gridtolerance="10"
     guidetolerance="10"
     inkscape:pageopacity="0"
     inkscape:pageshadow="2"
     inkscape:window-width="744"
     inkscape:window-height="522"
     id="namedview4"
     showgrid="false"
     inkscape:zoom="0.047190562"
     inkscape:cx="-2293.6519"
     inkscape:cy="529.07471"
     inkscape:window-x="1180"
     inkscape:window-y="543"
     inkscape:window-maximized="0"
     inkscape:current-layer="svg2"
     fit-margin-top="0"
     fit-margin-left="0"
     fit-margin-right="0"
     fit-margin-bottom="0" />
  <path
     style="fill:#000000"
     d="m 504.35437,1039.7125 c -13.2037,-13.7215 -17.89,-19.199 -16.9,-19.7531 3.3466,-1.8728 15.8772,-3.0574 25.0593,-2.369 8.723,0.654 9.6689,0.9222 10.1493,2.8776 0.2914,1.1859 0.4019,10.2731 0.2456,20.1936 l -0.2843,18.0374 z m 53.7424,-19.2759 c -4.2021,-2.8682 -11.1961,-9.2135 -14.8134,-13.4396 l -3.4516,-4.0324 19.065,0.3299 c 10.4857,0.1814 19.3893,0.6551 19.7857,1.0526 1.1068,1.1099 -4.0237,7.2595 -10.6733,12.7933 -3.2938,2.7412 -6.3152,4.9839 -6.7143,4.9839 -0.3991,0 -1.8382,-0.7594 -3.1981,-1.6877 z m -111.816,-34.0623 c -6.2609,-6.4625 -14.485,-15.35 -18.2759,-19.75 l -6.8924,-8 3.7559,-0.6924 c 5.7821,-1.0659 24.0071,-0.914 31.2457,0.2604 3.6167,0.5868 9.1507,2.4659 12.5,4.2444 6.6141,3.5122 33.0407,23.4479 40.9821,30.916 l 5.0281,4.7285 -28.4801,0.021 -28.48,0.022 -11.3834,-11.75 z m 148.8435,-33.7181 c -7.82,-1.9959 -18.2826,-6.4959 -30.7316,-13.2176 l -10.7684,-5.8143 45.9065,-0.2602 c 25.2485,-0.1431 46.1124,-0.054 46.364,0.1974 0.7768,0.7768 -3.4468,6.871 -7.4575,10.7605 -2.0972,2.0338 -6.513,4.9463 -9.813,6.4723 -5.243,2.4244 -7.3879,2.8055 -17,3.0201 -6.9554,0.1553 -13.0223,-0.2705 -16.5,-1.1582 z m -202.6966,-24.2819 c -3.0364,-1.6955 -11.7213,-9.6959 -22.6486,-20.8638 l -17.7237,-18.1137 35.2844,-0.6949 c 29.8809,-0.5884 36.6628,-0.4533 44.2845,0.8821 13.4108,2.3499 29.6886,7.7764 41.5,13.8348 20.6226,10.578 46.9744,24.5742 49.1907,26.1265 2.0641,1.4457 -3.114,1.579 -61.354,1.579 h -63.6083 z m 237.6966,-39.2121 c -10.1335,-1.0473 -17.692,-2.6749 -29,-6.2448 -12.0491,-3.8039 -29,-10.7695 -29,-11.9169 0,-0.4929 29.5515,-0.8762 67.5565,-0.8762 h 67.5566 l -1.8066,3.1282 c -2.7744,4.8042 -9.3662,11.1992 -13.8065,13.3943 -3.5098,1.7352 -6.1445,1.9836 -21.5,2.0273 -9.625,0.028 -20.875,0.3229 -25,0.6565 -4.125,0.3337 -10.875,0.2579 -15,-0.1684 z m -299.0786,-21.405 c -5.3144,-1.8999 -7.7529,-3.8655 -14.9214,-12.0276 -3.575,-4.0705 -10.4375,-11.6615 -15.25,-16.869 -6.6097,-7.152 -8.75,-10.1447 -8.75,-12.2344 v -2.7664 l 38.25,0.7344 c 21.0375,0.4039 51.75,1.0689 68.25,1.4777 l 30,0.7434 52.25,19.8574 c 31.9394,12.1384 52.25,20.3616 52.25,21.1545 0,1.8943 -196.7746,1.8261 -202.0786,-0.07 z m 1080.82463,-5.1055 c -38.8951,-5.5539 -75.7135,-21.4795 -110.3399,-47.7269 -52.7886,-40.0145 -89.0522,-95.3791 -115.3427,-176.0965 -30.3521,-93.1874 -30.8637,-187.6613 -1.5046,-277.8311 14.5324,-44.6327 35.7029,-88.4413 57.4454,-118.8729 39.3737,-55.1087 95.8356,-93.7043 154.2765,-105.4585 18.9601,-3.8135 32.831,-4.9011 53.6752,-4.2089 33.3351,1.1071 60.3054,7.8535 90.5441,22.6489 82.335,40.2852 147.0363,136.2454 169.9238,252.0185 13.9215,70.4194 12.1406,138.559 -5.397,206.5 -17.2096,66.67 -50.631,129.4183 -93.1751,174.9352 -35.6209,38.1098 -84.4874,64.0317 -137.8517,73.1254 -13.2158,2.2521 -49.3259,2.8129 -62.254,0.9668 z m 52.0804,-33.4601 c 32.5682,-9.4092 61.4307,-37.7162 83.6696,-82.0594 20.8297,-41.5331 37.4071,-100.734 44.9455,-160.5079 4.2304,-33.5443 7.181,-89.9287 6.2011,-118.5 -0.9403,-27.4144 -5.8407,-65.5535 -13.2342,-103 -16.352,-82.8189 -47.5384,-148.6255 -84.5529,-178.4149 -19.6809,-15.8393 -37.2922,-22.5851 -58.963,-22.5851 -29.582,0 -54.938,13.3034 -78.1222,40.988 -11.7379,14.0164 -18.9257,25.3826 -28.7812,45.512 -26.8969,54.9361 -42.2308,117.2998 -49.1755,200 -1.94,23.1028 -1.6485,84.0152 0.5049,105.5 9.1722,91.5118 32.08,168.7033 64.5794,217.6106 21.2723,32.012 45.2674,50.4367 74.1021,56.8996 9.296,2.0835 29.1777,1.3447 38.8264,-1.4429 z m 622.7153,31.2604 c -3.8216,-1.0823 -6.4362,-3.5367 -11.3327,-10.6383 -4.0918,-5.9347 -253.0718,-452.5489 -260.2008,-466.7419 -1.2286,-2.4461 -3.1609,-5.4593 -4.294,-6.696 -1.9275,-2.1039 -2.1775,-2.1422 -3.8871,-0.595 -1.7577,1.5907 -1.8264,9.065 -1.8088,196.7485 0.02,209.2891 -0.032,207.0089 4.9924,222.095 3.7399,11.2304 12.4865,19.8999 24.7501,24.5322 3.1566,1.1923 12.2642,3.4853 20.2392,5.0955 18.2597,3.6868 20.5047,4.4271 22.9844,7.5796 3.7962,4.8261 2.0941,15.7329 -2.6407,16.9213 -3.2098,0.8056 -37.7123,-0.1255 -62.3426,-1.6824 -17.2599,-1.091 -23.5013,-1.071 -39.5,0.1261 -10.4506,0.782 -27.7029,1.4231 -38.3385,1.4247 h -19.3374 l -2.4126,-2.8058 c -1.8947,-2.2034 -2.4126,-3.9451 -2.4126,-8.1136 0,-9.1509 5.329,-12.2894 24.6854,-14.5385 13.6769,-1.5892 21.2002,-4.2346 27.0821,-9.523 5.8025,-5.217 8.5497,-10.9325 11.2218,-23.3472 4.0557,-18.8434 4.1203,-23.2406 3.81,-259.1719 l -0.2993,-227.5 -2.7412,-4.663 c -4.233,-7.2009 -7.0952,-8.4877 -36.2588,-16.3019 -5.5,-1.4737 -11.4001,-3.3437 -13.1114,-4.1555 -5.1184,-2.428 -6.8389,-8.6743 -3.9358,-14.2884 2.5912,-5.0108 5.5397,-5.4985 27.3795,-4.5287 24.9095,1.1061 58.6238,1.1441 81.1677,0.091 20.1117,-0.9391 21.1623,-0.6388 26.8914,7.6883 1.7003,2.4712 47.0075,86.3177 100.6828,186.3255 53.6753,100.0078 101.8509,189.5845 107.0569,199.0594 8.2767,15.0636 11.9949,20.2729 14.4701,20.2729 2.8168,0 2.944,-8.4033 2.6187,-173.0185 -0.3637,-184.0854 0.036,-172.1745 -6.3781,-189.9815 -2.2173,-6.1556 -3.7897,-8.5912 -8.7717,-13.5875 -7.6052,-7.627 -12.7642,-9.6646 -31.2038,-12.3245 -15.4699,-2.2315 -18.3131,-3.5959 -19.8104,-9.5065 -1.4409,-5.6879 0.9204,-11.3844 5.7513,-13.8745 4.8365,-2.493 20.3989,-2.783 35.6928,-0.6652 13.7091,1.8983 56.104,1.9277 77.6417,0.054 16.5888,-1.4433 36.7682,-1.2669 98.8583,0.8641 35.0001,1.2013 125.6426,1.2167 169,0.029 83.3121,-2.2827 98.7259,-2.3822 102.786,-0.6632 7.0038,2.9651 6.7873,0.3886 6.4842,77.1688 l -0.2702,68.4613 -2.7727,2.7723 c -2.3452,2.3449 -3.605,2.7724 -8.1695,2.7724 -8.0709,0 -9.1354,-1.4528 -18.5863,-25.3644 -12.9415,-32.7434 -24.2456,-54.2889 -35.3914,-67.4554 -10.4052,-12.2917 -30.4448,-24.4456 -47.0801,-28.5539 -23.0457,-5.6913 -70.854,-6.8223 -87.7773,-2.0765 -6.117,1.7154 -10.4222,6.2156 -11.7199,12.2508 -0.7942,3.6932 -1.0289,34.3649 -0.8104,105.8763 0.3069,100.4321 0.3127,100.6838 2.4048,103.5 3.4524,4.6472 8.6963,5.3969 37.9028,5.419 41.8057,0.032 54.1486,-1.7432 63.8034,-9.1744 8.8888,-6.8415 13.8266,-15.5346 29.7759,-52.4215 5.6902,-13.1601 8.0065,-15.5 15.3438,-15.5 4.1741,0 6.0619,0.485 7.5048,1.9279 3.6971,3.6971 3.7586,7.5642 0.988,62.0721 -1.2503,24.5964 -0.6381,68.6687 1.2362,89 2.3399,25.3809 1.1187,40.5181 -3.6286,44.9779 -4.6029,4.3242 -14.6772,3.5717 -17.7917,-1.329 -2.3634,-3.7189 -5.4626,-12.5768 -10.7234,-30.6489 -6.6523,-22.852 -10.8263,-35.5865 -13.2395,-40.392 -3.1552,-6.2832 -10.2362,-13.0958 -16.5627,-15.935 -9.7866,-4.3919 -17.7501,-5.1519 -53.2062,-5.0774 -35.6581,0.075 -37.9939,0.4127 -41.6722,6.0273 -1.7412,2.6578 -1.8278,7.7891 -1.8278,108.3335 0,97.403 0.1402,106.376 1.8182,116.3354 3.0236,17.9457 6.8248,26.7079 15.1448,34.9104 11.1694,11.0117 30.4958,15.5289 62.037,14.5001 32.5299,-1.061 52.746,-8.3701 70.7872,-25.5928 19.1374,-18.2693 28.7081,-35.8444 47.5978,-87.4061 4.3919,-11.9881 8.8145,-23.2381 9.828,-25 1.0135,-1.7619 3.515,-4.0267 5.5589,-5.0329 3.1639,-1.5576 4.2517,-1.6528 7.3189,-0.6405 6.7031,2.2122 6.4758,-0.9504 6.1771,85.9584 l -0.2679,77.9667 -2.7746,2.7725 -2.7745,2.7724 -29.7255,-0.023 c -16.3489,-0.013 -46.1673,-0.5754 -66.2629,-1.25 -42.6806,-1.4327 -109.0977,-1.527 -161.4625,-0.2292 -88.3111,2.1887 -111.1596,2.3863 -114.5291,0.9907 -5.4061,-2.2393 -7.5221,-10.3397 -4.5556,-17.4396 1.8547,-4.4388 3.172,-5.0457 17.5323,-8.0777 28.6782,-6.0551 37.6617,-10.8262 43.2512,-22.9707 l 2.3012,-5 0.2601,-240.9363 c 0.2318,-214.718 0.092,-241.5961 -1.2871,-247 -1.7796,-6.9744 -5.4808,-12.0949 -11.0681,-15.3124 -15.042,-8.6623 -50.5007,-9.8572 -66.69,-2.2473 -6.2359,2.9312 -12.9161,10.3412 -15.8184,17.5466 l -2.3965,5.9518 -0.5,268.5 c -0.4958,266.2448 -0.5168,268.5285 -2.5,271.8955 -3.007,5.1051 -6.4008,7.1583 -12.5588,7.5982 -2.9927,0.2137 -6.3224,0.139 -7.3995,-0.166 z m 665.1533,-0.4461 c -52.122,-5.0205 -104.7762,-36.5752 -141.7055,-84.9213 -25.9775,-34.0086 -47.2388,-79.4006 -58.847,-125.6359 -4.1782,-16.6416 -8.2048,-40.5368 -10.2497,-60.8244 -1.6056,-15.9295 -1.6179,-58.9764 -0.021,-74 5.3479,-50.317 19.8414,-97.9574 42.2876,-139 42.8881,-78.4203 97.6977,-119.1128 171.8262,-127.5696 14.5755,-1.6629 39.5589,-0.7032 53.4841,2.0543 61.0948,12.0982 118.492,59.0672 153.0028,125.2043 41.9616,80.4162 53.9908,168.465 35.4238,259.287 -17.2053,84.1616 -63.6907,158.8768 -122.4296,196.7794 -34.2728,22.1154 -79.9049,32.7552 -122.7716,28.6262 z m 37.5307,-27.8114 c 32.2425,-8.2463 60.2128,-38.9958 80.1587,-88.1232 24.0049,-59.125 36.2028,-131.9321 34.2527,-204.447 -0.7142,-26.5546 -1.753,-39.1724 -5.2239,-63.4532 -11.1984,-78.3371 -34.5317,-139.7412 -65.5551,-172.5152 -10.2056,-10.7815 -18.0019,-16.6719 -29.3581,-22.1811 -11.9744,-5.8091 -21.0777,-7.6768 -34.5102,-7.0804 -48.099,2.1357 -88.0269,52.4142 -110.4257,139.0514 -12.2291,47.3015 -17.7804,90.086 -17.864,137.6785 -0.1407,80.162 15.8113,158.1923 43.7137,213.8281 14.9246,29.7589 36.748,53.2619 58.3433,62.8337 14.5711,6.4584 31.9913,8.111 46.4686,4.4084 z m 615.2743,16.4112 c -19.8531,-2.073 -70.017,-2.931 -89.5,-1.5309 -9.075,0.6521 -23.5032,1.4412 -32.0626,1.7535 -21.3827,0.7801 -24.9374,-1.0183 -24.9374,-12.6162 0,-8.6196 3.6467,-11.2076 18.431,-13.0801 9.5658,-1.2116 15.6934,-3.9932 19.3462,-8.7822 2.4101,-3.1599 2.7228,-4.44 2.7228,-11.1477 0,-8.9886 1.0814,-6.2698 -26.4822,-66.5778 -22.9457,-50.2043 -57.127,-127.0974 -74.0141,-166.5 -11.3881,-26.5717 -15.7017,-34.7327 -18.9266,-35.8076 -2.0402,-0.6801 -12.8225,11.5407 -16.1064,18.2552 -1.6281,3.3288 -3.3423,8.3024 -3.8094,11.0524 -0.467,2.75 -0.7757,56.975 -0.686,120.5 0.1613,114.167 0.1869,115.553 2.2167,120.0894 3.9829,8.9017 10.2551,13.4278 27.6033,19.9192 11.2757,4.2192 13.0587,6.2758 12.4777,14.3923 -0.3575,4.9933 -0.8673,6.2835 -3.3151,8.3889 l -2.8926,2.4882 -19.5326,-0.6377 c -10.743,-0.3507 -24.9327,-1.0594 -31.5327,-1.5749 -15.5183,-1.2121 -54.3657,-1.2325 -71,-0.037 -19.9226,1.4314 -50.8724,2.3462 -53.8759,1.5924 -3.8648,-0.97 -6.6158,-6.0544 -6.6204,-12.2356 -0.01,-9.1157 2.8517,-10.9723 22.9963,-14.9369 12.6736,-2.4942 18.2313,-4.8904 22.7744,-9.8191 4.3144,-4.6806 5.5908,-7.7353 7.3661,-17.6289 1.5522,-8.6508 2.4467,-458.1997 0.9501,-477.5076 -1.1153,-14.3878 -2.813,-20.5207 -6.8794,-24.8514 -3.6977,-3.938 -7.2187,-5.2696 -18.804,-7.1118 -21.9703,-3.4936 -27.8788,-7.3503 -25.3945,-16.5764 2.3955,-8.896 10.3252,-10.6418 37.4742,-8.25 27.6647,2.4371 91.6692,2.4302 120.0131,-0.013 13.7613,-1.1862 22.8959,-1.5298 26.5,-0.9968 4.9538,0.7325 5.6736,1.1606 7.2484,4.3101 0.9798,1.9595 1.7492,5.7451 1.75,8.6105 0,8.927 -4.8695,11.7899 -21.9984,12.9263 -16.4407,1.0907 -22.6735,3.9374 -26.1864,11.9601 -1.0506,2.3994 -1.3716,23.6749 -1.6031,106.2662 -0.2668,95.1515 -0.1601,103.3159 1.3583,103.8986 2.0428,0.7839 -5.6877,10.7264 72.5213,-93.2733 71.5551,-95.1515 75.2497,-100.641 75.3571,-111.9672 0.05,-5.258 -0.174,-5.7757 -4.0706,-9.4122 -4.8041,-4.4834 -7.0301,-5.2106 -26.159,-8.5456 -15.2022,-2.6504 -17.4557,-3.499 -19.1464,-7.2097 -2.883,-6.3274 -0.2241,-13.1562 6.1404,-15.7702 5.1146,-2.1007 25.6606,-2.378 40.2884,-0.5439 14.5899,1.8293 48.4708,2.4183 64.5,1.1212 20.1542,-1.6309 43.2359,-2.4725 46.3531,-1.6901 5.1903,1.3027 7.7472,12.5259 3.7617,16.5114 -2.3782,2.3782 -11.0829,5.6558 -21.5284,8.106 -4.4475,1.0433 -10.1114,2.6149 -12.5864,3.4925 -17.4232,6.1778 -37.1932,25.3408 -69.7374,67.5962 -14.5036,18.8315 -73.6329,96.9767 -74.5403,98.5124 -0.355,0.6008 4.3366,12.0758 10.4258,25.5 6.0891,13.4242 36.0401,81.5577 66.5576,151.4077 30.5175,69.85 58.9931,134.2 63.279,143 14.9667,30.7305 22.821,39.5308 44.6678,50.0476 12.019,5.7858 13.2509,6.6296 14.2943,9.7912 1.0267,3.1111 0.9015,5.3504 -0.6106,10.9222 -1.3195,4.8619 -13.9903,6.397 -34.8362,4.2204 z M 608.90157,816.4394 c -12.676,-4.7427 -27.814,-11.9835 -30.2773,-14.4823 -0.6759,-0.6856 5.1576,-0.822 18,-0.4207 10.45,0.3265 54.325,1.0962 97.5,1.7103 43.175,0.6141 78.6906,1.291 78.9237,1.5041 1.0682,0.977 -6.1651,9.1797 -10.4704,11.8735 l -4.7946,3 -43.5794,0.691 c -23.9686,0.38 -54.3489,0.83 -67.5116,1 l -23.9324,0.309 z m -346.2773,-19.2168 c -6.0418,-1.0885 -9.5004,-3.3338 -15,-9.738 -2.75,-3.2023 -8.4875,-9.5282 -12.75,-14.0576 -4.2625,-4.5293 -7.75,-8.6845 -7.75,-9.2338 0,-2.047 3.7869,-2.85 14,-2.9684 5.775,-0.067 43.8,-1.0589 84.5,-2.2041 40.7,-1.1453 77.15,-1.8757 81,-1.623 5.098,0.3346 23.1668,5.1173 66.5,17.6023 62.4768,18.0006 68,19.7231 68,21.207 0,0.5518 -53.5356,0.9173 -134.375,0.9173 -73.9062,0 -135.6687,0.1843 -137.25,0.4095 -1.5812,0.2251 -4.675,0.085 -6.875,-0.3112 z m 378,-43.1727 c -4.8071,-0.8081 -48.2964,-15.159 -55.5,-18.3143 -3.1679,-1.3876 9.0136,-1.5367 128.3795,-1.5722 l 131.8795,-0.039 -3.5053,4.25 c -1.9279,2.3375 -5.6125,5.3368 -8.1879,6.6651 -4.3447,2.2409 -6.2479,2.4728 -26.3742,3.2143 -61.8908,2.2803 -124.3218,4.9459 -137.1916,5.8578 -16.3729,1.16 -22.3072,1.1476 -29.5,-0.062 z M 197.30529,733.439 c -5.38224,-1.9034 -35.09666,-29.2488 -32.98943,-30.3594 0.71962,-0.3792 6.48341,-0.9889 12.80841,-1.3549 6.325,-0.366 18.25,-1.0931 26.5,-1.6158 8.25,-0.5226 33.225,-1.6393 55.5,-2.4815 44.8223,-1.6946 62.4622,-2.735 87,-5.1317 35.9167,-3.508 62.9533,-0.01 108,13.9745 9.625,2.9879 31.9,9.5568 49.5,14.5975 35.1918,10.0791 36.9125,10.6437 38.5893,12.6642 0.9868,1.189 -23.8051,1.3809 -169.7169,1.3135 -150.5606,-0.07 -171.3858,-0.2606 -175.19138,-1.6064 z m 468.31898,-46.4369 c -8.8911,-0.9519 -17.3701,-2.9723 -47.5,-11.3188 -20.0186,-5.5454 -33.984,-9.9424 -37,-11.6493 -0.8267,-0.4679 74.0469,-0.8625 166.8181,-0.8793 l 168.3181,-0.03 -2.0801,2.9212 c -2.7474,3.8584 -7.3729,7.6855 -12.4396,10.2923 -3.7829,1.9463 -6.9126,2.2246 -38.6165,3.434 -84.0899,3.2075 -160.4154,6.4978 -171,7.3716 -12.9868,1.072 -15.2812,1.0597 -26.5,-0.1413 z M 132.46802,663.0386 c -6.35543,-1.1897 -12.11066,-4.5623 -18.37968,-10.7706 -3.13438,-3.104 -8.22384,-7.4437 -11.30991,-9.6437 -3.08607,-2.2 -5.62073,-4.2515 -5.63259,-4.5589 -0.0119,-0.3073 0.57283,-1.3717 1.29932,-2.3653 1.79932,-2.4607 10.16225,-3.2468 48.17911,-4.5287 17.05,-0.575 50.35,-1.7487 74,-2.6084 73.9816,-2.6891 143.4122,-4.7681 158.5,-4.7459 16.293,0.024 23.442,1.2681 50.5,8.7887 16.4094,4.5609 98.2078,26.3651 102.25,27.2559 3.4556,0.7614 2.674,2.1835 -1.5,2.7295 -6.3964,0.8366 -393.50176,1.2719 -397.90625,0.4474 z m 530.41225,-40.9049 c -2.6091,-0.463 -20.1591,-5.9421 -39,-12.1756 l -34.256,-11.3338 15.5,-0.8477 c 25.4785,-1.3935 370.6703,-1.3813 372.0651,0.013 1.5352,1.5348 -2.6638,7.1415 -7.9866,10.6639 -7.6689,5.0751 -11.4809,5.5146 -57.5785,6.6382 -50.1784,1.2231 -89.2952,2.5003 -138,4.5058 -19.25,0.7927 -45.575,1.6921 -58.5,1.9988 -12.925,0.3066 -28.9,0.7424 -35.5,0.9684 -6.6,0.226 -14.1348,0.032 -16.744,-0.4311 z M 60.32115,594.4443 c -3.03893,-1.0749 -8.44097,-5.3851 -18.38771,-14.671 -7.74652,-7.232 -13.46012,-13.2356 -12.69688,-13.3413 5.38041,-0.7458 45.95973,-2.6904 100.88771,-4.8348 35.475,-1.385 94.65,-3.8806 131.5,-5.5458 92.8157,-4.1943 113.1766,-4.6045 127.0023,-2.5587 6.0513,0.8954 21.5763,4.5689 34.5,8.1633 12.9237,3.5944 44.1916,11.9434 69.4841,18.5533 25.2925,6.6099 47.3425,12.8872 49,13.9496 2.9826,1.9118 0.546,1.9311 -236.9864,1.8696 -212.22422,-0.055 -240.49801,-0.2383 -244.30312,-1.5842 z m 628.73362,-38.4154 c -4.1632,-0.4279 -15.1882,-2.796 -24.5,-5.2625 -9.3118,-2.4664 -28.6181,-7.4851 -42.903,-11.1526 -14.2849,-3.6676 -27.3349,-7.4156 -29,-8.3289 -2.8296,-1.5521 11.903,-1.6771 225.387,-1.9128 125.628,-0.1386 228.61313,-0.053 228.85583,0.1892 0.9052,0.9051 -6.1877,9.5735 -9.7771,11.9488 -5.7977,3.8367 -9.767,4.3946 -35.9932,5.0586 -72.48963,1.8355 -259.17943,8.0426 -297.00003,9.8748 -4.125,0.1999 -10.9063,0.013 -15.0695,-0.4146 z M 3.31213,526.3956 c 4.90775,-7.0068 23.29251,-25.159 27.04992,-26.7078 2.24493,-0.9253 10.90232,-1.5528 27.76222,-2.0121 13.475,-0.3671 37.55,-1.3088 53.5,-2.0928 15.95,-0.7839 43.625,-1.901 61.5,-2.4825 17.875,-0.5814 60.85,-2.172 95.5,-3.5346 99.265,-3.9035 107.4008,-4.0215 117.5,-1.7037 4.675,1.073 42.1164,10.7959 83.2031,21.6065 41.0867,10.8106 74.9492,19.6557 75.25,19.6557 0.3008,0 0.5469,0.45 0.5469,1 0,0.6642 -91.5207,1 -272.5621,1 H 0 Z M 678.12427,488.505 c -2.7103,-0.5332 -77.991,-20.5422 -87,-23.1238 l -5.5,-1.5761 3.2734,-1.3528 c 2.7205,-1.1243 36.0772,-1.3085 197.5,-1.0904 l 194.2266,0.2624 5.9926,2.4126 c 4.1291,1.6624 7.783,4.203 11.75,8.17 6.22103,6.221 7.01693,8.458 3.50743,9.8576 -1.2375,0.4936 -34.20003,1.402 -73.25003,2.0188 -39.05,0.6167 -93.95,1.7572 -122,2.5343 -58.9642,1.6336 -124.8702,2.6016 -128.5,1.8874 z M 73.79312,454.4783 c 2.65488,-3.1075 11.06759,-11.6387 18.69493,-18.9581 12.37291,-11.8735 14.31354,-13.3621 18.00205,-13.8088 2.27379,-0.2754 21.23417,-0.7643 42.13417,-1.0866 20.9,-0.3223 49.025,-1.0005 62.5,-1.5073 39.768,-1.4956 107.2313,-3.0838 140,-3.2958 l 30.5,-0.1974 75.6055,19.7523 c 80.0859,20.9229 82.7901,21.6816 82.8538,23.2477 0.027,0.6633 -79.953,1.0849 -237.5384,1.2521 l -237.57909,0.252 z m 606.83115,-32.0311 c -7.9024,-0.6734 -17.14,-2.4553 -25,-4.8225 -12.5243,-3.7719 -55.5996,-15.5004 -56.9283,-15.5004 -1.3329,0 -5.5717,-3.6648 -5.5717,-4.8172 0,-0.4065 39.4875,-0.8303 87.75,-0.9416 48.2625,-0.1113 120.15,-0.4786 159.75,-0.8162 78.8481,-0.6721 76.3538,-0.8248 84.1955,5.1564 3.3173,2.5301 11.9382,13.1652 11.1947,13.8099 -1.0027,0.8694 -56.7589,2.8339 -131.3902,4.6292 -45.1,1.085 -89.7776,2.4242 -99.2836,2.9761 -9.506,0.5519 -18.056,0.9278 -19,0.8353 -0.944,-0.093 -3.5164,-0.3215 -5.7164,-0.509 z M 134.68744,393.4283 c -0.48702,-1.2691 3.81745,-6.1694 17.10281,-19.4702 16.21569,-16.2345 18.10362,-17.8145 21.79383,-18.2395 2.2221,-0.2559 27.44019,-1.189 56.04019,-2.0737 28.6,-0.8847 75.4,-2.4969 104,-3.5829 28.6,-1.0859 53.35,-1.6887 55,-1.3396 5.6234,1.1897 155.9891,42.4348 158.7715,43.5507 1.5243,0.6114 3.0133,1.503 3.309,1.9814 0.304,0.492 -89.788,0.8698 -207.4145,0.8698 -194.60405,0 -207.9938,-0.1089 -208.60283,-1.696 z m 518.93683,-43.8272 c -22.3682,-6.0347 -63.8758,-19.1043 -64.2514,-20.2309 -0.3846,-1.1538 79.061,-1.7459 234.2514,-1.7459 h 25 l 4.5,2.7099 c 2.475,1.4904 7.425,5.3904 11,8.6666 5.5811,5.1147 6.3434,6.2159 5.3925,7.7901 -1.0357,1.7146 -3.8874,1.8775 -44,2.5137 -23.5909,0.3742 -64.0425,1.1641 -89.8925,1.7554 -67.1388,1.5356 -71.1662,1.464 -82,-1.4589 z M 203.44926,324.5288 c -0.76706,-1.9989 31.44541,-34.5932 36.61011,-37.0439 2.9739,-1.4112 13.0775,-1.897 72.0121,-3.4619 89.9428,-2.3885 100.502,-2.3909 110.0528,-0.026 8.8433,2.1898 123.5584,36.4186 129.7397,38.7118 2.3318,0.8651 4.4958,1.9875 4.809,2.4942 0.3463,0.5603 -68.6134,0.9212 -176.0211,0.9212 -160.74303,0 -176.64531,-0.1432 -177.20261,-1.5955 z m 433.17501,-42.3902 c -4.4,-1.0303 -10.5182,-2.7569 -13.596,-3.8369 -10.9187,-3.8315 -35.8198,-14.5047 -35.4052,-15.1755 0.2316,-0.3746 43.8795,-0.9495 96.9955,-1.2774 112.0547,-0.6918 103.2287,-1.3908 113.4202,8.9828 4.9349,5.0232 6.0827,6.7147 4.9764,7.3339 -1.8275,1.0227 -41.7105,2.7497 -94.3909,4.0873 -22.55,0.5726 -46.175,1.2026 -52.5,1.4 -8.7342,0.2726 -13.4241,-0.091 -19.5,-1.5142 z m -354.5,-23.9077 -11.5,-0.6066 8.5,-8.869 c 4.675,-4.8779 13.3349,-13.3632 19.2443,-18.8561 l 10.7442,-9.9871 59.2558,-3.9415 c 32.5906,-2.1679 61.1048,-3.7576 63.3648,-3.5327 2.2599,0.2249 30.7247,10.2589 63.255,22.2977 l 59.1461,21.8887 -5.2551,0.773 c -6.3398,0.9325 -250.4191,1.6953 -266.7551,0.8336 z m 341.3882,-48.5202 c -3.3615,-0.7724 -11.9115,-4.0818 -19,-7.3542 -7.0885,-3.2724 -14.6014,-6.5631 -16.6954,-7.3126 -3.4308,-1.228 -3.6344,-1.4892 -2.0589,-2.6412 1.3397,-0.9796 9.8257,-1.2779 36.3072,-1.2761 19.0074,0 46.0705,-0.4865 60.1402,-1.0839 27.7457,-1.1782 30.4708,-0.9131 37.428,3.6417 4.2149,2.7593 9.4907,8.8928 9.4907,11.0335 0,0.6994 -0.812,1.5293 -1.8045,1.8443 -1.9274,0.6118 -55.1436,3.2611 -81.6955,4.0672 -11.6768,0.3545 -17.6514,0.1063 -22.1118,-0.9187 z m -283.3882,-20.2006 c 0,-1.472 11.2004,-13.3249 22.6255,-23.9434 l 12.3952,-11.5201 44.7397,0.3302 44.7396,0.3302 44.1104,15.9587 c 24.2608,8.7772 45.1858,16.7225 46.5,17.6561 2.2538,1.6011 -3.7891,1.7006 -106.3604,1.75 -59.8125,0.029 -108.75,-0.2239 -108.75,-0.5617 z m 256.5,-45.1141 c -1.1,-0.2729 -6.825,-2.6957 -12.7223,-5.384 -5.8973,-2.6882 -11.3677,-4.8877 -12.1564,-4.8877 -0.9417,0 -1.2545,-0.6866 -0.911,-2 0.2876,-1.1 0.583,-2.0117 0.6563,-2.0261 2.6575,-0.52 77.3392,-0.9912 81.1732,-0.5122 4.1812,0.5224 6.4439,1.4631 9.0741,3.7724 2.9453,2.5861 7.3861,9.3355 7.3861,11.2261 0,0.6733 -69.7576,0.492 -72.5,-0.1885 z m -196.1412,-17.7791 c -0.7821,-2.038 32.4703,-36.2283 38.0839,-39.158 2.282,-1.191 7.8827,-2.7114 12.4459,-3.3786 15.4584,-2.2604 27.7214,0.4823 43.1114,9.6418 9.3981,5.5934 24.1737,13.7676 45.5,25.1714 18.4912,9.8879 23.0085,9.2308 -63.4581,9.2308 -66.0014,0 -75.1748,-0.1827 -75.6831,-1.5074 z m 172.9933,-44.486 c -1.8805,-0.7587 -16.2621,-18.4093 -17.2069,-21.118 -0.2346,-0.6727 5.8217,-0.9108 17.885,-0.7029 l 18.2397,0.3143 7.615,8.1483 c 4.1883,4.4816 8.428,9.5441 9.4216,11.25 l 1.8066,3.1017 -17.8066,-0.063 c -9.7936,-0.035 -18.7731,-0.4534 -19.9544,-0.93 z M 472.49357,54.6444 c -0.4956,-1.2915 3.8633,-6.24 17.7368,-20.1363 10.1167,-10.1331 18.8668,-18.3024 19.4449,-18.1538 0.578,0.1485 8.749,8.595 18.1577,18.77 16.7732,18.1392 17.0549,18.5168 14.449,19.3601 -1.4617,0.473 -17.6143,1.0878 -35.8945,1.3661 -30.7291,0.468 -33.2864,0.377 -33.8939,-1.2061 z m 55.2021,-37.0915 c -1.1663,-1.1664 -1.5714,-3.6312 -1.5714,-9.5622 V 0 l 4.6312,3.3122 c 2.5471,1.8216 6.8429,5.7871 9.5461,8.8121 4.7376,5.3015 4.8321,5.5235 2.6188,6.1503 -4.6895,1.3282 -13.597,0.9059 -15.2247,-0.7217 z"
     id="path817"
     inkscape:connector-curvature="0" />
</svg>
