<?xml version="1.0" encoding="UTF-8" standalone="no"?>
<!-- Created with Inkscape (http://www.inkscape.org/) -->

<svg
   xmlns:dc="http://purl.org/dc/elements/1.1/"
   xmlns:cc="http://creativecommons.org/ns#"
   xmlns:rdf="http://www.w3.org/1999/02/22-rdf-syntax-ns#"
   xmlns:svg="http://www.w3.org/2000/svg"
   xmlns="http://www.w3.org/2000/svg"
   xmlns:sodipodi="http://sodipodi.sourceforge.net/DTD/sodipodi-0.dtd"
   xmlns:inkscape="http://www.inkscape.org/namespaces/inkscape"
   version="1.1"
   id="svg3029"
   width="979.84644"
   height="183.99963"
   viewBox="0 0 979.84644 183.99963"
   sodipodi:docname="rex.svg"
   inkscape:version="0.92.3 (2405546, 2018-03-11)">
  <metadata
     id="metadata3035">
    <rdf:RDF>
      <cc:Work
         rdf:about="">
        <dc:format>image/svg+xml</dc:format>
        <dc:type
           rdf:resource="http://purl.org/dc/dcmitype/StillImage" />
        <dc:title></dc:title>
      </cc:Work>
    </rdf:RDF>
  </metadata>
  <defs
     id="defs3033" />
  <sodipodi:namedview
     pagecolor="#ffffff"
     bordercolor="#666666"
     borderopacity="1"
     objecttolerance="10"
     gridtolerance="10"
     guidetolerance="10"
     inkscape:pageopacity="0"
     inkscape:pageshadow="2"
     inkscape:window-width="1396"
     inkscape:window-height="659"
     id="namedview3031"
     showgrid="false"
     fit-margin-top="0"
     fit-margin-left="0"
     fit-margin-right="0"
     fit-margin-bottom="0"
     inkscape:zoom="0.34510595"
     inkscape:cx="441.23977"
     inkscape:cy="460.90058"
     inkscape:window-x="1104"
     inkscape:window-y="402"
     inkscape:window-maximized="0"
     inkscape:current-layer="svg3029" />
  <path
     style="fill:#000000"
     d="m 2,181.99964 c 0,-1.99706 0.666667,-2 453,-2 452.33333,0 453,0.003 453,2 0,1.99706 -0.66667,2 -453,2 -452.333333,0 -453,-0.003 -453,-2 z m 910.99858,1.25 c -7.8e-4,-0.4125 2.33749,-6.0375 5.19617,-12.5 4.81704,-10.88969 5.39886,-11.75 7.9464,-11.75 h 2.74879 l -2.48259,5.61358 c -1.36543,3.08747 -3.36566,7.34455 -4.44497,9.46016 C 920.88307,176.189 920,178.16289 920,178.4598 c 0,0.29691 2.7,0.53984 6,0.53984 6.405,0 6.55574,0.0931 4.96482,3.06574 -0.8983,1.67848 -2.15454,1.93426 -9.5,1.93426 -4.65565,0 -8.46546,-0.3375 -8.46624,-0.75 z m 21.07322,0 c 0.0395,-0.4125 2.42141,-5.925 5.29316,-12.25 4.63015,-10.19787 5.52785,-11.53583 7.92821,-11.81642 1.4888,-0.17403 2.7068,-0.11777 2.7068,0.12504 0,0.24281 -2.0102,4.7727 -4.46722,10.06642 l -4.46724,9.62496 h 6.44576 6.4459 l -1.1391,2.5 c -1.09,2.39221 -1.5202,2.5 -9.97859,2.5 -4.86171,0 -8.80717,-0.3375 -8.76768,-0.75 z m 23.00097,-1.39684 c -1.9797,-1.84435 -2.2171,-2.78317 -1.6853,-6.66314 0.7797,-5.68896 3.0833,-9.64613 7.8652,-13.51101 6.8753,-5.55691 17.4764,-3.75294 16.5351,2.81373 -0.4029,2.81039 -4.3608,3.24788 -5.0638,0.55973 -0.3897,-1.49019 -1.3524,-2.05247 -3.514,-2.05247 -4.5272,0 -10.21,6.68063 -10.21,12.00288 0,3.09498 0.395,4.02386 1.75,4.1156 3.2087,0.21724 4.7331,-0.27605 6.8145,-2.20513 1.1354,-1.05234 3.2767,-1.91335 4.7585,-1.91335 2.3897,0 2.5609,0.2131 1.5158,1.88662 -0.6481,1.03765 -2.9919,3.06265 -5.2087,4.5 -5.0431,3.27 -10.352,3.45269 -13.5573,0.46654 z M 2,176.00219 c 0,-1.98879 0.832765,-1.99854 192.18139,-2.25 l 192.18139,-0.25255 4.27734,-9.81028 4.27734,-9.81028 -3.06934,0.31028 c -2.85414,0.28852 -3.28745,0.88874 -6.1799,8.56028 l -3.11055,8.25 h -7.79226 -7.79225 l 1.60728,-3.75 C 370.86841,161.9115 373,155.90904 373,154.80436 c 0,-0.5191 -1.0125,-0.80002 -2.25,-0.62427 -1.71153,0.24307 -3.20729,2.28694 -6.25,8.54021 l -4,8.22065 -7.70111,0.0294 -7.70111,0.0293 1.73958,-3.75 c 0.95676,-2.0625 2.73476,-5.64457 3.95111,-7.96016 1.21634,-2.31559 2.21153,-4.46737 2.21153,-4.78174 0,-0.31436 -5.25078,-0.44479 -11.6684,-0.28984 -8.23784,0.19891 -11.7904,0.64925 -12.08334,1.53174 -0.3103,0.93482 1.73867,1.25 8.12619,1.25 h 8.54112 l -2.87854,6.75 -2.87854,6.75 -17.06345,0.27355 -17.06344,0.27354 0.87508,-2.27354 c 0.4813,-1.25045 2.04919,-4.91704 3.48421,-8.14798 1.43501,-3.23095 2.60911,-6.04345 2.60911,-6.25001 0,-0.20656 -6.48224,-0.37557 -14.40498,-0.37557 h -14.40498 l -2.5568,4.36285 c -3.56624,6.08534 -8.7042,10.28377 -14.80065,12.09422 -8.92129,2.64934 -19.74623,1.44134 -21.82082,-2.43508 -1.28402,-2.39922 -1.30228,-8.12769 -0.0365,-11.45689 0.91024,-2.39413 0.77865,-2.5651 -1.97432,-2.5651 -2.26292,0 -3.30909,0.69524 -4.49395,2.9865 -4.54516,8.78936 -12.31641,13.9877 -22.0829,14.77166 -13.66915,1.09723 -19.15041,-4.88392 -14.81925,-16.17074 0.47348,-1.23388 -0.0633,-1.58742 -2.41009,-1.58742 -2.86018,0 -3.19506,0.44759 -6.35699,8.49639 l -3.33775,8.49638 -7.76342,0.004 -7.76342,0.004 1.59695,-3.75 c 0.87832,-2.0625 2.45279,-5.8875 3.49883,-8.5 l 1.90188,-4.75 h -2.82939 c -2.61639,0 -3.08578,0.63935 -6.23541,8.49301 l -3.40602,8.493 -7.76342,0.007 -7.76342,0.007 1.59695,-3.75 c 0.87832,-2.0625 2.45279,-5.8875 3.49883,-8.5 l 1.90188,-4.75 h -3.34233 c -3.26989,0 -3.41355,0.18422 -6.62849,8.5 l -3.28616,8.5 h -7.82353 -7.82352 l 3.4666,-8.21964 c 1.90664,-4.5208 3.46661,-8.3458 3.46661,-8.5 0,-0.1542 -1.10389,-0.28036 -2.45308,-0.28036 -1.84776,0 -2.88831,0.91716 -4.21684,3.71684 -2.91246,6.13754 -8.56413,11.00462 -14.92631,12.85416 -6.90958,2.00867 -16.03065,1.55872 -19.908434,-0.9821 -2.65363,-1.73872 -2.73179,-2.04002 -2.25563,-8.69502 l 0.49323,-6.89466 h -2.77145 c -2.21009,0 -3.2841,0.87476 -5.30236,4.31865 -5.49495,9.37642 -13.00667,13.68135 -23.87277,13.68135 -11.7459,0 -15.35861,-4.83406 -12.14433,-16.25 0.3904,-1.38656 -0.12872,-1.75 -2.49961,-1.75 -2.931495,0 -3.030019,0.16772 -4.846208,8.25 l -1.853878,8.25 -8.80129,0.2901 c -8.597973,0.2834 -8.785587,0.24062 -8.121498,-1.85173 0.373886,-1.17801 1.510814,-5.04777 2.526507,-8.59947 l 1.846715,-6.45762 -3.05597,0.30936 c -2.81579,0.28505 -3.302788,0.93811 -6.196392,8.30936 l -3.140422,8 -8.25,0.29044 C 3.7125,170.94983 0,170.89922 0,170.67762 c 0,-0.2216 1.35,-3.67669 3,-7.67798 3.551424,-8.61229 3.594503,-9 1,-9 -1.619048,0 -2,-0.66667 -2,-3.5 0,-3.40064 0.110522,-3.5 3.893011,-3.5 2.627427,0 4.090338,-0.51423 4.5,-1.58179 0.924955,-2.41039 0.912369,-2.41821 -3.893011,-2.41821 -4.333333,0 -4.5,-0.11111 -4.5,-3 0,-2.98772 0.0237,-3 5.786749,-3 h 5.78675 l 7.588743,-18.75 7.588744,-18.75 12.655826,-0.28011 c 14.061324,-0.31122 19.984754,0.77472 21.699154,3.97811 3.08478,5.76397 -2.87333,23.12487 -10.28428,29.96662 l -4.15447,3.83538 h 4.71742 c 4.50854,0 4.78617,-0.16605 6.27011,-3.75 5.57486,-13.46416 9.9731,-19.97195 15.3916,-22.77397 8.16516,-4.22237 21.33282,-4.18777 25.587824,0.0672 3.22721,3.2272 3.00126,7.11232 -1.029784,17.70673 l -3.32927,8.75 h 3.25004 c 3.116514,0 3.379294,-0.3184 6.396124,-7.75 5.99243,-14.76165 12.06985,-20.23039 24.16086,-21.74106 6.17374,-0.77136 12.90241,0.61847 15.48174,3.19779 2.24336,2.24337 1.54744,10.07336 -1.56213,17.57575 l -2.36978,5.71756 h -7.8294 -7.82941 l 1.60047,-3.75 c 4.09618,-9.59764 4.34393,-11.25803 1.67637,-11.23469 -3.08494,0.027 -4.21251,1.45652 -7.73295,9.80381 l -3.45026,8.18088 13.7166,-0.004 13.71661,-0.004 1.91007,-4.74625 c 1.05054,-2.60994 4.51522,-11.04575 7.69929,-18.74575 l 5.78921,-14 7.67895,-0.29437 c 9.05999,-0.34732 8.98948,-2.32572 0.62525,17.54437 -3.29916,7.8375 -5.62946,14.25 -5.17843,14.25 1.74318,0 9.09291,-9.81765 12.16514,-16.25 l 3.22395,-6.75 h 7.80768 7.80768 l -3.11493,6.25 c -1.7132,3.4375 -5.09468,8.7995 -7.51439,11.91555 -2.6595,3.42485 -4.39947,6.71042 -4.39947,8.30749 0,2.48484 0.24941,2.62367 4.19371,2.33446 l 4.19371,-0.3075 6.03343,-14.25 6.03344,-14.25 h 7.73493 7.73492 l -3.5834,8.25 C 208.64675,124.75423 204,136.14145 204,136.68925 c 0,0.17072 1.27845,0.31039 2.84101,0.31039 2.58657,0 3.09734,-0.63674 5.70316,-7.10973 6.52238,-16.20192 13.83112,-22.16791 27.34002,-22.31717 15.35303,-0.16964 17.74003,5.65252 9.7368,23.74923 l -2.51093,5.67767 h 6.48015 c 6.09686,0 6.41893,-0.11441 5.44497,-1.93426 -2.83998,-5.30656 1.35132,-16.99881 7.97447,-22.24594 4.53502,-3.59282 15.2678,-6.3052 21.34398,-5.39402 9.19016,1.37815 11.4909,5.95553 7.95377,15.82422 l -1.70249,4.75 h -7.81587 -7.81588 l 1.50678,-3.60623 c 2.28074,-5.45858 -0.39109,-7.48262 -4.47994,-3.39377 -2.93202,2.93202 -2.54066,4.24726 3.10034,10.41941 l 5.10035,5.58059 h 18.26217 18.26218 l 8.27496,-19 8.27496,-19 h 16.46951 c 12.77395,0 16.35801,0.28048 15.9726,1.25 -0.27329,0.6875 -1.55894,3.83687 -2.85698,6.99861 l -2.36009,5.7486 -8.5,0.005 -8.5,0.005 -1.71524,4.24625 c -3.42398,8.47639 -3.8647,7.74625 4.67564,7.74625 8.48968,0 8.53845,0.0715 4.91291,7.20034 -2.20668,4.33927 -1.77648,4.79995 4.48209,4.79995 h 5.85539 l 0.59671,-6.38998 c 0.32818,-3.51449 1.80288,-10.03949 3.27709,-14.5 l 2.68039,-8.11002 h 7.79766 7.79765 l -2.7989,7.75 c -2.77163,7.67449 -4.59662,15.25 -3.67382,15.25 0.71693,0 10.10097,-16.01302 11.574,-19.75 l 1.28107,-3.25 h 7.89553 7.89552 l -2.65331,5.25 c -2.60611,5.15659 -9.276,15.58143 -13.43596,21 l -2.11123,2.75 5.3334,-0.0277 5.33341,-0.0277 6.16743,-14.22227 6.16742,-14.22227 7.66855,-0.29361 c 5.81428,-0.22262 7.48719,-1.8e-4 6.91853,0.91994 -0.54383,0.87993 -0.22383,0.98859 1.16403,0.39526 5.26404,-2.25047 11.01113,-2.82373 13.95514,-1.39201 2.77644,1.35023 2.94953,1.776 2.80699,6.90469 -0.10697,3.8486 -1.20237,7.83268 -3.70233,13.46573 -3.47945,7.8401 -3.50751,8.00689 -1.40411,8.34497 1.19703,0.1924 2.69624,-0.40712 3.38972,-1.35552 1.09965,-1.50385 6.34388,-13.00004 10.82926,-23.73945 l 1.56621,-3.75 h 7.09357 c 5.89532,0 6.99631,0.25344 6.51782,1.50037 -0.51183,1.33382 -0.17714,1.33382 3.01514,0 5.10763,-2.13411 12.61498,-1.96631 14.69164,0.32837 2.47913,2.73941 2.03382,6.37297 -1.95814,15.97787 -1.98722,4.78136 -3.83536,9.25589 -4.10699,9.94339 -0.29996,0.75922 0.32813,1.25 1.59971,1.25 1.41653,0 2.53306,-1.05101 3.4526,-3.25 5.73339,-13.71091 11.48281,-21.39238 18.07257,-24.14576 8.04552,-3.36163 20.19702,-2.8596 24.05024,0.99361 2.44533,2.44534 1.78854,8.222 -1.9733,17.35559 -1.91493,4.64939 -3.4817,8.58689 -3.4817,8.75 0,0.16311 1.73748,0.29656 3.86107,0.29656 h 3.86107 l -1.04686,-3.92205 c -0.79249,-2.9691 -0.71458,-4.92884 0.32067,-8.06567 1.56182,-4.73237 7.89945,-12.38971 12.01646,-14.5187 8.31553,-4.30013 21.35613,-4.21595 25.73822,0.16614 2.09806,2.09806 2.38537,3.08831 1.85621,6.39752 -0.34434,2.15338 -1.38009,5.49643 -2.30167,7.429 l -1.67559,3.5137 h -7.84047 -7.84047 l 1.52568,-2.95034 c 2.03625,-3.93767 1.92476,-6.04966 -0.31933,-6.04966 -2.33493,0 -5.15499,3.06081 -5.15499,5.59507 0,1.06567 2.15384,4.29274 4.7863,7.17126 l 4.78631,5.23367 h 9.24888 c 8.83422,0 9.20247,-0.0867 8.21369,-1.93426 -2.58962,-4.83876 -3.6e-4,-13.63353 5.8494,-19.86825 4.82585,-5.14343 11.2988,-7.5925 20.17948,-7.63498 12.72308,-0.0609 15.91221,3.80504 11.92785,14.45912 l -2.23576,5.97837 h -7.90376 -7.90375 l 1.52568,-2.95034 c 0.83912,-1.62269 1.52568,-3.64769 1.52568,-4.5 0,-2.01441 -3.40605,-2.00075 -5.42857,0.0218 -2.73289,2.73288 -1.83686,6.04671 3.07752,11.38171 l 4.64895,5.04683 18.10105,-0.003 18.10105,-0.003 8.71012,-18.74715 8.71012,-18.74715 11.28988,-0.30534 c 23.93551,-0.64736 27.18749,2.11102 21.05919,17.86275 -3.28423,8.44154 -8.51191,15.5784 -13.25371,18.09404 l -3.4844,1.84885 4.9844,-0.0348 4.9844,-0.0348 6.55643,-14.21522 6.55644,-14.21523 7.69356,-0.29206 c 4.23146,-0.16059 7.69357,-0.10434 7.69357,0.12504 0,0.22938 -2.925,6.5875 -6.5,14.12915 -3.575,7.54165 -6.5,13.8979 -6.5,14.12501 0,0.2271 1.50916,0.41291 3.35369,0.41291 3.33803,0 3.38463,-0.0666 9.97979,-14.25 l 6.62611,-14.25 7.14497,-0.29633 c 5.68723,-0.23587 7.03882,-0.0197 6.62468,1.05953 -0.39933,1.04065 0.77798,0.91755 5.0643,-0.5295 6.02004,-2.03235 11.14095,-1.72249 13.23512,0.80083 2.00171,2.41191 0.58909,9.35251 -3.81729,18.75548 -3.96524,8.46161 -4.01795,8.70999 -1.84829,8.70999 1.82098,0 3.02391,-1.63616 6.51502,-8.86141 4.34601,-8.99455 9.27601,-15.13268 14.19883,-17.67837 8.2371,-4.25957 21.30833,-4.16587 25.65814,0.18394 3.07831,3.07831 2.62848,6.48125 -2.31092,17.4817 -1.88328,4.19422 -3.42415,7.93661 -3.42415,8.31642 0,0.37981 1.17031,0.54817 2.60069,0.37414 2.31414,-0.28156 3.56472,-2.35481 11.34999,-18.81642 l 8.7493,-18.5 7.65001,-0.29206 C 816.5575,99.04694 820,99.14718 820,99.43026 c 0,0.28311 -3.57399,7.96563 -7.9422,17.07227 -10.18393,21.23097 -9.9648,20.49711 -6.12019,20.49711 2.9703,0 3.30242,-0.4818 9.99523,-14.5 l 6.92285,-14.5 h 7.57215 c 4.16469,0 7.57216,0.17758 7.57216,0.39463 0,0.42754 -8.77912,18.74743 -11.911,24.85537 l -1.92284,3.75 h 3.4626 3.46261 l 7.0437,-14.5 7.0437,-14.5 h 7.01761 c 5.85135,0 6.92119,0.25124 6.43747,1.51179 -0.49431,1.28814 -0.1033,1.26296 2.64301,-0.17022 4.62488,-2.4135 11.95775,-2.34127 14.70671,0.14487 2.93969,2.65863 2.18712,7.22067 -3.02643,18.34608 -2.17642,4.64438 -3.95714,8.60704 -3.95714,8.8059 0,0.19887 1.02042,0.36158 2.26759,0.36158 1.85632,0 2.96646,-1.47879 6.12086,-8.15345 4.46474,-9.44734 10.38855,-16.38902 16.19059,-18.97257 9.14731,-4.07313 21.81795,-3.25012 25.01202,1.62464 2.17665,3.32199 1.31431,6.73356 -5.11888,20.25138 l -5.35394,11.25 h -11.02393 c -10.04324,0 -11.12028,0.18002 -12.10691,2.02354 -1.06229,1.9849 -0.90296,2.01089 8.34283,1.36098 C 906.02331,145.49192 908,146.04903 908,150.51869 c 0,3.02201 -0.32119,3.48095 -2.43613,3.48095 -1.83722,0 -3.44851,1.44324 -6.55404,5.87048 -5.20977,7.42704 -11.64873,11.1751 -20.3735,11.85925 -7.75146,0.60782 -12.46255,-0.61638 -14.89145,-3.86962 -1.66421,-2.22902 -1.7615,-3.08469 -0.76958,-6.7684 0.62451,-2.31924 1.38369,-4.86366 1.68707,-5.65426 0.3846,-1.00223 -0.17024,-1.43745 -1.83252,-1.43745 -1.99456,0 -3.07298,1.38894 -6.5997,8.5 l -4.21557,8.5 h -7.56631 c -4.16147,0 -7.39042,-0.3375 -7.17544,-0.75 0.21497,-0.4125 1.20309,-2.55 2.19581,-4.75 0.99272,-2.2 2.65254,-5.6875 3.68848,-7.75 l 1.88353,-3.75 h -3.35448 c -3.23306,0 -3.49623,0.30624 -7.27033,8.45995 l -3.91584,8.45995 -7.76685,0.04 -7.76684,0.0401 2.40285,-4.75 c 1.32157,-2.6125 3.10619,-6.4375 3.96582,-8.5 l 1.56297,-3.75 h -3.305 c -3.15789,0 -3.48821,0.37831 -7.42168,8.5 l -4.1167,8.5 h -7.52728 c -4.14001,0 -7.52729,-0.23499 -7.52729,-0.5222 0,-0.28721 1.80502,-4.11221 4.01116,-8.5 l 4.01116,-7.9778 h -3.38649 c -3.26316,0 -3.53503,0.30956 -7.46508,8.5 l -4.07859,8.5 h -7.54608 c -6.79344,0 -8.63045,-0.5823 -6.99535,-2.21739 0.3029,-0.3029 2.08532,-3.7529 3.96095,-7.66667 l 3.41022,-7.11594 -2.71095,0.002 c -2.12462,0.001 -3.32641,0.97597 -5.55659,4.50603 -1.5651,2.47733 -4.4901,5.86445 -6.5,7.52693 -6.60065,5.45972 -19.27228,7.61413 -26.65089,4.53115 -4.80224,-2.00651 -5.47456,-5.31299 -2.91091,-14.3159 0.5187,-1.82155 0.24152,-2.25 -1.4556,-2.25 -1.42686,0 -2.72624,1.23476 -4.06884,3.86647 -5.80981,11.38818 -17.8218,17.49649 -24.79795,12.61021 -1.994,-1.39665 -2.26196,-1.36054 -3.22251,0.43426 -0.57621,1.07646 -1.04766,2.21195 -1.04766,2.52311 0,0.31116 46.8,0.56574 104,0.56574 103.33333,0 104,0.0128 104,2 0,1.99706 -0.66667,2 -453,2 -452.140501,0 -453,-0.004 -453,-1.99745 z m 687.18368,-12.02788 4.68369,-9.97467 h -3.47977 c -3.38021,0 -3.59645,0.24319 -7.55835,8.5 l -4.07859,8.5 h -7.37533 c -4.05643,0 -7.37533,-0.2231 -7.37533,-0.49577 0,-0.27268 1.575,-3.90554 3.5,-8.07303 1.925,-4.16749 3.5,-7.78246 3.5,-8.03325 0,-0.2508 -5.94849,-0.33044 -13.21886,-0.17698 l -13.21886,0.27903 -3.49174,8.25 -3.49174,8.25 h -8.26465 -8.26465 l 0.9189,-2.41689 c 0.5054,-1.32929 2.30074,-5.15429 3.98965,-8.5 l 3.07074,-6.08311 H 614.2418 599.45481 l -1.9039,3.53533 c -3.15174,5.85242 -9.74572,11.17472 -16.15212,13.03712 -6.80994,1.9797 -16.14844,1.47683 -20.05017,-1.07968 -2.35052,-1.54012 -2.53676,-2.14839 -2.0948,-6.84159 0.2668,-2.83315 0.81699,-5.93868 1.22263,-6.90118 0.58438,-1.38661 0.24809,-1.73845 -1.61946,-1.69438 -1.74702,0.0412 -3.31505,1.54609 -6.05906,5.81498 -5.41737,8.42787 -11.56497,11.61967 -22.39093,11.62524 -12.72951,0.007 -16.02564,-2.99486 -13.53119,-12.32132 0.65366,-2.44396 1.0069,-4.62514 0.78498,-4.84707 -0.22193,-0.22192 -1.87449,1.88884 -3.67236,4.69059 -1.79788,2.80174 -4.76048,6.23178 -6.58356,7.62232 -9.36968,7.1466 -28.18559,7.06583 -29.99131,-0.12875 -0.66742,-2.65922 -0.15937,-7.55523 1.11981,-10.79146 0.65635,-1.66053 -0.18643,-1.76109 -12.57146,-1.5 l -13.27497,0.27985 -3.55777,8.25 -3.55777,8.25 h -7.76046 -7.76045 l 3.47476,-7.62484 c 1.91111,-4.19367 3.47475,-8.01867 3.47475,-8.5 0,-0.48134 -1.125,-0.87516 -2.5,-0.87516 -1.375,0 -2.5,0.38023 -2.5,0.84496 0,0.46473 -1.8062,3.63951 -4.01378,7.05507 -2.99338,4.63134 -5.09072,6.69896 -8.25,8.13307 -5.13694,2.33185 -9.8388,2.48233 -13.78588,0.44122 C 404.32765,169.63484 403,169.37303 403,169.89217 c 0,0.51914 -0.27314,1.6557 -0.60699,2.52568 -0.55176,1.43786 12.25521,1.57949 140.75,1.55646 l 141.35699,-0.0253 4.68368,-9.97468 z M 71.443296,157.77713 c 2.20803,-3.1524 1.96386,-3.77749 -1.47552,-3.77749 -2.2259,0 -3.25835,0.59831 -3.88259,2.25 -0.4677,1.2375 -0.65164,2.5875 -0.40876,3 0.90339,1.53428 4.2614,0.67685 5.76687,-1.47251 z m 44.584554,-0.52749 2.17301,-2.75 -3.24557,-0.32418 c -3.36913,-0.33653 -4.91252,0.93636 -4.93998,4.07418 -0.0237,2.70955 3.55112,2.11499 6.01254,-1 z m 106.14341,1.09501 c 2.75982,-2.4976 2.27678,-4.34501 -1.13608,-4.34501 -2.81575,0 -5.03518,2.17495 -5.03518,4.93426 0,1.65146 4.13117,1.257 6.17126,-0.58925 z m 43.78978,-0.53357 c 2.83674,-3.04488 2.56441,-3.81144 -1.35405,-3.81144 -3.32769,0 -4.60699,1.2723 -4.60699,4.58179 0,2.16389 3.66913,1.68973 5.96104,-0.77035 z m 149.06681,-0.56144 2.17301,-2.75 -3.24557,-0.32418 c -3.36913,-0.33653 -4.91252,0.93636 -4.93998,4.07418 -0.0237,2.70955 3.55112,2.11499 6.01254,-1 z m 84.41545,0.52749 c 2.24444,-3.20438 1.96584,-3.77749 -1.83631,-3.77749 -3.32769,0 -4.60699,1.2723 -4.60699,4.58179 0,2.27192 4.69951,1.6853 6.4433,-0.8043 z m 38.72796,0.56752 c 2.77951,-2.51542 2.2759,-4.34501 -1.19601,-4.34501 -2.32674,0 -3.24981,0.59194 -4,2.5651 -0.53639,1.4108 -0.97525,2.7608 -0.97525,3 0,1.14389 4.55396,0.24355 6.17126,-1.22009 z m 43.27204,-0.56752 c 0.85618,-1.22237 1.5567,-2.57237 1.5567,-3 0,-0.99872 -6.99547,-1.02614 -7.01365,-0.0275 -0.008,0.4125 -0.285,1.7625 -0.61664,3 -0.51036,1.90441 -0.20978,2.25 1.95695,2.25 1.51174,0 3.19734,-0.91003 4.11664,-2.22251 z m 132,0 c 2.20803,-3.1524 1.96386,-3.77749 -1.47552,-3.77749 -2.22591,0 -3.25835,0.59831 -3.88259,2.25 -0.4677,1.2375 -0.65164,2.5875 -0.40876,3 0.90339,1.53428 4.2614,0.67685 5.76687,-1.47251 z m 42.58455,-0.52749 2.17301,-2.75 -3.30629,-0.32871 C 751.55316,153.83872 749,155.79644 749,158.69077 c 0,2.39658 4.76792,1.41887 7.02785,-1.44113 z m 129.41545,0.52749 c 2.24444,-3.20438 1.96584,-3.77749 -1.83631,-3.77749 -3.32769,0 -4.60699,1.2723 -4.60699,4.58179 0,2.27192 4.69951,1.6853 6.4433,-0.8043 z M 31.289749,144.99964 c 0.410557,-1.56997 0.03068,-2 -1.766737,-2 -1.448745,0 -2.481847,0.73458 -2.812761,2 -0.410557,1.56997 -0.03068,2 1.766737,2 1.448745,0 2.481847,-0.73458 2.812761,-2 z m 23.742797,-0.0608 c 1.0437,-1.95017 0.87158,-2.04412 -3.20619,-1.75 -3.15697,0.22771 -4.39786,0.77871 -4.64105,2.06081 -0.51614,2.72099 6.37065,2.44823 7.84724,-0.31081 z m 22.2572,0.0608 c 0.44742,-1.71094 0.0307,-2 -2.88337,-2 -1.87351,0 -3.40638,0.1882 -3.40638,0.41821 0,0.23002 -0.27314,1.13002 -0.60699,2 -0.48204,1.2562 0.11147,1.58179 2.88337,1.58179 2.64936,0 3.61638,-0.4819 4.01337,-2 z m 21.71025,1.58179 c 0,-0.23002 0.27314,-1.13002 0.60699,-2 0.482054,-1.2562 -0.11146,-1.58179 -2.88337,-1.58179 -2.64935,0 -3.61637,0.4819 -4.01337,2 -0.44742,1.71094 -0.0307,2 2.88337,2 1.87351,0 3.40638,-0.1882 3.40638,-0.41821 z m 42.823324,-1.92251 c 0.2883,-1.47952 -1.13451,-1.65928 -13.13336,-1.65928 -12.10078,0 -13.50397,0.18077 -13.92585,1.79405 -0.43546,1.6652 0.50786,1.78438 13.13337,1.65929 11.80853,-0.117 13.64516,-0.35362 13.92584,-1.79406 z m 20.8316,0.79759 c 0.32569,-0.84872 0.36972,-1.76557 0.0978,-2.03744 -0.69264,-0.69264 -5.75276,1.71841 -5.75276,2.74109 0,1.50854 5.04701,0.88054 5.65492,-0.70365 z m 22.17366,-0.7767 c 0.28657,-1.51178 -0.21848,-1.76569 -2.98362,-1.5 -2.26902,0.21802 -3.43839,0.89912 -3.67354,2.13966 -0.28657,1.51178 0.21848,1.76569 2.98362,1.5 2.26902,-0.21802 3.43839,-0.89912 3.67354,-2.13966 z m 21.2082,0.2511 c 1.02708,-1.9191 0.86748,-2.04567 -2.20663,-1.75 -2.2012,0.21172 -3.42507,0.90628 -3.64528,2.06873 -0.49402,2.60783 4.42917,2.33969 5.85191,-0.31873 z m 43.60286,0.76242 c 1.13044,-1.13043 15.56444,-0.83291 14.86036,0.30631 -0.33992,0.55 0.30852,1 1.44098,1 2.32115,0 2.63524,-1.02378 0.85902,-2.8 -0.85994,-0.85994 -7.37778,-1.2 -23,-1.2 -11.99,0 -21.8,0.1882 -21.8,0.41821 0,0.23002 -0.23484,1.0302 -0.52187,1.77819 -0.4256,1.10909 2.05976,1.34438 13.47298,1.27548 7.69716,-0.0465 14.307,-0.39666 14.68853,-0.77819 z m 67.65011,-0.69369 c 0.50682,-1.9381 0.0307,-2 -15.38337,-2 -15.23971,0 -15.90638,0.0838 -15.90638,2 0,1.91333 0.66667,2 15.38337,2 14.54236,0 15.41196,-0.10934 15.90638,-2 z m 41.71025,0 c 1.04469,-1.95203 0.76049,-2 -11.84818,-2 -12.07755,0 -12.95261,0.1302 -13.44157,2 -0.5022,1.92041 -0.0307,2 11.84819,2 11.34774,0 12.45974,-0.16546 13.44156,-2 z m 16.98469,-0.80902 c -0.0132,-1.45727 -0.14929,-1.48367 -0.98469,-0.19098 -1.2656,1.95837 -1.2656,3.28218 0,2.5 0.55,-0.33992 0.99311,-1.37898 0.98469,-2.30902 z m 22.83032,0.55902 c 0.27185,-1.43453 -0.40266,-1.75 -3.74169,-1.75 -3.44643,0 -4.07332,0.31709 -4.07332,2.06037 0,1.76868 0.5297,2.01642 3.74168,1.75 2.61495,-0.21691 3.84155,-0.83735 4.07333,-2.06037 z m 22,0 c 0.50686,-2.67462 -5.39484,-2.40362 -6.84954,0.31452 -1.03675,1.93718 -0.8698,2.04512 2.7065,1.75 2.67951,-0.22112 3.90989,-0.83423 4.14304,-2.06452 z m 20.99976,0 c 0.2464,-1.29928 -0.3309,-1.75 -2.24145,-1.75 -1.41532,0 -2.57332,0.1882 -2.57332,0.41821 0,0.23002 -0.28691,1.16588 -0.63757,2.0797 -0.51799,1.34986 -0.0976,1.59965 2.24145,1.33179 1.77849,-0.20367 3.00588,-0.99865 3.21089,-2.0797 z m 41.47498,0.25 c 0.50301,-1.9235 0.0307,-2 -12.34819,-2 -11.84774,0 -12.9563,0.15903 -13.94156,2 -1.04565,1.95381 -0.76049,2 12.34818,2 12.57755,0 13.45134,-0.12535 13.94157,-2 z m 38.70502,0.75 c 0.003,-0.4125 3.63179,-0.75 8.06425,-0.75 5.11803,0 7.83347,0.36493 7.44098,1 -0.33992,0.55 0.32436,1 1.47617,1 1.78432,0 1.93582,-0.29594 1.02383,-2 -1.0155,-1.89747 -2.09382,-2 -21.03518,-2 -10.98065,0 -19.96482,0.1882 -19.96482,0.41821 0,0.23002 -0.2497,1.06891 -0.55488,1.86421 -0.46653,1.21576 1.36374,1.42782 11.49477,1.33179 6.62731,-0.0628 12.05201,-0.45171 12.05488,-0.86421 z m 43.00523,0.25 c 0,-0.58394 3.35301,-1 8.05902,-1 5.11803,0 7.83347,0.36493 7.44098,1 -0.33992,0.55 0.31234,1 1.44946,1 1.81716,0 1.91626,-0.24215 0.81847,-2 -1.12888,-1.80763 -2.33203,-2 -12.50848,-2 -10.59278,0 -11.25945,0.11842 -11.25945,2 0,1.55556 0.66667,2 3,2 1.65,0 3,-0.45 3,-1 z m 68,-1 c 1.04968,-1.96135 0.76049,-2 -14.96482,-2 -15.36851,0 -16.03518,0.0832 -16.03518,2 0,1.9109 0.66667,2 14.96482,2 13.94136,0 15.03802,-0.13678 16.03518,-2 z m 42.39301,0.41821 C 675.72686,144.54787 676,143.63481 676,143.38883 c 0,-0.24598 -5.95694,-0.32168 -13.23765,-0.16822 -11.68233,0.24625 -13.2771,0.48464 -13.57333,2.02903 -0.30574,1.59395 0.82057,1.75 12.63067,1.75 10.90111,0 13.06301,-0.25194 13.57332,-1.58179 z M 698,144.99964 c 0.9756,-1.82293 0.76049,-2 -2.42963,-2 -2.47655,0 -3.813,0.58483 -4.57037,2 -0.9756,1.82293 -0.76049,2 2.42963,2 2.47655,0 3.813,-0.58483 4.57037,-2 z m 22,0 c 0.96969,-1.81189 0.76049,-2 -2.22427,-2 -2.21163,0 -3.70521,0.65744 -4.54366,2 -1.159,1.85586 -0.99869,2 2.22427,2 2.44984,0 3.78869,-0.58933 4.54366,-2 z m 20,0 c 0.93954,-1.75554 0.76049,-2 -1.46482,-2 -1.39435,0 -2.53518,0.1882 -2.53518,0.41821 0,0.23002 -0.27314,1.13002 -0.60699,2 -0.92275,2.40465 3.30147,2.02118 4.60699,-0.41821 z m 43.17368,-0.34587 c 0.84179,-1.50419 -0.34466,-1.65413 -13.08881,-1.65413 -12.43177,0 -14.12246,0.20172 -14.97043,1.78616 -0.89814,1.67819 -0.10701,1.77818 13.08881,1.65413 11.93717,-0.11221 14.18364,-0.38025 14.97043,-1.78616 z M 805,144.99964 c 0.97654,-1.82469 0.76049,-2 -2.46482,-2 -1.94435,0 -3.53518,0.1882 -3.53518,0.41821 0,0.23002 -0.27314,1.13002 -0.60699,2 -0.96854,2.52397 5.2428,2.1308 6.60699,-0.41821 z m 22,1.58179 c 0,-0.23002 0.27314,-1.13002 0.60699,-2 0.48436,-1.26222 -0.12174,-1.58179 -3,-1.58179 -1.98385,0 -3.60699,0.1882 -3.60699,0.41821 0,0.23002 -0.27314,1.13002 -0.60699,2 -0.48436,1.26222 0.12174,1.58179 3,1.58179 1.98385,0 3.60699,-0.1882 3.60699,-0.41821 z m 22,0 c 0,-0.23002 0.27314,-1.13002 0.60699,-2 0.48205,-1.2562 -0.11146,-1.58179 -2.88337,-1.58179 -2.64935,0 -3.61638,0.4819 -4.01337,2 -0.44742,1.71094 -0.0307,2 2.88337,2 1.87351,0 3.40638,-0.1882 3.40638,-0.41821 z m 20,0 c 0,-0.23002 0.27314,-1.13002 0.60699,-2 0.45336,-1.18143 -0.0233,-1.58179 -1.88337,-1.58179 -1.64935,0 -2.66698,0.67541 -3.01337,2 -0.41601,1.59081 -0.0307,2 1.88337,2 1.32351,0 2.40638,-0.1882 2.40638,-0.41821 z M 83.776816,128.94685 c 1.80178,-4.42903 3.01253,-8.47903 2.69056,-9 -0.94498,-1.52901 -3.36323,-1.09171 -5.08538,0.91961 -1.25536,1.46616 -7.382,14.62435 -7.382,15.85433 0,0.15337 1.46269,0.27885 3.25042,0.27885 3.12693,0 3.37489,-0.30595 6.5264,-8.05279 z m 343.788254,0.61833 c 1.88921,-4.08895 3.43493,-8.13895 3.43493,-9 0,-2.1059 -3.31412,-1.98929 -5.24245,0.18446 C 424.46949,122.20163 418,135.45186 418,136.63796 c 0,0.19892 1.37928,0.36168 3.06507,0.36168 2.83722,0 3.32041,-0.55266 6.5,-7.43446 z M 470.75,129.23612 c 1.7875,-4.25557 3.25,-8.2997 3.25,-8.98694 0,-1.38111 -2.81967,-1.6513 -4.70804,-0.45114 -1.0082,0.64076 -8.29196,15.36033 -8.29196,16.757 0,0.24453 1.4625,0.43873 3.25,0.43155 3.10342,-0.0125 3.39658,-0.36203 6.5,-7.75047 z m 256.6426,-0.40053 c 3.77447,-8.37525 3.70939,-10.63787 -0.26964,-9.37498 -1.29594,0.41132 -3.26708,3.17804 -5.236,7.34934 -1.7367,3.67933 -3.56257,7.47719 -4.05749,8.43969 -0.77107,1.49957 -0.41445,1.75 2.492,1.75 3.27836,0 3.51493,-0.27313 7.07113,-8.16405 z m 129.64432,-0.035 c 2.33229,-4.82289 3.59654,-8.56748 3.07024,-9.09378 -2.18031,-2.18031 -4.77512,0.11157 -8.82285,7.79284 -2.31864,4.4 -4.23114,8.3375 -4.25,8.75 -0.0189,0.4125 1.33188,0.75 3.00166,0.75 2.81205,0 3.32842,-0.60474 7.00095,-8.19906 z m -620.72213,-2.33487 c 2.2015,-4.61659 2.17668,-7.47037 -0.0648,-7.45076 -0.9625,0.008 -2.25205,0.34592 -2.86567,0.75 -1.04256,0.68655 -5.38433,8.5042 -5.38433,9.69485 0,0.29691 1.49165,0.53984 3.31479,0.53984 2.80981,0 3.57151,-0.53836 5,-3.53393 z M 514.25,125.73538 c 2.12081,-5.15872 2.19849,-6.73574 0.33179,-6.73574 -3.08319,0 -4.77721,1.45213 -7.14503,6.12479 l -2.47045,4.87521 3.76684,-0.004 c 3.49057,-0.003 3.8952,-0.31596 5.51685,-4.26051 z m 256.72968,0.3041 c 2.37207,-4.64964 2.5765,-7.03984 0.60211,-7.03984 -3.08319,0 -4.77721,1.45213 -7.14503,6.12479 l -2.47045,4.87521 h 3.49652 c 3.06664,0 3.74491,-0.48689 5.51685,-3.96016 z m 130,0 c 3.18192,-6.23709 2.40628,-8.27639 -2.44049,-6.41651 -1.58691,0.60896 -5.53919,7.2709 -5.53919,9.33683 0,0.57191 1.34085,1.03984 2.97968,1.03984 2.46451,0 3.32897,-0.68467 5,-3.96016 z M 42.440093,124.06584 c 2.15347,-2.37956 4.519393,-9.0082 3.843713,-10.76899 -0.774682,-2.0188 -6.951562,-1.64807 -7.544235,0.45279 -0.27153,0.9625 -1.442447,4.1125 -2.602039,7 l -2.108348,5.25 h 3.33042 c 2.022428,0 4.017745,-0.75948 5.080489,-1.9338 z m 624.062057,-0.66302 c 2.69016,-2.90273 4.97568,-8.82102 4.00993,-10.38363 -0.34656,-0.56075 -1.97238,-1.01955 -3.61292,-1.01955 -2.70969,0 -3.25367,0.60369 -5.94098,6.59322 -1.627,3.62627 -2.95818,6.77627 -2.95818,7 0,0.22373 1.37149,0.40678 3.04775,0.40678 1.99672,0 3.87769,-0.89552 5.4544,-2.59682 z m -463.80076,-20.90318 1.66903,-3.5 h 7.31479 c 4.02314,0 7.31479,0.42883 7.31479,0.95295 0,0.52412 -0.52223,2.09912 -1.16052,3.5 -1.09964,2.41346 -1.57084,2.54705 -8.98382,2.54705 h -7.8233 z M 694,105.44998 c 0,-0.30231 0.68656,-1.87731 1.52568,-3.5 1.48304,-2.86788 1.73457,-2.95034 9,-2.95034 4.11088,0 7.47432,0.24735 7.47432,0.54966 0,0.30231 -0.68656,1.87731 -1.52568,3.5 -1.48304,2.86788 -1.73457,2.95034 -9,2.95034 -4.11088,0 -7.47432,-0.24735 -7.47432,-0.54966 z m 130,0 c 0,-0.30231 0.68656,-1.87731 1.52568,-3.5 1.48304,-2.86788 1.73457,-2.95034 9,-2.95034 4.11088,0 7.47432,0.24735 7.47432,0.54966 0,0.30231 -0.68656,1.87731 -1.52568,3.5 -1.48304,2.86788 -1.73457,2.95034 -9,2.95034 -4.11088,0 -7.47432,-0.24735 -7.47432,-0.54966 z M 307.18576,99.94471 c -1.27284,-0.51048 -2.10352,-1.26946 -1.84596,-1.68661 0.25755,-0.41715 -0.59607,-0.82227 -1.89694,-0.90026 -1.30088,-0.078 -3.75153,-1.20299 -5.4459,-2.49999 -8.3043,-6.3568 -17.34783,-14.37949 -24.49898,-21.73351 -4.34531,-4.46858 -8.30302,-8.1247 -8.7949,-8.1247 -0.49189,0 -2.25291,-0.96738 -3.91339,-2.14975 -1.66048,-1.18236 -4.42995,-2.47032 -6.15437,-2.86213 L 251.5,59.27539 254,58.26892 c 2.60778,-1.04987 5.33507,-0.62044 4.51249,0.71051 -0.26181,0.42362 0.5927,0.77021 1.89892,0.77021 1.62342,0 2.29946,-0.5142 2.13643,-1.625 -0.13117,-0.89375 -0.7581,-1.68125 -1.39317,-1.75 -2.50169,-0.27082 -2.58659,-0.49011 -0.73277,-1.89274 1.86157,-1.40849 1.83018,-1.53324 -1,-3.97422 -1.60704,-1.38605 -3.71593,-2.77477 -4.68642,-3.08606 -0.97049,-0.31128 -1.50643,-0.98357 -1.19098,-1.49397 0.31544,-0.5104 0.13448,-0.92801 -0.40215,-0.92801 -0.53663,0 -1.1558,0.54034 -1.37593,1.20075 -0.31144,0.93433 -0.56491,0.93433 -1.14235,0 -0.40816,-0.66041 -0.27967,-1.20075 0.28553,-1.20075 0.5652,0 0.78608,-0.62948 0.49084,-1.39884 -0.29523,-0.76937 -0.0613,-1.69274 0.51993,-2.05194 0.6431,-0.39746 0.82362,-0.0456 0.46119,0.89885 -0.32755,0.85356 -0.13721,1.55193 0.42297,1.55193 1.37836,0 0.89093,-2.72738 -0.76136,-4.26012 -1.06433,-0.98732 -1.19283,-0.98526 -0.63086,0.0101 0.38815,0.6875 0.22917,1.30625 -0.35329,1.375 -1.11042,0.13107 -2.54469,0.45807 -3.80902,0.86842 -0.4125,0.13388 -1.16367,0.16474 -1.66927,0.0686 -0.5056,-0.0962 -0.3334,0.5311 0.38268,1.39391 1.06623,1.28474 1.59476,1.34021 2.91927,0.30643 1.41747,-1.10635 1.45697,-1.05723 0.31965,0.39757 -1.09781,1.40425 -0.98328,1.88012 0.74364,3.0897 1.12272,0.78638 1.74417,1.72692 1.381,2.09009 -1.21689,1.21689 1.25473,0.67638 2.6965,-0.58969 0.7829,-0.6875 0.5402,-0.125 -0.53935,1.25 -1.07954,1.375 -2.06202,2.66942 -2.18329,2.87649 -0.53221,0.90878 -6.27259,0.97821 -6.82613,0.0826 -0.33709,-0.54542 -1.10133,-0.68981 -1.69831,-0.32086 -0.65322,0.40371 -0.79728,0.20462 -0.3618,-0.5 0.39798,-0.64395 1.25501,-0.8521 1.90451,-0.46255 0.67274,0.40349 0.59031,-0.0198 -0.19154,-0.98369 -1.20995,-1.49163 -1.11417,-1.69196 0.80901,-1.69196 1.19981,0 1.92337,0.41761 1.60793,0.92801 -0.5317,0.8603 3.19958,2.67331 3.93769,1.9133 0.18231,-0.18772 -1.18488,-2.14131 -3.0382,-4.34131 l -3.36967,-4 -1.13499,3.25 c -1.15216,3.2992 -2.31965,4.06168 -3.441,2.2473 -0.40852,-0.661 -1.32171,-0.62701 -2.6797,0.0998 -1.49394,0.79954 -1.87322,0.80028 -1.38029,0.003 0.41387,-0.66965 -0.22336,-1.14514 -1.62932,-1.21577 -1.7137,-0.0861 -1.85467,-0.23452 -0.54678,-0.57568 0.96924,-0.25283 1.53129,-0.83338 1.24901,-1.29012 -0.89709,-1.45152 -4.67169,0.12132 -4.06781,1.69501 0.30611,0.7977 0.55656,1.62444 0.55656,1.8372 0,0.21275 0.7875,0.1335 1.75,-0.17612 1.29788,-0.41751 1.40807,-0.31784 0.42653,0.3858 -0.7279,0.52182 -2.41347,0.8291 -3.74569,0.68286 -3.07339,-0.33737 -4.33447,1.50799 -1.53146,2.24099 1.15534,0.30213 2.10062,0.99499 2.10062,1.53968 0,0.5447 -0.64593,0.74249 -1.43539,0.43955 -0.78947,-0.30295 -1.61629,-0.0136 -1.83738,0.64301 -0.29898,0.88792 -0.82801,0.84215 -2.06461,-0.17862 -1.42963,-1.18012 -1.68014,-1.14508 -1.78762,0.25 -0.13469,1.74823 -0.50219,3.47009 -0.82651,3.87244 -0.11083,0.1375 -0.36359,1.15 -0.56169,2.25 -0.35762,1.98579 -0.34982,1.986 1.09857,0.0287 0.80232,-1.08422 1.23795,-2.54672 0.96808,-3.25 -0.58808,-1.53251 1.61939,-1.70585 3.08314,-0.2421 1.45636,1.45635 6.36341,2.21436 6.36341,0.98297 0,-1.58093 8.14147,-1.20151 9.98322,0.46525 0.90238,0.81665 3.75031,1.56461 6.32874,1.66213 3.15961,0.11952 4.68804,0.61351 4.68804,1.5152 0,0.95298 -1.5629,1.33786 -5.43261,1.33786 -4.41712,0 -5.54291,-0.34751 -6.02267,-1.85911 -0.52048,-1.63987 -1.54166,-1.82844 -8.65927,-1.59906 -7.13816,0.23004 -8.38222,0.55993 -10.78205,2.85911 -1.49206,1.42949 -3.23488,2.59906 -3.87294,2.59906 -0.63805,0 -1.69329,1.0125 -2.34498,2.25 -1.3245,2.51511 -2.795,3.71187 -4.58897,3.73469 -0.82785,0.0105 -0.68021,-0.89645 0.47303,-2.90586 0.92209,-1.60665 2.02616,-2.70509 2.45349,-2.44098 0.42734,0.2641 0.77697,-0.0445 0.77697,-0.68582 0,-0.6413 -0.64593,-0.91814 -1.43539,-0.61519 -0.78947,0.30295 -1.69446,0.0136 -2.01109,-0.64301 -0.31663,-0.65661 -0.38784,-0.18133 -0.15823,1.05617 0.22961,1.2375 -0.017,2.25 -0.54793,2.25 -0.53097,0 -0.68728,0.45 -0.34736,1 0.33992,0.55 0.25398,1.01001 -0.19098,1.02224 -0.44496,0.0122 -1.93402,0.94243 -3.30902,2.06712 -2.40537,1.96747 -2.41159,2.00141 -0.16435,0.89674 3.12208,-1.53472 3.79667,-0.61842 1.34768,1.83057 -1.44242,1.44243 -2.28333,1.68333 -3.08333,0.88333 -1.7143,-1.7143 -1.31364,-3.25942 1.36728,-5.2727 1.357,-1.01906 2.73317,-2.9946 3.05815,-4.39007 0.57528,-2.47028 9.11576,-9.78584 10.7989,-9.25007 0.45338,0.14432 0.51338,-0.24073 0.13334,-0.85565 -0.38566,-0.624 1.1981,-3.04291 3.58408,-5.47404 l 4.27507,-4.35599 -2.40841,-0.94465 c -1.32462,-0.51956 -5.95403,-1.39737 -10.28756,-1.95069 -4.33353,-0.55332 -8.17041,-1.4773 -8.52639,-2.0533 -0.88865,-1.43786 -2.67933,-0.11929 -3.52707,2.59716 -0.54394,1.74299 -1.45341,2.25 -4.036,2.25 -2.77915,0 -3.71439,-0.62393 -5.62107,-3.75 -1.25797,-2.0625 -2.16913,-4.18737 -2.02479,-4.72193 0.14433,-0.53457 -0.55836,-0.26053 -1.56155,0.60897 -3.12612,2.70952 -6.39493,2.94863 -9.5544,0.69889 l -2.89821,-2.06371 -2.4185,2.27206 c -1.33017,1.24963 -2.66836,3.05931 -2.97375,4.02151 -0.81819,2.5779 -3.17457,3.10179 -7.83379,1.74168 -4.37534,-1.27724 -5.89293,-2.57101 -5.2105,-4.44204 0.30859,-0.84609 -0.37543,-0.84609 -2.69024,0 -1.95912,0.71609 -4.19374,2.87745 -6.05835,5.85973 -1.62486,2.59883 -3.79892,4.99322 -4.83124,5.32086 -1.03231,0.32765 -2.53761,1.87333 -3.34511,3.43485 -1.69366,3.27518 -8.45956,9.16827 -9.6684,8.42117 -0.86749,-0.53614 -2.4684,0.56035 -6.71319,4.598 -1.44557,1.37502 -3.92438,3.16991 -5.50847,3.98864 -1.5841,0.81874 -3.34383,2.50623 -3.91052,3.74997 -1.23195,2.70384 -2.01164,2.81955 -3.83687,0.5694 -0.94829,-1.16906 -0.98376,-1.45841 -0.11477,-0.93625 1.34518,0.8083 4.57165,-1.70915 3.52804,-2.75275 -0.34047,-0.34047 0.24346,-0.65457 1.29762,-0.69799 1.05642,-0.0435 1.35564,-0.30533 0.66667,-0.58334 -2.27524,-0.91808 -1.29578,-2.38731 1.17765,-1.76652 1.99443,0.50057 2.71282,0.0578 4.02568,-2.48095 1.33619,-2.58389 1.36557,-3.09025 0.17934,-3.09025 -1.39454,0 -3.12667,2.70736 -2.76665,4.32433 0.10094,0.45339 -0.29947,0.52582 -0.8898,0.16098 -0.7528,-0.46526 -0.72363,-1.08473 0.0977,-2.07433 0.64402,-0.77604 0.82997,-1.41098 0.4132,-1.41098 -0.77657,0 -6.00286,5.29905 -5.67106,5.75 0.70873,0.96326 -0.0357,2.23229 -0.97057,1.65451 -0.76816,-0.47475 -0.88059,-0.27031 -0.33595,0.61092 0.59434,0.96168 0.36276,1.14955 -0.8455,0.6859 C 112.38893,73.21204 112,73.63975 112,75.53141 c 0,1.35774 0.3375,2.41533 0.75,2.35019 1.96021,-0.3095 2.38563,0.25008 1.23977,1.63076 -0.96559,1.16346 -1.57583,1.24617 -2.64534,0.35855 -1.08347,-0.8992 -1.28077,-0.84676 -0.89421,0.23767 0.27281,0.76529 -0.50987,2.11923 -1.73929,3.00874 -1.87222,1.35461 -2.44028,1.39786 -3.49735,0.26626 -1.02851,-1.10103 -0.73091,-1.90683 1.60826,-4.35455 1.57868,-1.65193 3.16459,-2.70925 3.52424,-2.34959 C 110.70574,77.03909 111,76.26879 111,74.96765 c 0,-1.55286 1.75456,-4.01297 5.10645,-7.15989 2.80855,-2.63681 5.39605,-4.62855 5.75,-4.42609 0.35395,0.20245 1.54355,0.004 2.64355,-0.44124 1.75171,-0.70886 1.68181,-0.79231 -0.56309,-0.67223 -2.73645,0.14637 -8.05572,-2.08392 -14.24155,-5.97129 -2.34092,-1.47111 -3.7029,-1.89196 -3.54019,-1.09392 0.48815,2.39428 -2.16268,5.79703 -4.51604,5.79703 -1.25978,0 -3.381444,1.16544 -4.714824,2.58987 -2.17269,2.32106 -2.97694,2.53788 -7.74895,2.08904 -3.42807,-0.32243 -5.77127,-1.1116 -6.57852,-2.21559 -1.15441,-1.57874 -1.41773,-1.50648 -3.31928,0.91095 -1.13597,1.44416 -2.73999,2.62573 -3.56449,2.62573 -0.8245,0 -1.77643,0.72274 -2.1154,1.60607 -0.44174,1.15118 -1.33206,1.42643 -3.1434,0.97181 -3.47717,-0.87271 -11.9062,2.26131 -13.04364,4.84979 -1.04066,2.36825 -3.51553,2.75764 -4.21374,0.66298 -0.33468,-1.00404 0.0415,-1.21314 1.30811,-0.7271 1.50039,0.57575 1.58062,0.44454 0.514,-0.84065 -1.2465,-1.50194 -1.15634,-1.65104 1.14767,-1.8979 0.64167,-0.0687 1.35427,-0.6878 1.58356,-1.37568 0.26466,-0.79396 -0.16138,-1.02877 -1.16667,-0.64301 -0.87095,0.33422 -1.58356,0.10953 -1.58356,-0.49932 0,-0.60884 -0.47655,-1.10699 -1.05901,-1.10699 -0.58246,0 -0.77401,0.46115 -0.42567,1.02478 0.34834,0.56363 0.0374,0.90113 -0.69099,0.75 -0.72838,-0.15113 -1.20068,0.32117 -1.04955,1.04955 0.15113,0.72839 -0.18637,1.03933 -0.75,0.69099 -0.56363,-0.34834 -1.02478,-0.15679 -1.02478,0.42567 0,0.58246 0.765,1.05901 1.7,1.05901 1.32223,0 1.43334,0.26667 0.5,1.2 -1.33291,1.33292 -1.6163,2.93877 -0.45,2.55 0.4125,-0.1375 0.86826,0.2 1.01281,0.75 0.14454,0.55 -0.54935,1.04657 -1.54198,1.10349 C 48.858206,78.73898 45,80.82556 45,81.96782 c 0,0.49359 -1.0125,1.20535 -2.25,1.5817 -1.2375,0.37635 -3.15,1.78044 -4.25,3.12019 -1.1,1.33976 -2.675,2.56919 -3.5,2.73208 -0.825,0.16288 -2.265951,0.629 -3.202113,1.03581 -0.936162,0.40681 -2.173662,0.44822 -2.75,0.092 C 27.518632,89.58447 27.76625,87 29.386059,87 c 0.762332,0 2.133043,-1.57415 3.046025,-3.49812 0.912982,-1.92396 2.953514,-4.16704 4.534516,-4.9846 1.581002,-0.81757 5.303464,-3.85592 8.272138,-6.75188 2.968678,-2.89597 7.114118,-6.6154 9.212098,-8.2654 2.09798,-1.65 4.54231,-3.84937 5.43184,-4.88748 0.88953,-1.03812 3.58065,-3.73812 5.98028,-6 2.39963,-2.26189 8.19762,-8.05002 12.88443,-12.86252 11.15491,-11.45405 11.43519,-11.46002 23.464204,-0.5 4.98006,4.5375 11.65727,11.52606 14.83825,15.53013 l 5.78358,7.28012 3.99923,-4.28012 c 2.19957,-2.35407 5.08286,-5.45537 6.40732,-6.89177 1.32445,-1.43641 3.63488,-3.41547 5.13429,-4.39792 1.52609,-0.99993 2.49813,-2.3806 2.20811,-3.13637 -0.29078,-0.75776 0.67434,-2.11741 2.19978,-3.09904 C 146.37321,37.94417 155,29.36355 155,28.10256 c 0,-0.54597 2.53784,-3.05998 5.63964,-5.58669 3.1018,-2.52671 7.21823,-6.71393 9.14762,-9.30494 C 176.76274,3.84344 181.12808,0 184.7921,0 c 3.00648,0 5.00963,1.61328 18.31458,14.75 8.21638,8.1125 17.69159,18.0125 21.05602,22 3.36443,3.9875 6.54794,7.25 7.07446,7.25 0.52653,0 2.98026,-2.25 5.45275,-5 5.23331,-5.82069 8.45008,-6.45314 12.71559,-2.5 1.48365,1.375 3.01186,2.50081 3.39602,2.50179 0.38416,9.9e-4 1.95057,1.98373 3.4809,4.40611 1.53033,2.42237 4.77851,6.03996 7.21817,8.03908 2.43967,1.99912 7.03758,6.36407 10.21758,9.6999 3.18001,3.33582 11.18183,11.52993 17.78183,18.20913 9.61784,9.73325 19.95374,21.91397 18.31214,21.5806 -0.17168,-0.0349 -1.35355,-0.48105 -2.62638,-0.99154 z M 301.25,92.33736 C 300.5625,92.05995 300,91.17965 300,90.38113 c 0,-1.06983 -0.46047,-1.20749 -1.75,-0.52317 -1.22879,0.65209 -2.16563,0.47983 -3.14552,-0.57839 -1.21846,-1.31586 -1.1233,-1.42067 0.75,-0.82611 C 297.1817,88.8747 298,88.70481 298,88.00802 c 0,-0.61953 -0.45,-0.84829 -1,-0.50838 -0.55,0.33992 -1,0.11492 -1,-0.5 0,-0.61491 -0.52647,-0.79265 -1.16994,-0.39497 -0.78205,0.48334 -0.9623,0.18197 -0.54367,-0.90896 0.34444,-0.89761 0.0834,-1.94357 -0.58006,-2.32437 -0.66348,-0.38079 -0.87582,-0.32719 -0.47187,0.1191 0.40395,0.4463 0.0876,1.30595 -0.70302,1.91033 -1.21942,0.93218 -1.09081,1.49492 0.8478,3.70963 2.52963,2.8899 4.13541,3.73135 7.12076,3.73135 1.1,0 1.4375,-0.22697 0.75,-0.50439 z M 36.362905,85.72209 c -0.0754,-0.93551 0.262097,-1.45421 0.75,-1.15267 0.487902,0.30154 0.897101,-0.0408 0.909331,-0.76076 0.01223,-0.71996 0.965631,-2.43402 2.11867,-3.80902 l 2.096434,-2.5 -1.639716,2.74694 c -1.572307,2.63401 -1.55769,2.73442 0.35556,2.44244 2.589676,-0.39521 3.377196,-1.24469 3.675943,-3.96515 0.134339,-1.22332 -0.0067,-1.61081 -0.313487,-0.86107 -0.459642,1.12339 -0.7016,1.13038 -1.375641,0.0398 -0.65776,-1.06428 -1.188382,-0.98811 -2.710101,0.38903 -1.040711,0.94183 -2.193183,1.41143 -2.56105,1.04357 -0.604024,-0.60403 -1.068833,1.06995 -0.799265,2.87849 0.05853,0.39271 -0.563177,0.45706 -1.381579,0.14301 C 34.452906,81.9595 34,82.445 34,83.95171 c 0,1.19131 -0.444846,1.89108 -0.988546,1.55505 -0.57338,-0.35436 -0.730523,0.0614 -0.374172,0.99008 0.799545,2.08358 3.903972,1.43805 3.725623,-0.77471 z M 291.53284,84.19915 c -0.28352,-0.28352 0.0431,-1.20577 0.72584,-2.04945 0.90733,-1.12125 0.9185,-1.34026 0.0415,-0.81401 -0.70569,0.42346 -1.64681,-0.11524 -2.28518,-1.30804 -0.59696,-1.1154 -1.55168,-2.02801 -2.12161,-2.02801 -1.78277,0 -4.05551,-2.92455 -3.29682,-4.24232 0.39824,-0.69172 0.34782,-0.91606 -0.11206,-0.49853 -0.45987,0.41753 -1.76952,-0.0779 -2.91032,-1.10099 -1.14081,-1.02307 -2.91179,-2.15729 -3.93553,-2.52048 -1.46747,-0.52062 -1.73146,-0.28764 -1.24755,1.10098 0.51789,1.48612 0.37902,1.45802 -0.88866,-0.17979 C 274.28171,68.98134 274,68.91441 274,70.20153 c 0,1.83722 2.64765,3.124 4.34024,2.1094 0.63787,-0.38236 0.53121,0.0794 -0.23701,1.02607 -1.22261,1.50664 -1.10698,2.02975 0.92725,4.19509 1.27822,1.3606 3.02167,2.35991 3.87433,2.22069 0.85267,-0.13923 1.58086,0.42186 1.6182,1.24686 0.0374,0.825 0.66515,1.3691 1.39513,1.20911 0.84748,-0.18575 1.10629,0.28485 0.716,1.30194 -0.33618,0.87606 -0.19502,1.3356 0.31368,1.0212 0.5087,-0.31439 0.86014,-1.43159 0.78096,-2.48266 -0.0792,-1.05107 -0.44955,-1.72216 -0.82306,-1.49132 -0.37351,0.23084 -1.23108,-0.24538 -1.90572,-1.05827 -0.67464,-0.81288 -1.57464,-1.26288 -2,-1 -0.42536,0.26289 -1.28586,-0.13951 -1.91222,-0.89422 -0.87135,-1.04992 -0.79249,-1.50511 0.33577,-1.93806 0.99787,-0.38293 1.29342,-0.0937 0.91418,0.89455 -0.39389,1.02648 -0.0841,1.27765 1.0425,0.84532 0.96054,-0.36859 1.83983,0.002 2.1941,0.92552 0.35202,0.91734 1.23478,1.29364 2.18204,0.93014 1.19516,-0.45863 1.42615,-0.18128 0.92869,1.11508 -0.4271,1.113 -0.27581,1.48678 0.42616,1.05294 0.74099,-0.45796 0.72258,0.0108 -0.0577,1.46872 -1.45181,2.71274 -0.43899,4.66481 1.55967,3.00607 0.78933,-0.65508 1.20317,-1.42303 0.91965,-1.70655 z m -11.77661,-9.86386 c 0.69093,-0.27856 0.9589,-0.98756 0.59549,-1.57556 -0.39382,-0.63722 -0.18776,-0.77679 0.51008,-0.3455 1.37672,0.85086 0.55006,2.62054 -1.17082,2.50647 -0.85244,-0.0565 -0.83389,-0.22291 0.0652,-0.58541 z M 108.5,80.99964 c -0.33992,-0.55 -1.04148,-1 -1.55902,-1 -0.51754,0 -0.94098,0.45 -0.94098,1 0,0.55 0.70156,1 1.55902,1 0.85746,0 1.2809,-0.45 0.94098,-1 z M 49.393156,73.39799 c -0.2187,-1.21446 0.46271,-2.86292 1.61419,-3.90499 1.09596,-0.99183 1.99265,-2.19882 1.99265,-2.68218 0,-0.48337 -1.98345,1.04887 -4.40768,3.40498 -4.005742,3.8932 -4.269892,4.43822 -2.896677,5.97675 1.907887,2.13758 4.264897,0.35616 3.697517,-2.79456 z m 14.10869,-4.22983 c -0.23731,-0.23731 -0.006,-1.22733 0.51502,-2.20004 1.20086,-2.24381 -1.29857,-3.42327 -4.08931,-1.92971 -1.3264,0.70987 -1.92756,0.70876 -1.92756,-0.004 0,-0.56935 -0.70155,-1.03519 -1.55901,-1.03519 -0.85746,0 -1.28091,0.45 -0.94099,1 0.33992,0.55 0.0864,1 -0.56342,1 -0.88431,0 -0.87066,0.37451 0.0543,1.48899 0.67966,0.81895 1.60366,1.26161 2.05334,0.98369 0.44968,-0.27791 1.04463,-0.13796 1.32211,0.31101 0.27748,0.44897 1.64357,0.81631 3.03576,0.81631 1.39219,0 2.33709,-0.19416 2.09977,-0.43148 z m -3.93755,-1.46164 c 0.37553,-0.98622 0.93469,-1.54122 1.24258,-1.23334 0.30788,0.30789 6.3e-4,1.1148 -0.68279,1.79313 -0.98761,0.98027 -1.10248,0.8654 -0.55979,-0.55979 z m 216.741514,0.84126 c 1.3529,0.21822 1.54318,-0.0252 0.75867,-0.97044 -0.57592,-0.69394 -0.7848,-1.52404 -0.46417,-1.84467 0.51051,-0.51051 -2.70071,-0.20814 -3.35031,0.31546 -0.22137,0.17843 -1.04198,0.42158 -2.78943,0.82651 -0.29668,0.0688 0.0408,0.75488 0.75,1.52472 0.70919,0.76984 1.73943,1.05263 2.28943,0.62842 0.55,-0.42421 1.81261,-0.64021 2.80581,-0.48 z M 73.535186,66.38463 c 1.35565,-0.88825 2.4717,-1.22575 2.48013,-0.75 0.0175,0.98722 1.94595,-1.77302 1.96937,-2.81876 0.008,-0.37608 -1.08091,-0.485 -2.42075,-0.24204 -1.33983,0.24296 -2.71639,-0.0118 -3.05902,-0.56622 -0.52452,-0.84871 1.24662,-1.242 4.20604,-0.93397 0.39103,0.0407 1.07526,-0.7468 1.52053,-1.75 0.64669,-1.45703 0.72061,-1.35961 0.36743,0.48423 -0.33428,1.74517 -0.0348,2.22979 1.22768,1.98665 0.9184,-0.17686 1.67062,-1.21557 1.67161,-2.30822 0.001,-1.32458 0.62055,-1.93444 1.85846,-1.82999 1.35708,0.11451 1.55889,-0.14111 0.75,-0.95 -1.45994,-1.45994 -1.42456,-3.02117 0.0478,-2.11117 0.64976,0.40157 0.88537,0.27804 0.53891,-0.28254 -0.33858,-0.54783 -1.96131,-0.916 -3.60608,-0.81815 l -2.99047,0.1779 2.0148,-2.82953 c 1.10814,-1.55624 1.69182,-3.35213 1.29706,-3.99086 -0.4462,-0.72196 -0.28096,-0.89138 0.43676,-0.44781 0.63498,0.39244 1.15451,0.25933 1.15451,-0.2958 0,-0.55513 -0.7875,-1.48136 -1.75,-2.05828 -1.64963,-0.9888 -1.64,-1.13405 0.16796,-2.53274 1.42485,-1.10232 2.26042,-1.19957 3.25,-0.3783 2.27254,1.88605 1.47777,-0.70159 -0.83985,-2.7344 -1.19454,-1.04774 -1.86674,-1.38092 -1.49377,-0.7404 0.37297,0.64053 0.33782,1.31984 -0.0781,1.5096 -0.41593,0.18975 -2.04062,1.76424 -3.61042,3.49888 l -2.85419,3.15388 2.7099,1.41986 2.7099,1.41986 h -3.14505 c -1.72979,0 -2.63963,-0.31238 -2.02187,-0.69417 0.76693,-0.47399 0.64706,-0.87688 -0.3779,-1.27019 -1.83671,-0.70481 -2.91914,1.64516 -1.43938,3.12492 0.76125,0.76125 0.46951,1.02563 -1.00886,0.91427 -1.14389,-0.0862 -1.83686,-0.62575 -1.53992,-1.19908 0.29693,-0.57333 -2.19177,1.84133 -5.53044,5.36592 -3.33868,3.52458 -5.78898,6.86355 -5.44512,7.41994 0.37913,0.61344 -0.0502,0.75243 -1.09077,0.35312 -1.0796,-0.41428 -1.47378,-0.26659 -1.0629,0.39823 0.3592,0.5812 1.31517,0.80266 2.12438,0.49213 2.1516,-0.82564 5.35561,1.18858 4.68218,2.9435 -0.79871,2.0814 4.94356,1.98995 8.17941,-0.13027 z m -11.9221,-5.56796 c 0.28881,-0.46731 0.94402,-0.59075 1.45601,-0.27432 1.30838,0.80862 1.16106,1.12396 -0.52511,1.12396 -0.8008,0 -1.21971,-0.38234 -0.9309,-0.84964 z m 3.83306,-0.90416 c -0.36953,-0.59792 -0.26752,-1.49149 0.2267,-1.98571 0.53144,-0.53144 0.89858,-0.0873 0.89858,1.08713 0,2.27223 -0.18501,2.41997 -1.12528,0.89858 z m 9.81668,-5.07385 c -0.12125,-1.60964 0.12265,-1.85354 0.98809,-0.9881 0.75682,0.75683 0.81178,1.48639 0.16099,2.13718 -0.65079,0.65079 -1.04305,0.25853 -1.14908,-1.14908 z m 4.34018,1.32765 c -0.28327,-0.45833 0.12038,-0.83333 0.89699,-0.83333 0.77662,0 1.18026,0.375 0.897,0.83333 -0.28327,0.45833 -0.68692,0.83333 -0.897,0.83333 -0.21008,0 -0.61373,-0.375 -0.89699,-0.83333 z m -1.98992,-11.34964 c 0.28881,-0.46731 0.94402,-0.59075 1.45601,-0.27432 1.30838,0.80862 1.16106,1.12396 -0.52511,1.12396 -0.8008,0 -1.21971,-0.38234 -0.9309,-0.84964 z M 220,63.39266 c 0,-0.76616 -0.1125,-1.54885 -0.25,-1.73932 -0.1375,-0.19047 0.3676,-1.09047 1.12244,-2 1.70981,-2.06019 0.51869,-2.18768 -1.50763,-0.16137 -0.82078,0.82078 -1.19348,1.97588 -0.82822,2.56689 0.36526,0.591 0.0565,0.99113 -0.68624,0.88918 -3.40587,-0.46752 -4.23913,0.0468 -2.33337,1.44036 C 217.68194,65.97146 220,65.45658 220,63.39266 Z m 53.5,0.56935 c 0,-0.78924 -0.85316,-1.59928 -1.89591,-1.80009 -1.45198,-0.27963 -1.73931,0.043 -1.22711,1.37774 0.55561,1.44789 0.4182,1.53489 -0.81187,0.51402 -1.16344,-0.96557 -1.22191,-1.509 -0.27289,-2.53648 0.66428,-0.7192 1.65778,-1.04349 2.20778,-0.72064 0.55,0.32285 0.36472,-0.19568 -0.41173,-1.15229 -1.11024,-1.36785 -1.58748,-1.46224 -2.23469,-0.44196 -0.61218,0.96506 -0.82688,0.84913 -0.83827,-0.45267 -0.0218,-2.49221 -3.48224,-5.69749 -5.08297,-4.70818 -0.90134,0.55706 -0.99599,1.21509 -0.30669,2.13197 1.38432,1.84133 1.1468,3.71226 -0.62565,4.9282 -1.15696,0.7937 -0.9797,0.88247 0.77512,0.38816 1.59931,-0.4505 2.1934,-0.24718 2,0.68449 -0.15357,0.73982 0.60849,1.346 1.72488,1.37207 1.1,0.0257 1.91108,0.51744 1.80241,1.09277 -0.10868,0.57534 1.01632,0.98122 2.5,0.90197 1.60991,-0.086 2.69759,-0.72269 2.69759,-1.57908 z m -8.25893,-2.21237 c -0.0507,-0.6875 -0.36861,-2.53751 -0.70637,-4.11113 -0.52407,-2.44158 -0.41044,-2.65746 0.77484,-1.47218 0.76393,0.76392 1.31596,2.37977 1.22675,3.59076 -0.18066,2.45217 -1.1511,3.9451 -1.29522,1.99255 z M 94.488586,62.98119 c -0.27495,-0.44489 0.82017,-1.39323 2.43362,-2.10741 1.61345,-0.71418 2.71444,-1.65303 2.44665,-2.08632 -0.26779,-0.4333 -0.0103,-0.78782 0.57212,-0.78782 0.582464,0 1.059024,0.375 1.059024,0.83334 0,0.45833 0.59318,0.83333 1.31818,0.83333 0.75074,0 1.31818,-1.11206 1.31818,-2.58333 -1e-5,-1.99338 -0.52941,-2.61627 -2.31819,-2.72755 -1.27499,-0.0793 -2.318174,0.28474 -2.318174,0.80902 0,0.52427 0.35899,0.73136 0.79775,0.46019 0.438764,-0.27116 1.451264,-0.0385 2.250004,0.51712 1.25358,0.87196 1.24705,0.94982 -0.0477,0.56914 -0.825,-0.24255 -2.260194,-0.0506 -3.189314,0.42658 -1.0189,0.52327 -1.93525,0.46965 -2.30902,-0.13513 -0.34089,-0.55149 -1.06975,-1.00271 -1.61975,-1.00271 -0.55,0 -0.74293,0.41595 -0.42874,0.92432 0.94668,1.53176 -2.76903,1.8127 -5.60573,0.42384 -2.23911,-1.09628 -2.73973,-1.07139 -3.21215,0.15972 -0.31615,0.82389 -1.22873,1.20165 -2.09749,0.86828 -0.84582,-0.32457 -1.53786,-0.16699 -1.53786,0.35019 0,1.78804 1.27126,2.19894 3.38149,1.09296 2.10066,-1.10097 2.10241,-1.09219 0.20798,1.04132 -2.33458,2.62919 -1.42215,3.88128 1.65096,2.26553 1.7738,-0.93261 1.82961,-1.06114 0.25957,-0.59784 -1.65148,0.48733 -1.77044,0.36203 -0.68268,-0.71907 1.08607,-1.07941 1.52495,-1.03051 2.5,0.27853 0.65048,0.87327 1.80782,1.37739 2.57188,1.12026 0.83698,-0.28166 1.11447,-0.023 0.69806,0.65078 -0.43944,0.71104 -0.12806,0.9022 0.85506,0.52495 0.85041,-0.32634 1.32123,-0.95734 1.04627,-1.40222 z m -3.37018,-1.90837 c -1.00461,-0.62088 -0.94645,-0.92519 0.26572,-1.39034 0.8535,-0.32752 1.79858,-0.19624 2.10016,0.29174 0.78841,1.27567 -0.84907,2.03604 -2.36588,1.0986 z m 40.518764,1.12299 c 1.30878,-1.26711 2.78739,-2.05181 3.2858,-1.74377 0.49842,0.30804 1.1014,-0.005 1.33996,-0.69616 0.58597,-1.69709 -1.33992,-5.82669 -2.40916,-5.16586 C 133.3842,54.88023 133,54.59302 133,53.95167 c 0,-0.64295 0.69618,-0.89885 1.55194,-0.57047 1.00421,0.38535 1.30261,0.19212 0.84549,-0.54752 -0.46493,-0.75226 -0.25892,-0.86646 0.60257,-0.33404 0.86726,0.536 1.06766,0.4185 0.59382,-0.34819 -1.08578,-1.75683 -4.45039,0.42854 -5.18869,3.37015 -0.34016,1.35532 -1.03162,2.20888 -1.53658,1.8968 -0.50496,-0.31208 -0.79445,0.0285 -0.64333,0.75691 0.16884,0.81374 -0.49632,1.21835 -1.72522,1.04944 -1.91487,-0.2632 -1.92044,-0.22633 -0.13092,0.86633 1.45078,0.88582 2.06282,0.83544 2.73469,-0.2251 0.47608,-0.75149 0.8725,-1.013 0.88092,-0.58115 0.008,0.43185 0.91531,0.30352 2.01531,-0.28519 1.1,-0.5887 2,-0.84109 2,-0.56086 0,1.10265 -5.96052,3.51324 -7.35953,2.97639 -1.29014,-0.49507 -1.53726,0.65423 -0.71698,3.33447 0.23222,0.75877 2.639,-0.5452 4.71368,-2.55383 z m 7.95784,-4.36806 c 1.04775,-1.19454 1.39348,-1.8745 0.7683,-1.51101 -0.62518,0.36349 -1.75018,-0.12166 -2.5,-1.07811 -1.19205,-1.52053 -1.17066,-1.58914 0.17023,-0.54619 1.84398,1.43427 3.97984,0.32522 4.41578,-2.2929 0.17399,-1.04494 0.85253,-1.77625 1.50785,-1.62512 0.65532,0.15113 0.90195,-0.19371 0.54806,-0.76631 -0.35388,-0.5726 -1.06233,-0.78219 -1.57433,-0.46576 -0.51199,0.31643 -0.9309,0.0988 -0.9309,-0.48369 0,-1.30215 0.62505,-1.33005 2.87082,-0.12815 1.36137,0.72858 2.285,0.23964 4.25032,-2.25 1.38105,-1.74948 2.80464,-3.96837 3.16354,-4.93087 0.3589,-0.9625 1.67917,-1.75689 2.93394,-1.76531 1.89028,-0.0127 2.02423,-0.19899 0.78138,-1.08674 -1.19846,-0.85605 -1.0362,-0.9693 0.80715,-0.56337 2.01563,0.44388 2.14199,0.30495 1,-1.09953 -1.047,-1.28767 -0.67116,-1.2355 1.88847,0.26215 1.75759,1.02838 3.01814,2.15693 2.80123,2.50791 -0.67918,1.09893 3.62147,4.16347 5.0653,3.60942 0.75559,-0.28995 1.6819,-0.0287 2.05847,0.58064 0.95866,1.55115 3.40522,-1.96426 2.68082,-3.85202 -0.35914,-0.93589 0.22603,-1.66832 1.62524,-2.03422 1.20254,-0.31447 1.98684,-1.0919 1.7429,-1.72761 -0.62852,-1.6379 5.23817,-1.34862 6.26251,0.3088 0.57295,0.92705 1.02277,0.99194 1.50193,0.21665 0.37621,-0.60872 0.12145,-1.10677 -0.56613,-1.10677 -0.68758,0 -0.37664,-0.66068 0.69098,-1.46819 1.06762,-0.80751 1.45363,-1.48251 0.8578,-1.5 -0.59584,-0.0175 -1.38659,0.27145 -1.75724,0.64209 -1.0063,1.00631 -5.59044,1.02349 -4.9694,0.0186 0.29463,-0.47671 1.38445,-0.6448 2.42183,-0.37352 1.03738,0.27128 2.15711,0.0548 2.48829,-0.48106 0.33119,-0.53586 1.34413,-0.69721 2.251,-0.35855 0.99405,0.37122 0.65931,-0.32376 -0.84292,-1.75001 -3.97685,-3.77573 -10.61129,-2.73245 -6.80823,1.07061 0.93333,0.93334 0.87778,1.22632 -0.25,1.31843 -0.7975,0.0651 -1.85876,0.0414 -2.35836,-0.0528 -0.4996,-0.0942 -1.23782,0.36187 -1.64049,1.01341 C 172.073,35.49952 165,34.44684 165,32.89527 c 0,-0.55753 -0.35601,-0.79367 -0.79113,-0.52475 -0.43513,0.26892 -0.77348,-0.83895 -0.75191,-2.46193 0.0312,-2.34578 0.25869,-2.65076 1.10943,-1.48731 0.89077,1.21821 1.35492,0.98154 2.76864,-1.4117 0.93416,-1.58139 2.70343,-3.09188 3.93172,-3.35664 1.22829,-0.26475 0.65825,-0.41111 -1.26675,-0.32524 -2.95311,0.13173 -3.44705,-0.14674 -3.1611,-1.78221 0.30538,-1.74667 0.15745,-1.79533 -1.49608,-0.49211 C 161.71453,23.913 161,24.8893 161,26.98719 c 0,1.18845 -0.44937,1.85272 -1.01631,1.50233 -0.55897,-0.34546 -0.77663,-1.01592 -0.48369,-1.48992 0.29294,-0.47399 0.0979,-1.1305 -0.43351,-1.45891 C 157.96969,24.86284 156,28.04376 156,30.49288 c 0,0.89362 0.45,1.34664 1,1.00672 0.55,-0.33991 1,0.0835 1,0.94099 0,1.83434 -0.4677,1.91426 -3.06574,0.52383 -2.01546,-1.07864 -2.0807,-0.98089 -2.35973,3.53518 -0.14025,2.2699 -2.49739,6.67081 -2.54412,4.75 -0.0167,-0.6875 -0.97855,-1.25 -2.1374,-1.25 -1.44161,0 -1.92909,0.46359 -1.54367,1.46798 0.30982,0.80739 0.12182,1.74083 -0.41779,2.07433 -0.53961,0.33349 -0.85745,0.23541 -0.70633,-0.21798 0.15113,-0.45338 -0.0627,-0.93683 -0.47522,-1.07433 -1.81705,-0.60568 -2.55462,-0.12697 -2.31109,1.5 0.231,1.54329 -2.61969,4.50268 -4.68891,4.8677 -0.4125,0.0728 -0.99083,0.18855 -1.28518,0.2573 -0.29435,0.0688 -0.0904,0.95607 0.45319,1.97181 0.66226,1.23745 0.64331,2.19188 -0.0575,2.89264 -0.72779,0.72778 -0.72425,1.64673 0.0116,3.02171 0.5816,1.08673 0.77329,2.26005 0.42597,2.60736 -0.34725,0.34732 -0.40116,0.63148 -0.11973,0.63148 0.28142,0 1.36892,-0.97735 2.41666,-2.17189 z m 0.15883,-6.99477 c 0.26368,-1.00834 0.59945,-1.83334 0.74616,-1.83334 0.14671,0 0.48248,0.825 0.74616,1.83334 0.27231,1.04131 -0.05,1.83333 -0.74616,1.83333 -0.69612,0 -1.01847,-0.79202 -0.74616,-1.83333 z M 144,46.39616 c 0,-0.92856 3.95388,-2.28016 4.42766,-1.51357 0.30197,0.4886 -0.57072,1.10241 -1.93931,1.36403 C 145.11976,46.50825 144,46.57554 144,46.39616 Z m 21,-6.27988 c 0,-0.48586 0.9,-1.11873 2,-1.40638 2.36157,-0.61757 2.71429,0.80167 0.41821,1.68276 C 165.319,41.1982 165,41.16174 165,40.11628 Z m 12.56476,-9.01185 c -0.3043,-0.49237 0.10473,-1.14772 0.90896,-1.45633 1.56267,-0.59965 2.89724,0.64725 1.83243,1.71206 -0.90401,0.90402 -2.09319,0.79308 -2.74139,-0.25573 z M 115,56.99964 c -1.11448,-0.72023 -1.15919,-0.97331 -0.17394,-0.98468 0.87657,-0.0101 0.5376,-0.99965 -1,-2.91925 -1.32182,-1.65021 -3.18953,-2.83748 -4.32606,-2.75 -1.49347,0.11495 -1.96884,-0.42597 -1.87698,-2.13575 0.0677,-1.25933 -0.11284,-2.05383 -0.40112,-1.76555 -0.28828,0.28828 -1.06287,-0.21261 -1.72132,-1.11308 C 104.15292,43.48829 102,44.30893 102,46.66565 c 0,0.95012 0.56695,1.33041 1.46797,0.98466 0.80739,-0.30983 1.77954,-0.0205 2.16033,0.64301 0.38079,0.66348 0.3272,0.87582 -0.1191,0.47187 -0.44629,-0.40395 -1.32424,-0.0332 -1.95099,0.82397 -0.97602,1.33477 -2.07879,0.65087 -7.684344,-4.76555 -5.21162,-5.03578 -6.49528,-5.87371 -6.30173,-4.11358 0.15759,1.43317 -1.24343,3.80663 -3.98443,6.75 -2.90927,3.12407 -3.72058,4.53961 -2.60187,4.53961 0.89408,0 3.1556,1.1288 5.02559,2.50844 l 3.39999,2.50843 2.09878,-2.63211 c 1.80056,-2.25812 2.65939,-2.55981 6.04429,-2.12326 5.009004,0.64601 9.526964,1.67081 10.779954,2.4452 0.5396,0.33349 0.65612,0.087 0.26105,-0.55219 -0.39244,-0.63498 -0.23697,-1.15451 0.34549,-1.15451 0.58246,0 1.05902,0.47656 1.05902,1.05902 0,0.58246 0.52647,0.73364 1.16994,0.33596 0.772,-0.47713 0.96551,-0.19032 0.5689,0.84321 -0.6572,1.71265 -0.011,2.77037 1.67783,2.7465 C 116.0125,57.97633 115.825,57.5328 115,56.99964 Z m -10.75623,-4.66435 c -0.69093,-0.27856 -1.00187,-0.91803 -0.69098,-1.42106 0.8779,-1.42047 2.11388,-1.07818 2.11388,0.58541 0,0.825 -0.0375,1.46448 -0.0833,1.42106 -0.0458,-0.0434 -0.64863,-0.30686 -1.33956,-0.58541 z m -6.243774,3.16435 c 0,-0.825 -0.43588,-1.5 -0.96862,-1.5 -0.53273,0 -0.70959,0.675 -0.39301,1.5 0.31659,0.825 0.75246,1.5 0.96862,1.5 0.21615,0 0.39301,-0.675 0.39301,-1.5 z M 226.45729,52.93055 c -0.31643,-0.512 -1.11127,-0.89538 -1.76631,-0.85196 -0.85244,0.0565 -0.83389,0.22291 0.0652,0.58541 0.69093,0.27856 0.9589,0.98756 0.59549,1.57556 -0.39382,0.63722 -0.18776,0.77679 0.51008,0.34549 0.64395,-0.39798 0.91193,-1.14251 0.59549,-1.6545 z M 110,48.99964 c 0,-0.55 -0.19844,-1 -0.44098,-1 -0.24254,0 -0.7191,0.45 -1.05902,1 -0.33992,0.55 -0.14148,1 0.44098,1 0.58246,0 1.05902,-0.45 1.05902,-1 z m 130.67534,-0.65799 c -0.36189,-0.36189 -0.15679,-1.26189 0.45578,-2 0.76061,-0.91647 0.77657,-1.34201 0.0503,-1.34201 -0.58488,0 -1.34154,0.45 -1.68146,1 -0.64082,1.03688 0.16124,3 1.22568,3 0.33421,0 0.31156,-0.29609 -0.0503,-0.65799 z M 84.868616,42.75414 c -0.74547,-1.39291 -1.36557,-1.65754 -2.11888,-0.90424 -0.7533,0.75331 -0.70099,1.50355 0.17874,2.56356 0.68403,0.82422 0.94659,2.08079 0.58346,2.79238 -0.36314,0.71159 0.0307,0.44414 0.87516,-0.59434 1.16134,-1.42813 1.27865,-2.3679 0.48152,-3.85736 z M 245.5418,41.37731 c 0.60596,0.23253 1.66031,-0.47165 2.34302,-1.56485 1.08639,-1.73958 1.01504,-1.91716 -0.57176,-1.42304 -0.99718,0.31051 -2.48806,0.0858 -3.31306,-0.49935 -1.20164,-0.8523 -1.05266,-0.96588 0.749,-0.57105 1.23696,0.27107 2.51249,0.0666 2.83452,-0.45451 0.34497,-0.55818 -1.19519,-0.81376 -3.749,-0.62213 -3.44651,0.25861 -4.27432,0.67681 -4.04068,2.04126 0.16161,0.9438 -0.20245,1.716 -0.80902,1.716 -0.60657,0 -0.8202,0.45734 -0.47474,1.01632 0.34546,0.55897 1.11655,0.71444 1.71353,0.34549 1.78616,-1.10391 -0.38022,1.97881 -2.42913,3.45662 -1.00537,0.72513 -1.5989,1.68901 -1.31896,2.14197 0.27994,0.45295 2.18648,-0.71299 4.23677,-2.59098 2.05028,-1.87799 4.22356,-3.22427 4.82951,-2.99175 z M 102.71778,43.759 c 1.36096,-1.50385 1.41473,-1.83878 0.25416,-1.58333 -0.80957,0.17818 -1.34829,-0.27197 -1.19716,-1.00036 0.15112,-0.72838 -0.18638,-1.03932 -0.75,-0.69098 -0.56363,0.34834 -1.024784,0.0818 -1.024784,-0.59234 0,-0.67412 -0.2961,-0.92958 -0.65799,-0.56769 -0.91672,0.91673 -3.4478,-1.34447 -2.75667,-2.46274 0.30983,-0.50131 -0.0326,-0.78782 -0.76101,-0.63669 -0.72838,0.15113 -1.26383,-0.50073 -1.18988,-1.44857 0.10894,-1.3964 -0.22837,-1.52916 -1.77801,-0.69982 -1.11333,0.59584 -1.61161,1.52486 -1.19249,2.22334 0.43865,0.731 0.0631,0.66713 -0.96098,-0.16348 -1.65196,-1.3398 -1.38851,-3.67842 0.29703,-2.6367 0.474,0.29295 1.14446,0.0753 1.48992,-0.48368 1.03011,-1.66676 -1.7605,-1.14872 -5.23992,0.97272 -3.63375,2.21555 -3.95866,3.17794 -1.70449,5.04873 0.85003,0.70547 1.31969,1.87115 1.04368,2.59042 -0.27601,0.71927 -0.0715,1.57373 0.45449,1.89881 1.67276,1.03382 1.02789,-3.78521 -0.79368,-5.93102 -1.57462,-1.85492 -1.57901,-1.92934 -0.0438,-0.74265 0.93841,0.72537 2.11978,1.06325 2.62526,0.75084 0.50549,-0.31241 2.8877,1.36494 5.29381,3.72744 4.91111,4.82209 6.117264,5.16288 8.592524,2.42775 z m -2.34262,0.44264 c 0.38935,-0.62998 -0.513654,-1.75662 -2.095494,-2.61447 -1.52882,-0.8291 -2.26702,-1.52547 -1.64045,-1.54749 0.62656,-0.022 2.16211,0.78826 3.412334,1.80062 1.75051,1.41748 1.97036,2.02777 0.95627,2.65451 -0.85365,0.52758 -1.076184,0.42446 -0.63266,-0.29317 z m -6.512004,-5.00481 c 0.96099,-0.67332 1.02737,-1.11618 0.225,-1.50113 -0.73604,-0.35313 -0.74951,-0.47539 -0.0382,-0.34606 1.53703,0.27946 1.37664,2.02669 -0.225,2.45114 -1.04581,0.27714 -1.03778,0.14989 0.0382,-0.60395 z m 144.039924,4.4196 c 0.87668,-1.05634 0.82957,-1.5054 -0.19932,-1.90022 -0.74101,-0.28436 -1.88131,0.33809 -2.534,1.38321 -0.95161,1.52377 -0.91212,1.90022 0.19932,1.90022 0.76232,0 1.90262,-0.62244 2.534,-1.38321 z M 203.1338,41.74964 c 0.66229,-1.2375 1.09437,-2.46375 0.96018,-2.725 -0.13419,-0.26125 0.35227,-0.633 1.08102,-0.82613 0.8775,-0.23254 0.8184,0.007 -0.175,0.70969 -1.29439,0.91541 -1.26012,1.06292 0.25,1.07613 0.9625,0.008 1.75,-0.17288 1.75,-0.4029 0,-0.23001 0.30147,-1.20384 0.66994,-2.16404 0.5089,-1.32617 0.32861,-1.54007 -0.75,-0.88983 -1.1874,0.71581 -1.20728,0.59349 -0.12138,-0.74693 1.00092,-1.23552 1.0228,-1.77335 0.0955,-2.34647 -0.68292,-0.42206 -0.94292,-0.32261 -0.60137,0.23003 0.35847,0.58001 -0.58967,0.79871 -2.34549,0.54101 C 202.32623,33.9673 201,34.1992 201,34.71948 c 0,0.52076 -1.34286,0.94683 -2.98412,0.94683 -2.37339,0 -2.75765,-0.27288 -1.87756,-1.33333 0.6581,-0.79296 0.70739,-1.33334 0.12164,-1.33334 -0.54171,0 -0.87394,-1.0125 -0.73829,-2.25 0.21574,-1.96807 -0.23634,-2.26638 -3.60798,-2.38072 -3.12577,-0.10601 -3.97712,0.27217 -4.50244,2 -0.3563,1.1719 -1.2989,2.87355 -2.09467,3.78145 -1.49468,1.70527 -0.25255,3.54577 1.61432,2.39198 0.512,-0.31643 1.21356,-0.11799 1.55902,0.44098 0.82512,1.33507 2.51008,1.30641 2.51008,-0.0427 0,-0.58246 -0.5625,-0.73531 -1.25,-0.33967 -0.6875,0.39564 -0.90333,0.33803 -0.47963,-0.12802 1.20658,-1.32717 4.72963,-1.274 4.72963,0.0714 0,0.66574 0.68587,1.77966 1.52417,2.47538 0.83829,0.69572 1.29219,1.49692 1.00867,1.78043 -0.90502,0.90501 1.64399,3.1995 3.55442,3.1995 1.01331,0 2.38425,-1.0125 3.04654,-2.25 z M 188,32.10663 c 0,-0.49115 0.675,-1.15203 1.5,-1.46861 0.91371,-0.35063 1.5,-0.002 1.5,0.89301 0,0.80774 -0.675,1.46861 -1.5,1.46861 -0.825,0 -1.5,-0.40185 -1.5,-0.89301 z m 35.22893,5.9681 c -2.05677,-2.05678 -2.96968,-2.51446 -2.8072,-1.40738 0.13244,0.90233 1.19759,2.41537 2.36701,3.36231 1.16941,0.94693 1.99066,1.94631 1.82499,2.22084 -0.16568,0.27453 0.14077,0.13309 0.68098,-0.31432 0.60049,-0.49732 -0.20235,-1.99802 -2.06578,-3.86145 z m -4.81662,2.67491 c -0.56457,-1 -0.43638,-1 0.64099,0 0.74068,0.6875 2.01014,1.25 2.82101,1.25 1.12466,0 0.98505,-0.53362 -0.58868,-2.25 -1.30044,-1.41831 -1.94455,-3.2665 -1.74254,-5 0.2936,-2.51939 -0.29977,-3.16822 -2.2863,-2.5 -0.40877,0.1375 -0.61501,0.925 -0.45831,1.75 0.25326,1.33334 0.16706,1.33334 -0.77579,0 -0.92946,-1.3144 -1.22665,-1.28347 -2.40194,0.25 -0.73768,0.9625 -2.10568,1.75 -3.04001,1.75 -0.93433,0 -1.42066,0.45 -1.08074,1 0.33992,0.55 0.1556,1 -0.4096,1 -0.5652,0 -0.77951,0.64659 -0.47626,1.43686 0.30326,0.79027 1.14362,1.2096 1.86747,0.93183 0.72385,-0.27777 1.61316,-0.0244 1.97626,0.56314 0.97612,1.5794 6.84757,1.40011 5.95444,-0.18183 z m -67.06297,-3.28202 c -0.71699,-1.86844 -1.97583,-1.88371 -2.68617,-0.0326 -0.30295,0.78947 -0.0136,1.62874 0.64301,1.86505 1.77543,0.63899 2.68017,-0.17245 2.04316,-1.83247 z m 36.01822,0.74631 c 0.26708,-0.43214 -0.38136,-0.78571 -1.44098,-0.78571 -1.05962,0 -1.92658,0.35357 -1.92658,0.78571 0,0.43214 0.64844,0.78571 1.44098,0.78571 0.79254,0 1.65951,-0.35357 1.92658,-0.78571 z m 24.1153,-5.30331 c -0.3162,-1.64186 -0.11826,-1.85327 0.92474,-0.98766 0.99499,0.82577 1.67301,0.6749 2.70972,-0.60294 1.18337,-1.45862 1.178,-1.5809 -0.0373,-0.84829 -1.05907,0.63846 -1.26078,0.44124 -0.79367,-0.77602 0.34444,-0.89761 0.12639,-1.94096 -0.48457,-2.31855 -0.63308,-0.39126 -0.83181,-0.23506 -0.46207,0.36319 0.35682,0.57735 -0.047,1.31672 -0.89743,1.64306 -0.8854,0.33975 -1.28509,0.17085 -0.93524,-0.39522 0.33606,-0.5437 0.18258,-0.98855 -0.34103,-0.98855 -1.32087,0 -2.32026,2.93352 -1.47863,4.34025 1.06265,1.77615 -14.75314,-13.25159 -19.23275,-18.27446 -2.17505,-2.43881 -3.21112,-4.15732 -2.3024,-3.8189 0.90873,0.33842 1.93283,0.33472 2.27577,-0.008 1.12111,-1.12111 4.572,-1.25196 4.572,-0.17337 0,0.57901 -0.39901,0.80614 -0.88669,0.50474 -0.48768,-0.30141 -1.40633,0.0781 -2.04144,0.84338 -0.91633,1.1041 -0.54653,1.82447 1.79106,3.48899 3.34228,2.37991 4.58157,2.67585 3.54938,0.8476 -0.56457,-1 -0.43638,-1 0.64099,0 1.64669,1.52844 2.9467,1.6127 2.9467,0.19098 0,-0.58246 -0.3844,-0.82144 -0.85423,-0.53107 -0.46983,0.29037 -1.70733,-1.26192 -2.75,-3.44953 -1.08172,-2.26953 -3.08151,-4.51019 -4.65715,-5.21807 -1.66082,-0.74616 -2.55305,-1.78352 -2.23866,-2.6028 0.34184,-0.89083 0.0108,-1.16576 -0.95659,-0.79453 -0.81363,0.31222 -1.74529,0.13732 -2.07036,-0.38866 -0.85649,-1.38582 -6.04742,-1.17405 -7.26788,0.29651 -0.73383,0.88421 -0.62274,1.82315 0.37755,3.19113 1.37232,1.87675 1.4601,1.87979 2.76468,0.0957 1.05199,-1.43868 1.52429,-1.55632 2.15451,-0.53662 0.50474,0.8167 0.41386,1.06294 -0.24258,0.65724 -0.57734,-0.35683 -1.29896,7.3e-4 -1.60358,0.79456 -0.56728,1.47831 1.6358,1.15703 3.89633,-0.5682 C 188.76712,5.95916 193,6.84611 193,8.02804 c 0,0.43719 -0.7875,0.66905 -1.75,0.51525 -2.55126,-0.40768 -7.01011,2.12542 -7.72917,4.39098 -0.3415,1.07597 -4.51068,5.57997 -9.26485,10.00889 -8.21393,7.65198 -8.54722,8.12477 -6.69996,9.50391 1.7774,1.32698 2.22265,1.15082 5.19595,-2.05572 1.88129,-2.02886 3.73775,-3.20682 4.40451,-2.79475 0.71337,0.44089 0.88066,0.2724 0.43901,-0.4422 -1.2604,-2.03938 3.97177,-1.29016 5.90451,0.84549 0.99549,1.1 2.19023,2 2.65499,2 0.46475,-2e-5 0.84501,-0.90002 0.84501,-2.00002 0,-1.51846 0.66212,-1.99671 2.75,-1.98634 4.07082,0.0202 7.25,1.06407 7.25,2.38047 0,0.63847 0.68233,2.13503 1.51629,3.32567 1.30219,1.85913 1.92694,2.02166 4.42449,1.151 2.22146,-0.7744 3.57541,-0.65216 5.73371,0.51767 1.55403,0.8423 2.91217,1.54948 3.01809,1.5715 0.10592,0.022 0.0115,-0.90002 -0.20972,-2.04899 z m -1.32145,-6.08817 c 0.91378,0.15009 1.9269,-0.15667 2.25138,-0.6817 0.33482,-0.54174 -0.28202,-0.72656 -1.42627,-0.42733 -1.62597,0.4252 -1.89055,0.1652 -1.36685,-1.34326 0.62266,-1.7935 0.58838,-1.79223 -0.83249,0.031 -1.04066,1.33532 -1.69679,1.55378 -2.20364,0.73369 -0.39695,-0.64229 -1.16249,-0.8954 -1.7012,-0.56246 -0.61735,0.38154 -0.54991,1.12291 0.18241,2.0053 0.63902,0.76998 1.67338,1.07865 2.29856,0.68593 0.62518,-0.39272 1.88432,-0.59123 2.7981,-0.44114 z m -4.15427,-5.81661 c -1.20493,-1.04503 -1.94802,-2.29283 -1.65133,-2.77289 0.2967,-0.48007 -1.00502,-0.84663 -2.8927,-0.8146 -4.39331,0.0746 -5.19294,2.09061 -1.48091,3.73371 1.58046,0.69958 2.66899,1.60295 2.41897,2.0075 -0.25003,0.40454 0.44797,0.56172 1.55109,0.34928 1.10313,-0.21244 2.32253,0.12641 2.7098,0.75302 0.51243,0.82913 0.81732,0.79963 1.11998,-0.10835 0.22873,-0.68619 -0.56997,-2.10264 -1.7749,-3.14767 z m -6.55589,-1.08508 c -0.25343,-0.41005 0.20334,-0.64807 1.01504,-0.52894 2.0896,0.30669 2.84115,1.27449 0.98972,1.27449 -0.84919,0 -1.75134,-0.3355 -2.00476,-0.74555 z m -28.08419,0.82888 c -0.43768,-0.72851 0.035,-0.62422 1.13294,0.25 1.09798,0.87423 1.57062,0.97852 1.13294,0.25 -0.41982,-0.69878 -0.26393,-1.25 0.3535,-1.25 1.35967,0 5.0861,-3.65488 7.53124,-7.38664 2.07335,-3.16433 0.8918,-4.75122 -2.87838,-3.86581 -2.12703,0.49952 -2.12783,0.49277 -0.1393,-1.17774 1.96667,-1.65214 1.96251,-1.66197 -0.25,-0.58979 -1.2375,0.59969 -2.25,1.59952 -2.25,2.22183 0,0.62232 -0.29301,0.83848 -0.65112,0.48036 -0.88722,-0.88721 -3.27777,2.40469 -3.31708,4.56779 -0.0175,0.9625 -0.68024,1.75 -1.47278,1.75 -0.79254,0 -1.76207,0.51953 -2.15451,1.15451 -0.48434,0.78368 -0.2624,0.88262 0.69098,0.30804 1.18451,-0.71387 1.19523,-0.5883 0.0684,0.80169 -1.51313,1.86656 -0.78555,3.73576 1.45414,3.73576 0.93386,0 1.21656,-0.47178 0.74903,-1.25 z m 4.13294,-8.75 c 0.33992,-0.55 0.81648,-1 1.05902,-1 0.24254,0 0.44098,0.45 0.44098,1 0,0.55 -0.47656,1 -1.05902,1 -0.58246,0 -0.7809,-0.45 -0.44098,-1 z m 4.06429,-0.29312 c 0.37553,-0.98622 0.93469,-1.54122 1.24258,-1.23334 0.30789,0.30789 6.4e-4,1.1148 -0.68278,1.79313 -0.98762,0.98027 -1.10248,0.8654 -0.5598,-0.55979 z M 245,58.49964 c -0.68469,-0.825 -0.90969,-1.5 -0.5,-1.5 0.40969,0 0.14091,-0.7875 -0.59729,-1.75 -0.73821,-0.9625 -0.13217,-0.67208 1.34673,0.64536 1.47891,1.31745 2.45123,2.77995 2.16072,3.25 -0.71657,1.15945 -0.96823,1.09207 -2.41016,-0.64536 z m 4.54271,-0.4309 c -0.31644,-0.51199 -0.11065,-1.21809 0.45729,-1.5691 0.56794,-0.351 0.82405,-0.97567 0.56912,-1.38815 -0.25492,-0.41248 0.86274,-0.55531 2.48369,-0.3174 1.62096,0.2379 2.94719,0.87962 2.94719,1.42604 0,0.54642 -0.675,0.73447 -1.5,0.41789 -1.91392,-0.73444 -4.66245,0.28976 -3.93524,1.46641 0.3043,0.49237 0.32827,0.89521 0.0533,0.89521 -0.275,0 -0.75889,-0.4189 -1.07532,-0.9309 z"
     id="path6517"
     inkscape:connector-curvature="0" />
</svg>
