<?xml version="1.0" encoding="UTF-8" standalone="no"?>
<!-- Created with Inkscape (http://www.inkscape.org/) -->

<svg
   xmlns:dc="http://purl.org/dc/elements/1.1/"
   xmlns:cc="http://creativecommons.org/ns#"
   xmlns:rdf="http://www.w3.org/1999/02/22-rdf-syntax-ns#"
   xmlns:svg="http://www.w3.org/2000/svg"
   xmlns="http://www.w3.org/2000/svg"
   xmlns:sodipodi="http://sodipodi.sourceforge.net/DTD/sodipodi-0.dtd"
   xmlns:inkscape="http://www.inkscape.org/namespaces/inkscape"
   version="1.1"
   id="svg2"
   width="3626"
   height="1091.2545"
   viewBox="0 0 3626 1091.2545"
   sodipodi:docname="southernstar.svg"
   inkscape:version="0.92.3 (2405546, 2018-03-11)">
  <metadata
     id="metadata8">
    <rdf:RDF>
      <cc:Work
         rdf:about="">
        <dc:format>image/svg+xml</dc:format>
        <dc:type
           rdf:resource="http://purl.org/dc/dcmitype/StillImage" />
        <dc:title></dc:title>
      </cc:Work>
    </rdf:RDF>
  </metadata>
  <defs
     id="defs6" />
  <sodipodi:namedview
     pagecolor="#ffffff"
     bordercolor="#666666"
     borderopacity="1"
     objecttolerance="10"
     gridtolerance="10"
     guidetolerance="10"
     inkscape:pageopacity="0"
     inkscape:pageshadow="2"
     inkscape:window-width="793"
     inkscape:window-height="582"
     id="namedview4"
     showgrid="false"
     inkscape:zoom="0.0472"
     inkscape:cx="-1534.4576"
     inkscape:cy="545.69466"
     inkscape:window-x="1643"
     inkscape:window-y="471"
     inkscape:window-maximized="0"
     inkscape:current-layer="svg2"
     fit-margin-top="0"
     fit-margin-left="0"
     fit-margin-right="0"
     fit-margin-bottom="0" />
  <path
     style="fill:#000000"
     d="m 461.9275,1090.4899 c -38.9386,-4.1341 -68.8059,-25.0178 -73.9862,-51.7323 -6.3617,-32.8068 19.7423,-62.55799 63.0587,-71.86909 13.4258,-2.886 38.1949,-2.462 57.636,0.9865 17.3518,3.0779 21.9997,3.2818 27.0182,1.1849 4.1618,-1.7389 6.969,-1.9188 7.8442,-0.5026 0.901,1.4579 2.6389,30.9945 1.9512,33.16149 -0.9041,2.8485 -1.8176,2.276 -5.9561,-3.73279 -7.788,-11.3079 -20.8894,-20.2795 -34.9935,-23.963 -7.7394,-2.0213 -22.3312,-2.0134 -29.9185,0.016 -18.7706,5.021 -31.8554,19.2986 -36.0501,39.33619 -4.5121,21.5537 0.4813,40.419 14.0604,53.1216 11.7313,10.974 26.536,15.7592 45.4082,14.6768 17.576,-1.0081 29.6659,-5.8265 41.0385,-16.3558 8.2969,-7.6817 11.6034,-8.211 7.1072,-1.1379 -3.7709,5.932 -13.6037,13.8738 -22.6221,18.2714 -15.71,7.6605 -39.1982,10.9165 -61.5961,8.5385 z m 1213.9839,-0.01 c -29.7486,-2.0191 -56.1088,-12.3237 -72.3911,-28.2986 -29.3878,-28.8331 -11.2097,-75.12439 35.5404,-90.50479 12.4034,-4.0806 25.7751,-6.1716 43.4599,-6.7963 18.1569,-0.6413 30.1045,0.3148 46.3887,3.712 13.3278,2.7805 15.9337,2.6064 21.9902,-1.4694 2.8053,-1.8878 5.1008,-3.1253 5.1012,-2.75 4e-4,0.3753 1.1254,8.7421 2.5,18.5929 1.3746,9.8508 2.4993,18.51329 2.4993,19.24999 0,2.9932 -3.1069,1.0174 -6.5447,-4.16199 -9.6007,-14.4639 -25.0983,-22.1064 -49.9553,-24.6348 -13.8293,-1.4067 -25.0855,0.2901 -35.8315,5.4013 -8.2019,3.901 -17.5502,11.9706 -21.3204,18.4039 -6.0013,10.24059 -8.6586,27.49679 -6.3694,41.36349 3.8427,23.2776 17.5751,38.1518 39.3156,42.5844 7.156,1.459 8.5954,1.4552 17.5768,-0.047 13.7682,-2.3022 16.7543,-3.2786 19.0834,-6.2395 1.9011,-2.4169 2.0455,-3.9707 2.0455,-22.0152 0,-14.8476 -0.3352,-20.0631 -1.425,-22.1705 -1.3869,-2.682 -5.2468,-5.145 -8.063,-5.145 -0.7667,0 -1.6721,-0.45 -2.012,-1 -0.4076,-0.6595 11.2354,-0.9943 34.191,-0.9832 l 34.809,0.017 -3.2873,2.105 c -6.0129,3.8502 -6.6019,6.2574 -6.3373,25.8992 0.1358,10.0779 -0.1956,18.6742 -0.7792,20.2092 -1.2695,3.3389 -5.5353,5.5268 -19.6377,10.0716 -17.9239,5.7765 -29.5704,7.7692 -52.9585,9.0612 -3.3,0.1823 -11.2149,-0.023 -17.5886,-0.4552 z M 559,1089.7608 c 0,-0.4395 1.4976,-1.3407 3.3281,-2.0026 1.8305,-0.6619 4.418,-2.3632 5.75,-3.7808 l 2.4219,-2.5774 0.261,-52.17 c 0.2518,-50.33699 0.192,-52.28239 -1.7022,-55.36559 -1.3203,-2.1491 -3.278,-3.5895 -5.9782,-4.3985 -2.2083,-0.6616 -3.7783,-1.5861 -3.4888,-2.0545 0.2894,-0.4683 30.3245,-0.8515 66.7447,-0.8515 57.0609,0 66.5128,0.2062 68.3469,1.4908 3.713,2.6007 6.95,26.1566 3.7389,27.2081 -0.5927,0.1941 -1.6357,-0.8963 -2.3176,-2.423 -2.4251,-5.4289 -6.1881,-9.9545 -10.1099,-12.1587 -3.4294,-1.9274 -6.7017,-2.4254 -23.7363,-3.6128 -10.8672,-0.7574 -24.2084,-1.491 -29.6472,-1.6302 -9.6819,-0.2478 -9.938,-0.1957 -12.25,2.4921 -2.2871,2.659 -2.3613,3.2949 -2.3613,20.2349 0,17.23599 0.036,17.52529 2.4545,19.94429 2.2724,2.2723 3.1816,2.4543 12.25,2.4521 12.7845,0 35.964,-1.7656 39.8501,-3.0299 1.6801,-0.5466 5.0363,-3.013 7.4582,-5.4808 2.422,-2.4678 4.7599,-4.4869 5.1954,-4.4869 0.4355,0 0.7918,8.325 0.7918,18.5 0,10.175 -0.3375,18.4998 -0.75,18.4995 -0.4125,-3e-4 -2.738,-2.309 -5.1679,-5.1305 -7.4793,-8.6849 -9.8016,-9.3066 -36.219,-9.6962 l -22.6369,-0.3339 -1.6131,2.3031 c -1.3526,1.9312 -1.6131,5.5087 -1.6131,22.1574 v 19.8544 l 3.0696,3.0697 3.0697,3.0696 27.6803,-0.5706 c 31.7314,-0.6542 33.1115,-0.9198 45.2557,-8.71 4.4465,-2.8523 8.3185,-4.952 8.6046,-4.666 0.286,0.2861 -1.6625,5.6126 -4.3299,11.8368 l -4.85,11.3167 -5,0.6624 c -7.2119,0.9554 -132.5,0.9918 -132.5,0.038 z m 294.9692,-0.5054 c -5.4276,-1.5274 -6.9699,-2.5624 -16.2838,-10.9283 -45.5579,-40.9206 -90.247,-79.76719 -91.7643,-79.76719 -1.2011,0 -2.1615,0.9959 -2.652,2.74999 -0.423,1.5125 -0.7336,19.924 -0.6902,40.9144 0.089,43.0308 -0.1167,41.8261 7.7491,45.3974 l 4.172,1.8943 -17.8979,0.022 -17.8979,0.022 3.3439,-2.2534 c 1.839,-1.2394 4.2681,-3.8269 5.3978,-5.75 1.9981,-3.4013 2.0541,-4.8594 2.0541,-53.4966 0,-55.71539 0.1462,-54.46269 -6.75,-57.83239 -2.0625,-1.0078 -3.75,-2.2453 -3.75,-2.75 0,-0.5331 10.7968,-0.9176 25.7656,-0.9176 22.6564,0 26.1507,0.2112 28.9566,1.75 1.7551,0.9625 20.198,16.6399 40.9844,34.83869 20.7864,18.1988 38.8333,33.7238 40.1043,34.5 2.0748,1.2671 2.4674,1.207 3.8423,-0.5887 1.3148,-1.717 1.4747,-5.9874 1.1304,-30.1753 l -0.4012,-28.17519 -3.7014,-5.5748 -3.7014,-5.5747 h 13.1845 13.1845 l -2.1982,2.3399 c -1.209,1.2869 -2.6663,3.8744 -3.2385,5.75 -0.6825,2.2375 -0.9322,21.8805 -0.7261,57.12309 0.2893,49.4631 0.1797,53.8476 -1.385,55.4136 -2.1992,2.2007 -10.8559,2.7505 -16.8316,1.0689 z m 314.4863,0.3585 c -3.8745,-0.359 -7.975,-1.3055 -9.1122,-2.1034 -1.1372,-0.7978 -12.9003,-11.5548 -26.1401,-23.9043 -13.2399,-12.3496 -24.9594,-22.7819 -26.0436,-23.1829 -1.3415,-0.4963 -2.506,-0.1381 -3.6459,1.1215 -1.4655,1.6194 -1.6335,4.1414 -1.3443,20.1829 0.3628,20.1205 1.1665,23.3223 6.5932,26.2668 2.4648,1.3374 -0.7483,1.4839 -32.2626,1.471 -33.9756,-0.014 -34.8713,-0.064 -30.6031,-1.71 2.4184,-0.9326 5.3434,-2.966 6.5,-4.5187 2.0733,-2.7832 2.1031,-3.5483 2.1031,-54.0323 v -51.20919 l -3.75,-5.22 c -2.0625,-2.871 -3.75,-5.444 -3.75,-5.7177 0,-0.998 103.653,-0.4942 109.5663,0.5325 13.843,2.4036 27.5272,9.3915 33.8313,17.2762 2.5878,3.2365 3.1018,4.8393 3.4333,10.7062 0.8089,14.31689 -6.3902,21.62229 -30.452,30.90149 -14.0526,5.4193 -14.2838,4.5549 5.7973,21.681 41.8234,35.669 38.3838,33.1131 41.1689,30.5926 1.0154,-0.919 16.5105,-26.1154 34.4334,-55.9919 17.9229,-29.87659 33.5174,-54.85449 34.6543,-55.50649 1.1535,-0.6615 5.8243,-1.181 10.5672,-1.1754 6.8573,0.01 9.3102,0.4408 12.6921,2.2389 5.4379,2.8911 7.3051,5.4643 18.3205,25.2472 12.9682,23.29009 47.5976,80.67339 51.7393,85.73559 1.906,2.3296 5.0033,5.1861 6.883,6.3478 3.2441,2.0049 3.5475,2.0271 5.9749,0.4366 5.3165,-3.4835 5.3914,-4.3022 5.3755,-58.7379 -0.011,-38.04559 -0.3173,-50.89049 -1.2579,-52.78209 -0.6838,-1.375 -2.9271,-3.3246 -4.9853,-4.3324 -2.0582,-1.0078 -3.7421,-2.2453 -3.7421,-2.75 0,-0.5388 14.0343,-0.9176 34,-0.9176 18.7,0 34,0.3688 34,0.8195 0,0.4508 -1.4304,1.4633 -3.1786,2.25 -1.7482,0.7868 -4.1107,2.7004 -5.25,4.2526 -2.0136,2.7434 -2.0794,4.104 -2.3596,48.75139 -0.1918,30.5704 0.072,47.2673 0.7893,49.9306 1.8249,6.7771 2.797,7.0225 27.8835,7.0383 13.1115,0.01 23.9156,-0.4402 26.4038,-1.0959 5.8934,-1.5532 11.5619,-5.0407 16.0019,-9.8451 3.2058,-3.4689 6.7097,-5.3575 6.7097,-3.6165 0,1.2842 -5.0725,17.7821 -6.0005,19.516 -0.5823,1.0881 -2.5079,2.7524 -4.2791,3.6984 -3.7647,2.0108 4.2026,1.8991 -110.6183,1.5507 l -82.3979,-0.25 3.3979,-2.3208 c 2.6513,-1.8109 3.3685,-2.9645 3.2643,-5.25 -0.1501,-3.2921 -9.101,-19.4139 -13.1962,-23.7685 -5.1855,-5.5138 -6.0345,-5.6607 -32.7194,-5.6607 -27.6767,0 -29.1663,0.3015 -33.4034,6.761 -5.3322,8.1287 -12.043,20.8504 -12.0451,22.834 0,2.8271 2.7154,5.0115 7.2477,5.8237 2.0625,0.3695 3.75,1.1015 3.75,1.6266 0,1.0706 -59.0052,1.0779 -70.5445,0.01 z m 126.6694,-46.7769 c 1.6225,-1.6252 0.705,-3.5613 -9.3724,-19.7771 -9.8196,-15.801 -11.4319,-17.7419 -13.7207,-16.517 -1.9564,1.047 -21.0318,32.4554 -21.0318,34.6295 0,0.7986 1.0125,1.8765 2.25,2.3953 3.4037,1.4271 40.3646,0.7822 41.8749,-0.7307 z m -168.5127,-20.7546 c 9.7482,-2.8949 19.3591,-14.4617 19.3784,-23.32219 0.012,-5.5464 -1.686,-8.7064 -7.7039,-14.3353 -6.5398,-6.1173 -14.3779,-9.0563 -24.6185,-9.2312 -11.6772,-0.1995 -11.6682,-0.2172 -11.6682,23.0266 0,18.73979 0.7786,23.28209 4.229,24.67029 2.7428,1.1036 15.6718,0.591 20.3832,-0.8082 z M 1881,1089.6683 c 0,-0.4904 1.0519,-1.1556 2.3375,-1.4783 1.2857,-0.3226 3.5175,-1.5148 4.9597,-2.6493 2.1831,-1.7171 2.4684,-2.4672 1.7037,-4.4785 -2.0879,-5.4916 -13.4452,-23.6984 -16.2608,-26.0675 l -3.0349,-2.5538 -26.2817,0.3095 c -24.8267,0.2924 -26.4378,0.4251 -29.1026,2.3985 -4.1473,3.0712 -9.2419,10.172 -14.2203,19.8201 -5.0564,9.7994 -4.87,10.6734 2.7778,13.0284 4.3644,1.344 3.5366,1.4268 -14.8784,1.4877 l -19.5,0.065 3.6741,-2.2449 c 2.0207,-1.2347 4.5391,-3.3699 5.5963,-4.7449 1.8238,-2.372 31.4404,-51.6796 56.4899,-94.04789 12.8773,-21.7805 12.982,-21.8798 23.9594,-22.7089 5.8513,-0.442 7.4213,-0.1643 12.1501,2.1493 6.5903,3.2243 8.1859,5.257 18.1396,23.1075 15.9548,28.61299 53.612,90.53339 56.0163,92.10879 4.5579,2.9865 5.0353,1.7438 4.3138,-11.2307 -1.1198,-20.1387 -1.0191,-24.3781 0.579,-24.3781 0.8559,0 2.2683,2.554 3.5615,6.4399 1.1787,3.542 3.4954,8.1545 5.1483,10.25 7.0026,8.8779 21.3126,15.2474 39.169,17.4345 7.8759,0.9647 10.1392,0.8867 15.6983,-0.5408 18.5537,-4.7645 26.1397,-15.8937 17.4158,-25.55 -4.7185,-5.2228 -9.6521,-7.4298 -35.9114,-16.0643 -26.6138,-8.7511 -32.9705,-11.5183 -38.7968,-16.8888 -6.5566,-6.0436 -9.0504,-12.5221 -8.4974,-22.0751 0.3415,-5.89859 1.0734,-8.74769 3.2964,-12.83209 5.7001,-10.4729 14.3564,-16.1603 31.0002,-20.3677 7.7946,-1.9704 11.4711,-2.2691 27.4976,-2.2343 16.265,0.035 19.9957,0.3657 30.8806,2.7345 15.0529,3.2757 15.3222,3.2786 21.8694,0.2304 l 5.25,-2.4442 v 19.513 c 0,12.6989 -0.3477,19.29809 -0.9958,18.89759 -0.5477,-0.3385 -2.5136,-3.8525 -4.3687,-7.80899 -3.815,-8.1365 -8.7931,-13.39 -16.1811,-17.0761 -7.8756,-3.9294 -13.8543,-4.9531 -28.2934,-4.8443 -11.8115,0.089 -13.8727,0.3653 -18,2.4136 -3.5953,1.7843 -5.2005,3.401 -7.0208,7.071 -3.1296,6.3095 -2.3636,10.5188 2.8656,15.748 3.3018,3.30179 5.6892,4.44439 15.6942,7.51099 45.3617,13.9037 53.2345,17.1937 60.2702,25.1867 10.3938,11.8079 8.8077,29.4149 -3.7688,41.839 -5.9121,5.8404 -19.8824,12.6923 -30.6201,15.0181 -10.3692,2.246 -31.3445,1.4933 -55.5813,-1.9945 -9.625,-1.3851 -18.0666,-2.5291 -18.7591,-2.5422 -0.6925,-0.013 -2.6717,1.3261 -4.3983,2.9761 l -3.1392,3 h -37.3517 c -21.2068,-4e-4 -37.3517,-0.3858 -37.3517,-0.892 z m -16.2,-46.3084 c 0.66,-0.66 1.2,-1.779 1.2,-2.4867 0,-2.0056 -20.0835,-34.4081 -21.7145,-35.034 -0.7986,-0.3065 -2.2604,0.2928 -3.2485,1.3318 -3.0807,3.2393 -20.1163,32.7388 -19.8137,34.3101 0.4632,2.4051 4.2109,2.8737 23.8267,2.9791 13.2117,0.071 18.8953,-0.2456 19.75,-1.1003 z m 694.2,46.7125 c 0,-0.2681 1.7872,-1.6156 3.9715,-2.9945 7.2826,-4.5973 7.0285,-2.4455 7.0285,-59.518 0,-57.29109 0.2589,-55.17789 -7.2119,-58.87589 l -4.2881,-2.1225 68.7309,-8e-4 68.731,-8e-4 0.5409,2.25 c 0.8017,3.3349 3.3787,25.1987 3.0133,25.5658 -0.1729,0.1737 -0.7871,-0.2763 -1.365,-1 -12.5018,-15.6561 -17.9397,-17.5624 -52.6511,-18.457 -18.766,-0.4837 -22.294,-0.3432 -24,0.9558 -1.6667,1.2691 -2.1083,3.1611 -2.6498,11.3541 -0.3574,5.4072 -0.6949,14.37409 -0.75,19.92629 -0.1287,12.9686 0.2626,13.4064 11.9785,13.4015 14.0056,-0.01 39.9644,-1.9501 42.2635,-3.1654 1.1868,-0.6273 4.1828,-2.9149 6.6578,-5.0835 l 4.5,-3.9429 0.2744,17.2733 c 0.1509,9.5003 -0.1325,17.6801 -0.6296,18.1772 -0.5387,0.5387 -1.6599,-0.6178 -2.7744,-2.8614 -2.6577,-5.3502 -7.9083,-9.1683 -14.2665,-10.3741 -2.9573,-0.5608 -14.0905,-1.0197 -24.7404,-1.0197 -18.0302,0 -19.5012,0.1377 -21.3635,2 -1.8636,1.8636 -2,3.3333 -2,21.5497 0,21.308 0.7422,24.8455 5.4611,26.0299 1.3336,0.3347 14.9485,0.4537 30.2552,0.2645 l 27.8305,-0.3441 6.641,-3.2705 c 5.9686,-2.9394 8.1409,-4.8078 14.0524,-12.0868 2.5829,-3.1803 4.9573,-2.834 4.1638,0.6073 -1.1687,5.0683 -8.5175,21.0428 -10.5099,22.8459 -1.4935,1.3516 -4.5625,1.9639 -12.6822,2.5303 -11.7655,0.8208 -124.2119,1.1705 -124.2119,0.3863 z m 156,0.081 c 0,-0.2842 1.7168,-0.9791 3.8151,-1.5441 2.0984,-0.565 4.9109,-2.1934 6.25,-3.6185 l 2.4349,-2.5912 0.2756,-53.5565 c 0.3093,-60.10509 0.6979,-56.80329 -7.1036,-60.34539 l -4.172,-1.8943 35,8e-4 c 33.3342,8e-4 34.8392,0.08 31.6215,1.6652 -1.8582,0.9154 -4.219,3.0427 -5.2463,4.7272 -1.7566,2.8807 -1.8679,5.9863 -1.8715,52.20209 0,46.9008 0.083,49.2468 1.9085,51.5 l 1.9123,2.3608 h 25.8377 25.8378 l 5.5,-2.8136 c 3.025,-1.5475 7.9172,-5.1475 10.8715,-8 l 5.3715,-5.1864 -0.5111,4 c -0.7846,6.1405 -7.0811,19.0273 -10.3406,21.164 -2.6285,1.723 -6.6341,1.8548 -65.0961,2.1414 -34.2624,0.1679 -62.2952,0.073 -62.2952,-0.2115 z m 361,-0.5042 c -4.7188,-0.9699 -7.6428,-2.6425 -13.1061,-7.4969 -2.5334,-2.2511 -24.074,-21.4178 -47.868,-42.5928 -23.794,-21.175 -44.5627,-39.3342 -46.1525,-40.35369 -5.9994,-3.8472 -5.8734,-4.7027 -5.8734,39.87199 0,45.623 -0.1345,44.7212 7.2119,48.3576 l 4.2881,2.1225 -61.5,-0.1063 c -43.0217,-0.074 -60.1693,-0.4029 -57.071,-1.0934 2.436,-0.543 5.5349,-1.7118 6.8865,-2.5974 5.0947,-3.3382 5.1845,-4.3413 5.1845,-57.9348 0,-56.10449 0.2037,-54.52379 -7.6041,-58.99999 l -3.8959,-2.2336 33.3212,-0.016 33.3212,-0.017 -3.4584,3.2617 c -1.9356,1.8255 -3.9459,5.0178 -4.5656,7.25 -1.4966,5.3908 -1.5349,93.44779 -0.044,100.40109 0.8056,3.7563 1.9799,5.806 4.6893,8.1848 l 3.6145,3.1737 9.4783,-0.5655 c 10.3064,-0.6149 14.0006,-2.259 15.2697,-6.7959 0.3708,-1.3255 0.7068,-24.6849 0.7468,-51.9099 l 0.073,-49.49999 -2.8797,-6.75 -2.8796,-6.75 h 23.8416 c 13.1129,0 24.8834,0.4003 26.1567,0.8894 1.2733,0.4892 19.7896,16.1267 41.1472,34.74999 21.3577,18.6234 39.7467,34.2898 40.8644,34.8144 4.3692,2.0508 4.8035,-0.667 4.8035,-30.0619 v -27.22579 l -3.4924,-6.583 -3.4924,-6.5831 h 14.1886 14.1885 l -3.1348,3.25 c -1.7242,1.7875 -3.6124,4.5168 -4.1962,6.0651 -0.7008,1.859 -1.0613,21.2617 -1.0613,57.12759 0,42.2504 -0.2776,54.5343 -1.25,55.3115 -1.7256,1.3791 -11.5039,2.2083 -15.75,1.3355 z m 40.567,0.144 c -0.3201,-0.3201 1.0666,-1.5161 3.0815,-2.6578 2.0149,-1.1418 4.6058,-3.3459 5.7575,-4.898 2.0491,-2.7616 2.1003,-3.882 2.388,-52.2297 0.2001,-33.61759 -0.057,-50.71029 -0.8036,-53.48389 -0.8685,-3.2253 -2.0669,-4.691 -5.7398,-7.0203 l -4.6422,-2.944 h 67.0408 c 64.8394,0 67.0979,0.063 68.7784,1.92 1.2256,1.3543 2.1415,5.3944 3.1085,13.7131 0.7541,6.4862 1.1942,11.9699 0.9781,12.1861 -0.49,0.49 -4.102,-3.2911 -7.9009,-8.271 -4.7555,-6.2337 -10.727,-8.2866 -27.6133,-9.4927 -18.3648,-1.3118 -39.5803,-1.3505 -41.9606,-0.077 -3.1445,1.6829 -4.0394,6.72 -4.0394,22.7361 0,14.90609 0.6229,18.66549 3.3997,20.51969 3.0131,2.0119 47.4985,-0.2827 51.0889,-2.6352 1.1515,-0.7546 4.2299,-3.4481 6.8409,-5.9857 2.611,-2.5376 4.955,-4.6138 5.2089,-4.6138 0.2539,0 0.4616,8.775 0.4616,19.5 0,10.725 -0.3375,19.4965 -0.75,19.4923 -0.4125,0 -1.7828,-1.8161 -3.045,-4.0263 -2.9903,-5.236 -9.0565,-9.554 -15.3049,-10.894 -2.7492,-0.5896 -13.7187,-1.072 -24.3767,-1.072 h -19.3782 l -2.0726,2.6349 c -1.9309,2.4546 -2.0726,3.9282 -2.0726,21.5496 0,19.672 0.7323,23.7313 4.5448,25.1943 0.8903,0.3417 13.6503,0.6212 28.3555,0.6212 29.7873,0 33.2882,-0.5323 41.7566,-6.3485 2.6637,-1.8295 6.3572,-5.312 8.2079,-7.7389 3.3941,-4.4511 7.0143,-6.6458 5.8174,-3.5268 -0.3353,0.8737 -1.7755,5.5318 -3.2004,10.3514 -3.232,10.9314 -4.2832,13.0496 -7.7571,15.6298 -2.7309,2.0283 -3.8353,2.0643 -69.1755,2.2549 -36.5202,0.1065 -66.6621,-0.068 -66.9822,-0.3882 z M 928.5,1088.4552 c 2.2,-0.4972 4.9828,-1.4121 6.1841,-2.0333 4.6931,-2.4268 4.8245,-4.0477 4.6852,-57.8062 l -0.1306,-50.44409 -2.3694,-1.9334 c -2.1126,-1.7239 -3.4528,-1.8704 -12.3693,-1.3521 -5.5,0.3197 -12.3331,1.2857 -15.1847,2.1468 -6.7349,2.0338 -14.0483,7.9303 -17.8153,14.3638 -4.8819,8.3375 -5.5422,7.1563 -5.0797,-9.0868 0.2232,-7.8375 0.4449,-14.5875 0.4927,-15 0.048,-0.4125 34.287,-0.75 76.087,-0.75 h 76 v 14.0352 c 0,13.7253 -0.044,14.0115 -2,12.9648 -1.1,-0.5887 -2,-1.5146 -2,-2.0575 0,-2.0198 -8.5796,-10.2025 -13.098,-12.4921 -5.4318,-2.7526 -14.5622,-4.4321 -24.152,-4.4428 -11.6293,-0.013 -10.75,-4.4318 -10.75,54.02449 0,40.8807 0.2589,50.6517 1.4153,53.4195 1.4108,3.3765 3.6727,5.1274 8.5263,6.6002 1.4071,0.4269 -14.3166,0.7698 -34.9416,0.7618 -24.6568,-0.01 -36.1301,-0.3241 -33.5,-0.9183 z m 1236.2894,-1.3773 c 8.506,-3.96 8.2106,-1.8578 8.2106,-58.4208 0,-32.04109 -0.3662,-49.94009 -1.0595,-51.78209 -0.5828,-1.5483 -2.6991,-4.5026 -4.703,-6.5651 l -3.6434,-3.75 h 55.043 c 51.5416,0 55.5343,0.1257 62.7669,1.9754 14.584,3.73 26.5376,12.179 30.8495,21.805 4.671,10.42759 1.748,23.62109 -6.9191,31.23089 -12.5588,11.0267 -43.9261,17.6728 -70.7524,14.9909 -9.5816,-0.9579 -11.1148,-0.8979 -12.5015,0.4894 -2.4428,2.4438 -2.233,41.5782 0.248,46.2584 0.9476,1.7875 1.8238,3.2568 1.9472,3.2651 0.1234,0.01 2.0243,0.6635 4.2243,1.4561 3.6153,1.3024 0.4896,1.4443 -32.5,1.4751 l -36.5,0.034 5.2894,-2.4625 z m 83.939,-60.6798 c 6.3208,-1.5916 13.648,-8.703 15.2885,-14.8382 1.7406,-6.5097 0.8048,-18.54679 -1.842,-23.69209 -4.228,-8.2191 -10.5021,-11.0891 -26.1749,-11.9732 -15.7105,-0.8861 -14.9335,-2.1723 -15.0856,24.97179 -0.1357,24.2269 0.1007,25.1807 6.4403,25.9779 6.8852,0.8658 17.002,0.6546 21.3737,-0.4462 z m 71.5222,61.7487 c 5.8667,-1.5783 8.4428,-3.8234 9.7382,-8.4868 0.6039,-2.1739 1.0016,-23.0122 1.0041,-52.6001 0,-55.24369 0.1765,-53.90709 -7.4929,-58.21849 l -4,-2.2486 33.75,-0.016 c 18.5625,-0.01 33.75,0.1922 33.75,0.4474 0,0.2551 -1.9125,2.2476 -4.25,4.4276 l -4.25,3.9638 -0.2768,50.61589 c -0.1853,33.8862 0.079,51.9387 0.8008,54.618 1.7608,6.5389 5.3454,8.0889 16.976,7.3402 10.7923,-0.6947 13.8074,-2.14 15.6936,-7.5231 1.3731,-3.9189 1.676,-40.8699 0.659,-80.4063 l -0.6431,-24.99999 -3.7899,-3.6482 c -2.0844,-2.0065 -3.519,-3.919 -3.188,-4.25 0.3309,-0.331 24.7142,-0.594 54.1851,-0.5844 59.4645,0.019 61.5912,0.2015 74.4316,6.3774 13.9572,6.7132 21.6211,16.3371 21.6419,27.17709 0.03,15.5763 -10.481,25.9503 -33.5274,33.0903 -8.7174,2.7007 -9.6123,2.7776 -32.6841,2.8073 -30.9398,0.04 -28.287,-2.2521 -28.244,24.4018 0.035,21.9534 0.3624,23.266 6.7696,27.1727 3.1846,1.9418 2.9265,1.9483 -74.3043,1.8848 -64.8038,-0.053 -76.7217,-0.2732 -72.7494,-1.3419 z m 170.8887,-62.7422 c 5.3408,-2.2975 11.2877,-8.229 13.4579,-13.423 2.037,-4.8753 1.7556,-14.40389 -0.6124,-20.73269 -2.9098,-7.7771 -7.8647,-12.2912 -16.3057,-14.8551 -8.4514,-2.567 -19.4945,-2.1082 -23.6359,0.9821 l -2.5432,1.8977 -0.2711,19.6248 c -0.3095,22.41139 0.3824,25.67469 5.9837,28.22099 4.4579,2.0265 17.3832,1.1002 23.9267,-1.7148 z M 3307,1073.0599 v -12.5 h 159.5 159.5 v 12.5 12.5 H 3466.5 3307 Z m -3307,-8 v -12.5 H 163.5 327 v 12.5 12.5 H 163.5 0 Z M 0,886.55991 v -43 H 1811.5 3623 v 43 43 H 1811.5 0 Z m 3426.5,-57.2411 c -3.5675,-1.2881 -21.9477,-11.2255 -32.5,-17.5713 -60.517,-36.3933 -109.7526,-87.4794 -136.5554,-141.6876 -9.3946,-19.0004 -15.1491,-36.5701 -20.4702,-62.5 l -4.2068,-20.5 0.5301,-18 c 1.187,-40.3008 9.6157,-69.8547 38.9295,-136.5 8.5692,-19.4823 14.931,-32.8683 52.7538,-111 33.9623,-70.1571 46.3845,-98.363 60.5563,-137.5 11.8337,-32.68 16.9085,-48.254 21.4971,-65.9726 7.8187,-30.1911 10.2042,-43.9947 13.9381,-80.651 2.0037,-19.6717 3.3259,-28.703 4.5929,-31.3731 3.4814,-7.3364 13.1631,-8.18 18.6767,-1.6274 2.8844,3.4279 33.5678,63.2633 47.6793,92.9789 23.3166,49.0993 54.1338,124.194 69.9904,170.5508 6.9089,20.1982 24.0763,77.3458 33.0729,110.0944 10.7383,39.0887 19.0096,85.8964 24.5625,139 3.3074,31.6306 3.6072,36.8291 3.1142,54 -1.6216,56.4747 -17.8069,103.6427 -50.9563,148.5 -29.4888,39.9036 -80.1261,83.1025 -124.4641,106.1807 -9.7626,5.0815 -14.3742,5.877 -20.741,3.5782 z m 20.5275,-15.4589 c 6.0653,-4.1702 30.5567,-26.2144 41.6142,-37.4561 19.9554,-20.2878 56.9475,-61.5341 66.2275,-73.8439 26.6295,-35.3235 39.1308,-69.0332 39.1308,-105.516 0,-8.3238 0.3896,-13.4472 1.0391,-13.6637 1.8082,-0.6027 -7.4246,-67.013 -13.1733,-94.7535 -10.1336,-48.9003 -30.2081,-109.72 -57.1236,-173.0668 -10.4952,-24.7011 -54.389,-112.7178 -66.5761,-133.5 -8.6395,-14.7326 -10.9569,-17.5 -14.6544,-17.5 -3.274,0 -4.2259,1.6387 -6.4902,11.1725 -4.7405,19.9602 -19.3082,57.695 -37.7667,97.8275 -24.0115,52.206 -49.4745,110.7897 -63.0232,145 -8.6482,21.8367 -27.7461,77.9345 -30.7681,90.3776 -1.3194,5.4326 -4.7091,24.1076 -7.5326,41.5 -5.0039,30.8228 -5.1205,32.0143 -4.609,47.1224 1.0337,30.5322 10.0372,58.5858 28.2539,88.0353 7.2709,11.7543 15.7914,22.6382 38.3072,48.9326 27.4557,32.0632 42.7346,48.5478 54.8839,59.2146 26.8611,23.5835 27.049,23.7007 32.2606,20.1175 z m -7.5275,-10.4823 c -4.2954,-2.4087 -19.5044,-15.7052 -29.5,-25.7906 -25.367,-25.5948 -43.1825,-52.4467 -52.4966,-79.1238 -10.5668,-30.2652 -10.861,-44.4014 -1.8814,-90.4033 4.1741,-21.3834 7.8681,-36.4077 13.4245,-54.6007 6.7917,-22.2378 28.1719,-88.6261 43.927,-136.3993 8.1623,-24.75 19.0243,-59.625 24.1379,-77.5 8.4551,-29.5558 10.0058,-33.9364 12.0305,-33.9847 2.2251,-0.053 28.3995,53.4577 41.325,84.4847 14.9586,35.9073 33.0604,95.3006 39.9403,131.0468 7.1222,37.0054 10.839,72.7815 10.9037,104.9532 0.041,20.3607 -0.2747,25.7438 -2.0812,35.5 -6.8013,36.7306 -22.815,69.8745 -47.6901,98.7054 -9.032,10.4683 -40.8071,40.7714 -45.2239,43.1288 -2.6893,1.4354 -4.2332,1.4316 -6.8157,-0.016 z m -2975.9053,10.3355 c -0.2879,-0.4658 -4.702,-1.1251 -9.8091,-1.4651 -51.3367,-3.4177 -89.3415,-31.1703 -103.1352,-75.3134 -4.9241,-15.7581 -6.1058,-23.7661 -6.1058,-41.3747 0,-17.6486 1.1987,-25.7406 6.1293,-41.3747 11.8033,-37.4264 41.8579,-63.121 84.6344,-72.3567 11.3448,-2.4494 43.2306,-2.4146 56.4501,0.062 38.9362,7.2933 68.1991,29.3238 83.7991,63.0879 9.106,19.7087 11.5421,45.8167 6.9338,74.3092 -5.9657,36.885 -27.4153,66.3052 -58.9346,80.8343 -8.9582,4.1294 -21.7124,7.5593 -42.3998,11.4024 -18.8735,3.5061 -16.9004,3.2601 -17.5622,2.1892 z m 11.712,-19.6449 c 22.7875,-5.9354 34.854,-21.7853 39.2129,-51.5083 2.3437,-15.9808 3.7907,-42.6783 3.1437,-58 -1.7375,-41.1462 -7.7101,-63.4548 -19.9881,-74.658 -9.9918,-9.1172 -21.0268,-13.3712 -34.8411,-13.4311 -13.8593,-0.06 -22.5103,3.6551 -31.594,13.5684 -10.316,11.2581 -15.8105,25.2045 -18.2722,46.3797 -1.8139,15.6027 -0.7363,80.2974 1.5015,90.141 6.1315,26.9713 16.7602,41.1322 35.3283,47.0692 7.0149,2.2429 17.8665,2.4297 25.509,0.4391 z m -348.04887,16.8941 c -11.01048,-1.4964 -50.26068,-9.307 -72.25783,-14.379 -7.425,-1.7121 -16.88491,-3.375 -21.02203,-3.6954 -7.17436,-0.5556 -7.67521,-0.4536 -10.83645,2.2064 -1.82294,1.5339 -4.28803,4.8073 -5.47798,7.2743 -1.18995,2.4669 -3.15697,5.1364 -4.37117,5.9322 -2.06838,1.3555 -2.33623,1.2359 -4.24626,-1.8971 -1.34064,-2.1989 -2.03466,-5.0557 -2.02703,-8.3438 0.006,-2.75 -0.943,-32.3542 -2.10973,-65.787 -2.28361,-65.4372 -2.23409,-66.713 2.58953,-66.713 1.24092,0 2.72156,0.5625 3.29029,1.25 0.56874,0.6875 2.00392,6.65 3.1893,13.25 5.86248,32.6413 12.58206,47.2935 29.40473,64.1174 16.83705,16.8384 46.32825,31.9291 72.37578,37.0349 12.42599,2.4357 30.40335,2.2115 40.5415,-0.5057 17.85392,-4.7851 33.60803,-17.1643 40.91065,-32.1466 12.11249,-24.8504 8.78242,-47.9787 -9.25885,-64.3051 -10.51519,-9.5157 -29.03028,-18.5827 -78.95228,-38.6639 -41.74702,-16.7927 -58.42072,-26.4598 -76.07116,-44.1046 -9.14148,-9.1385 -15.40194,-17.7234 -20.72974,-28.4264 -14.7954,-29.7224 -15.5476,-72.8191 -1.82371,-104.4881 14.92396,-34.4382 50.37538,-61.0608 91.36578,-68.6122 11.79893,-2.1736 48.6084,-2.9892 66.71253,-1.4783 15.49146,1.293 22.51184,2.7236 49.5463,10.097 28.21312,7.6948 31.97385,8.3761 39.20471,7.1024 7.75724,-1.3664 12.92358,-4.7701 16.46641,-10.8484 2.57531,-4.4184 5.96202,-8.16 7.45756,-8.2391 2.29484,-0.1215 2.79843,9.5038 3.43263,65.6083 0.64709,57.2437 0.59137,60.2914 -1.15634,63.25 -1.0099,1.7096 -2.07666,3.1053 -2.37058,3.1016 -0.98693,-0.0127 -5.03439,-6.5997 -5.03439,-8.1932 0,-3.4222 -5.34439,-19.7402 -9.06672,-27.6835 -8.28492,-17.6795 -22.55657,-35.3863 -37.39376,-46.3942 -17.62716,-13.0779 -37.40469,-20 -61.04596,-21.3661 -21.16899,-1.2233 -37.23154,4.2509 -49.91437,17.011 -14.54442,14.6331 -19.4911,31.9274 -14.60104,51.0474 2.59515,10.1469 6.27995,16.8396 13.01769,23.644 12.8427,12.9697 25.17135,19.0886 85.50416,42.4372 52.57794,20.3474 81.46583,42.0022 96.05484,72.0042 6.32955,13.0166 8.50649,22.8906 9.14957,41.5 1.34817,39.013 -9.33505,69.4333 -33.34863,94.9599 -22.38639,23.7969 -53.30238,38.5963 -90.93219,43.5292 -14.21521,1.8634 -42.13309,1.8203 -56.16576,-0.087 z m 576.09407,0.6437 c -18.1215,-2.0881 -37.1703,-7.2707 -50.2251,-13.6647 -15.7167,-7.6977 -25.485,-19.5034 -29.1258,-35.2007 -0.9163,-3.9509 -1.2681,-25.5615 -1.3674,-84 -0.1206,-71.0311 -0.2938,-78.9726 -1.7812,-81.6831 -2.5016,-4.5585 -5.133,-6.4917 -11.5239,-8.4663 -3.581,-1.1065 -5.9539,-2.4273 -6.1536,-3.4253 -0.2972,-1.4849 4.0408,-1.6021 50.5,-1.3652 33.1896,0.1693 50.7651,0.6062 50.6523,1.2592 -0.1988,1.1509 -0.8235,1.508 -8.4177,4.8115 -3.503,1.5237 -6.4903,3.6933 -8,5.8102 l -2.4095,3.3783 0.031,76.5 c 0.022,54.1388 0.3741,78.3444 1.2041,82.8098 4.3846,23.5892 20.5723,34.5007 51.2647,34.5557 10.9639,0.02 13.3926,-0.2969 19.7637,-2.5761 17.6442,-6.312 27.5039,-17.3789 30.1805,-33.8755 1.462,-9.0108 1.422,-151.0548 -0.044,-156.3351 -1.5411,-5.5509 -5.3895,-8.913 -13.1626,-11.4998 -3.7056,-1.2331 -6.7375,-2.6554 -6.7375,-3.1605 0,-0.5369 12.0727,-0.9185 29.059,-0.9185 17.7812,0 28.8347,0.363 28.4809,0.9354 -0.318,0.5145 -3.1448,2.1106 -6.2819,3.5468 -6.5727,3.0091 -8.8109,4.8252 -11.1104,9.0154 -1.479,2.6952 -1.7014,11.2892 -2.1739,84.0024 -0.5212,80.2075 -0.5479,81.0643 -2.7353,87.5721 -5.7867,17.2169 -16.9293,27.2865 -38.55,34.8376 -17.9906,6.2833 -43.2427,9.2214 -61.3365,7.1364 z M 2301,811.94191 c -12.848,-1.5401 -27.0786,-4.1403 -44,-8.0396 -32.09,-7.3946 -47.0567,-10.3601 -55.5164,-11.0001 -7.7063,-0.5829 -8.143,-0.4997 -11.2938,2.1514 -1.8026,1.5169 -4.1452,4.4587 -5.2058,6.5376 -1.0605,2.0788 -3.1456,4.7373 -4.6336,5.9077 l -2.7054,2.1281 -1.7507,-2.7836 c -1.466,-2.3308 -1.919,-6.9306 -2.7854,-28.2835 -4.6831,-115.4072 -4.4951,-107.7616 -2.7157,-110.4773 1.9386,-2.9587 6.0872,-3.3893 7.4437,-0.7727 0.4989,0.9625 1.2292,5.5604 1.6228,10.2175 2.0965,24.8051 12.23,47.3095 29.3916,65.2723 16.9839,17.7768 36.2565,28.1097 68.0097,36.463 11.7605,3.0939 15.2229,3.5936 25.139,3.6284 21.2646,0.074 36.7429,-5.9877 50.5319,-19.791 13.0274,-13.0409 19.0215,-27.8198 18.2818,-45.0751 -0.3361,-7.8408 -0.858,-10.0214 -3.9488,-16.5 -6.196,-12.987 -16.412,-22.2692 -34.3649,-31.2237 -9.8201,-4.898 -41.6828,-18.6543 -61.5,-26.5518 -30.3115,-12.0797 -45.2197,-19.9759 -59.6161,-31.5763 -22.7418,-18.325 -36.7347,-41.1346 -42.0481,-68.5422 -2.2445,-11.5775 -2.2202,-36.3882 0.048,-48.5711 5.6619,-30.4169 19.8632,-53.3627 44.1091,-71.2693 26.6735,-19.6995 60.5144,-28.4894 103.5076,-26.8854 24.477,0.9132 44.8937,4.4065 70,11.9768 18.1578,5.4752 32.6578,7.7151 40.4639,6.2506 4.3238,-0.8111 10.9074,-6.4206 13.5021,-11.5045 1.0017,-1.9625 2.7202,-4.3812 3.8191,-5.375 1.942,-1.7562 2.0532,-1.7283 3.9756,1 1.8972,2.6924 2.0073,5.2758 2.7028,63.3915 l 0.725,60.5846 -2.3535,2.7361 -2.3535,2.7361 -2.2208,-2.364 c -1.3839,-1.4731 -3.1468,-6.0143 -4.678,-12.0503 -8.476,-33.4133 -26.4125,-57.8322 -54.1255,-73.6866 -41.2126,-23.5776 -86.6011,-20.4777 -107.1654,7.3189 -5.8632,7.9253 -8.1587,13.2786 -9.9229,23.1405 -3.6254,20.2668 4.0342,39.3646 20.8613,52.0138 7.8799,5.9235 15.8941,9.6507 62.7333,29.176 58.1203,24.228 73.2266,32.5196 90.6791,49.7723 15.7086,15.5288 25.2613,32.8201 29.5773,53.5379 4.8031,23.056 -0.6172,60.9098 -11.9564,83.5 -8.4815,16.8971 -25.8243,36.7441 -40.7635,46.6495 -16.03,10.6287 -36.4946,18.9202 -57.9305,23.4713 -10.5627,2.2426 -14.9408,2.6011 -35.0695,2.8716 -12.65,0.17 -24.575,0.1203 -26.5,-0.1104 z m -1409.9322,-3.5079 c -6.8378,-0.4612 -12.8249,-1.2312 -13.3047,-1.711 -0.4967,-0.4967 1.1972,-1.4106 3.9322,-2.1216 9.7048,-2.523 11.2895,-3.2347 13.7723,-6.1853 1.3931,-1.6557 2.8704,-4.2132 3.2827,-5.6833 0.4123,-1.4701 0.7497,-44.6716 0.7497,-96.0035 0,-92.1568 -0.025,-93.3496 -2,-94.8517 -1.6288,-1.2389 -4.1345,-1.4193 -13.5,-0.9721 -19.5996,0.9358 -28.0904,3.6924 -36.1669,11.7418 -5.6711,5.652 -8.8388,11.6968 -12.4483,23.755 -2.6116,8.7243 -4.5897,11.306 -5.6261,7.3428 -0.5079,-1.9422 0.8005,-38.9294 1.7998,-50.8792 0.3961,-4.7355 1.1398,-7.6403 2.1765,-8.5 1.277,-1.059 19.4629,-1.2499 96.1699,-1.0091 88.5499,0.2779 94.7083,0.4088 96.3658,2.0484 1.4944,1.4784 1.9179,4.7081 2.7145,20.7032 0.5191,10.4233 1.2416,23.6079 1.6054,29.2991 0.6207,9.7083 0.5476,10.3257 -1.1834,9.9923 -1.3925,-0.2682 -2.6299,-2.9608 -5.0453,-10.979 -4.081,-13.5474 -6.1134,-17.4553 -11.8079,-22.7044 -7.8758,-7.2596 -15.4563,-9.531 -35.8847,-10.7524 -11.3153,-0.6764 -11.4562,-0.6579 -12.9408,1.706 -1.2937,2.06 -1.5938,15.2335 -2.1739,95.4192 -0.4918,67.9913 -0.3699,93.8288 0.4528,96 1.7371,4.5837 4.6974,7.1371 9.8135,8.4644 10.1978,2.6457 11.5641,3.2113 9.9451,4.1174 -4.4352,2.482 -63.1252,3.6229 -90.6982,1.763 z M 1196,808.96271 c -14.4271,-0.9712 -20,-1.6422 -20,-2.408 0,-0.459 3.2243,-1.5679 7.1652,-2.4642 8.5011,-1.9335 12.3326,-4.3969 13.6831,-8.7974 0.5457,-1.7783 1.2934,-22.4509 1.6615,-45.9391 l 0.6692,-42.706 -2.544,-2.544 -2.5441,-2.5441 h -34.9347 c -32.9282,0 -35.0702,0.11 -37.2954,1.9149 l -2.3608,1.9148 0.045,44.3352 c 0.04,39.3425 0.2323,44.6859 1.706,47.4503 1.7443,3.272 7.0018,6.3848 10.7839,6.3848 3.6757,0 10.047,2.2536 9.6595,3.4166 -0.2517,0.7554 -16.4581,1.1617 -53.5278,1.3422 -46.0926,0.2243 -53.1668,0.064 -53.1668,-1.203 0,-1.3645 5.4894,-3.5322 9,-3.554 2.6248,-0.016 7.9495,-3.8706 10.0054,-7.2427 1.947,-3.1932 1.9871,-5.2298 1.9871,-100.7591 0,-111.6949 0.979,-101.0716 -9.8454,-106.8409 -3.3809,-1.802 -6.1471,-3.7 -6.1471,-4.2177 0,-0.5753 18.5039,-0.9414 47.5833,-0.9414 37.019,0 47.493,0.2711 47.1764,1.221 -0.2239,0.6715 -2.6157,2.359 -5.3152,3.75 -5.9786,3.0805 -9.0017,7.3591 -9.6978,13.7251 -0.2889,2.6421 -0.45,21.0831 -0.3579,40.9799 0.1565,33.8491 0.288,36.3094 2.0442,38.25 1.8325,2.0249 2.7225,2.074 37.567,2.074 35.025,0 35.7255,-0.039 37.595,-2.1071 1.8132,-2.0055 1.8942,-3.9866 1.6805,-41.1315 -0.2159,-37.5464 -0.3052,-39.1913 -2.3569,-43.4295 -1.9708,-4.0712 -7.8876,-9.3319 -10.4957,-9.3319 -0.6121,0 -1.9274,-0.9 -2.9229,-2 -1.8076,-1.9973 -1.7466,-2 45.9283,-2 51.1639,0 51.9606,0.089 42.391,4.7135 -5.5126,2.6642 -9.5184,7.1654 -10.3575,11.6387 -0.3399,1.8113 -0.2453,46.544 0.2102,99.406 l 0.828,96.1127 2.7478,2.867 c 1.7008,1.7745 5.4162,3.7264 9.75,5.1222 3.8512,1.2404 7.0022,2.6208 7.0022,3.0675 0,0.4468 -2.1375,1.1036 -4.75,1.4597 -5.4095,0.7374 -71.8861,1.5786 -80.25,1.0155 z m 96.25,-0.065 c -2.6984,-1.0888 -1.0195,-3.1355 3.5,-4.2668 2.6125,-0.6539 6.4257,-1.6269 8.4737,-2.1622 2.4227,-0.6332 4.6938,-2.245 6.5,-4.613 l 2.7763,-3.6398 v -97.7545 c 0,-97.1714 -0.012,-97.771 -2.0618,-100.5162 -3.095,-4.1455 -6.5383,-6.3663 -10.9616,-7.0699 -5.0991,-0.811 -9.1378,-3.2799 -7.2863,-4.4541 0.7203,-0.4568 41.8671,-0.8375 91.4373,-0.8459 74.0053,-0.013 90.3259,0.2238 91.2367,1.3211 0.61,0.7351 2.2358,11.293 3.6129,23.462 2.7873,24.6308 3.1973,30.8604 2.1033,31.9544 -1.0899,1.0899 -3.4669,-2.5924 -4.6618,-7.2219 -2.4344,-9.4317 -4.4591,-13.1634 -10.3731,-19.1184 -10.3492,-10.421 -16.3393,-11.6549 -63.0877,-12.9959 -21.8988,-0.6281 -24.1943,-0.5373 -25.75,1.0183 -1.5341,1.5341 -1.7079,4.7388 -1.7079,31.4857 0,16.3777 -0.2859,33.1597 -0.6353,37.2932 -0.5867,6.9404 -0.4604,7.6905 1.6496,9.8005 l 2.2849,2.2849 27.5831,-0.7101 c 15.1708,-0.3905 29.7478,-1.1743 32.3934,-1.7417 9.3053,-1.9956 15.9786,-9.2719 19.349,-21.0974 0.969,-3.3998 2.1981,-5.75 3.0071,-5.75 1.1337,0 1.3682,6.5268 1.3682,38.0733 0,35.4366 -0.1189,38.0505 -1.7162,37.7428 -1.0926,-0.2104 -2.6625,-2.8717 -4.32,-7.3233 -4.7007,-12.6248 -7.2922,-16.0608 -14.3317,-19.002 -5.4846,-2.2917 -24.5098,-3.6698 -45.6251,-3.305 -17.7285,0.3063 -18.236,0.3738 -20.0974,2.675 -1.8052,2.2317 -1.9065,4.391 -1.8532,39.5 0.063,41.4772 0.2705,43.0757 5.9492,45.8548 7.9983,3.9142 51.4828,4.7868 69.9944,1.4045 4.125,-0.7537 9.75,-2.4158 12.5,-3.6935 7.3506,-3.4154 15.2085,-11.9763 20.4767,-22.3087 4.8783,-9.5678 5.0748,-9.8222 6.7758,-8.7709 0.8325,0.5145 -0.3809,6.8759 -4.327,22.684 -6.0373,24.1856 -8.5488,30.5736 -12.4255,31.6047 -2.8815,0.7664 -179.8638,0.9631 -181.75,0.202 z m 375.0715,-1.0877 c -1.9623,-1.0911 -14.7167,-16.6233 -33.8727,-41.25 -16.8989,-21.725 -31.8477,-40.85 -33.2196,-42.5 -2.4502,-2.9471 -7.0424,-6.4804 -8.4391,-6.4934 -2.3127,-0.022 -2.8928,9.3881 -2.5999,42.1717 0.2975,33.3017 0.3924,34.7903 2.3908,37.5 2.2542,3.0565 6.354,5.3375 13.419,7.466 2.475,0.7456 4.3876,1.8057 4.2502,2.3557 -0.1615,0.6467 -18.7999,1.0915 -52.75,1.2588 -43.546,0.2147 -52.5002,0.028 -52.5002,-1.0917 0,-1.4045 6.118,-3.6671 9.9157,-3.6671 3.7866,0 8.1804,-2.9858 9.6818,-6.5792 3.0002,-7.1803 3.4793,-23.6886 3.1905,-109.9208 -0.26,-77.645 -0.4481,-86.2917 -1.9356,-89.0024 -2.5031,-4.5611 -5.2074,-6.56 -12.0742,-8.9246 -7.9482,-2.737 -8.7911,-5.0253 -2.1846,-5.9308 6.583,-0.9023 89.9552,-0.6801 119.4064,0.3182 22.2266,0.7534 25.3326,1.0777 33.4731,3.4953 12.9251,3.8385 19.9097,7.8682 28.6177,16.5107 20.4754,20.3214 22.2982,48.5744 4.5326,70.2566 -6.324,7.7181 -14.8092,13.5583 -31.0354,21.3611 -9.7128,4.6706 -13.588,7.0286 -13.588,8.2678 0,0.9535 11.3041,15.4394 25.1202,32.1909 39.9907,48.487 48.9382,58.8074 53.7455,61.9917 11.4714,7.5983 22.3442,5.8833 25.1988,-3.9746 0.6854,-2.367 0.9311,-35.7872 0.7332,-99.7296 l -0.2977,-96.1696 -2.5,-2.6983 c -1.375,-1.4841 -5.875,-4.2488 -10,-6.1438 -11.8389,-5.4387 -9.7176,-5.8267 31.5579,-5.7728 33.2006,0.043 35.2404,0.1517 38.5,2.0461 3.2163,1.8692 47.0174,54.5145 88.1158,105.9081 23.1986,29.0098 21.6919,27.4039 23.4524,24.9983 1.2513,-1.7096 1.42,-10.2324 1.1682,-58.9983 -0.2746,-53.1806 -0.4187,-57.2502 -2.1508,-60.7342 -1.8661,-3.7538 -7.0141,-7.7658 -9.9645,-7.7658 -2.6152,0 -6.679,-2.2272 -6.679,-3.6605 0,-1.0862 5.095,-1.3395 26.941,-1.3395 14.8175,0 27.1876,0.399 27.489,0.8867 0.8424,1.3631 -1.6785,2.9979 -7.1101,4.6109 -4.9052,1.4567 -8.0199,3.9651 -10.2171,8.2281 -0.8288,1.608 -1.3256,31.1217 -1.7901,106.3375 l -0.6428,104.1118 -2.4001,0.9125 c -4.2622,1.6205 -16.4003,1.0405 -20.7698,-0.9925 -5.2315,-2.434 -8.4887,-6.0083 -31.5257,-34.595 -38.3569,-47.5974 -105.8389,-130.052 -108.3748,-132.4206 -1.4254,-1.3313 -2.9309,-2.0815 -3.3456,-1.667 -0.9238,0.9235 -1.6021,146.3201 -0.7115,152.5273 0.7439,5.1844 5.4369,10.5822 10.0487,11.5578 8.0931,1.712 11.4089,2.8792 11.4089,4.0158 0,0.6894 -1.0125,1.5248 -2.25,1.8564 -1.2375,0.3317 -29.707,0.6091 -63.2656,0.6166 -56.2597,0.013 -61.2609,-0.1227 -64.1629,-1.7363 z m -57.1207,-119.3803 c 12.941,-2.7602 24.048,-10.9138 29.2001,-21.4358 5.8061,-11.8575 7.1087,-29.7879 2.9582,-40.7197 -3.9926,-10.5161 -13.7904,-19.6252 -25.0634,-23.3019 -3.9849,-1.2997 -8.7127,-1.8938 -15.1321,-1.9013 -14.2111,-0.017 -13.1636,-3.5107 -13.1636,43.9087 0,32.0868 0.2549,39.5466 1.405,41.1195 0.9876,1.3506 3.1419,2.1065 7.25,2.5442 3.2148,0.3424 6.1604,0.6887 6.5458,0.7696 0.3854,0.081 3.0854,-0.3616 6,-0.9833 z M 2544,807.79291 c 0,-1.7337 0.9794,-2.3004 5.75,-3.3273 9.0383,-1.9457 13.1186,-4.4025 15.3032,-9.2144 1.8259,-4.0217 1.9038,-7.9203 1.9248,-96.3646 l 0.022,-92.1732 -2.5752,-3.0605 -2.5753,-3.0605 -9.1747,0.5446 c -32.7114,1.9419 -41.8098,8.4226 -50.0827,35.6729 -1.7667,5.8195 -3.148,8.75 -4.1242,8.75 -1.2062,0 -1.4679,-2.0684 -1.4679,-11.5996 0,-15.3195 1.8466,-45.3465 2.9524,-48.0089 0.6182,-1.4884 2.1508,-2.3153 5.2117,-2.8121 2.3847,-0.387 45.4067,-0.3817 95.6044,0.012 68.9402,0.5404 91.674,1.0119 92.9257,1.9271 1.8034,1.3187 2.4483,8.4671 3.8411,42.576 0.6256,15.3193 0.5204,17.6703 -0.8133,18.1821 -1.2183,0.4675 -1.9815,-1.2325 -3.7299,-8.3085 -6.6407,-26.8755 -17.1769,-34.8181 -48.4921,-36.5549 -11.5699,-0.6417 -12.0717,-0.5856 -14,1.566 -1.97,2.1981 -2,3.642 -2,96.3762 0,90.472 0.074,94.2663 1.8855,97.2593 2.3309,3.8499 5.8268,5.9764 12.1578,7.3952 2.6812,0.6009 5.5244,1.6315 6.3182,2.2903 2.6088,2.1652 -4.8465,2.6113 -55.6115,3.3276 l -49.25,0.695 v -2.0896 z m 117,-0.08 c 0,-1.1844 0.5625,-2.1991 1.25,-2.2549 10.1033,-0.82 13.3267,-2.1659 17.1303,-7.1527 1.3661,-1.791 3.9038,-6.404 5.6395,-10.2511 5.12,-11.3483 37.1835,-86.2327 59.2997,-138.4947 24.0966,-56.9418 27.1432,-63.6507 29.4491,-64.8503 2.9262,-1.5223 26.6725,-2.004 29.9917,-0.6085 3.3184,1.3953 1.5562,-2.3719 28.047,59.9588 9.3502,22 26.4181,61.6 37.9287,88 11.5107,26.4 21.7915,50.475 22.8462,53.5 2.5198,7.2264 10.2053,15.3036 16.2623,17.0911 5.4446,1.6068 11.4358,-0.1883 14.5163,-4.3494 3.1705,-4.2825 3.7425,-23.7077 3.4226,-116.2417 -0.2649,-76.6492 -0.4004,-82.2143 -2.0767,-85.284 -1.8945,-3.4695 -6.9953,-6.3747 -14.4567,-8.234 -3.1268,-0.7792 -4.25,-1.5584 -4.25,-2.9486 0,-1.5499 1.0335,-2.0193 5.75,-2.6115 3.1625,-0.3971 36.125,-0.2685 73.25,0.2857 65.2506,0.9742 67.7833,1.0832 76,3.27 20.9905,5.5863 34.2447,15.5146 42.3904,31.7532 8.824,17.5911 6.8906,37.4851 -5.1992,53.4985 -6.8295,9.0457 -23.6523,20.7075 -37.1581,25.7583 -3.244,1.2132 -6.6628,3.0507 -7.5974,4.0835 -1.6006,1.7686 -1.5945,2.0389 0.105,4.6533 0.9923,1.5266 6.3635,8.1756 11.9359,14.7756 5.5725,6.6 20.1301,24.2176 32.3502,39.1502 12.2201,14.9326 25.3154,30.0718 29.1007,33.6426 7.6305,7.1983 15.0287,10.7072 22.5748,10.7072 3.3177,0 4.6808,0.4736 5.4386,1.8896 0.8296,1.5502 0.6114,1.9968 -1.2148,2.4864 -3.9729,1.0649 -79.9823,0.6806 -83.9618,-0.4246 -4.3333,-1.2035 -5.3575,-2.4205 -45.5623,-54.1399 -14.4035,-18.5286 -27.1914,-34.3911 -28.4176,-35.25 -6.3419,-4.442 -6.7844,-1.9656 -6.7844,37.9653 0,39.7067 0.1842,40.8224 7.3173,44.3142 2.3005,1.1261 6.3448,2.588 8.9874,3.2486 2.7818,0.6953 4.4327,1.573 3.921,2.0847 -2.4523,2.4523 -109.485,3.6184 -165.2257,1.8 -32.7976,-1.07 -41.707,-2.1078 -29.6793,-3.4572 8.6118,-0.9662 12.6793,-3.9091 12.6793,-9.1737 0,-3.0414 -14.0385,-39.7158 -18.5202,-48.3824 -3.0065,-5.814 -4.0359,-5.9612 -41.6801,-5.9594 -41.3684,0 -39.6517,-0.423 -44.4469,10.9984 -12.6025,30.0172 -15.6757,38.0528 -16.0972,42.0895 -0.4266,4.0853 -0.1812,4.8239 2.234,6.7237 1.4923,1.1738 4.3551,2.4051 6.3618,2.7362 2.0068,0.331 4.9473,1.0978 6.5346,1.7039 l 2.8859,1.102 -2.3859,0.9004 c -1.3123,0.4952 -15.5485,1.1593 -31.636,1.4757 l -29.25,0.5753 z m 133.4182,-83.7604 c 0.87,-0.3338 1.5818,-1.3406 1.5818,-2.2373 0,-0.8967 -5.8991,-15.361 -13.1091,-32.143 -13.2576,-30.8584 -16.6588,-36.7899 -19.4016,-33.836 -1.5522,1.6717 -27.4893,63.2227 -27.4893,65.2346 0,0.8191 0.7875,1.948 1.75,2.5086 1.8853,1.0981 53.9077,1.5324 56.6682,0.4731 z M 3020.5,685.11831 c 16.2267,-7.9555 25.4257,-25.6995 24.3131,-46.8978 -0.5228,-9.96 -3.4141,-16.7761 -10.4235,-24.5722 -7.8326,-8.7117 -22.6354,-13.9791 -36.1381,-12.8593 -9.6657,0.8015 -9.2515,-1.099 -9.2515,42.4474 0,38.0511 0.117,39.3744 3.8598,43.6579 1.3959,1.5974 2.897,1.7912 11.6215,1.5 8.666,-0.2893 10.8288,-0.7316 16.0187,-3.276 z M 3554,102.67751 c -22.3142,-7.2008 -36.1179,-25.6868 -36.3033,-48.6176 -0.126,-15.58 5.1739,-28.4078 15.8712,-38.4146 13.0132,-12.1733 30.5343,-16.7431 48.2136,-12.5749 26.0762,6.1479 42.9338,32.1644 38.2852,59.0862 -3.3992,19.6866 -18.0966,35.8666 -37.1981,40.9507 -7.4868,1.9926 -22.0329,1.7761 -28.8686,-0.4298 z m 30.5847,-15.0104 c 7.947,-3.7189 15.111,-10.7486 18.9757,-18.62 2.6577,-5.413 2.9396,-6.9462 2.9396,-15.9872 0,-9.063 -0.2731,-10.5392 -2.9146,-15.7548 -3.4949,-6.9004 -12.7555,-16.0482 -19.077,-18.8445 -18.889,-8.3555 -41.2303,0.47 -50.3283,19.8812 -2.2847,4.8745 -2.6801,7.0459 -2.6801,14.7181 0,7.9941 0.3459,9.7265 3.0945,15.5 9.3238,19.5843 31.1463,27.9253 49.9902,19.1072 z M 3550,54.55991 v -25 l 13.25,0.022 c 16.4478,0.027 20.7244,1.502 23.7618,8.1942 1.0694,2.3561 1.9516,5.4088 1.9607,6.7838 0.031,4.695 -2.1696,10.3817 -5.0626,13.0842 l -2.89,2.6996 4.9719,8.8581 c 2.7345,4.872 4.98,9.1956 4.99,9.6081 0.01,0.4125 -3.1351,0.75 -6.9891,0.75 h -7.0073 l -4.2155,-8.5 c -3.7763,-7.6142 -4.505,-8.5 -6.9928,-8.5 H 3563 v 8.5 8.5 h -6.5 -6.5 z m 23.3651,-4.0726 c 3.0498,-2.3989 3.4745,-6.3422 0.9799,-9.0987 -1.1695,-1.2923 -3.0762,-1.8287 -6.5,-1.8287 H 3563 v 5.8333 c 0,3.2084 0.3,6.1334 0.6667,6.5 1.41,1.41 7.1824,0.5732 9.6984,-1.4059 z"
     id="path4520"
     inkscape:connector-curvature="0" />
</svg>
