<?xml version="1.0" encoding="UTF-8" standalone="no"?>
<!-- Created with Inkscape (http://www.inkscape.org/) -->

<svg
   xmlns:dc="http://purl.org/dc/elements/1.1/"
   xmlns:cc="http://creativecommons.org/ns#"
   xmlns:rdf="http://www.w3.org/1999/02/22-rdf-syntax-ns#"
   xmlns:svg="http://www.w3.org/2000/svg"
   xmlns="http://www.w3.org/2000/svg"
   xmlns:sodipodi="http://sodipodi.sourceforge.net/DTD/sodipodi-0.dtd"
   xmlns:inkscape="http://www.inkscape.org/namespaces/inkscape"
   version="1.1"
   id="svg2"
   width="2929.3281"
   height="1565.2288"
   viewBox="0 0 2929.3281 1565.2288"
   sodipodi:docname="spectraenergy.svg"
   inkscape:version="0.92.3 (2405546, 2018-03-11)">
  <metadata
     id="metadata8">
    <rdf:RDF>
      <cc:Work
         rdf:about="">
        <dc:format>image/svg+xml</dc:format>
        <dc:type
           rdf:resource="http://purl.org/dc/dcmitype/StillImage" />
        <dc:title></dc:title>
      </cc:Work>
    </rdf:RDF>
  </metadata>
  <defs
     id="defs6" />
  <sodipodi:namedview
     pagecolor="#ffffff"
     bordercolor="#666666"
     borderopacity="1"
     objecttolerance="10"
     gridtolerance="10"
     guidetolerance="10"
     inkscape:pageopacity="0"
     inkscape:pageshadow="2"
     inkscape:window-width="1459"
     inkscape:window-height="810"
     id="namedview4"
     showgrid="false"
     inkscape:zoom="0.0472"
     inkscape:cx="-1882.8099"
     inkscape:cy="782.78187"
     inkscape:window-x="719"
     inkscape:window-y="498"
     inkscape:window-maximized="0"
     inkscape:current-layer="svg2"
     fit-margin-top="0"
     fit-margin-left="0"
     fit-margin-right="0"
     fit-margin-bottom="0" />
  <path
     style="fill:#000000"
     d="m 1524.6478,1564.402 c -16.9715,-0.9308 -29.5722,-2.3827 -48,-5.5306 -25.871,-4.4194 -61.919,-14.2312 -66.063,-17.9815 -3.0264,-2.7389 -2.4107,-8.6137 2.4088,-22.9846 2.3901,-7.1271 7.1753,-22.1834 10.6336,-33.4584 3.4583,-11.275 6.6573,-20.9071 7.1088,-21.4046 0.4762,-0.5247 11.8628,2.9474 27.1164,8.2687 44.3454,15.4702 62.3235,18.849 94.7954,17.8155 36.9594,-1.1762 58.6562,-9.304 79.0972,-29.6305 18.6185,-18.5143 30.2131,-42.019 43.4015,-87.9844 4.3937,-15.3132 5.1023,-18.8463 4.184,-20.8618 -1.105,-2.4251 -1.1075,-2.4239 -5.0559,2.4354 -17.5299,21.5741 -41.593,38.4113 -66.9755,46.8636 -26.725,8.8994 -57.5968,9.2448 -86.1712,0.9643 -46.7447,-13.5461 -76.6286,-54.2907 -86.1548,-117.4662 -2.3934,-15.8721 -2.3772,-50.8937 0.031,-67.5 4.2148,-29.0615 12.4702,-56.5481 24.1068,-80.2645 27.4234,-55.8907 69.5145,-90.4974 124.5367,-102.3923 9.0847,-1.9639 13.398,-2.2698 32,-2.2697 18.4015,10e-5 22.8954,0.3123 31.1828,2.166 24.2565,5.4258 43.8568,14.9293 60.9893,29.5717 2.6956,2.3038 9.0225,9.0768 14.0596,15.051 l 9.1585,10.8621 4.7767,-22.3621 c 2.6272,-12.2992 5.023,-23.3747 5.324,-24.6122 l 0.5472,-2.25 h 45.981 c 25.2895,0 45.9809,0.192 45.9809,0.4266 0,0.2347 -2.949,13.8472 -6.5533,30.25 -3.6044,16.4029 -17.5667,81.7984 -31.0274,145.3234 -34.283,161.7911 -35.1719,165.9113 -39.0479,181 -24.0327,93.5551 -67.0305,143.3845 -139.3714,161.5147 -13.5743,3.402 -27.9072,5.3074 -48.5212,6.4502 -19.6881,1.0915 -24.4182,1.0904 -44.4788,-0.01 z m 94.4768,-235.9946 c 19.2295,-5.0789 34.4475,-15.9962 48.1866,-34.5689 24.5759,-33.2219 35.8276,-74.0526 32.4255,-117.6672 -1.4604,-18.7223 -3.0649,-25.9479 -7.7969,-35.1111 -5.0009,-9.6839 -18.0995,-22.7442 -27.9915,-27.9098 -19.9827,-10.4348 -43.7651,-10.3264 -64.1762,0.2926 -26.36,13.714 -49.1091,46.6612 -59.1757,85.7032 -7.6065,29.5011 -8.9637,60.7335 -3.5545,81.8007 3.3967,13.2294 10.1924,26.8593 17.1252,34.3475 8.053,8.6982 16.672,12.8338 32.4807,15.5852 5.754,1.0014 24.8201,-0.4499 32.4768,-2.4722 z m 230.5232,236.0521 c -11.9277,-0.8551 -22.2569,-2.3275 -36,-5.1317 -14.6514,-2.9896 -16.8145,-3.7211 -17.5134,-5.9231 -0.5448,-1.7164 18.7005,-69.4782 20.1422,-70.9199 0.258,-0.258 6.1845,1.0464 13.1701,2.8987 21.7383,5.764 40.1441,5.3754 55.0009,-1.161 11.2633,-4.9555 23.3079,-15.5481 36.6999,-32.2756 12.6921,-15.8532 18.7143,-25.1997 19.2121,-29.8173 0.2878,-2.6702 -4.6276,-33.8349 -13.5931,-86.1827 -27.6634,-161.5213 -39.3241,-230.5111 -44.4949,-263.25 l -5.2516,-33.25 h 49.1647 49.1647 l 1.4868,11.25 c 0.8178,6.1875 8.4225,66.482 16.8993,133.9879 10.0856,80.3182 15.8184,122.8941 16.5873,123.1898 0.691,0.2658 5.0596,-6.629 10.6054,-16.7379 10.7898,-19.6678 78.0932,-145.4676 110.0448,-205.6898 11.8183,-22.275 22.6211,-41.6745 24.0061,-43.11 1.3851,-1.4355 3.9585,-2.898 5.7185,-3.25 4.041,-0.8082 100.9502,-0.8504 100.9502,-0.044 0,2.1846 -87.4519,151.1361 -224.8093,382.9039 -41.8307,70.5824 -46.5213,78.0211 -57.5159,91.2137 -18.2397,21.8861 -43.1796,38.6389 -68.0585,45.7166 -16.9593,4.8247 -41.3549,7.0349 -61.6163,5.5823 z M 944.64777,1414.8501 c -40.4411,-3.5703 -66.6028,-10.742 -90.3038,-24.7552 -52.5403,-31.0642 -75.2853,-89.5927 -65.1273,-167.5888 5.6202,-43.1538 22.1372,-82.7462 47.2774,-113.3272 30.293,-36.8492 77.0586,-66.486 119.2777,-75.5903 30.4696,-6.5706 65.41443,-4.9719 98.35473,4.4996 44.1761,12.7022 72.0193,38.3796 84.9681,78.3587 5.1753,15.9784 6.6594,26.0113 7.2486,49 0.5656,22.0724 -0.8893,42.6754 -4.7109,66.7101 -2.3953,15.0643 -3.4835,18.8185 -5.7829,19.9515 -0.9359,0.4611 -58.8516,1.0634 -128.7016,1.3384 l -127.00003,0.5 0.064,12 c 0.049,9.2266 0.5815,13.8489 2.3022,20 11.5133,41.1566 47.1919,60.6118 106.6335,58.1462 29.30423,-1.2155 54.80883,-6.8459 87.12153,-19.2328 7.7668,-2.9774 14.7725,-5.4134 15.5682,-5.4134 1.1825,0 0.402,6.5277 -4.2744,35.75 -3.1466,19.6625 -5.9985,36.4347 -6.3375,37.2715 -1.0114,2.4966 -3.6473,3.634 -17.1807,7.4138 -19.0699,5.3262 -43.0456,10.2718 -61.0096,12.585 -15.04383,1.9371 -48.13813,3.2878 -58.38753,2.3829 z m 103.82883,-230.7196 c 5.5311,-3.0182 6.5193,-6.9253 5.8633,-23.1836 -0.8786,-21.7733 -4.9595,-32.9526 -16.0937,-44.0868 -11.1749,-11.1749 -23.8375,-15.5719 -45.09843,-15.6601 -26.8082,-0.1112 -48.9427,8.5965 -66.5672,26.1876 -9.25,9.2325 -15.5002,18.0277 -22.348,31.4479 -4.5651,8.9465 -11.5848,25.1536 -11.5848,26.7469 0,0.575 29.3814,0.8255 76.25,0.65 71.48083,-0.2676 76.45823,-0.3991 79.57883,-2.1019 z M 0.0189656,1405.6969 c 0.2783,-0.9625 2.146,-10.075 4.1504,-20.25 2.0045,-10.175 16.6864004,-80.375 32.6265004,-156 15.9401,-75.625 37.244,-176.875 47.342,-225 10.098,-48.12502 18.823604,-88.71402 19.390304,-90.19772 0.5667,-1.4837 2.2671,-3.5087 3.7788,-4.5 3.1681,-2.0775 -11.245304,-1.9497 175.0113,-1.5523 l 117.1706,0.25 0.6309,2.8724 c 0.347,1.5798 -0.092,5.9673 -0.9746,9.75 -1.8872,8.0846 -6.6546,33.2387 -9.4746,49.9897 -1.6304,9.6852 -2.4338,12.2534 -4.47,14.2897 l -2.4825,2.4824 -95.0109,0.058 -95.0109,0.058 -2.5142,2.5126 c -2.1574,2.1562 -3.1437,5.6316 -6.9527,24.50002 -2.4412,12.0931 -7.8457,38.0849 -12.0101,57.7596 -4.1643,19.6747 -7.5715,35.9872 -7.5715,36.25 0,0.2628 39.6,0.4778 88,0.4778 69.7362,0 87.9989,0.2594 87.9946,1.25 0,0.6875 -3.3062,17.8536 -7.3406,38.1469 -5.805,29.1995 -7.7213,37.1792 -9.1858,38.25 -1.521,1.1122 -16.9086,1.3531 -86.4368,1.3531 -92.8129,0 -87.24,-0.3648 -90.4918,5.9235 -0.797,1.5411 -3.5268,13.1013 -6.0664,25.6893 -2.5395,12.5879 -8.155,39.5372 -12.4789,59.8872 -4.3239,20.35 -8.1744,39.3625 -8.5568,42.25 l -0.6952,5.25 h 99.1289 c 83.7375,0 99.1288,0.2148 99.1288,1.3835 0,3.3172 -16.128,76.0658 -17.1314,77.2749 -0.9223,1.1112 -26.7791,1.3416 -150.5584,1.3416 -141.8546044,0 -149.4193044,-0.089 -148.9390044,-1.75 z m 394.8412044,1.0006 c -21.281,-0.2206 -27.3975,-0.5694 -27.7871,-1.5846 -0.5315,-1.3851 6.8399,-36.5809 29.4611,-140.666 23.372,-107.5398 36.5087,-169.839 43.6487,-207 1.4267,-7.425 2.8387,-14.5125 3.1378,-15.75 l 0.5439,-2.25 h 46.7318 46.7317 l -2.6803,16 c -1.4742,8.8 -2.4147,16 -2.0901,16 0.3245,0 6.2151,-4.0456 13.0901,-8.9903 14.2273,-10.2326 35.7541,-21.4786 49.6839,-25.9558 32.166,-10.3384 63.7285,-8.831 95.4734,4.5598 37.6624,15.887 58.6324,44.0854 63.8987,85.9248 1.5357,12.2008 0.6986,44.2583 -1.5266,58.4615 -1.6344,10.4328 -4.0919,22.1379 -14.9063,71 -3.1041,14.025 -11.5025,52.725 -18.6631,86 -11.9279,55.4278 -13.234,60.6911 -15.5797,62.7795 l -2.5603,2.2794 -44.8608,-0.2794 c -30.8193,-0.192 -45.2032,-0.6222 -45.955,-1.3745 -1.1308,-1.1317 6.9125,-42.4599 25.4261,-130.6445 19.9456,-95.0051 22.6509,-119.1047 15.5122,-138.1847 -7.252,-19.3826 -25.5183,-31.6646 -47.1829,-31.7249 -23.9975,-0.067 -45.0703,9.1626 -62.2729,27.2743 -16.5452,17.4197 -28.7903,43.2714 -37.9494,80.1185 -1.9491,7.841 -11.8367,53.6313 -21.9726,101.7563 -10.1359,48.125 -18.7458,88.322 -19.1332,89.3266 -1.2037,3.1218 -4.983,3.681 -23.2466,3.4402 -9.7267,-0.1283 -29.9643,-0.3606 -44.9725,-0.5162 z m 758.78763,-0.8913 c 0,-1.5839 22.2172,-110.1054 34.8771,-170.3593 15.6545,-74.5068 26.0165,-126.3289 32.0925,-160.5 5.3269,-29.9585 5.817,-31.9969 8.2153,-34.1673 1.8961,-1.7161 4.8252,-1.8373 46.0317,-1.9045 l 44.0067,-0.072 -0.6603,7.0718 c -0.3632,3.8895 -2.5057,16.2135 -4.7611,27.3867 -3.5994,17.8315 -3.9218,20.4937 -2.6374,21.7782 1.2845,1.2845 2.2651,0.3903 8.022,-7.3149 25.3814,-33.971 61.474,-50.7501 105.3135,-48.9594 7.7,0.3146 16.8477,1.1008 20.3281,1.7472 5.7107,1.0606 6.277,1.383 5.8036,3.3046 -0.7142,2.8991 -16.6317,81.5018 -16.6317,82.1294 0,1.0432 -9.1321,0.4402 -14.4979,-0.9574 -8.6976,-2.2655 -23.7656,-2.9456 -34.5021,-1.5574 -47.5389,6.1466 -79.727,40.9641 -96.9875,104.91 -2.1682,8.0326 -7.5616,32.3798 -11.9854,54.1048 -12.1475,59.656 -24.6318,118.1631 -25.8724,121.25 l -1.1052,2.75 h -47.5247 c -26.1387,0 -47.5248,-0.2883 -47.5248,-0.6407 z m 1057.5,-5.6838 c -5.484,-1.4011 -14.6351,-6.0475 -16.8834,-8.5725 -1.2591,-1.4139 -0.9788,-2.1209 2.3763,-5.9935 l 3.8037,-4.3905 3.0291,2.1569 c 5.4996,3.9161 11.5176,6.0795 16.974,6.1021 8.6065,0.036 13.2003,-3.3669 13.2003,-9.7774 0,-4.8737 -3.2508,-7.6479 -15.0326,-12.8287 -12.6323,-5.5549 -17.1458,-8.8411 -20.1022,-14.6362 -2.9328,-5.7487 -2.3173,-14.9431 1.3738,-20.5206 6.296,-9.514 22.6181,-12.6478 35.4581,-6.808 3.4084,1.5502 6.9487,3.649 7.8672,4.6639 1.5741,1.7395 1.4863,2.0774 -1.5312,5.8872 -1.7606,2.223 -3.3684,4.0418 -3.5727,4.0418 -0.2044,0 -2.0118,-1.1131 -4.0166,-2.4736 -4.3823,-2.9739 -8.9699,-3.9526 -15.2233,-3.2478 -8.1675,0.9206 -12.1249,8.9079 -6.9684,14.0644 1.2386,1.2386 7.3097,4.4495 13.4913,7.1351 17.6623,7.6738 21.6234,11.9827 21.6234,23.5219 0,7.3287 -1.4561,10.8285 -6.5352,15.7075 -6.1119,5.871 -19.2487,8.544 -29.3316,5.968 z m 50.5,-38.6755 v -38 h 7.4282 7.4281 l 2.1788,5.75 c 4.8724,12.8584 15.9649,44.2879 15.9649,45.2351 0,0.5582 0.3572,1.0149 0.7939,1.0149 0.4366,0 2.003,-3.7125 3.4809,-8.25 1.4779,-4.5375 5.5637,-16.125 9.0795,-25.75 l 6.3923,-17.5 7.6267,-0.2921 7.6267,-0.292 v 38.042 38.0421 h -6.6461 -6.6462 l 0.6492,-26.25 c 0.3571,-14.4375 0.897,-27.825 1.1998,-29.75 0.7888,-5.0134 -1.06,-1.8106 -4.0796,7.0673 -1.3052,3.8376 -5.4019,14.8648 -9.1037,24.5051 l -6.7306,17.5277 -3.0556,-0.3001 c -2.9478,-0.2894 -3.2464,-0.7943 -8.4582,-14.3 -2.9714,-7.7 -7.2766,-19.283 -9.5671,-25.7399 l -4.1646,-11.7399 0.4271,29.4899 0.4272,29.4899 h -6.1258 -6.1258 z m 129.5,-324.4607 c 84.4029,-19.5814 156.6293,-53.64632 218.5934,-103.09762 49.484,-39.4913 91.981,-88.5523 127.043,-146.6657 10.1946,-16.8971 29.0603,-55.1188 36.1678,-73.276 26.9152,-68.7579 38.3203,-142.4485 33.6625,-217.5 -7.2066,-116.1217 -45.9258,-214.0278 -119.6449,-302.5362 -13.0803,-15.7044 -41.613,-44.9983 -57.3218,-58.8509 C 2552.3344,66.881882 2461.3614,25.518882 2354.5676,9.9882822 c -9.5809,-1.3933 -18.9723,-2.5351 -20.8698,-2.5373 -7.199,-0.01 -1.1182,-1.8088 11.45,-3.3899 32.9429,-4.14410004 75.4194,-5.2416 105,-2.7129 93.8604,8.0237 182.3911,40.1752998 256.6548,93.2091998 40.1779,28.692298 80.7896,68.559498 110.3967,108.372998 128.252,172.464 146.8794,361.9533 53.844,547.7335 -81.8865,163.5171 -211.882,258.72062 -387.3955,283.71282 -26.7481,3.8088 -45.304,5.1753 -76.5,5.6339 l -31,0.4556 z M 456.64777,977.44718 c 0,-0.9841 104.503,-508.1719 105.6354,-512.6837 l 0.5814,-2.3166 h 44.959 c 42.3505,0 44.9286,0.1015 44.4362,1.75 -0.7091,2.374 -8.612,36.9429 -8.612,37.6708 0,2.29 4.3286,-0.6921 11.86,-8.1708 43.3973,-43.0931 107.1778,-54.4927 160.8934,-28.7566 14.4919,6.9433 24.7549,14.0219 34.8016,24.0037 16.6702,16.5625 25.632,34.3857 30.8802,61.4148 7.8684,40.5234 8.0191,82.6298 0.428,119.5881 -5.2864,25.7378 -18.3884,56.9377 -33.595,80 -40.7751,61.8394 -89.4871,89.643 -152.7682,87.1962 -25.6599,-0.9922 -47.8587,-5.8006 -61,-13.2131 -14.7444,-8.3166 -24.4829,-18.8243 -32.6065,-35.1818 -4.6087,-9.2801 -7.3132,-13.2456 -8.3161,-12.1938 -0.2059,0.2159 -1.9731,8.2675 -3.9273,17.8925 -1.9541,9.625 -10.5565,51.925 -19.1165,94 -8.56,42.075 -16.0387,78.8622 -16.6194,81.7493 -0.5806,2.8872 -1.731,5.9247 -2.5564,6.75 -1.2916,1.2916 -8.039,1.5007 -48.4292,1.5007 -30.6099,0 -46.9286,-0.3476 -46.9286,-0.9997 z m 247.0613,-217.8914 c 9.5311,-2.4418 17.1757,-5.8473 25.1137,-11.1878 27.639,-18.5946 50.3429,-62.8071 56.9598,-110.9211 0.727,-5.2866 1.3029,-18.5921 1.2985,-30 -0.01,-17.8344 -0.2968,-21.6524 -2.2287,-29.3627 -5.7741,-23.0449 -20.4499,-39.4783 -42.37,-47.4444 -6.5754,-2.3896 -8.7321,-2.6669 -20.8346,-2.6792 -14.1878,-0.014 -21.0273,1.4391 -31.4293,6.6792 -16.9196,8.5235 -37.8679,31.5612 -49.2492,54.1615 -11.4631,22.7627 -18.5878,52.8003 -19.9586,84.1456 -2.1236,48.5571 16.4364,81.86 49.104,88.1092 8.8947,1.7016 23.6729,1.0416 33.5944,-1.5003 z m -465.5613,77.236 c -21.8483,-1.7421 -44.5422,-5.2289 -64.2023,-9.8644 -14.5963,-3.4415 -37.8029,-10.1903 -43.1843,-12.5585 l -4.3865,-1.9304 0.6127,-6.2458 c 0.337,-3.4352 4.1109,-23.1684 8.3865,-43.8515 l 7.7739,-37.6057 23.2157,9.3307 c 63.8731,25.6716 99.8067,30.0802 138.4423,16.9851 13.5897,-4.606 23.8256,-10.7133 32.8575,-19.6044 12.4027,-12.2095 19.3738,-27.5573 20.6693,-45.5068 1.3783,-19.0963 -4.9128,-34.7494 -20.0667,-49.9287 -11.1524,-11.1709 -23.4894,-19.5147 -57.1181,-38.63 -13.75,-7.8158 -28.375,-16.4593 -32.5,-19.2077 -32.9186,-21.9331 -51.9796,-49.0621 -58.1245,-82.7268 -1.9635,-10.7571 -1.6814,-37.9302 0.5243,-50.5 2.047,-11.6659 8.079,-30.5436 12.6579,-39.6143 16.3886,-32.4657 45.5363,-55.8232 87.6713,-70.2556 27.6184,-9.46 50.2432,-12.9605 84.271,-13.0384 41.587,-0.095 82.8063,5.9453 114.8641,16.8329 11.2387,3.817 13.1359,4.9078 13.1359,7.553 0,2.0288 -22.5103,78.866 -23.3509,79.7066 -0.3128,0.3129 -4.7777,-1.2771 -9.922,-3.5332 -19.7146,-8.6462 -40.5843,-15.1102 -60.7271,-18.8091 -13.8159,-2.537 -48.2362,-2.5451 -59.9843,-0.014 -24.0819,5.1884 -42.8282,17.6034 -50.8647,33.6859 -10.7954,21.6033 -3.503,45.6859 19.8717,65.6252 8.4458,7.2045 20.1987,14.9162 49.1629,32.2584 30.8504,18.4716 43.7548,27.8167 57.3144,41.5058 19.3357,19.5204 30.1039,39.006 36.0286,65.1956 2.1492,9.5006 3.0291,37.551 1.5673,49.9654 -7.6021,64.5617 -41.1985,107.2134 -101.5959,128.9793 -20.4837,7.3819 -48.6528,13.2486 -74,15.4118 -10.9754,0.9366 -39.313,1.1619 -49,0.3896 z m 838.94013,-0.3167 c -38.7765,-2.4683 -66.9496,-10.6787 -91.94013,-26.7937 -45.4171,-29.287 -67.8646,-80.9442 -63.5325,-146.2042 3.858,-58.1179 25.3331,-108.3436 63.0172,-147.3836 17.79673,-18.437 36.44813,-31.9762 59.51533,-43.2023 64.391,-31.3374 131.0932,-28.7775 186.287,7.1493 9.828,6.3973 22.9808,19.1132 28.4842,27.5381 17.0692,26.1308 24.644,62.043 21.8319,103.5057 -1.13,16.6612 -4.9008,45.8545 -7.1768,55.563 -0.6061,2.5852 -1.8065,5.2852 -2.6676,6 -1.2588,1.0449 -26.2032,1.3975 -127.3074,1.7995 -119.539,0.4753 -125.8404,0.5893 -127.7414,2.3098 -2.7917,2.5268 -3.1237,5.4595 -1.6922,14.9482 1.9743,13.0865 4.231,20.497 9.6492,31.6852 4.3847,9.0542 6.2062,11.5852 13.6952,19.0296 6.7671,6.7268 10.4788,9.5055 17.1379,12.8299 17.3176,8.6454 42.2374,12.1523 72.6269,10.2205 31.2829,-1.9886 55.3412,-7.3178 82.1878,-18.2056 6.773,-2.7469 13.6363,-5.3733 15.2516,-5.8366 2.6775,-0.7679 2.8946,-0.6496 2.4572,1.3383 -0.2639,1.1994 -2.7621,17.2557 -5.5516,35.6807 -2.7896,18.425 -5.5004,34.5359 -6.0241,35.802 -1.2972,3.1357 -5.102,4.5491 -27.4625,10.2017 -39.4547,9.974 -77.885,14.1354 -111.0452,12.0245 z m 105.128,-229.4922 c 5.7818,-2.4158 6.7695,-6.2598 6.1756,-24.036 -0.7556,-22.615 -5.0281,-33.8586 -17.2636,-45.4303 -9.9848,-9.4433 -23.6985,-14.0208 -42.0991,-14.0523 -40.2944,-0.069 -72.209,19.9037 -90.8022,56.8259 -3.6411,7.2304 -8.6525,20.0233 -9.9527,25.4067 l -0.6642,2.75 h 75.5512 c 64.0689,0 76.0837,-0.2225 79.055,-1.464 z m 257.4672,229.3766 c -41.8552,-4.0294 -81.6939,-25.1446 -104.0174,-55.1309 -15.8362,-21.2724 -23.1888,-43.5839 -26.1264,-79.2817 -3.4852,-42.3516 3.0474,-85.2747 18.2285,-119.7726 23.4492,-53.2868 73.2589,-99.8048 126.38,-118.0283 24.294,-8.3343 46.0975,-11.6991 75.8073,-11.6991 22.4382,0 37.5127,1.4444 63.1927,6.0549 20.9865,3.7679 21.5,3.9618 21.5,8.117 0,1.7681 -3.6,19.5488 -8,39.5127 -4.4,19.9639 -8,36.4777 -8,36.6974 0,0.2197 -4.3875,-1.3217 -9.75,-3.4255 -34.6477,-13.5925 -65.261,-15.694 -91.5996,-6.2881 -24.3875,8.7091 -46.4167,25.9582 -61.1603,47.8892 -17.8339,26.5278 -29.0655,68.1643 -26.9598,99.9424 1.942,29.3078 8.2126,46.2276 22.4507,60.5786 8.3114,8.3772 15.2705,12.7656 26.0673,16.4378 19.8314,6.7451 47.8212,5.3743 79.6214,-3.8995 8.1567,-2.3787 14.9531,-4.0222 15.1032,-3.6522 0.1501,0.37 -1.7512,9.9377 -4.225,21.2615 -2.4739,11.3239 -5.4455,25.918 -6.6036,32.4313 -4.1457,23.3156 -6.6115,25.5181 -32.7993,29.2966 -27.0574,3.904 -49.3673,4.8591 -69.1097,2.9585 z m 315.9647,-0.043 c -13.3505,-0.7318 -24.604,-2.8485 -36.4708,-6.8597 -49.9652,-16.8893 -66.4281,-59.3731 -53.0084,-136.7922 1.3616,-7.8552 7.8923,-39.1302 14.5126,-69.5 6.6203,-30.3697 13.664,-62.7037 15.6526,-71.8533 1.9887,-9.1496 3.337,-17.3621 2.9963,-18.25 -0.5532,-1.4415 -4.217,-1.6144 -34.2183,-1.6144 -31.5362,0 -33.5659,-0.1074 -33.0633,-1.75 0.2946,-0.9625 3.5074,-15.9028 7.1397,-33.2007 3.6322,-17.2979 7.0374,-32.2604 7.567,-33.25 0.8981,-1.6781 3.247,-1.7993 34.8604,-1.7993 31.4215,0 33.9348,-0.1278 34.4095,-1.75 0.2816,-0.9625 3.9384,-17.5 8.1262,-36.75 5.5522,-25.5215 8.1229,-35.5171 9.4926,-36.9094 2.35,-2.389 101.396,-34.6494 101.7531,-33.1422 0.137,0.5784 -4.8651,24.9016 -11.1159,54.0516 -6.2507,29.15 -11.1738,53.3375 -10.9401,53.75 0.2336,0.4125 19.2983,0.75 42.3658,0.75 32.2352,0 41.941,0.2811 41.941,1.2147 0,2.9637 -14.2975,66.4157 -15.2176,67.5353 -0.7898,0.961 -10.0273,1.25 -39.9545,1.25 -44.1177,0 -43.5603,-0.087 -46.1696,7.2287 -0.8378,2.3492 -8.5211,36.6713 -17.0739,76.2713 -8.5529,39.6 -16.5246,76.5 -17.7151,82 -1.6541,7.6419 -2.1886,13.655 -2.2669,25.5 -0.096,14.5719 0.045,15.7994 2.3657,20.5 9.5828,19.4136 30.7301,23.9694 66.9029,14.4128 6.254,-1.6523 11.5607,-2.8144 11.7926,-2.5825 0.2319,0.2319 -0.9701,6.215 -2.6712,13.2957 -4.1801,17.3989 -5.7468,24.8749 -7.9696,38.0287 -3.6358,21.5156 -8.2555,25.4209 -34.0228,28.7615 -14.3795,1.8642 -25.2803,2.2603 -40,1.4534 z m 456,0.1126 c -23.1442,-3.2204 -43.0394,-10.7148 -56.9298,-21.4449 -6.8791,-5.3141 -16.5951,-15.4402 -20.9783,-21.864 -5.0343,-7.3778 -10.8195,-20.4581 -13.1711,-29.7798 -2.9226,-11.5846 -3.7364,-39.2124 -1.5729,-53.3935 7.0067,-45.9258 35.0129,-75.2611 88.6833,-92.892 31.9953,-10.5106 64.0647,-14.4147 127.1157,-15.475 35.1442,-0.5909 37.787,-0.7599 39.7542,-2.5418 4.0053,-3.628 6.0717,-19.1682 4.201,-31.5934 -2.8916,-19.2062 -14.7902,-32.3692 -35.1884,-38.9278 -15.6156,-5.0208 -46.1278,-6.5762 -69.6125,-3.5486 -21.2427,2.7386 -53.44,11.6995 -75.5654,21.0308 -7.8803,3.3235 -12.7358,4.33 -12.7358,2.6399 0,-0.4443 1.9781,-10.4568 4.3958,-22.25 2.4176,-11.7932 4.6962,-24.5921 5.0633,-28.4421 2.064,-21.6408 6.5988,-29.4651 20.1481,-34.7634 8.0758,-3.158 49.6508,-8.8078 79.4241,-10.7933 45.7735,-3.0525 91.4268,4.1463 119.221,18.7994 35.9914,18.9744 54.7521,54.4644 52.3678,99.0645 -1.4157,26.4823 -5.3302,51.5919 -17.7243,113.6928 -8.85,44.3431 -25.8958,136.2513 -25.8958,139.626 0,0.9521 -0.7071,2.4383 -1.5714,3.3026 -1.3755,1.3754 -6.4892,1.5714 -41,1.5714 -21.6857,0 -39.4224,-0.3375 -39.4147,-0.75 0.01,-0.4125 1.7935,-11.3166 3.9687,-24.2313 2.6629,-15.8108 3.6248,-23.8113 2.9447,-24.4914 -0.6801,-0.6801 -5.9909,4.0654 -16.2575,14.5273 -24.0221,24.4789 -41.8728,34.7137 -71.4708,40.9779 -11.1068,2.3507 -37.6122,3.4229 -48.199,1.9497 z m 74,-73.0795 c 28.7664,-6.6977 52.3596,-29.1067 65.9886,-62.6767 3.8166,-9.4008 13.0114,-38.3391 13.0114,-40.9502 0,-1.2409 -64.7603,0.6169 -74.9116,2.149 -28.2958,4.2706 -48.3262,12.3404 -61.7955,24.896 -12.4553,11.6104 -18.2929,23.9537 -18.2929,38.6792 0,19.1241 9.623,32.4574 27,37.4103 13.4936,3.846 33.723,4.0493 49,0.4924 z m 338.6821,61.8439 c 1.9633,-3.4356 7.5492,-14.2916 12.4131,-24.1244 23.7367,-47.9856 38.0121,-97.0931 44.0761,-151.6222 1.6845,-15.1473 1.6864,-66.7019 0,-83 -3.1589,-30.5844 -8.0344,-58.6274 -14.2505,-81.967 -20.1661,-75.7173 -57.6475,-140.6666 -113.4238,-196.5454 -94.5362,-94.7099 -212.0938,-142.013 -339.0953,-136.4461 -117.0516,5.1309 -214.6844,46.4683 -298.0854,126.2085 -17.9123,17.1261 -18.8834,16.9918 -8.0307,-1.1105 6.8399,-11.4088 20.9218,-30.5962 33.1735,-45.2008 11.6562,-13.8946 41.1943,-43.1079 55.646,-55.034 73.7614,-60.8708 161.6328,-96.382598 257.2996,-103.983398 18.9909,-1.5089 67.3798,-0.6295 84.5713,1.5369 89.5323,11.2824 176.4299,48.980398 246.521,106.945998 13.8681,11.469 40.6957,38.0121 51.6433,51.0958 49.0006,58.5613 81.4321,129.4164 96.8069,211.5 24.5452,131.0427 -4.1469,251.0195 -85.9734,359.5 -11.691,15.4992 -20.1643,25.0285 -24.0346,27.0299 l -2.8298,1.4633 3.5697,-6.2466 z m -735.17,2.2902 c -14.2713,-0.451 -17.0354,-0.7848 -17.2849,-2.0875 -0.3287,-1.7156 8.1737,-43.637 33.6573,-165.9493 15.2621,-73.2526 34.8622,-170.6719 38.1764,-189.75 l 1.2594,-7.25 h 45.8399 c 32.0576,0 45.8398,0.3236 45.8398,1.0762 0,0.5919 -2.25,13.2464 -5,28.121 -2.75,14.8746 -5,27.4403 -5,27.9238 0,2.4078 2.4844,0.048 8.8125,-8.371 19.591,-26.0638 43.1058,-41.1955 74.4538,-47.9111 8.2698,-1.7716 13.688,-2.2064 28.2337,-2.2656 20.7939,-0.085 27.03,0.6799 28.5387,3.499 0.8014,1.4974 -0.9458,11.518 -7.5201,43.1285 -4.7102,22.6478 -8.6663,41.2728 -8.7913,41.3889 -0.125,0.1161 -5.1773,-0.6363 -11.2273,-1.6718 -22.978,-3.9331 -38.2389,-3.4363 -55,1.7902 -31.0418,9.6796 -56.0362,36.7851 -71.9556,78.0328 -5.0624,13.1169 -10.4021,34.5483 -18.5018,74.2591 -19.1836,94.0528 -25.8562,124.3905 -27.6467,125.6998 -1.8579,1.3585 -39.3531,1.5228 -76.8838,0.337 z"
     id="path817"
     inkscape:connector-curvature="0" />
</svg>
