<?xml version="1.0" encoding="UTF-8" standalone="no"?>
<!-- Created with Inkscape (http://www.inkscape.org/) -->

<svg
   xmlns:dc="http://purl.org/dc/elements/1.1/"
   xmlns:cc="http://creativecommons.org/ns#"
   xmlns:rdf="http://www.w3.org/1999/02/22-rdf-syntax-ns#"
   xmlns:svg="http://www.w3.org/2000/svg"
   xmlns="http://www.w3.org/2000/svg"
   xmlns:sodipodi="http://sodipodi.sourceforge.net/DTD/sodipodi-0.dtd"
   xmlns:inkscape="http://www.inkscape.org/namespaces/inkscape"
   version="1.1"
   id="svg4135"
   width="250.97156"
   height="87.5"
   viewBox="0 0 250.97156 87.5"
   sodipodi:docname="tallgrassenergy.svg"
   inkscape:version="0.92.3 (2405546, 2018-03-11)">
  <metadata
     id="metadata4141">
    <rdf:RDF>
      <cc:Work
         rdf:about="">
        <dc:format>image/svg+xml</dc:format>
        <dc:type
           rdf:resource="http://purl.org/dc/dcmitype/StillImage" />
        <dc:title></dc:title>
      </cc:Work>
    </rdf:RDF>
  </metadata>
  <defs
     id="defs4139" />
  <sodipodi:namedview
     pagecolor="#ffffff"
     bordercolor="#666666"
     borderopacity="1"
     objecttolerance="10"
     gridtolerance="10"
     guidetolerance="10"
     inkscape:pageopacity="0"
     inkscape:pageshadow="2"
     inkscape:window-width="1462"
     inkscape:window-height="722"
     id="namedview4137"
     showgrid="false"
     fit-margin-top="0"
     fit-margin-left="0"
     fit-margin-right="0"
     fit-margin-bottom="0"
     inkscape:zoom="1.3571429"
     inkscape:cx="-50.105259"
     inkscape:cy="176.07895"
     inkscape:window-x="356"
     inkscape:window-y="284"
     inkscape:window-maximized="0"
     inkscape:current-layer="svg4135" />
  <path
     style="fill:#000000"
     d="m 152,78 v -9 h 5.5 c 3.025,0 5.5,0.45 5.5,1 0,0.55 -1.8,1 -4,1 -3.6,0 -4,0.25 -4,2.5 0,2.25 0.4,2.5 4,2.5 2.2,0 4,0.45 4,1 0,0.55 -1.8,1 -4,1 -3.77778,0 -4,0.16666 -4,3 0,2.83333 0.22222,3 4,3 2.88889,0 4,0.41666 4,1.5 0,1.15151 -1.27778,1.5 -5.5,1.5 H 152 Z m 15,0 c 0,-4.95 0.3375,-8.97472 0.75,-8.94381 0.4125,0.0309 3,2.73849 5.75,6.01686 l 5,5.96067 0.29772,-6.01686 c 0.47496,-9.59899 2.20588,-7.01889 2.16903,3.23314 l -0.0333,9.25 -5.9335,-6.5 -5.9335,-6.5 -0.0332,6.25 c -0.0186,3.47783 -0.47685,6.25 -1.0333,6.25 -0.59259,0 -1,-3.66667 -1,-9 z m 19,0 v -9 h 5.5 c 3.025,0 5.5,0.45 5.5,1 0,0.55 -2.025,1 -4.5,1 -4.13333,0 -4.5,0.2037 -4.5,2.5 0,2.29629 0.36667,2.5 4.5,2.5 2.475,0 4.5,0.45 4.5,1 0,0.55 -2.025,1 -4.5,1 -4.33333,0 -4.5,0.11111 -4.5,3 0,2.88889 0.16667,3 4.5,3 3.33333,0 4.5,0.38889 4.5,1.5 0,1.15151 -1.27778,1.5 -5.5,1.5 H 186 Z m 14,0 v -9 h 4.8 c 2.64,0 5.34,0.54 6,1.2 1.97563,1.97562 1.36408,5.52577 -1.31486,7.63303 l -2.51487,1.97819 2.51487,2.98874 c 2.82439,3.3566 3.07839,4.20002 1.26486,4.20008 -0.6875,3e-5 -2.6956,-1.68747 -4.46245,-3.75 L 203.07509,79.5 l -0.0375,3.75 C 203.01099,85.89998 202.55999,87 201.5,87 200.27778,87 200,85.33333 200,78 Z m 8.5,-4.5 c 0,-1.43845 -0.77214,-2.08885 -2.75,-2.31642 -2.38379,-0.27429 -2.75,0.0342 -2.75,2.31642 0,2.28223 0.36621,2.59071 2.75,2.31642 1.97786,-0.22758 2.75,-0.87798 2.75,-2.31642 z m 10.24724,11.51581 c -3.19386,-2.51229 -4.14984,-6.26589 -2.70827,-10.63389 1.95304,-5.91777 9.66893,-8.20977 15.24977,-4.52993 2.32121,1.53054 2.55302,2.03445 1.38268,3.00574 -1.08994,0.90457 -1.68825,0.82692 -2.66119,-0.3454 -1.89831,-2.28733 -7.56856,-1.90279 -9.97127,0.67623 -2.72554,2.92552 -2.57261,6.3687 0.41559,9.35689 3.061,3.06101 6.85966,3.14033 9.79545,0.20455 l 2.25,-2.25 -3.25,-0.31336 C 224.30914,79.71025 225.37049,78 230.60699,78 c 3.79013,0 4.49936,0.28046 4,1.58178 C 234.27314,80.45177 234,81.57677 234,82.08178 234,82.5868 233.1,83.9 232,85 c -2.71189,2.71188 -9.81449,2.72036 -13.25276,0.0158 z M 242.99572,82.75 c -0.003,-3.04189 -0.85326,-5.52918 -2.99087,-8.75 -3.52553,-5.31203 -2.03609,-6.93928 1.9176,-2.09502 l 2.59582,3.18053 1.7974,-3.04276 c 2.17323,-3.67898 5.46958,-4.40939 3.57773,-0.79275 -0.64733,1.2375 -2.01316,3.44446 -3.03518,4.90437 C 245.7818,77.69198 245,80.53187 245,82.90437 245,85.15696 244.55,87 244,87 c -0.55,0 -1.00193,-1.9125 -1.00428,-4.25 z M 95.122802,65.04086 c -7.89771,-1.96506 -12.47642,-8.46965 -11.84862,-16.83233 0.70138,-9.34277 6.95971,-14.74031 16.933938,-14.6048 4.43285,0.0602 6.61665,0.6763 9.75192,2.75112 7.05402,4.66813 4.18255,6.89458 -3.79815,2.94497 -6.489258,-3.2115 -11.081988,-2.57972 -15.840758,2.17905 -10.44069,10.44069 5.60742,26.68445 17.552308,17.76629 1.33119,-0.99387 2.78974,-2.80562 3.24123,-4.0261 C 111.89315,53.11461 111.67897,53 106.96778,53 103.21864,53 102,52.63203 102,51.5 c 0,-1.19048 1.44444,-1.5 7,-1.5 8.00387,0 8.32416,0.48669 5.05662,7.68368 -2.85495,6.28823 -10.80867,9.37884 -18.933818,7.35718 z m 80.652338,-0.55925 c -3.02602,-1.68704 -5.19417,-4.99458 -4.26237,-6.50228 C 172.29794,56.7089 175,56.70705 175,57.97733 c 0,0.53732 1.14343,1.72615 2.54096,2.64185 2.0348,1.33325 3.03082,1.44171 5,0.54449 3.67412,-1.67404 3.20107,-5.32682 -1.20853,-9.33204 C 173.28348,44.52081 173,44.14212 173,40.70084 c 0,-6.7599 8.24602,-9.6363 13.49327,-4.70677 2.19552,2.06259 2.35244,2.58919 1.13448,3.80715 -1.21795,1.21795 -1.70492,1.122 -3.52061,-0.69368 -2.3845,-2.3845 -4.15751,-2.65678 -5.90714,-0.90714 -2.18179,2.18179 -1.26375,4.04131 4.8,9.72252 5.15315,4.82807 6,6.12306 6,9.17517 0,6.43603 -7.45703,10.59957 -13.22486,7.38392 z m 20.53316,0.54664 c -3.17146,-1.33224 -5.9222,-5.81436 -4.46355,-7.27301 0.85608,-0.85608 1.84604,-0.46761 3.95338,1.55135 3.29638,3.15814 5.26699,3.38392 7.54688,0.86467 2.71222,-2.99697 1.96222,-4.7667 -4.34501,-10.25256 -5.30925,-4.61784 -6,-5.64403 -6,-8.91368 0,-7.05854 8.10855,-10.07003 13.49327,-5.01135 2.26484,2.12772 2.38128,2.56035 1.04795,3.89368 -1.33333,1.33333 -1.77062,1.24577 -3.93553,-0.78807 -1.62794,-1.52936 -3.0963,-2.07835 -4.42823,-1.65561 -4.14034,1.3141 -3.38223,3.60582 3.31106,10.00911 5.27813,5.04945 6.51148,6.81714 6.51148,9.33253 0,6.01286 -7.06981,10.60452 -12.6917,8.24294 z m 18.38101,-2.95039 c -5.88779,-6.51708 -5.92462,-13.21884 -0.14851,-27.02389 2.34506,-5.60475 2.63472,-7.41733 2.21943,-13.8884 -0.47499,-7.40138 -0.46742,-7.42921 1.37533,-5.05397 C 222.46354,21.69024 225,28.33558 225,34.09593 c 0,5.09987 -0.42318,6.26645 -4,11.02675 -4.43797,5.90638 -5.01745,9.50645 -2.5,15.53156 2.78897,6.67493 1.40176,7.19318 -3.81069,1.42362 z m 6.97736,3.25547 C 221.3,64.96666 221,62.36399 221,59.54961 c 0,-4.18289 0.65278,-6.11497 3.57573,-10.58333 3.45146,-5.27632 3.56172,-5.73107 3.17291,-13.08595 C 227.26455,26.72302 223.21002,17.31099 215.19983,6.75 212.38402,3.0375 210.44685,0 210.89503,0 c 0.91176,0 9.41508,8.87614 12.93295,13.5 1.92519,2.53045 2.09915,2.60871 1.11145,0.5 -0.64404,-1.375 -3.17374,-5.0875 -5.62156,-8.25 C 216.87006,2.5875 215.32122,0 215.87602,0 c 0.88659,0 2.79435,2.04789 12.11037,13 4.23212,4.97536 0.20872,-1.68263 -4.53976,-7.51249 C 220.98832,2.46938 219.36689,0 219.84344,0 c 0.94553,0 9.32186,8.69827 13.00033,13.5 l 2.29822,3 -1.821,-3.31595 c -1.00154,-1.82376 -3.52026,-5.3745 -5.59713,-7.89052 -3.9241,-4.75381 -4.30517,-7.0311 -0.61982,-3.70407 4.2396,3.8274 13.93793,17.65406 17.33073,24.70798 4.41302,9.17505 6.53536,18.16941 6.53679,27.70256 10e-4,9.39349 -0.66937,12 -3.08819,12 -1.36878,0 -1.90494,-0.75138 -1.96232,-2.75 l -0.0789,-2.75 -1.00439,2.75 c -1.21056,3.31451 -3.81242,3.64799 -3.90111,0.5 l -0.0634,-2.25 -0.90439,2.25 c -0.97893,2.43545 -3.49189,3.01896 -4.30656,1 -0.40351,-1 -0.52017,-1 -0.58333,0 -0.0841,1.33214 -12.13917,1.85645 -13.41228,0.58333 z M 7,51.5 V 38 H 3.5 C 0.666667,38 0,37.61905 0,36 c 0,-1.84314 0.666667,-2 8.5,-2 7.833333,0 8.5,0.15686 8.5,2 0,1.55555 -0.666667,2 -3,2 H 11 V 51.5 C 11,64.33333 10.90123,65 9,65 7.098766,65 7,64.33333 7,51.5 Z m 14.659738,3.75 c 2.526827,-5.3625 5.769151,-12.33931 7.205164,-15.50403 1.436013,-3.16472 2.959318,-5.6379 3.385124,-5.49596 0.64831,0.2161 14.749976,29.26033 14.749976,30.37951 0,0.20376 -0.89242,0.37048 -1.98316,0.37048 -1.37529,0 -2.75976,-1.53256 -4.516842,-5 l -2.533692,-5 h -6.069183 -6.069184 l -2.112439,5 c -1.65195,3.91005 -2.607008,5 -4.381218,5 -2.199366,0 -2.12822,-0.2983 2.325454,-9.75 z m 14.298346,-5 c -0.02305,-0.4125 -0.868319,-2.30186 -1.878369,-4.19858 L 32.243262,42.60284 30.101307,46.80142 27.959352,51 h 4.020324 c 2.211178,0 4.001462,-0.3375 3.978408,-0.75 z M 50.000002,49.5 c 0,-13.11111 0.23118,-15.5 1.5,-15.5 1.25926,0 1.5,2.16666 1.5,13.5 V 61 h 6 c 5.33333,0 6,0.22222 6,2 0,1.82222 -0.66667,2 -7.5,2 h -7.5 z m 18,0 c 0,-14.83334 0.086,-15.5 2,-15.5 1.90123,0 2,0.66666 2,13.5 V 61 h 5.5 c 4.83333,0 5.5,0.24242 5.5,2 0,1.82222 -0.66667,2 -7.5,2 h -7.5 z M 120,49.3907 V 33.7814 l 7.41155,0.37426 C 136.6648,34.62293 139,36.32101 139,42.5824 c 0,3.42451 -0.52293,4.68377 -2.63486,6.34502 -1.44917,1.13992 -3.47417,2.07258 -4.5,2.07258 -2.58229,0 -2.39647,0.5698 1.91142,5.86122 7.01149,8.61229 6.78418,8.13878 3.90706,8.13878 -1.99501,0 -3.73549,-1.54022 -7.87244,-6.96664 -2.92115,-3.83165 -5.64868,-6.98165 -6.06118,-7 C 123.3375,51.01506 123,54.15 123,58 c 0,5.55555 -0.30952,7 -1.5,7 -1.26927,0 -1.5,-2.40104 -1.5,-15.6093 z m 14.43007,-4.59432 c 1.31361,-1.87544 1.34204,-2.50839 0.19093,-4.25 -1.01442,-1.5348 -2.63606,-2.12194 -6.48677,-2.34864 L 123,37.89548 V 42.44774 47 h 4.9433 c 3.96193,0 5.24971,-0.43747 6.48677,-2.20362 z M 145.65974,55.25 c 2.52683,-5.3625 5.76915,-12.33931 7.20516,-15.50403 1.43601,-3.16472 2.95932,-5.6379 3.38513,-5.49596 C 156.89834,34.46611 171,63.51034 171,64.62952 171,64.83328 170.10758,65 169.01685,65 167.64155,65 166.25708,63.46744 164.5,60 l -2.53369,-5 h -6.06919 -6.06918 l -2.11244,5 c -1.65195,3.91005 -2.60701,5 -4.38122,5 -2.19936,0 -2.12822,-0.2983 2.32546,-9.75 z m 14.29834,-5 c -0.023,-0.4125 -0.86832,-2.30186 -1.87836,-4.19858 l -1.83646,-3.44858 -2.14195,4.19858 L 151.95935,51 h 4.02033 c 2.21117,0 4.00146,-0.3375 3.9784,-0.75 z"
     id="path6437"
     inkscape:connector-curvature="0" />
</svg>
