<?xml version="1.0" encoding="UTF-8" standalone="no"?>
<!-- Created with Inkscape (http://www.inkscape.org/) -->

<svg
   xmlns:dc="http://purl.org/dc/elements/1.1/"
   xmlns:cc="http://creativecommons.org/ns#"
   xmlns:rdf="http://www.w3.org/1999/02/22-rdf-syntax-ns#"
   xmlns:svg="http://www.w3.org/2000/svg"
   xmlns="http://www.w3.org/2000/svg"
   xmlns:sodipodi="http://sodipodi.sourceforge.net/DTD/sodipodi-0.dtd"
   xmlns:inkscape="http://www.inkscape.org/namespaces/inkscape"
   version="1.1"
   id="svg1923"
   width="249.92268"
   height="39.88142"
   viewBox="0 0 249.92268 39.88142"
   sodipodi:docname="tcpipelines.svg"
   inkscape:version="0.92.3 (2405546, 2018-03-11)">
  <metadata
     id="metadata1929">
    <rdf:RDF>
      <cc:Work
         rdf:about="">
        <dc:format>image/svg+xml</dc:format>
        <dc:type
           rdf:resource="http://purl.org/dc/dcmitype/StillImage" />
        <dc:title />
      </cc:Work>
    </rdf:RDF>
  </metadata>
  <defs
     id="defs1927" />
  <sodipodi:namedview
     pagecolor="#ffffff"
     bordercolor="#666666"
     borderopacity="1"
     objecttolerance="10"
     gridtolerance="10"
     guidetolerance="10"
     inkscape:pageopacity="0"
     inkscape:pageshadow="2"
     inkscape:window-width="1526"
     inkscape:window-height="732"
     id="namedview1925"
     showgrid="false"
     fit-margin-top="0"
     fit-margin-left="0"
     fit-margin-right="0"
     fit-margin-bottom="0"
     inkscape:zoom="1.368"
     inkscape:cx="113.22677"
     inkscape:cy="115.81761"
     inkscape:window-x="721"
     inkscape:window-y="407"
     inkscape:window-maximized="0"
     inkscape:current-layer="svg1923" />
  <path
     style="fill:#000000"
     d="m 12.129792,36.150945 c -2.9110851,-1.97516 -6.7218521,-5.66814 -8.4683701,-8.20662 -6.0152916,-8.74292 -4.45730495,-20.5626404 3.486875,-26.4533104 2.616342,-1.94003406 2.804303,-1.94985906 4.6880841,-0.24506 1.933346,1.74965 1.905676,1.83017 -1.8650011,5.42705 -4.356295,4.1555004 -6.20459,9.3974904 -5.04421,14.3059804 0.634946,2.68586 0.810955,2.86535 0.893144,0.91079 0.179321,-4.26446 4.087242,-10.89326 7.7602471,-13.1633104 l 3.515983,-2.17299 2.042615,2.04261 2.042615,2.0426204 -3.120132,1.61348 c -8.7771601,4.53885 -10.1540951,16.83935 -2.62502,23.44997 6.115104,5.36913 4.306733,5.61455 -3.30683,0.44879 z m 15.391094,1.78163 c -1.631727,-1.80304 -1.574603,-1.98915 1.221726,-3.98031 5.182386,-3.69018 7.665572,-12.49742 5.252196,-18.62822 -0.584151,-1.48394 -0.788858,-0.95861 -0.793351,2.03597 -0.0074,4.93301 -2.190696,9.37068 -6.31959,12.84492 -3.705583,3.11804 -4.149208,3.17162 -6.327865,0.76423 -1.592031,-1.75918 -1.497065,-1.97847 1.840445,-4.25 8.611659,-5.86115 8.635407,-18.8474304 0.04476,-24.4762404 -4.283643,-2.80675106 -1.933446,-2.85324706 2.839397,-0.0562 8.549802,5.01051 14.666163,14.0647504 14.616532,21.6372904 -0.02354,3.59088 -3.431498,10.59415 -6.571457,13.50417 -3.230924,2.99432 -3.604678,3.03325 -5.802793,0.60436 z m 86.401794,-8.50349 v -10.39497 l 4.25,-0.44275 c 5.59112,-0.58247 8.55627,0.59294 9.80923,3.88847 2.23661,5.88272 -1.57851,11.9353 -7.01978,11.1367 -2.86624,-0.42068 -3.03945,-0.25652 -3.03945,2.88071 0,2.66014 -0.40078,3.3268 -2,3.3268 -1.87173,0 -2,-0.66666 -2,-10.39496 z m 8.94981,-0.0446 c 0.65709,-0.79174 1.04969,-2.70424 0.87245,-4.25 -0.25745,-2.24524 -0.82506,-2.81048 -2.82226,-2.81048 -2.00233,0 -2.56461,0.56426 -2.82457,2.83448 -0.59929,5.23351 2.01659,7.54893 4.77438,4.226 z m 86.42338,4.18725 c -0.13391,-3.4297 1.06122,-4.90199 3.28613,-4.04821 2.56893,0.98579 1.25663,7.30205 -1.51631,7.29821 -1.1602,-0.002 -1.68027,-0.95666 -1.76982,-3.25 z M 56.922675,25.893595 c 0,-7.94085 -0.03987,-8.06955 -2.5,-8.06955 -1.851196,0 -2.5,-0.53041 -2.5,-2.04381 0,-1.89725 0.519103,-2.02274 7.239395,-1.75 5.960263,0.2419 7.298398,0.60302 7.573324,2.04381 0.246862,1.29371 -0.326063,1.75 -2.197331,1.75 -2.46548,0 -2.538849,0.2014 -2.823324,7.75 -0.27029,7.17224 -0.459803,7.77383 -2.542064,8.06955 -2.173849,0.30874 -2.25,0.0464 -2.25,-7.75 z m 13.50897,5.53033 c -1.929177,-1.92917 -2.50897,-3.54047 -2.50897,-6.97263 0,-5.87803 0.681055,-7.41095 4.071521,-9.16423 4.886123,-2.52671 10.928479,-1.67037 10.928479,1.54882 0,1.50377 -0.620193,1.71467 -3.79149,1.2893 -4.66761,-0.62605 -6.643808,1.32576 -6.499429,6.41924 0.119695,4.22263 1.589973,5.4028 6.290919,5.04964 2.919069,-0.2193 3.5,0.0684 3.5,1.73352 0,1.67174 -0.771121,2.04598 -4.74103,2.30089 -3.960752,0.25432 -5.153955,-0.1085 -7.25,-2.20455 z m 20.704814,-7.34988 0.28622,-9.75 5.14065,0.0368 c 6.168341,0.0442 8.359351,1.60713 8.359351,5.96319 0,3.74648 -1.19994,4.99107 -5.750001,5.96399 -2.8978,0.61961 -3.25,1.06561 -3.25,4.11547 0,2.99494 -0.31558,3.42054 -2.53622,3.42054 h -2.53621 z m 9.174561,-2.8196 c 0.54278,-1.41447 -1.812411,-4.4304 -3.459771,-4.4304 -0.51072,0 -0.92857,1.53287 -0.92857,3.40638 0,2.87338 0.30212,3.32738 1.93082,2.90146 1.06196,-0.27771 2.167841,-1.12255 2.457521,-1.87744 z m 6.55326,12.3196 c -0.11298,-0.48364 -0.14891,-10.27636 -0.0459,-12.5 0.0718,-1.54858 0.72779,-2.25 2.1043,-2.25 1.82222,0 2,0.66667 2,7.5 0,6.83334 -0.17778,7.5 -2,7.5 -1.1,0 -2.02628,-0.1125 -2.0584,-0.25 z m 26.0584,-1.03754 c -1.78311,-0.89731 -2.59282,-2.22316 -2.82368,-4.62363 -0.53955,-5.61021 0.50566,-7.82877 4.27426,-9.07252 3.89222,-1.28455 6.8023,-0.28083 8.5265,2.94087 2.14898,4.0154 1.33869,5.04282 -3.97708,5.04282 -5.12201,0 -6.11379,0.83075 -3.54096,2.96601 0.89203,0.74032 2.64082,0.95133 4.5,0.54299 2.31353,-0.50814 3.04096,-0.31568 3.04096,0.80456 0,2.77838 -5.6798,3.57293 -10,1.3989 z m 6,-9.71246 c 0,-0.55 -0.87344,-1 -1.94098,-1 -1.06754,0 -2.2191,0.45 -2.55902,1 -0.35052,0.56716 0.48962,1 1.94098,1 1.40746,0 2.55902,-0.45 2.55902,-1 z m 7,1 c 0,-9.33333 0.13333,-10 2,-10 1.83333,0 2,0.66667 2,8 v 8 h 3.5 c 2.83333,0 3.5,0.38096 3.5,2 0,1.75758 -0.66667,2 -5.5,2 h -5.5 z m 12.70124,9.36791 c -0.38568,-0.38568 -0.70124,-3.77624 -0.70124,-7.53457 0,-6.65361 0.0669,-6.83334 2.54381,-6.83334 2.51788,0 2.54081,0.0738 2.25,7.2394 -0.22665,5.58466 -0.64782,7.30686 -1.84257,7.53457 -0.85182,0.16234 -1.86432,-0.0204 -2.25,-0.40606 z m 7.29876,-6.86791 v -7.5 l 2.75,-0.0137 c 1.5125,-0.007 3.69542,-0.26745 4.85092,-0.57764 3.66066,-0.98271 5.39908,1.96755 5.39908,9.16272 0,5.76191 -0.20741,6.42857 -2,6.42857 -1.69822,0 -2,-0.66666 -2,-4.41821 0,-5.7058 -0.76877,-7.58179 -3.10699,-7.58179 -1.64701,0 -1.89301,0.77971 -1.89301,6 0,5.33334 -0.22222,6 -2,6 -1.82222,0 -2,-0.66666 -2,-7.5 z m 19,6.82976 c -4.20379,-1.56892 -5.37624,-8.40861 -2.12884,-12.41897 1.35239,-1.67013 2.90972,-2.31079 5.61717,-2.31079 4.14995,0 6.51167,2.2092 6.51167,6.09113 0,2.06978 -0.466,2.30887 -4.5,2.30887 -3.17973,0 -4.5,0.40871 -4.5,1.39301 0,1.85722 2.57487,2.7518 5.67845,1.97285 2.09072,-0.52474 2.45871,-0.31185 2.16222,1.25089 -0.2594,1.36725 -1.31401,1.93663 -3.84899,2.07805 -1.92042,0.10713 -4.16668,-0.0571 -4.99168,-0.36504 z m 5.04933,-10.77032 c -0.65756,-0.7923 -1.83766,-1.19416 -2.62244,-0.89301 -2.34882,0.90133 -1.61504,2.33357 1.19555,2.33357 2.16959,0 2.41599,-0.24876 1.42689,-1.44056 z m 6.61734,10.7739 c -0.36667,-0.36667 -0.66667,-1.30242 -0.66667,-2.07946 0,-1.04952 0.77138,-1.24336 3,-0.75388 2.30115,0.50542 3,0.30668 3,-0.85315 0,-0.83164 -0.90048,-1.79787 -2.00106,-2.14718 -1.10059,-0.34932 -2.46642,-1.50464 -3.03519,-2.56739 -2.03558,-3.80353 2.43685,-7.89207 7.03625,-6.43228 2.70169,0.85749 2.70264,3.91701 10e-4,3.21051 -2.51196,-0.65689 -3.82916,1.24653 -1.69076,2.44324 4.55186,2.54734 5.65078,6.87678 2.30498,9.08094 -1.39892,0.92159 -7.05541,0.99179 -7.94855,0.0986 z m 26.77902,-0.61428 c -0.29258,-0.76243 -0.40004,-5.17362 -0.23882,-9.80265 0.27387,-7.86331 0.44099,-8.43741 2.54313,-8.73596 2.17385,-0.30873 2.25,-0.0464 2.25,7.75 v 8.06955 h 3.57332 c 2.86324,0 3.50722,0.34776 3.24064,1.75 -0.43707,2.29904 -10.52784,3.1592 -11.36827,0.96906 z m 12.7681,-8.46906 0.28621,-9.75 5.14065,0.0368 c 5.83063,0.0417 8.35935,1.60005 8.35935,5.15138 0,3.93634 -1.70267,6.03345 -5.4729,6.74075 -3.2278,0.60554 -3.5271,0.95484 -3.5271,4.11638 0,3.03148 -0.31069,3.45468 -2.53621,3.45468 h -2.53621 z m 8.78621,-3.64301 c 0,-1.97894 -1.61667,-3.60699 -3.58179,-3.60699 -0.23001,0 -0.41821,1.35 -0.41821,3 0,2.33334 0.44444,3 2,3 1.44282,0 2,-0.66666 2,-2.39301 z m -138.5,-4.60699 c -0.9233,-1.49393 0.36137,-3 2.55902,-3 1.27431,0 1.94098,0.68694 1.94098,2 0,2.12106 -3.34741,2.86493 -4.5,1 z m 52.16667,0.33334 c -1.51808,-1.51808 -0.51968,-3.33334 1.83333,-3.33334 1.83333,0 2.5,0.53334 2.5,2 0,1.95113 -2.84129,2.82538 -4.33333,1.33334 z"
     id="path6540"
     inkscape:connector-curvature="0" />
</svg>
