<?xml version="1.0" encoding="UTF-8" standalone="no"?>
<svg
   xmlns:dc="http://purl.org/dc/elements/1.1/"
   xmlns:cc="http://creativecommons.org/ns#"
   xmlns:rdf="http://www.w3.org/1999/02/22-rdf-syntax-ns#"
   xmlns:svg="http://www.w3.org/2000/svg"
   xmlns="http://www.w3.org/2000/svg"
   xmlns:sodipodi="http://sodipodi.sourceforge.net/DTD/sodipodi-0.dtd"
   xmlns:inkscape="http://www.inkscape.org/namespaces/inkscape"
   viewBox="0 0 294.24 65.230004"
   version="1.1"
   id="svg4218"
   sodipodi:docname="TexasGas.svg"
   inkscape:version="0.92.3 (2405546, 2018-03-11)"
   width="294.23999"
   height="65.230003">
  <metadata
     id="metadata4222">
    <rdf:RDF>
      <cc:Work
         rdf:about="">
        <dc:format>image/svg+xml</dc:format>
        <dc:type
           rdf:resource="http://purl.org/dc/dcmitype/StillImage" />
        <dc:title>Asset 1</dc:title>
      </cc:Work>
    </rdf:RDF>
  </metadata>
  <sodipodi:namedview
     pagecolor="#ffffff"
     bordercolor="#666666"
     borderopacity="1"
     objecttolerance="10"
     gridtolerance="10"
     guidetolerance="10"
     inkscape:pageopacity="0"
     inkscape:pageshadow="2"
     inkscape:window-width="640"
     inkscape:window-height="480"
     id="namedview4220"
     showgrid="false"
     inkscape:zoom="1.1623165"
     inkscape:cx="126.76319"
     inkscape:cy="46.863122"
     inkscape:window-x="1409"
     inkscape:window-y="355"
     inkscape:window-maximized="0"
     inkscape:current-layer="Layer_1-2"
     fit-margin-top="0"
     fit-margin-left="0"
     fit-margin-right="0"
     fit-margin-bottom="0" />
  <defs
     id="defs4150">
    <style
       id="style4145">.cls-1,.cls-2{fill:none;}.cls-2{stroke:#000;}.cls-3{clip-path:url(#clip-path);}.cls-4{fill:#ef3e42;}.cls-5{fill:#0054a4;}</style>
    <clipPath
       id="clip-path"
       transform="translate(0 -0.01)">
      <rect
         class="cls-1"
         x="7.1599998"
         width="59.360001"
         height="65.129997"
         id="rect4147"
         y="0"
         style="fill:none" />
    </clipPath>
  </defs>
  <title
     id="title4152">Asset 1</title>
  <g
     data-name="Layer 1"
     id="Layer_1-2">
    <path
       inkscape:connector-curvature="0"
       id="path4154"
       transform="translate(0,-0.01)"
       d="M 81.41,27.45 V 14.12 h -8 v -3.5 h 22.64 v 3.5 h -8 v 13.33 z" />
    <path
       inkscape:connector-curvature="0"
       id="path4156"
       transform="translate(0,-0.01)"
       d="M 99.66,27.47 V 10.62 h 20.47 v 3.22 H 106.32 V 17 h 12.82 v 3.15 h -12.82 v 3.93 h 14.24 v 3.36 h -20.9 z" />
    <path
       inkscape:connector-curvature="0"
       id="path4158"
       transform="translate(0,-0.01)"
       d="m 122.32,27.45 8.93,-8.77 -8.12,-8.06 h 7.5 l 4.92,5.29 4.81,-5.29 h 7.47 l -8.12,8.16 8.89,8.67 h -7.69 l -5.47,-5.62 -5.5,5.62 z" />
    <path
       inkscape:connector-curvature="0"
       id="path4160"
       transform="translate(0,-0.01)"
       d="m 158.86,20.92 3.21,-6.16 3.24,6.16 z m 6.89,-10.3 h -7.21 l -9.95,16.83 h 6.92 l 1.68,-3.31 H 167 l 1.79,3.31 h 7.07 z" />
    <path
       inkscape:connector-curvature="0"
       id="path4162"
       transform="translate(0,-0.01)"
       d="m 190.26,16.76 c 3.53,0.52 5.35,1 6.88,1.81 a 4.23,4.23 0 0 1 2.55,3.69 c 0,1.88 -1.53,3.57 -4.08,4.51 a 19.87,19.87 0 0 1 -6.92,0.92 c -5.36,0 -8.93,-1.08 -10.53,-3.29 a 4.53,4.53 0 0 1 -0.91,-2.47 l 6.41,-0.31 c 0.58,2.12 2.15,3 5.14,3 2.55,0 4.34,-0.82 4.34,-2 a 1.37,1.37 0 0 0 -0.88,-1.2 13.41,13.41 0 0 0 -3.9,-1 l -1.06,-0.16 a 20.9,20.9 0 0 1 -6.3,-1.6 c -1.75,-0.89 -2.73,-2.19 -2.73,-3.57 0,-3 3.9,-4.79 10.24,-4.79 4.88,0 8,0.94 9.47,2.84 a 4.12,4.12 0 0 1 0.91,2.21 l -6.45,0.21 c -0.51,-1.69 -1.68,-2.3 -4.37,-2.3 -2.15,0 -3.61,0.59 -3.61,1.5 0,0.33 0.26,0.63 0.69,0.87 a 15,15 0 0 0 4,0.92 z" />
    <path
       inkscape:connector-curvature="0"
       id="path4164"
       transform="translate(0,-0.01)"
       d="m 228.62,21.34 v -3.22 h 11.88 v 7 a 20.59,20.59 0 0 1 -5.57,2 31.82,31.82 0 0 1 -6.41,0.63 C 220.1,27.71 215,24.47 215,19 c 0,-3 1.64,-5.38 4.66,-7 2.37,-1.22 5,-1.72 8.85,-1.72 a 33.26,33.26 0 0 1 4.48,0.23 13,13 0 0 1 4.08,1.25 6,6 0 0 1 2.73,2.56 c 0.07,0.16 0.18,0.45 0.33,0.82 l -6.48,0.75 c -1,-1.62 -2.51,-2.3 -5.21,-2.3 -4.33,0 -6.67,1.86 -6.67,5.26 0,3.62 2.33,5.52 6.74,5.52 a 13.66,13.66 0 0 0 5.83,-1.27 v -1.78 h -5.76 z" />
    <path
       inkscape:connector-curvature="0"
       id="path4166"
       transform="translate(0,-0.01)"
       d="m 253,20.92 3.21,-6.16 3.24,6.16 z m 6.88,-10.3 h -7.21 l -9.95,16.83 h 6.92 l 1.68,-3.31 h 9.8 l 1.79,3.31 h 7.07 z" />
    <path
       inkscape:connector-curvature="0"
       id="path4168"
       transform="translate(0,-0.01)"
       d="m 284.36,16.76 c 3.53,0.52 5.36,1 6.88,1.81 a 4.23,4.23 0 0 1 2.55,3.69 c 0,1.88 -1.53,3.57 -4.08,4.51 a 19.87,19.87 0 0 1 -6.92,0.92 c -5.36,0 -8.93,-1.08 -10.53,-3.29 a 4.53,4.53 0 0 1 -0.91,-2.47 l 6.41,-0.31 c 0.58,2.12 2.15,3 5.14,3 2.55,0 4.33,-0.82 4.33,-2 a 1.37,1.37 0 0 0 -0.87,-1.2 13.41,13.41 0 0 0 -3.9,-1 l -1.06,-0.16 a 20.9,20.9 0 0 1 -6.3,-1.6 c -1.75,-0.89 -2.73,-2.19 -2.73,-3.57 0,-3 3.9,-4.79 10.24,-4.79 4.88,0 8,0.94 9.47,2.84 A 4.12,4.12 0 0 1 293,15.4 l -6.45,0.21 c -0.51,-1.69 -1.68,-2.3 -4.37,-2.3 -2.15,0 -3.61,0.59 -3.61,1.5 0,0.33 0.25,0.63 0.69,0.87 a 15,15 0 0 0 4,0.92 z" />
    <path
       inkscape:connector-curvature="0"
       id="path4170"
       transform="translate(0,-0.01)"
       d="M 78.83,38.83 H 74.21 V 37 h 12.62 v 1.86 H 82.21 V 47 h -3.39 v -8.17 z" />
    <path
       inkscape:connector-curvature="0"
       id="path4172"
       transform="translate(0,-0.01)"
       d="m 92,38.69 h 3.7 c 1.51,0 2.33,0.42 2.33,1.4 0,0.98 -0.82,1.44 -2.33,1.44 H 92 Z M 88.6,47 H 92 v -3.89 h 3.39 c 1.7,0 2.33,0.47 2.57,1.52 A 7.53,7.53 0 0 0 98.49,47 h 3.39 c -0.6,-0.56 -0.58,-1.75 -0.65,-2.38 A 2.43,2.43 0 0 0 99,42.31 v 0 c 1.7,-0.45 2.44,-1.34 2.44,-2.52 0,-1.52 -1.75,-2.78 -4.51,-2.78 H 88.61 V 47 Z" />
    <path
       inkscape:connector-curvature="0"
       id="path4174"
       transform="translate(0,-0.01)"
       d="m 110.07,39.45 v 0 l 1.94,3.69 h -4 z M 102.54,47 H 106 l 1.21,-2.24 h 5.76 l 1.14,2.24 h 3.52 l -5.76,-10 h -3.47 z" />
    <path
       inkscape:connector-curvature="0"
       id="path4176"
       transform="translate(0,-0.01)"
       d="m 119,37 h 3.37 l 6.43,6.75 v 0 V 37 h 3.2 v 10 h -3.39 l -6.41,-6.74 v 0 V 47 H 119 Z" />
    <path
       inkscape:connector-curvature="0"
       id="path4178"
       transform="translate(0,-0.01)"
       d="m 137.25,43.69 c 0,1.34 1.6,1.86 3.41,1.86 1.19,0 3,-0.23 3,-1.25 0,-1.02 -2.31,-1.27 -4.57,-1.66 -2.26,-0.39 -4.6,-1 -4.6,-2.86 0,-2.06 3,-3.05 5.76,-3.05 3.21,0 6.17,0.92 6.17,3.24 h -3.28 c -0.11,-1.21 -1.42,-1.52 -3,-1.52 -1.08,0 -2.33,0.3 -2.33,1.14 0,0.84 0.73,0.87 4.6,1.52 1.12,0.18 4.57,0.65 4.57,2.93 0,1.85 -2.22,3.23 -6.41,3.23 -3.41,0 -6.6,-1.1 -6.56,-3.58 z" />
    <path
       inkscape:connector-curvature="0"
       id="path4180"
       transform="translate(0,-0.01)"
       d="m 149,37 h 4.77 l 3.6,6.92 v 0 l 3.4,-6.92 h 4.77 v 10 h -3.17 v -7.1 0 l -3.82,7.1 h -2.61 l -3.78,-7 v 0 7 H 149 Z" />
    <path
       inkscape:connector-curvature="0"
       id="path4182"
       transform="translate(0,-0.01)"
       d="m 168.51,37 h 3.39 v 10 h -3.39 z" />
    <path
       inkscape:connector-curvature="0"
       id="path4184"
       transform="translate(0,-0.01)"
       d="m 177.19,43.69 c 0,1.34 1.6,1.86 3.41,1.86 1.19,0 3,-0.23 3,-1.25 0,-1.02 -2.31,-1.3 -4.6,-1.66 -2.29,-0.36 -4.6,-1 -4.6,-2.86 0,-2.06 3,-3.05 5.76,-3.05 3.21,0 6.17,0.92 6.17,3.24 h -3.28 c -0.11,-1.21 -1.42,-1.52 -3,-1.52 -1.08,0 -2.33,0.3 -2.33,1.14 0,0.84 0.73,0.87 4.6,1.52 1.12,0.18 4.57,0.65 4.57,2.93 0,1.85 -2.22,3.23 -6.41,3.23 -3.41,0 -6.6,-1.1 -6.56,-3.58 z" />
    <path
       inkscape:connector-curvature="0"
       id="path4186"
       transform="translate(0,-0.01)"
       d="m 191.19,43.69 c 0,1.34 1.6,1.86 3.41,1.86 1.19,0 3,-0.23 3,-1.25 0,-1.02 -2.31,-1.3 -4.6,-1.66 -2.29,-0.36 -4.6,-1 -4.6,-2.86 0,-2.06 3,-3.05 5.76,-3.05 3.21,0 6.17,0.92 6.17,3.24 h -3.28 c -0.11,-1.21 -1.42,-1.52 -3,-1.52 -1.08,0 -2.33,0.3 -2.33,1.14 0,0.84 0.73,0.87 4.6,1.52 1.12,0.18 4.57,0.65 4.57,2.93 0,1.85 -2.22,3.23 -6.41,3.23 -3.41,0 -6.6,-1.1 -6.56,-3.58 z" />
    <path
       inkscape:connector-curvature="0"
       id="path4188"
       transform="translate(0,-0.01)"
       d="m 202.88,37 h 3.39 v 10 h -3.39 z" />
    <path
       inkscape:connector-curvature="0"
       id="path4190"
       transform="translate(0,-0.01)"
       d="m 212,42 c 0,-1.76 1.14,-3.46 4.19,-3.46 3.05,0 4.19,1.69 4.19,3.46 0,1.77 -1.14,3.37 -4.19,3.37 -3.05,0 -4.19,-1.65 -4.19,-3.37 z m -3.39,0 c 0,2.9 2.8,5.23 7.57,5.23 4.77,0 7.57,-2.33 7.57,-5.23 0,-2.9 -2.8,-5.32 -7.57,-5.32 -4.77,0 -7.6,2.37 -7.6,5.32 z" />
    <path
       inkscape:connector-curvature="0"
       id="path4192"
       transform="translate(0,-0.01)"
       d="m 226,37 h 3.37 l 6.43,6.75 v 0 V 37 h 3.17 v 10 h -3.39 l -6.41,-6.74 v 0 V 47 H 226 Z" />
    <path
       inkscape:connector-curvature="0"
       id="path4194"
       transform="translate(0,-0.01)"
       d="m 241.85,44.86 h 3.39 V 47 c 0,1.3 -1.51,2.16 -3.37,2.34 v -1 c 0.91,-0.1 1.58,-0.71 1.53,-1.33 h -1.55 z" />
    <path
       inkscape:connector-curvature="0"
       id="path4196"
       transform="translate(0,-0.01)"
       d="m 254,37 h 3.39 v 8.21 h 7.51 V 47 H 254 Z" />
    <path
       inkscape:connector-curvature="0"
       id="path4198"
       transform="translate(0,-0.01)"
       d="m 266.81,37 h 3.39 v 8.21 h 7.51 V 47 h -10.9 z" />
    <path
       inkscape:connector-curvature="0"
       id="path4200"
       transform="translate(0,-0.01)"
       d="m 289.88,40.35 c -0.22,-1 -1.68,-1.76 -3.37,-1.76 -3,0 -4.19,1.69 -4.19,3.46 0,1.77 1.14,3.37 4.19,3.37 2.07,0 3.24,-0.93 3.5,-2.26 h 3.28 c -0.35,2.51 -3,4.12 -6.78,4.12 -4.77,0 -7.57,-2.33 -7.57,-5.23 0,-2.9 2.8,-5.32 7.57,-5.32 3.39,0 6.24,1.3 6.65,3.62 z" />
    <line
       style="fill:none;stroke:#000000"
       x1="0"
       id="line4202"
       y2="53.860001"
       x2="18.219999"
       y1="53.860001"
       class="cls-2" />
    <line
       style="fill:none;stroke:#000000"
       id="line4204"
       y2="53.860001"
       x2="54.66"
       y1="53.860001"
       x1="294.23999"
       class="cls-2" />
    <g
       id="g4208"
       clip-path="url(#clip-path)"
       class="cls-3"
       style="fill:#000000">
      <path
         style="fill:#000000"
         inkscape:connector-curvature="0"
         id="path4206"
         transform="translate(0,-0.01)"
         d="m 64.81,31 c 1.83,0 2.35,-1.41 1.13,-2.63 L 38.17,0.55 a 1.87,1.87 0 0 0 -2.63,0 L 7.76,28.33 C 6.71,29.38 6.88,31 8.87,31 Z"
         class="cls-4" />
    </g>
    <g
       id="g4212"
       clip-path="url(#clip-path)"
       class="cls-3"
       style="fill:#000000">
      <path
         style="fill:#000000"
         inkscape:connector-curvature="0"
         id="path4210"
         transform="translate(0,-0.01)"
         d="m 8.87,34.18 c -1.83,0 -2.35,1.41 -1.13,2.63 l 27.78,27.78 a 1.85,1.85 0 0 0 2.63,0 L 65.93,36.81 c 1,-1.05 0.88,-2.63 -1.11,-2.63 z"
         class="cls-5" />
    </g>
    <path
       inkscape:connector-curvature="0"
       id="path4214"
       transform="translate(0,-0.01)"
       d="M 45.67,63 A 1.69,1.69 0 1 1 47.35,64.85 1.73,1.73 0 0 1 45.67,63 Z m -0.61,0 A 2.29,2.29 0 1 0 47.35,60.66 2.27,2.27 0 0 0 45.06,63 Z m 1.4,1.31 H 47 v -1.14 h 0.31 l 0.61,1.12 h 0.52 l -0.67,-1.15 a 0.64,0.64 0 0 0 0.66,-0.7 c 0,-0.57 -0.35,-0.78 -1,-0.78 h -0.94 v 2.63 z m 0.5,-2.22 h 0.42 c 0.23,0 0.51,0 0.51,0.33 0,0.33 -0.21,0.36 -0.49,0.36 H 47 Z" />
  </g>
</svg>
