<?xml version="1.0" encoding="UTF-8" standalone="no"?>
<!-- Created with Inkscape (http://www.inkscape.org/) -->

<svg
   xmlns:dc="http://purl.org/dc/elements/1.1/"
   xmlns:cc="http://creativecommons.org/ns#"
   xmlns:rdf="http://www.w3.org/1999/02/22-rdf-syntax-ns#"
   xmlns:svg="http://www.w3.org/2000/svg"
   xmlns="http://www.w3.org/2000/svg"
   xmlns:sodipodi="http://sodipodi.sourceforge.net/DTD/sodipodi-0.dtd"
   xmlns:inkscape="http://www.inkscape.org/namespaces/inkscape"
   version="1.1"
   id="svg2"
   width="3505.9065"
   height="832.28149"
   viewBox="0 0 3505.9065 832.28149"
   sodipodi:docname="transcanada.svg"
   inkscape:version="0.92.3 (2405546, 2018-03-11)">
  <metadata
     id="metadata8">
    <rdf:RDF>
      <cc:Work
         rdf:about="">
        <dc:format>image/svg+xml</dc:format>
        <dc:type
           rdf:resource="http://purl.org/dc/dcmitype/StillImage" />
        <dc:title></dc:title>
      </cc:Work>
    </rdf:RDF>
  </metadata>
  <defs
     id="defs6" />
  <sodipodi:namedview
     pagecolor="#ffffff"
     bordercolor="#666666"
     borderopacity="1"
     objecttolerance="10"
     gridtolerance="10"
     guidetolerance="10"
     inkscape:pageopacity="0"
     inkscape:pageshadow="2"
     inkscape:window-width="2560"
     inkscape:window-height="1412"
     id="namedview4"
     showgrid="false"
     inkscape:zoom="0.0472"
     inkscape:cx="-1594.5173"
     inkscape:cy="416.10331"
     inkscape:window-x="2560"
     inkscape:window-y="0"
     inkscape:window-maximized="1"
     inkscape:current-layer="svg2"
     fit-margin-top="0"
     fit-margin-left="0"
     fit-margin-right="0"
     fit-margin-bottom="0" />
  <path
     style="fill:#000000"
     d="m 1342.4404,830.9098 c -7.7708,-4.4711 -12.4698,-8.3618 -15.4956,-12.8304 l -3.4956,-5.1623 -1.8294,8.1306 -1.8295,8.1305 h -8.8028 -8.8029 l 1.3185,-6.25 c 20.2626,-96.0533 30.6051,-144.2511 31.0494,-144.6953 0.7056,-0.7054 17.1578,-0.6182 17.8707,0.095 0.4428,0.4428 -9.0951,47.3903 -11.0927,54.6005 -0.3428,1.2375 -0.3911,2.25 -0.1072,2.25 0.2839,0 2.8587,-1.5764 5.7218,-3.5032 12.2029,-8.2119 30.6782,-9.8927 43.8358,-3.9879 8.7409,3.9227 14.4866,10.4924 17.3655,19.8561 3.0406,9.8895 2.999,28.573 -0.089,40.135 -4.5845,17.1629 -14.1438,31.9154 -24.6825,38.0915 -8.3609,4.8998 -14.8762,6.4129 -27.3407,6.3497 -6.8057,-0.035 -12.4193,-0.534 -13.5934,-1.2096 z m 24.4856,-16.7242 c 9.3249,-4.7573 18.3895,-18.0203 21.611,-31.6207 0.8972,-3.7877 1.683,-11.1617 1.7463,-16.3867 0.098,-8.0643 -0.2374,-10.222 -2.2163,-14.2772 -4.1201,-8.4426 -13.6564,-13.464 -23.6175,-12.4359 -6.1413,0.6338 -9.2932,2.1035 -16.1713,7.5403 -18.4876,14.6136 -23.7659,48.7973 -9.7059,62.8573 7.3244,7.3244 18.9853,9.1023 28.3537,4.3229 z m 86.0107,17.2426 c 0,-0.4125 -2.0287,-1.5827 -4.5035,-2.6005 -5.7066,-2.3468 -11.8442,-9.2588 -14.1888,-15.979 -3.3007,-9.4603 -2.355,-20.1715 4.8709,-55.1705 l 6.4003,-31 9.2124,-0.2875 c 8.488,-0.2649 9.2124,-0.138 9.2124,1.6143 0,1.0459 -2.925,16.2503 -6.4999,33.7875 -3.575,17.5371 -6.4901,33.6857 -6.4781,35.8857 0.046,8.4769 6.091,16.3762 14.2024,18.5604 14.0196,3.7751 31.4521,-8.6144 39.3015,-27.932 1.2773,-3.1434 4.845,-17.6207 7.9283,-32.1718 3.0832,-14.5511 5.8477,-27.2441 6.1432,-28.2066 0.4594,-1.496 1.8341,-1.75 9.47,-1.75 7.8307,0 8.9326,0.2152 8.9326,1.7449 0,0.9598 -4.5853,24.1348 -10.1896,51.5 l -10.1895,49.7551 h -8.6762 -8.6762 l 0.8222,-4.25 c 1.3477,-6.9663 1.1714,-7.0381 -5.533,-2.2539 -10.7556,7.675 -16.5359,9.5039 -30.0378,9.5039 -6.336,0 -11.5216,-0.3375 -11.5236,-0.75 z m 99.0037,-0.9446 c -9.2997,-2.9809 -9.2828,-2.9669 -8.5452,-7.0824 1.3165,-7.3449 2.6426,-11.2228 3.8337,-11.2106 0.6663,0.01 5.2583,1.1319 10.2045,2.5 10.1224,2.8 12.2518,2.9501 19.5743,1.3798 6.1498,-1.319 12.2655,-6.3406 13.9545,-11.4582 2.3148,-7.014 -1.4886,-12.2396 -17.7842,-24.434 -4.7773,-3.575 -10.1263,-8.4031 -11.8866,-10.7291 -8.4868,-11.2142 -5.4594,-29.4101 6.2381,-37.4938 12.0004,-8.293 34.4683,-10.1393 49.6185,-4.0774 4.456,1.783 4.6401,2.9596 1.6946,10.8322 -1.653,4.4181 -2.4482,5.4681 -3.75,4.9521 -0.9087,-0.3602 -5.0272,-1.5483 -9.1522,-2.6403 -16.0959,-4.2611 -29,0.7619 -29,11.2883 0,4.9478 4.4064,10.002 15.4915,17.7688 10.6278,7.4463 15.0042,12.1353 17.465,18.7125 5.0013,13.3671 0,29.016 -11.618,36.387 -8.3344,5.2855 -15.7688,7.015 -29.5476,6.8736 -7.6218,-0.078 -14.0004,-0.674 -16.7909,-1.5685 z m 292,0.7323 c 0,-0.5707 -0.7875,-1.0381 -1.75,-1.0385 -3.6705,0 -13.8773,-5.8364 -17.929,-10.249 -7.7774,-8.4705 -11.2801,-18.8651 -11.3062,-33.5528 -0.044,-24.7573 12.8545,-47.5391 32.0818,-56.6636 9.2968,-4.412 16.9404,-5.8487 28.4034,-5.339 15.1866,0.6753 24.6227,6.7259 30.8869,19.8052 3.0264,6.3189 3.1131,6.89 3.1131,20.5 0,7.7 -0.3234,14.7875 -0.7186,15.75 -0.6654,1.6203 -3.3482,1.75 -36.191,1.75 -23.1623,0 -35.6924,0.356 -36.1063,1.0257 -1.3356,2.161 -1.6889,11.8238 -0.5577,15.2514 2.1922,6.6424 6.5162,11.3233 13.7456,14.8803 6.4879,3.1921 7.267,3.3361 17.3108,3.1979 7.9714,-0.1097 12.6848,-0.7661 19.4721,-2.7118 4.9251,-1.4119 9.0815,-2.4404 9.2363,-2.2856 0.1548,0.1548 -0.3874,3.7772 -1.2049,8.0497 -0.8175,4.2726 -1.4863,7.9218 -1.4863,8.1095 0,0.1876 -2.4672,0.8533 -5.4826,1.4793 -3.0154,0.626 -5.711,1.5079 -5.9903,1.9598 -0.7757,1.2551 -35.5271,1.3349 -35.5271,0.081 z m 44.4177,-71.0377 c -0.1389,-10.9772 -4.7704,-17.4022 -14.4165,-19.9997 -12.238,-3.2953 -27.7789,5.0394 -34.3254,18.4092 -4.5373,9.2663 -6.2089,8.6609 23.0742,8.3574 l 25.75,-0.2669 -0.082,-6.5 z m 35.5187,70.4234 c -0.6497,-0.7829 -1.9402,-1.4234 -2.8677,-1.4234 -0.9275,0 -2.5107,-0.6027 -3.518,-1.3393 -1.7032,-1.2454 -1.7373,-1.8141 -0.4858,-8.1102 0.7402,-3.724 1.8412,-6.961 2.4466,-7.1933 0.6054,-0.2323 5.3504,0.7162 10.5446,2.1077 11.01,2.9496 13.7452,3.0802 20.7765,0.9922 9.1242,-2.7096 14.7855,-9.7728 13.4467,-16.7764 -0.746,-3.9025 -6.3926,-9.8694 -16.0547,-16.9657 -11.567,-8.4952 -15.7477,-13.2668 -17.7953,-20.3104 -2.8731,-9.8829 0.4205,-21.7203 7.7715,-27.9318 10.8829,-9.1957 32.604,-12.0445 49.9647,-6.553 l 6.6655,2.1084 -1.0275,3.7359 c -0.5651,2.0547 -1.8642,5.3802 -2.8868,7.3899 l -1.8594,3.6541 -6.1267,-1.9068 c -17.2236,-5.3606 -31.2145,-1.9911 -33.4196,8.0486 -1.2091,5.5052 1.8841,9.6144 13.9674,18.5553 17.1898,12.7193 20.9343,18.3601 20.9077,31.4948 -0.018,8.8414 -2.588,15.2019 -8.5524,21.1663 -3.8012,3.8012 -10.5814,7.8337 -13.1714,7.8337 -0.7796,0 -1.9874,0.6868 -2.684,1.5262 -1.7969,2.1651 -34.2365,2.0726 -36.0419,-0.1028 z m 79.5446,-0.3301 c -8.54,-2.3975 -8.8048,-2.6429 -8.0594,-7.4689 0.9552,-6.185 2.5898,-10.6259 3.906,-10.612 0.6448,0.01 5.2192,1.1319 10.1654,2.5 10.5526,2.919 13.2946,3.0368 20.5479,0.8828 7.6995,-2.2865 12.9591,-7.6955 12.9591,-13.3272 0,-7.2724 -3.0827,-11.122 -17.1295,-21.3909 -13.775,-10.0703 -18.8987,-18.8682 -17.4312,-29.9311 2.3524,-17.7334 18.1089,-27.6477 42.0607,-26.4654 10.8806,0.5372 24.0033,3.948 23.218,6.0349 -0.2451,0.6515 -1.4753,4.0189 -2.7336,7.4833 -1.7858,4.9163 -2.6387,6.1595 -3.8862,5.6645 -0.879,-0.3488 -4.9732,-1.5276 -9.0982,-2.6196 -12.4413,-3.2936 -24.3269,-0.9798 -27.6133,5.3755 -3.9791,7.6947 -1.3959,12.4591 12.0794,22.2794 5.7697,4.2048 12.3089,9.711 14.5315,12.236 7.2092,8.1901 8.8434,20.4718 4.1736,31.366 -3.8501,8.9818 -10.5819,14.383 -22.4094,17.9799 -8.1525,2.4792 -26.4714,2.4858 -35.2808,0.013 z m 163.3628,1.1881 c -0.1891,-0.4298 -2.2018,-1.9892 -4.4727,-3.4654 -2.672,-1.737 -4.9575,-4.3832 -6.4775,-7.5 -3.65,-7.4842 -3.0774,-15.2722 3.4793,-47.322 3.0949,-15.1282 5.6271,-28.5157 5.6271,-29.75 0,-2.1829 -0.286,-2.244 -10.5,-2.244 h -10.5 v -3.0572 c 0,-1.6814 0.5034,-5.0564 1.1187,-7.5 l 1.1187,-4.4428 h 10.8461 c 12.7203,0 11.978,0.6358 14.5518,-12.4638 0.946,-4.8143 2.4275,-9.5723 3.2923,-10.5733 0.8648,-1.001 5.4742,-3.1564 10.243,-4.7898 l 8.6707,-2.9697 -0.5071,3.6483 c -0.2788,2.0066 -1.3681,7.8029 -2.4206,12.8809 -1.0525,5.0779 -1.9136,10.3654 -1.9136,11.75 v 2.5174 h 13.1369 13.1369 l -0.5134,6.3956 c -0.2823,3.5176 -0.8205,6.8926 -1.1959,7.5 -0.445,0.72 -5.5115,1.1044 -14.5561,1.1044 -12.3466,0 -13.9313,0.1926 -14.3977,1.75 -0.2883,0.9625 -2.5478,11.425 -5.0212,23.25 -8.503,40.6526 -8.6774,43.0654 -3.4311,47.4798 3.7625,3.166 8.3919,3.9735 15.5585,2.7141 3.1807,-0.559 6.1252,-0.6917 6.5432,-0.295 0.8228,0.7808 -0.4896,8.9551 -2.1288,13.2598 l -1.0124,2.6586 -13.9656,0.1228 c -7.6811,0.068 -14.1204,-0.2289 -14.3095,-0.6587 z m 85.1562,-0.2291 c 0,-0.5788 -0.8395,-1.0523 -1.8656,-1.0523 -3.4604,0 -15.9104,-7.0097 -19.4928,-10.9749 -7.4922,-8.293 -10.9316,-19.1556 -10.9316,-34.5251 0,-18.1499 5.7964,-33.1708 17.2061,-44.5887 11.4752,-11.4835 26.2518,-16.5379 45.9404,-15.7141 9.3642,0.3918 11.4353,0.8242 17.2307,3.5975 8.532,4.0827 15.8875,11.3763 20.0941,19.9251 3.2962,6.6984 3.3187,6.8427 3.3187,21.2622 0,16.0253 -1.583,23.2965 -7.7175,35.4488 -5.7376,11.3662 -13.6175,17.7336 -32.2825,26.0859 -3.7591,1.6821 -31.5,2.1538 -31.5,0.5356 z m 26.9162,-17.6032 c 7.1122,-3.8709 16.5151,-14.0092 20.1018,-21.674 7.5799,-16.1977 6.1317,-36.9503 -3.169,-45.4122 -7.9273,-7.2124 -21.6557,-9.1732 -31.2298,-4.4604 -14.4271,7.1016 -24.5643,25.5044 -24.6044,44.666 -0.022,10.6609 2.2311,17.0107 8.0332,22.6367 8.5049,8.2469 20.4868,9.8942 30.8682,4.2439 z m 147.9374,17.8618 c -0.1945,-0.446 -2.956,-2.1114 -6.1368,-3.7009 -7.2339,-3.6149 -13.9175,-10.9271 -16.8258,-18.4084 -3.3611,-8.6459 -3.8928,-29.8029 -1.0332,-41.1113 5.1597,-20.4037 16.6638,-34.7786 33.0369,-41.281 7.5137,-2.9839 27.3315,-3.2734 33.6053,-0.4909 6.7322,2.9859 11.4116,6.7658 14.7455,11.9109 l 3.1851,4.9154 6.2792,-30.3224 c 3.4536,-16.6772 6.5153,-31.3348 6.8038,-32.5723 0.4979,-2.136 0.9995,-2.25 9.8967,-2.25 h 9.3721 l -3.8233,18.25 c -2.1028,10.0375 -7.4649,34.8402 -11.9157,55.1172 -4.4508,20.2769 -9.7033,45.7019 -11.6723,56.5 -1.969,10.798 -3.7439,20.1953 -3.9442,20.8828 -0.2462,0.8452 -2.6149,1.25 -7.3137,1.25 -8.8194,0 -10.2381,-0.5323 -9.6061,-3.6043 0.2711,-1.3176 0.7276,-3.5251 1.0144,-4.9055 0.5114,-2.4612 0.4306,-2.4404 -4.1705,1.0716 -2.5806,1.9699 -7.2027,4.8366 -10.2715,6.3707 -5.129,2.5639 -6.6006,2.8053 -18.2259,2.9892 -6.9555,0.11 -12.8055,-0.1649 -13,-0.6108 z m 28.6464,-16.6618 c 9.6691,-4.5083 20.3024,-19.053 23.4243,-32.0405 1.454,-6.0491 1.5313,-20.2241 0.1379,-25.3161 -2.9054,-10.6182 -13.202,-18.2925 -24.543,-18.2925 -12.0269,0 -24.7264,11.778 -30.5427,28.3266 -6.3325,18.0171 -4.038,35.5314 5.7073,43.5643 7.618,6.2794 17.3656,7.6984 25.8162,3.7582 z m 99.5,16.3716 c -0.825,-0.4951 -4.081,-2.0245 -7.2355,-3.3985 -11.3542,-4.9456 -17.1423,-11.583 -21.0241,-24.1086 -2.7204,-8.7783 -2.8922,-23.8278 -0.3825,-33.5136 3.1293,-12.077 8.9198,-22.5073 16.9077,-30.4551 11.5519,-11.494 23.7519,-16.1405 40.1893,-15.3067 12.1376,0.6157 19.3435,3.4298 26.1103,10.1966 7.5073,7.5073 9.6985,13.8741 9.8311,28.5652 0.057,6.325 -0.2542,13.1875 -0.6916,15.25 l -0.7953,3.75 h -35.8381 -35.838 l -0.603,2.25 c -1.3079,4.8804 -0.6167,13.1467 1.4576,17.4316 6.562,13.5552 23.9333,18.1281 47.1802,12.4199 5.3725,-1.3192 10.0236,-2.1431 10.3358,-1.831 0.3122,0.3122 0.019,3.97 -0.6521,8.1284 l -1.2197,7.5607 -3.616,0.5667 c -1.9889,0.3116 -4.9661,1.2032 -6.6161,1.9813 -3.4537,1.6287 -34.924,2.0593 -37.5,0.5131 z m 45.3635,-68.0207 c 2.6069,-13.5853 -9.3511,-25.4532 -23.7252,-23.5464 -12.1114,1.6066 -24.1355,12.333 -27.6802,24.6927 -0.4264,1.4867 -0.5089,2.9696 -0.1833,3.2952 0.3257,0.3256 11.8721,0.472 25.6587,0.3253 l 25.0665,-0.2668 z m 282.1365,67.1334 c -12.5865,-3.6167 -20.902,-10.075 -25.4614,-19.7747 -3.0556,-6.5004 -5.0071,-15.8858 -5.0238,-24.1613 -0.059,-29.0632 19.1249,-55.2386 44.8602,-61.2097 7.5146,-1.7436 22.1374,-0.7912 29.2043,1.902 15.6878,5.9786 23.3066,22.2469 20.8922,44.6103 -0.475,4.4 -0.8879,8.5625 -0.9176,9.25 -0.042,0.9758 -7.9375,1.25 -35.9949,1.25 -22.2972,0 -36.17,0.3706 -36.5443,0.9762 -0.3318,0.5369 -0.8641,3.178 -1.1828,5.8692 -1.2182,10.2858 5.2445,20.4 16.1681,25.3032 7.1847,3.225 20.5955,3.1909 33.7343,-0.086 5.3538,-1.3352 9.9575,-2.2044 10.2304,-1.9315 0.2729,0.2729 -0.057,3.8074 -0.7343,7.8544 -1.3794,8.2494 -0.4002,7.4785 -13.2304,10.4165 -9.4752,2.1697 -27.9948,2.0314 -36,-0.2689 z m 45.8233,-65.7385 c 1.4445,-8.9014 -2.912,-18.4651 -10.4293,-22.8949 -4.8612,-2.8646 -15.6992,-2.6574 -22.1104,0.4227 -7.1601,3.44 -13.2915,9.4049 -16.7201,16.2661 -5.2654,10.5371 -6.9527,9.8112 22.8057,9.8112 h 25.8691 z m -1862.3233,64.2555 c 0,-1.3752 28.6279,-135.7087 29.6011,-138.9004 0.4615,-1.5134 1.8766,-1.75 10.4663,-1.75 5.4629,0 9.9326,0.3058 9.9326,0.6795 0,0.5162 -17.37,81.9202 -29.0348,136.0705 l -1.1309,5.25 h -9.9172 c -7.6572,0 -9.9171,-0.3075 -9.9171,-1.3496 z m 129.0005,-0.4004 c 4e-4,-0.9625 2.7295,-14.8 6.0649,-30.75 3.3353,-15.95 6.3015,-32.375 6.5914,-36.5 0.4648,-6.6127 0.2415,-8.0307 -1.888,-11.986 -3.0695,-5.7011 -10.6797,-10.0189 -17.633,-10.0042 -9.2097,0.019 -20.9758,7.5304 -27.7464,17.7123 -6.539,9.8335 -9.1877,19.1839 -18.1372,64.0279 l -1.6464,8.25 h -9.3029 c -8.2116,0 -9.2972,-0.2053 -9.2547,-1.75 0.026,-0.9625 4.639,-24.025 10.25,-51.25 l 10.2018,-49.5 8.3834,-0.2926 8.3834,-0.2926 -0.7121,7.2926 -0.7121,7.2926 4.8181,-4.8052 c 2.65,-2.6429 7.7384,-6.2429 11.3077,-8 6.1086,-3.0073 7.1365,-3.1948 17.5106,-3.1948 14.4318,0 20.0001,1.8487 27.1729,9.0214 9.7466,9.7467 10.5071,20.0514 3.836,51.9786 -1.9537,9.35 -4.7094,22.625 -6.1238,29.5 -1.4144,6.875 -3.03,13.0625 -3.5903,13.75 -0.6678,0.8195 -3.9042,1.25 -9.3962,1.25 -7.3122,0 -8.3775,-0.2226 -8.3771,-1.75 z m 436.9995,-0.8026 c 0,-3.5444 13.2728,-68.1962 18.6199,-90.6974 l 2.5546,-10.75 h 8.9127 c 7.1918,0 8.9128,0.285 8.9128,1.4761 0,1.2677 -19.086,93.0044 -20.6541,99.2739 -0.5308,2.1224 -1.0668,2.25 -9.4543,2.25 -7.371,0 -8.8916,-0.2655 -8.8916,-1.5526 z m 54.2601,0.3026 c 0.2608,-0.6875 5.1133,-23.8625 10.7833,-51.5 l 10.3091,-50.25 h 8.4403 8.4402 l -0.7051,6.5836 -0.705,6.5837 5.8325,-4.7507 c 9.1748,-7.473 15.0994,-9.7594 26.5291,-10.2382 16.5033,-0.6914 27.3241,4.599 33.2977,16.2794 2.7975,5.47 3.0104,6.6361 2.9166,15.9715 -0.083,8.2142 -1.2356,15.5047 -6.2545,39.5469 -3.3842,16.212 -6.4065,30.2745 -6.7161,31.25 -0.487,1.5344 -1.8451,1.7738 -10.063,1.7738 -8.5802,0 -9.4493,-0.1694 -8.9768,-1.75 1.0351,-3.4623 12.5337,-60.1823 13.1644,-64.9367 0.8733,-6.5828 -0.9297,-12.6178 -5.1726,-17.3142 -4.2618,-4.7173 -8.9847,-6.4269 -15.7741,-5.71 -7.2051,0.7608 -13.8214,3.8968 -19.5739,9.2776 -10.5226,9.8426 -14.4723,19.8411 -21.5025,54.4333 -2.515,12.375 -4.8184,23.2875 -5.1186,24.25 -0.4698,1.5062 -1.8748,1.75 -10.0855,1.75 -7.2179,0 -9.4242,-0.3042 -9.0655,-1.25 z m 950.215,0.036 c 0.2419,-0.7073 7.4729,-34.586 16.0687,-75.286 8.5959,-40.7 15.8526,-74.225 16.126,-74.5 0.6782,-0.6821 17.1415,-0.5221 17.837,0.1734 0.3059,0.3059 -6.5773,34.2545 -15.2959,75.4414 l -15.8521,74.8852 -9.6618,0.286 c -7.5292,0.2229 -9.5648,0 -9.2219,-1 z m 56.7484,-1.036 c 0.2512,-1.2375 5.1411,-24.4113 10.8666,-51.4974 l 10.4099,-49.2473 h 9.25 c 6.9026,0 9.25,0.3258 9.25,1.2914 0,0.7117 -4.725,23.701 -10.5,51.0874 -5.775,27.3863 -10.5,49.979 -10.5,50.2059 0,0.227 -4.3275,0.4127 -9.6166,0.4127 -9.4414,0 -9.6082,-0.041 -9.1599,-2.25 z m 77.3919,-0.469 c -0.6321,-3.1552 -15.6154,-98.8283 -15.6154,-99.7091 0,-0.3145 4.4438,-0.5719 9.875,-0.5719 h 9.875 l 0.5117,2.75 c 0.2815,1.5125 2.6776,19.97 5.3247,41.0168 2.6881,21.3722 5.2294,38.1279 5.7562,37.9523 0.5188,-0.1729 11.0516,-18.6304 23.4062,-41.0167 l 22.463,-40.7024 8.6441,0.015 c 4.7542,0.01 9.1538,0.3459 9.7767,0.75 0.7498,0.4864 -8.5916,17.8006 -27.6422,51.2347 l -28.7748,50.5 -11.5216,0.281 -11.5215,0.281 -0.5571,-2.781 z m 192.3846,1.8701 c 0,-0.8278 19.4045,-95.4314 20.4911,-99.9011 0.5115,-2.1039 1.0748,-2.25 8.6726,-2.25 h 8.1255 l -0.607,6.5 c -0.3338,3.575 -0.2581,6.5 0.1683,6.5 0.4264,0 2.0864,-1.3685 3.6888,-3.041 7.7075,-8.0449 19.419,-12.5169 30.6714,-11.7118 3.7734,0.27 7.1202,0.7504 7.4374,1.0676 0.3173,0.3172 -0.1899,4.0229 -1.127,8.2348 l -1.7037,7.658 -5.1587,-0.6297 c -10.0239,-1.2237 -21.5625,3.6795 -28.6331,12.1674 -8.2823,9.9423 -12.6851,23.1523 -20.1661,60.5047 l -3.1544,15.75 h -9.3526 c -5.1439,0 -9.3525,-0.382 -9.3525,-0.8489 z M 549.45276,739.1303 c -18.6932,-19.1828 -34.1349,-35.3197 -34.315,-35.8598 -0.18,-0.5402 5.2611,-3.703 12.0913,-7.0285 49.1007,-23.9066 90.4841,-59.773 120.519,-104.4524 30.827,-45.8576 47.6789,-92.6068 53.158,-147.4674 1.4951,-14.9693 1.255,-49.4963 -0.4502,-64.7588 -5.1492,-46.0864 -20.4189,-90.2031 -45.208,-130.6126 -7.5647,-12.3316 -20.9824,-30.4311 -21.888,-29.5255 -0.245,0.245 0.6271,2.8771 1.9379,5.8492 8.1263,18.4249 17.0694,50.2169 20.5571,73.0791 11.4508,75.0616 -4.5776,145.7694 -47.4934,209.5121 -12.3652,18.366 -22.1916,30.1586 -39.8827,47.8631 -31.9502,31.9744 -67.039,56.1268 -105.9565,72.9324 l -13.6805,5.9076 -34.4284,-34.4176 c -18.9356,-18.9297 -34.101,-34.7229 -33.7007,-35.096 0.4002,-0.3732 6.0359,-2.7413 12.5238,-5.2624 48.7408,-18.9407 94.026,-51.5794 125.047,-90.1261 36.264,-45.0616 59.8569,-103.2585 66.6833,-164.4885 1.4663,-13.1523 1.4858,-45.4267 0.035,-58 -4.4386,-38.4697 -14.4121,-71.5698 -32.0896,-106.5 -29.8913,-59.0643 -74.7592,-104.2661 -132.0633,-133.0459 -5.2235,-2.6234 -8.9086,-5.0905 -8.9086,-5.9641 0,-1.8617 2.9173,-1.9299 5.5275,-0.1293 1.0849,0.7484 7.1475,3.6507 13.4725,6.4496 28.3287,12.5358 75.5404,40.0266 109,63.4694 58.4038,40.9194 114.4647,92.8476 153.7521,142.4175 42.0576,53.0653 71.3354,113.2518 82.634,169.8714 5.0884,25.4988 6.041,35.9222 6.025,65.9314 -0.016,30.9487 -1.6065,47.0968 -7.4517,75.6753 -18.5825,90.8541 -74.0363,174.068 -149.6894,224.6238 -15.7119,10.4996 -39.9492,24.5869 -41.4915,24.1158 -0.1532,-0.047 -15.5729,-15.78 -34.2661,-34.9628 z m -185.5124,32.7845 c -40.3942,-18.2263 -67.0336,-33.0986 -105.9126,-59.129 -47.7464,-31.9673 -80.99894,-59.2433 -120.08771,-98.504 -32.53364,-32.6766 -50.601226,-54.3223 -71.453346,-85.6036 -34.73765,-52.1117 -56.23593,-105.3138 -63.0376198,-156 -0.88567,-6.6 -1.96392,-12.675 -2.39612,-13.5 -0.43219004,-0.825 -0.88442004,-13.2 -1.00494004,-27.5 -0.19061,-22.6159 0.10983,-28.6682 2.30825004,-46.5 2.95973,-24.007 4.50118,-32.6319 9.1453298,-51.1712 C 32.844574,148.8067 86.439434,71.9948 157.85766,24.2502 169.02896,16.782 182.87269,8.4394 193.5621,2.7338 L 198.68383,0 l 35.37827,35.5073 35.37826,35.5073 -7.4803,3.6876 c -33.74979,16.6375 -66.67194,40.039 -92.05533,65.4341 -36.19817,36.2149 -60.93928,78.1594 -75.317986,127.6893 -20.64746,71.1238 -18.57785,140.8235 6.036886,203.3087 5.86606,14.8911 18.41707,39.6244 27.03833,53.2823 6.95344,11.0158 20.47164,29.9017 21.01448,29.3589 0.16698,-0.167 -1.96496,-6.4687 -4.73766,-14.0038 -38.72708,-105.2445 -22.4378,-208.3271 46.6312,-295.0935 10.81664,-13.5882 36.47034,-39.3254 49.92987,-50.0925 26.83291,-21.4653 54.25261,-38.0631 83.25001,-50.3936 l 10.3095,-4.3839 33.9405,33.9295 c 18.6673,18.6612 33.9405,34.1748 33.9405,34.4748 0,0.2999 -4.1625,2.28 -9.25,4.4002 -14.567,6.0709 -41.9589,20.2405 -55.3859,28.6506 -81.8277,51.2536 -126.55932,123.7691 -137.5065,222.9149 -1.66341,15.0651 -1.67355,57.4305 -0.0171,71.5 8.74084,74.243 39.1015,133.4961 93.6595,182.7896 19.0969,17.2541 47.506,37.5082 69.25,49.3713 4.5375,2.4756 8.25,4.6896 8.25,4.9201 0,0.8151 -4.5342,0.2682 -7,-0.8444 z M 1656.9404,701.636 c 0,-0.852 3.0479,-15.7595 3.6205,-17.7078 0.4473,-1.522 1.8736,-1.75 10.9469,-1.75 7.6873,0 10.4287,0.3289 10.4178,1.25 -0.013,1.0734 -0.7414,4.5038 -3.505,16.5 -0.4969,2.1572 -0.9504,2.25 -10.9993,2.25 -5.7645,0 -10.4809,-0.244 -10.4809,-0.5422 z m 1062,-0.3924 c 0,-1.1663 2.8587,-14.9426 3.5931,-17.3154 0.4706,-1.5202 1.9115,-1.75 10.9743,-1.75 5.7379,0 10.4326,0.1956 10.4326,0.4346 0,0.4915 -2.717,13.872 -3.516,17.3154 -0.5005,2.157 -0.9553,2.25 -11.0031,2.25 -5.8318,0 -10.4809,-0.4146 -10.4809,-0.9346 z m 435.5,-153.4739 c -28.4706,-4.7577 -50.0442,-20.8975 -63.4367,-47.4586 -4.5046,-8.9341 -10.6642,-27.8876 -12.7176,-39.1329 -2.5524,-13.9784 -2.3083,-38.2749 0.5193,-51.6884 5.2365,-24.8408 15.8464,-46.2985 28.9468,-58.5426 19.008,-17.7655 47.481,-25.2053 77.6882,-20.2992 20.8769,3.3906 35.7016,11.7468 47.6698,26.87 l 3.8302,4.8398 V 303.768 c 0,-32.2244 0.3375,-58.5981 0.75,-58.6082 0.4125,-0.01 9.1875,-2.2255 19.5,-4.9231 l 18.75,-4.9047 v 153.4231 153.4231 h -18.5 -18.5 v -13.5 c 0,-7.425 -0.2943,-13.5 -0.6541,-13.5 -0.3597,0 -2.2549,1.8702 -4.2114,4.156 -9.5199,11.1218 -29.1414,22.9793 -44.3584,26.8063 -10.3958,2.6145 -25.2693,3.3014 -35.2761,1.6292 z m 34.4924,-32.0768 c 9.8066,-2.6096 17.9964,-7.4929 26.1568,-15.5961 6.2021,-6.1588 8.5134,-9.3761 12.2177,-17.0072 7.2078,-14.8482 9.0639,-24.0069 9.1015,-44.9114 0.038,-21.011 -1.0659,-26.1986 -9.1226,-42.873 -4.6352,-9.5935 -6.6179,-12.4887 -12.6705,-18.5025 -17.5486,-17.4361 -41.9965,-21.5679 -63.4721,-10.7271 -21.0057,10.6037 -33.2032,36.3564 -33.2032,70.1026 0,47.2392 24.1587,80.6577 58.5,80.9223 3.85,0.03 9.4716,-0.6037 12.4924,-1.4076 z m -1738.9924,32.0259 c -0.825,-0.1982 -4.875,-0.9047 -9,-1.5699 -15.9167,-2.5669 -30.9192,-9.8899 -41.0826,-20.0533 -6.5552,-6.5552 -10.2261,-12.3895 -13.7151,-21.7978 -1.9652,-5.2992 -2.5484,-9.113 -2.9238,-19.1196 -0.5832,-15.5474 1.0698,-24.2271 6.8441,-35.9378 10.359,-21.0092 32.4077,-33.3787 69.8774,-39.2018 9.6392,-1.498 43.5129,-1.8044 57.8996,-0.5236 l 9.3995,0.8367 -0.631,-5.3279 c -0.347,-2.9304 -2.0097,-8.1284 -3.6947,-11.5512 -5.0243,-10.2058 -12.4097,-14.9872 -27.5912,-17.8628 -22.3439,-4.2323 -54.1758,-0.1646 -75.2445,9.6151 -10.9028,5.061 -10.1377,6.6791 -10.1377,-21.4404 v -24.3936 l 6.41,-2.5661 c 19.5588,-7.8299 60.7378,-13.7153 85.09,-12.1613 33.5506,2.141 56.8149,10.7588 72.1465,26.725 10.1856,10.6074 15.7959,20.7371 19.5449,35.2897 1.9145,7.4317 2.1224,12.2976 2.9266,68.5 0.7723,53.9701 1.7797,78.0689 3.5459,84.8227 l 0.5694,2.1773 h -33.4917 -33.4916 l -0.625,-3.125 c -0.3437,-1.7187 -0.625,-5.2509 -0.625,-7.8491 0,-7.9037 -1.2463,-20.0259 -2.059,-20.0259 -0.421,0 -2.795,2.8442 -5.2756,6.3204 -9.5309,13.3564 -22.8536,22.9567 -38.1528,27.493 -6.2515,1.8536 -10.9798,2.454 -21.5126,2.7317 -7.425,0.1958 -14.175,0.1937 -15,0 z m 43.1871,-50.5167 c 16.5636,-5.116 28.7299,-19.6222 32.498,-38.7481 0.8778,-4.4556 1.3013,-8.8689 0.9411,-9.8075 -0.5983,-1.559 -2.5762,-1.6633 -22.8905,-1.2064 -24.0604,0.5411 -29.8676,1.508 -39.0401,6.5003 -12.9564,7.0517 -17.2569,23.2399 -9.0395,34.0272 7.3709,9.676 23.3624,13.6108 37.531,9.2345 z m 457.3129,49.4098 c -12.6341,-1.7186 -33.8864,-6.1505 -38.2637,-7.9794 -3.0222,-1.2628 -3.2889,-1.7051 -2.8186,-4.6745 0.2857,-1.8039 1.2584,-13.4048 2.1616,-25.7798 0.9032,-12.375 1.7731,-22.6433 1.9331,-22.8183 0.16,-0.1751 5.9756,1.499 12.9235,3.7202 33.4296,10.6872 64.9264,13.0325 77.9748,5.8062 7.9611,-4.409 10.2646,-14.067 5.1856,-21.7419 -3.7631,-5.6865 -14.9903,-10.6857 -37.7652,-16.8158 -20.901,-5.6258 -30.8871,-9.448 -39.8944,-15.2697 -16.5496,-10.6965 -23.9188,-24.6847 -23.9075,-45.3807 0.018,-32.6453 15.0005,-52.2881 49.0398,-64.2937 14.8072,-5.2225 26.0495,-6.5376 50.7884,-5.9412 23.2936,0.5615 36.9911,2.4086 53.5181,7.2168 13.8073,4.0169 12.6811,0.5721 9.5007,29.06 -1.5147,13.5681 -2.952,24.8672 -3.1938,25.1091 -0.2419,0.2418 -4.2537,-1.139 -8.9152,-3.0687 -17.7837,-7.3616 -33.1033,-10.0573 -53.0217,-9.3301 -14.8678,0.5428 -20.671,2.0908 -25.4862,6.7986 -5.4195,5.2985 -4.7227,11.8572 1.8472,17.3854 5.1408,4.3257 10.5344,6.2714 33.5081,12.0883 11.6131,2.9404 24.6631,6.7167 29,8.3918 28.3124,10.9354 41.3854,28.731 41.3854,56.336 0,50.1607 -33.487,73.0365 -106.3417,72.6447 -10.5371,-0.057 -23.6583,-0.7152 -29.1583,-1.4633 z m 300.5,0.4576 c -17.0532,-1.9309 -37.2451,-7.6296 -52.7072,-14.8754 -25.5497,-11.973 -47.3936,-33.2678 -60.0927,-58.5818 -11.9401,-23.8012 -18.7027,-60.1561 -16.324,-87.7565 4.6266,-53.6836 33.4788,-97.1571 78.4178,-118.1572 20.7808,-9.7109 41.5122,-14.4022 67.2094,-15.2088 24.0054,-0.7534 38.871,1.2665 61.2467,8.3222 7.5939,2.3945 8.249,2.8108 8.2368,5.2338 -0.024,4.8569 -2.8763,36.3552 -3.333,36.8119 -0.2483,0.2483 -3.0845,-0.8766 -6.3026,-2.4997 -29.7893,-15.025 -67.4035,-16.2071 -98.8709,-3.1072 -16.2201,6.7524 -34.9986,22.3502 -44.829,37.2359 -12.9489,19.608 -19.5663,45.8861 -18.3859,73.0117 0.8683,19.9522 5.7395,36.7439 15.3425,52.8881 6.7905,11.416 24.9127,29.7039 36.2744,36.6061 17.2201,10.4611 32.7369,14.4846 56.1177,14.551 22.2846,0.063 39.3958,-3.0634 55.2708,-10.0995 3.1739,-1.4067 6.0446,-2.2839 6.3792,-1.9492 0.5317,0.5317 3.478,37.8893 3.024,38.3422 -0.096,0.095 -2.5262,1.1007 -5.4012,2.2338 -16.4664,6.4897 -55.8302,9.8795 -81.2728,6.9986 z m 179,0.4075 c -1.925,-0.2096 -7.325,-1.3007 -12,-2.4247 -31.5167,-7.5776 -48,-28.4647 -48,-60.824 0,-17.7984 4.4637,-30.1276 14.9762,-41.3655 10.2728,-10.9817 25.3239,-19.1383 44.5953,-24.1676 13.3388,-3.481 25.4692,-4.517 52.8891,-4.517 h 24.5394 v -7.7899 c 0,-14.4709 -4.4037,-25.5188 -13.6622,-34.275 -6.906,-6.5315 -13.6871,-9.537 -24.8378,-11.0088 -22.2944,-2.9426 -48.5047,3.3486 -67.0182,16.0862 -2.5869,1.7799 -5.0393,2.8247 -5.51,2.3475 -0.4664,-0.473 -1.2707,-7.385 -1.7873,-15.36 -1.0907,-16.8381 -2.0273,-14.9814 10.8155,-21.4417 16.6158,-8.3582 32.0123,-12.3058 51.5932,-13.228 40.1797,-1.8925 67.5986,10.4674 79.827,35.9845 8.9309,18.6359 9.5182,24.3986 9.6495,94.6852 0.06,32.175 0.4065,63.7879 0.7698,70.251 l 0.6605,11.751 -17.75,-10e-4 h -17.75 v -12 c 0,-6.6 -0.3375,-11.9994 -0.75,-11.9986 -0.4125,8e-4 -4.3798,3.4883 -8.8162,7.75 -9.5215,9.1466 -16.4142,13.4557 -27.6726,17.3001 -12.5638,4.2901 -29.5579,5.9027 -44.7612,4.2473 z m 34.5,-31.7982 c 20.6597,-4.3226 35.7448,-18.138 41.0906,-37.6316 1.9481,-7.104 3.0634,-29.7784 1.5993,-32.5141 -0.9783,-1.828 -2.3694,-2.1089 -13.1206,-2.6494 -23.1623,-1.1646 -47.2112,2.2943 -60.7993,8.7448 -24.6167,11.6858 -30.3556,37.0359 -12.2239,53.996 10.8414,10.1409 26.1317,13.6787 43.4539,10.0543 z m 440.5,31.043 c -9.8861,-1.6252 -21.192,-5.4612 -29,-9.8394 -11.9866,-6.7214 -21.6503,-20.3274 -25.4042,-35.7681 -2.0056,-8.2494 -2.0509,-24.3805 -0.092,-32.6897 6.1044,-25.8904 28.2375,-43.2095 65.7188,-51.4247 7.7928,-1.7081 14.1374,-2.1152 39.6531,-2.5447 l 30.3758,-0.5112 -0.4876,-10.1329 c -1.025,-21.2947 -9.8688,-34.0226 -28.3448,-40.7933 -8.7612,-3.2106 -32.1358,-3.2273 -44.8592,-0.032 -9.617,2.4151 -24.5509,9.0259 -32.0586,14.1914 -2.5531,1.7566 -4.9382,2.8976 -5.3001,2.5357 -0.8596,-0.8595 -2.04,-13.9839 -2.1303,-23.6835 l -0.071,-7.6487 8.8937,-4.5935 c 28.2445,-14.5876 62.0235,-18.4308 92.8037,-10.5585 25.4007,6.4964 41.3003,23.6588 47.9363,51.7433 1.3286,5.6228 1.7082,18.4993 2.3501,79.7062 0.4211,40.15 1.0957,74.2375 1.4993,75.75 l 0.7337,2.75 h -18.1084 -18.1084 v -12.5 c 0,-6.875 -0.2787,-12.5 -0.6194,-12.5 -0.3407,0 -4.6415,3.8275 -9.5574,8.5056 -15.1496,14.4168 -30.57,20.3414 -54.8232,21.0633 -7.7694,0.2312 -15.7168,-0.1568 -21,-1.0253 z m 45.5018,-33.0033 c 9.9559,-3.3307 16.0549,-7.1807 22.4361,-14.1627 10.2259,-11.1888 14.3102,-24.3804 13.8422,-44.7081 l -0.2801,-12.1695 -11.5,-0.3125 c -24.3641,-0.6621 -49.6874,3.0713 -62.6858,9.2418 -23.5697,11.1887 -29.6807,35.1993 -13.4422,52.816 11.3361,12.2983 31.6963,15.9638 51.6298,9.295 z m 432.3474,32.9612 c -15.6619,-2.9685 -31.6888,-10.5536 -39.5612,-18.7234 -4.6334,-4.8084 -10.0727,-14.3608 -12.4009,-21.7781 -2.8469,-9.0697 -3.6043,-27.0889 -1.5443,-36.7399 5.662,-26.5258 28.1111,-44.3707 65.9235,-52.4027 8.686,-1.845 14.7709,-2.2633 40.2337,-2.7656 l 30,-0.5918 -0.2647,-7.5 c -0.4897,-13.8735 -4.0332,-24.0807 -11.1774,-32.1969 -17.3493,-19.7098 -62.8247,-18.0373 -94.7516,3.4848 l -5.1937,3.5011 -0.5091,-2.6445 c -0.28,-1.4545 -0.8058,-8.7604 -1.1684,-16.2354 l -0.6593,-13.5908 9.0059,-4.6514 c 24.4746,-12.6406 53.0064,-17.3408 80.2183,-13.2146 19.8896,3.0158 32.3538,8.6773 43.1457,19.5975 10.7462,10.874 16.6709,24.7878 18.8995,44.3847 0.5589,4.914 1.4649,9.4752 2.0134,10.1361 0.6438,0.7758 0.9627,25.5215 0.8998,69.8155 l -0.098,68.6139 h -17.9304 -17.9305 V 529.962 516.7459 l -6.7453,6.8455 c -11.3187,11.4867 -21.9472,17.74 -36.8444,21.6773 -10.4519,2.7625 -32.6389,3.4811 -43.5611,1.411 z m 46.7524,-32.9947 c 9.7662,-3.2671 15.6463,-6.9609 22.3287,-14.0267 9.7163,-10.2735 14.0226,-23.6538 14.0523,-43.6627 0.016,-10.9869 -0.1073,-11.7222 -2.0766,-12.3472 -1.1517,-0.3656 -10.0392,-0.6776 -19.75,-0.6935 -39.8581,-0.065 -63.1203,8.4571 -72.0925,26.4121 -8.8832,17.777 1.4615,38.5897 22.4365,45.1403 7.553,2.3589 9.2771,2.5605 18.6016,2.1753 5.8564,-0.2419 11.1224,-1.1986 16.5,-2.9976 z M 1210.9404,441.1782 c 0,-56.1 0.3375,-102.0125 0.75,-102.0277 0.4125,-0.015 15.4875,-2.1964 33.5,-4.8471 l 32.75,-4.8194 v 18.4309 18.4309 l 5.193,-7.8338 c 7.1066,-10.7203 18.8115,-22.3148 26.307,-26.0586 12.2211,-6.1041 15.5392,-6.7752 33.5,-6.7752 9.075,0 18.0855,0.3388 20.0233,0.7528 l 3.5234,0.7528 -1.8208,30.2113 c -1.0014,16.6162 -1.9515,30.3421 -2.1114,30.502 -0.16,0.1599 -2.675,-0.1614 -5.5891,-0.7141 -7.916,-1.5012 -25.7237,-1.2344 -32.3222,0.4843 -18.7366,4.8802 -32.1403,18.6222 -37.0754,38.0109 -3.0405,11.9451 -3.6278,23.3136 -3.6278,70.2238 v 47.2762 h -36.5 -36.5 z m 433,0 c 0,-56.1 0.2258,-102 0.5018,-102 0.276,0 14.2995,-2.025 31.1633,-4.5 16.8638,-2.475 31.7033,-4.5 32.9766,-4.5 h 2.3151 l 0.2716,19.0592 0.2716,19.0592 4.7041,-7.3092 c 14.0885,-21.8907 34.8499,-33.4074 64.5027,-35.7808 45.8498,-3.6697 76.4922,16.7201 87.5172,58.235 2.1415,8.0638 2.1944,9.8152 2.5232,83.499 l 0.3359,75.2623 -36.7916,-0.2623 -36.7915,-0.2624 -0.5299,-61.5 c -0.4832,-56.0835 -0.6912,-61.9844 -2.3615,-67 -2.9878,-8.9718 -6.1154,-14.265 -11.287,-19.1024 -6.978,-6.5271 -12.146,-8.2463 -23.2006,-7.7177 -7.8316,0.3744 -9.8764,0.8893 -16.4662,4.1461 -12.6349,6.2445 -19.8294,16.7921 -23.8893,35.023 -1.8755,8.4218 -2.0743,13.4738 -2.4954,63.401 l -0.4576,54.25 h -36.4063 -36.4062 z m -579,-13.5 v -114.5 h -35 -35.00004 v -28 -28 h 108.50004 108.5 v 28 28 h -35 -35 v 114.5 114.5 h -38.5 -38.5 z m 1547.625,111.375 c -0.3437,-1.7187 -0.625,-46.3882 -0.625,-99.2654 v -96.1405 l 17.25,-4.4054 c 9.4875,-2.4229 17.8011,-4.5973 18.4748,-4.8318 0.9266,-0.3227 1.2917,3.5475 1.5,15.9009 l 0.2752,16.3275 4.732,-6.6341 c 6.4835,-9.0897 14.5414,-15.9902 24.9489,-21.3655 13.4852,-6.9648 21.4388,-8.7581 39.3191,-8.8653 17.973,-0.1077 26.8869,1.6118 39.5,7.6196 16.6177,7.9152 29.6463,25.1109 35.0684,46.285 2.9678,11.5897 3.8576,34.7117 3.8974,101.2716 l 0.034,57.2716 -18.96,-0.2716 -18.9601,-0.2716 -0.4335,-62.5 c -0.4716,-67.9821 -1.0019,-75.5496 -6.3291,-90.3179 -3.3203,-9.2047 -5.9417,-13.26 -12.2207,-18.9053 -12.0486,-10.8327 -36.2259,-12.842 -52.8555,-4.3925 -15.5517,7.9017 -27.9753,24.734 -33.2989,45.1157 -2.7541,10.5442 -3.8249,35.2407 -3.8913,89.75 l -0.051,41.75 h -18.375 -18.375 z"
     id="path817"
     inkscape:connector-curvature="0" />
</svg>
