<?xml version="1.0" encoding="UTF-8" standalone="no"?>
<!-- Created with Inkscape (http://www.inkscape.org/) -->

<svg
   xmlns:dc="http://purl.org/dc/elements/1.1/"
   xmlns:cc="http://creativecommons.org/ns#"
   xmlns:rdf="http://www.w3.org/1999/02/22-rdf-syntax-ns#"
   xmlns:svg="http://www.w3.org/2000/svg"
   xmlns="http://www.w3.org/2000/svg"
   xmlns:sodipodi="http://sodipodi.sourceforge.net/DTD/sodipodi-0.dtd"
   xmlns:inkscape="http://www.inkscape.org/namespaces/inkscape"
   version="1.1"
   id="svg2"
   width="2220.8875"
   height="1447"
   viewBox="0 0 2220.8875 1447"
   sodipodi:docname="vectorpipeline.svg"
   inkscape:version="0.92.3 (2405546, 2018-03-11)">
  <metadata
     id="metadata8">
    <rdf:RDF>
      <cc:Work
         rdf:about="">
        <dc:format>image/svg+xml</dc:format>
        <dc:type
           rdf:resource="http://purl.org/dc/dcmitype/StillImage" />
        <dc:title></dc:title>
      </cc:Work>
    </rdf:RDF>
  </metadata>
  <defs
     id="defs6" />
  <sodipodi:namedview
     pagecolor="#ffffff"
     bordercolor="#666666"
     borderopacity="1"
     objecttolerance="10"
     gridtolerance="10"
     guidetolerance="10"
     inkscape:pageopacity="0"
     inkscape:pageshadow="2"
     inkscape:window-width="816"
     inkscape:window-height="540"
     id="namedview4"
     showgrid="false"
     inkscape:zoom="0.047190562"
     inkscape:cx="-2235.7396"
     inkscape:cy="709.50001"
     inkscape:window-x="885"
     inkscape:window-y="313"
     inkscape:window-maximized="0"
     inkscape:current-layer="svg2"
     fit-margin-top="0"
     fit-margin-left="0"
     fit-margin-right="0"
     fit-margin-bottom="0" />
  <path
     style="fill:#000000"
     d="m 1298.8875,1348 v -99 h 23.4205 23.4206 l 0.5259,2.75 c 0.2893,1.5125 0.8151,4.6655 1.1685,7.0066 l 0.6425,4.2567 4.5918,-4.0419 c 12.9715,-11.418 33.3177,-15.5066 54.9502,-11.0424 33.0655,6.8234 50.28,30.8585 50.28,70.2011 0,24.3936 -6.6599,42.0505 -21.1144,55.9791 -11.695,11.2694 -27.1158,16.8908 -46.3355,16.8908 -15.8675,0 -27.3077,-3.3362 -35.199,-10.2649 l -3.3511,-2.9423 V 1412.3964 1447 h -26.5 -26.5 z m 93.58,-2.5291 c 15.6414,-9.6301 18.5777,-34.8353 5.6662,-48.6388 -10.1513,-10.8526 -26.3648,-11.6415 -37.5164,-1.8255 -13.3495,11.7507 -13.3812,34.3541 -0.066,47.1924 5.7756,5.5688 9.5126,6.8651 18.9164,6.5617 6.9899,-0.2255 8.7437,-0.6694 13,-3.2898 z m -1118.08,45.4054 c -20.2105,-1.9164 -38.3434,-9.6592 -50.0052,-21.3523 -12.2686,-12.3016 -17.3983,-25.2083 -18.2435,-45.9017 -0.5889,-14.4175 0.587,-23.3696 4.4162,-33.6223 7.5907,-20.3242 25.7972,-35.7278 49.8325,-42.1611 11.5197,-3.0833 35.4947,-3.0812 47,0 26.6058,7.1347 43.7414,23.8762 49.1025,47.973 1.2628,5.676 1.5318,10.5841 1.1534,21.0433 -0.2714,7.5024 -0.8257,14.4282 -1.2317,15.3907 -0.6886,1.6324 -3.9905,1.75 -49.1312,1.75 -31.5021,0 -48.393,0.348 -48.393,0.9971 0,2.025 7.5142,9.2289 11.9365,11.4437 13.8385,6.9303 35.4323,5.4246 49.4122,-3.4455 3.8871,-2.4663 5.1348,-2.8389 6.2916,-1.8789 0.7936,0.6587 6.7002,7.0394 13.1259,14.1794 l 11.683,12.9818 -4.4746,3.8742 c -6.1765,5.3478 -19.885,12.2514 -30.3486,15.2837 -7.4518,2.1594 -26.7649,4.8638 -31.626,4.4285 -0.825,-0.074 -5.55,-0.5183 -10.5,-0.9877 z m 34.5,-92.6442 c 0,-3.6051 -4.8985,-9.0353 -10.7291,-11.8937 -10.4985,-5.1468 -26.3169,-3.3098 -34.1035,3.9604 -2.4524,2.2899 -5.1674,6.8354 -5.1674,8.6515 0,0.7049 8.2115,1.0497 25,1.0497 23.2391,0 25,-0.1245 25,-1.7679 z m 130.7539,92.7308 c -11.937,-1.337 -20.3818,-3.7232 -30.7539,-8.69 -7.7455,-3.709 -10.9062,-5.955 -17.114,-12.161 -8.1822,-8.18 -12.1266,-14.791 -15.8778,-26.6119 -2.8335,-8.9294 -3.8278,-28.1068 -2.0355,-39.261 6.0043,-37.3664 37.0804,-59.7231 80.5273,-57.9329 14.294,0.589 21.285,2.1475 32,7.1338 7.3293,3.4109 19.5,11.995 19.5,13.7536 0,0.9654 -25.6571,28.9578 -27.142,29.6125 -0.3817,0.1683 -2.7361,-1.2528 -5.2319,-3.1579 -6.1119,-4.6653 -10.7087,-6.1002 -19.6261,-6.1262 -16.9519,-0.05 -28.6374,11.3667 -29.7854,29.0991 -1.147,17.716 9.9078,30.1057 27.7854,31.1406 8.9522,0.5182 16.0661,-1.741 23.6025,-7.4955 l 4.7975,-3.6631 14.8,15.4044 c 8.14,8.4724 14.7944,15.6493 14.7876,15.9485 -0.01,0.2993 -3.2693,2.9726 -7.25,5.9408 -18.3024,13.6472 -40.298,19.6072 -62.9837,17.0662 z m 136.6206,-0.3837 c -18.1382,-4.1539 -28.7919,-14.5203 -33.9961,-33.0792 -1.3547,-4.8309 -1.7691,-11.9919 -2.1271,-36.75 L 539.6943,1290 h -10.9034 -10.9034 v -20 -20 h 11 11 v -17.4809 c 0,-17.3205 0.021,-17.4854 2.25,-17.958 1.2375,-0.2623 11.475,-1.4192 22.75,-2.5709 11.275,-1.1516 21.953,-2.3439 23.729,-2.6494 l 3.2289,-0.5555 0.2711,20.3574 0.271,20.3573 15.25,0.276 15.25,0.2761 V 1270.026 1290 h -15.5 -15.5 l 0.015,24.75 c 0.016,27.2145 0.1818,28.0993 5.9999,32.0668 2.9441,2.0077 4.3508,2.3014 9.0578,1.8909 3.0648,-0.2672 7.4374,-1.4373 9.7168,-2.6002 l 4.1444,-2.1143 2.4834,8.2534 c 5.238,17.408 8.583,29.0464 8.583,29.8631 0,1.3681 -7.2148,4.6617 -15.1477,6.9151 -9.6693,2.7466 -31.5956,3.5886 -40.4778,1.5544 z m 125.9671,0.01 c -30.9987,-5.9054 -52.3289,-24.4279 -59.0462,-51.274 -2.6537,-10.6053 -2.3701,-32.4506 0.5551,-42.7662 6.4647,-22.7976 21.2941,-37.9313 45.1034,-46.0294 11.0227,-3.7491 20.3148,-4.8232 36.7252,-4.2452 17.7099,0.6237 24.0899,2.1098 38.2002,8.898 8.5369,4.107 11.6621,6.2762 17.6064,12.2205 7.9869,7.9868 14.0665,18.7727 17.2545,30.611 2.4428,9.0713 2.3836,32.8571 -0.1046,42 -5.1239,18.8285 -17.3457,33.7487 -34.6356,42.2826 -13.7708,6.7971 -22.524,8.8293 -40,9.2868 -9.6016,0.2513 -16.9183,-0.081 -21.6584,-0.9841 z m 31.521,-44.6745 c 21.6882,-10.8377 21.3908,-43.8116 -0.4917,-54.5178 -14.1466,-6.9213 -31.0843,-0.9438 -38.041,13.4251 -2.3574,4.8692 -2.7445,6.8977 -2.7064,14.1819 0.069,13.1952 4.908,21.611 15.4574,26.8826 8.7787,4.3867 17.0414,4.3958 25.7817,0.028 z m 809.6374,45.0077 c -25.2381,-2.3482 -45.7075,-12.5413 -57.0196,-28.3937 -9.3099,-13.0467 -13.0348,-27.5129 -12.2181,-47.4514 1.2044,-29.4061 14.564,-50.2065 39.8442,-62.0359 11.6863,-5.4684 20.7584,-7.293 36.8935,-7.4203 15.7909,-0.1245 24.6608,1.3534 36.1562,6.0244 28.0266,11.3882 42.5048,37.5925 38.9293,70.4587 -0.6052,5.5631 -1.3486,10.5163 -1.6519,11.0072 -0.3112,0.5035 -21.6676,0.8925 -48.9926,0.8925 -33.0952,0 -48.441,0.3319 -48.441,1.0476 0,0.5762 2.1641,3.2117 4.8091,5.8567 13.2634,13.2635 39.6496,13.3247 59.8478,0.1389 2.3905,-1.5605 1.5269,-2.3551 19.8252,18.2402 l 7.8038,8.7834 -2.393,2.5497 c -3.8672,4.1206 -16.0155,11.203 -24.5735,14.3263 -15.0615,5.4967 -31.8634,7.5534 -48.8194,5.9757 z m 33.5,-92.7706 c 0,-3.5787 -4.4997,-8.5831 -10.4568,-11.6296 -5.1285,-2.6228 -6.9592,-3.0177 -13.9725,-3.0137 -6.8228,0 -8.9611,0.4411 -13.829,2.8276 -5.6916,2.7903 -9.8657,7.0483 -11.193,11.4178 l -0.6835,2.25 h 25.0674 c 23.7336,0 25.0674,-0.099 25.0674,-1.8521 z m 475,92.8096 c -29.4353,-2.6444 -51.4475,-15.8632 -61.9755,-37.2176 -5.2722,-10.6937 -7.1971,-20.1689 -7.1593,-35.2399 0.056,-22.099 5.8613,-37.2716 19.5367,-51.057 6.6822,-6.7358 9.7592,-8.9761 17.5981,-12.8129 14.9192,-7.3024 22.5859,-8.9754 41,-8.9471 12.6281,0.019 16.9823,0.4205 23.5,2.1646 26.3373,7.0477 44.0688,24.4934 49.1359,48.3438 1.5646,7.3648 1.4532,30.3057 -0.1727,35.5586 l -0.6965,2.25 h -48.3833 c -32.2939,0 -48.3834,0.34 -48.3834,1.0223 0,2.4572 8.425,9.9008 14.2525,12.5923 5.7796,2.6693 7.1088,2.8805 17.7475,2.8204 12.7345,-0.072 20.2606,-2.0054 29.265,-7.5179 2.6208,-1.6044 4.9271,-2.9171 5.1251,-2.9171 0.198,0 6.0817,6.3177 13.0748,14.0392 14.3451,15.8392 14.0525,14.5008 4.5754,20.9291 -13.597,9.2228 -28.2739,14.3495 -45.8527,16.0165 -5.8782,0.5575 -11.3626,0.9512 -12.1876,0.8749 -0.825,-0.076 -5.325,-0.4822 -10,-0.9022 z m 34,-92.0072 c 0,-1.9166 -2.7831,-6.4138 -5.6607,-9.1473 -10.8673,-10.3225 -33.85,-8.0723 -42.0655,4.1187 -4.2039,6.2381 -4.8014,6.0783 22.7262,6.0783 16.7885,0 25,-0.3448 25,-1.0497 z M 81.4474,1386.75 C 66.1393,1349.5688 3.1883,1197.329 1.8489,1194.25 L 0,1190 h 31.304 31.3041 l 11.1136,29.25 c 6.1125,16.0875 16.536,45.225 23.1635,64.75 6.6275,19.525 12.3026,36.175 12.6115,37 0.3089,0.825 6.5424,-15.825 13.8522,-37 7.3099,-21.175 18.0061,-50.875 23.7694,-66 l 10.4787,-27.5 31.2578,-0.2644 c 29.5112,-0.2496 31.2207,-0.1658 30.5958,1.5 -0.364,0.9704 -18.9381,45.9769 -41.2757,100.0144 L 137.5612,1390 H 110.1733 82.7854 Z M 823.8875,1319 v -70 h 23.4326 c 26.1391,0 23.7392,-0.7158 25.1454,7.5 0.3766,2.2 0.8558,4.3029 1.0649,4.6732 0.2091,0.3703 2.7375,-1.6721 5.6187,-4.5386 7.5758,-7.5373 17.8889,-11.6633 29.0376,-11.6172 10.8941,0.045 26.059,5.4269 33.5644,11.9117 l 3.3636,2.9062 -9.6329,17.4176 c -12.5437,22.6807 -11.5177,21.3818 -14.8303,18.7761 -8.4375,-6.6369 -23.1676,-8.6882 -31.264,-4.3536 -5.1007,2.7307 -8.9121,6.7558 -11.197,11.8246 -1.6247,3.6044 -1.8328,8.0304 -2.1048,44.75 l -0.3018,40.75 h -25.9482 -25.9482 z m 196,-29.5 V 1190 h 50.75 c 54.1936,0 63.5249,0.5732 76.75,4.6895 12.1139,3.7704 19.9544,8.5555 29.0182,17.7096 8.731,8.818 13.7527,17.5121 17.0957,29.5981 2.5128,9.0845 2.5211,31.8873 0.015,40.9422 -7.1441,25.8114 -24.3462,42.1433 -51.8108,49.1897 -7.2621,1.8632 -11.9672,2.1935 -37.0679,2.6024 l -28.75,0.4682 v 26.8988 26.8987 h -28 -28 v -99.5 z m 102.2008,-2.6102 c 7.3658,-1.5433 14.9399,-9.1395 16.7861,-16.8351 2.3388,-9.7493 0.082,-18.1223 -6.8296,-25.335 -5.644,-5.8901 -9.9452,-6.7197 -34.8388,-6.7197 h -21.3185 v 25 25 h 20.4508 c 11.2479,0 22.8354,-0.4996 25.75,-1.1102 z M 1216.8875,1320 v -69 h 26 26 v 69 69 h -26 -26 z m 432,-30.5 V 1190 h 25.5 25.5 v 99.5 99.5 h -25.5 -25.5 z m 82,30.5 v -69 h 26 26 v 69 69 h -26 -26 z m 83,-1.0184 v -70.0185 l 23.25,0.2685 23.25,0.2684 0.8574,6.674 0.8575,6.674 5.4408,-4.4316 c 11.3512,-9.2457 21.824,-12.8047 37.8443,-12.861 18.1097,-0.064 29.0034,3.8044 39.0718,13.8728 6.733,6.7329 10.3589,13.4561 13.6853,25.3753 2.0343,7.289 2.167,10.251 2.5063,55.9465 l 0.3584,48.25 h -26.0609 -26.0609 l -0.01,-41.25 c 0,-24.5483 -0.4124,-42.7147 -1.0104,-44.8676 -4.9844,-17.9441 -28.2018,-20.0185 -38.4576,-3.4362 l -3.0264,4.8934 -0.2909,42.3302 -0.2909,42.3302 h -25.9591 -25.9591 v -70.0184 z m 344,-91.4816 V 1214 h -5 -5 v -4 -4 h 14.5 14.5 v 4 4 h -5 -5 v 13.5 13.5 h -4.5 -4.5 z m 24,-4 V 1206 h 5.3267 5.3266 l 4.3467,6 c 2.3907,3.3 4.4157,6 4.5,6 0.084,0 2.1093,-2.7 4.5,-6 l 4.3467,-6 h 5.3266 5.3267 v 17.5 17.5 h -5 -5 l -0.035,-10.25 -0.035,-10.25 -4.0692,4.75 c -2.238,2.6125 -4.6505,4.75 -5.361,4.75 -0.7105,0 -3.123,-2.1375 -5.361,-4.75 l -4.0692,-4.75 -0.035,10.25 -0.035,10.25 h -5 -5 v -17.5 z m -945.2094,14.3427 c -14.6008,-1.9452 -23.0847,-11.4821 -23.0847,-25.9499 0,-11.1167 4.8512,-18.4958 15.2941,-23.2637 6.7021,-3.0599 20.6721,-2.9713 27.5,0.1745 9.3334,4.3001 14.3349,11.2408 15.2221,21.124 1.0386,11.5684 -3.9396,20.4543 -14.0392,25.0596 -6.9987,3.1913 -12.6124,3.9586 -20.8923,2.8555 z m 514.6994,0.1801 c -15.2022,-2.2633 -24.5189,-13.5399 -23.2121,-28.0952 0.8872,-9.8832 5.8887,-16.8239 15.2221,-21.124 6.8279,-3.1458 20.7979,-3.2344 27.5,-0.1745 10.3404,4.7211 15.1645,12.1178 15.2349,23.3595 0.084,13.3725 -8.0953,23.4067 -20.7814,25.4953 -7.442,1.2252 -8.9603,1.2838 -13.9635,0.5389 z M 925.0617,695.4773 C 867.69,595.6398 820.8931,513.3521 821.0685,512.6157 c 0.1755,-0.7364 15.169,-26.1369 33.319,-56.4455 l 33,-55.1065 208.2819,-0.032 208.282,-0.032 -1.282,2.3383 c -7.4042,13.5057 -272.4134,473.6556 -272.7888,473.6582 -0.2788,0 -47.4473,-81.6817 -104.8189,-181.5192 z M 663.5252,241.5208 C 586.7245,109.2287 523.8875,0.767 523.8875,0.4948 523.8875,0.2227 617.6545,0 732.2585,0 h 208.371 l 34.2386,60.1118 c 30.7254,53.9437 34.1276,60.3552 33.1572,62.485 -1.2182,2.6737 -201.7773,354.9138 -203.6559,357.6791 -1.0413,1.5328 -20.3216,-31.1505 -140.8442,-238.7551 z M 1159.5369,316.75 C 1144.9452,290.7625 1099.0315,208.975 1057.5064,135 L 982.0062,0.5 1256.6117,0.2482 c 151.0331,-0.1385 274.7729,-0.084 274.9775,0.1201 0.2045,0.2046 -46.5069,82.1054 -103.8033,182.0018 L 1323.6107,364 h -68.7717 -68.7718 z"
     id="path817"
     inkscape:connector-curvature="0" />
</svg>
