<?xml version="1.0" encoding="UTF-8" standalone="no"?>
<!-- Created with Inkscape (http://www.inkscape.org/) -->

<svg
   xmlns:dc="http://purl.org/dc/elements/1.1/"
   xmlns:cc="http://creativecommons.org/ns#"
   xmlns:rdf="http://www.w3.org/1999/02/22-rdf-syntax-ns#"
   xmlns:svg="http://www.w3.org/2000/svg"
   xmlns="http://www.w3.org/2000/svg"
   xmlns:sodipodi="http://sodipodi.sourceforge.net/DTD/sodipodi-0.dtd"
   xmlns:inkscape="http://www.inkscape.org/namespaces/inkscape"
   version="1.1"
   id="svg5863"
   width="202.10382"
   height="118.05589"
   viewBox="0 0 202.10382 118.05588"
   sodipodi:docname="whiteriverhub.svg"
   inkscape:version="0.92.3 (2405546, 2018-03-11)">
  <metadata
     id="metadata5869">
    <rdf:RDF>
      <cc:Work
         rdf:about="">
        <dc:format>image/svg+xml</dc:format>
        <dc:type
           rdf:resource="http://purl.org/dc/dcmitype/StillImage" />
        <dc:title />
      </cc:Work>
    </rdf:RDF>
  </metadata>
  <defs
     id="defs5867" />
  <sodipodi:namedview
     pagecolor="#ffffff"
     bordercolor="#666666"
     borderopacity="1"
     objecttolerance="10"
     gridtolerance="10"
     guidetolerance="10"
     inkscape:pageopacity="0"
     inkscape:pageshadow="2"
     inkscape:window-width="1192"
     inkscape:window-height="741"
     id="namedview5865"
     showgrid="false"
     inkscape:zoom="1.2456294"
     inkscape:cx="95.691602"
     inkscape:cy="76.181459"
     inkscape:window-x="1368"
     inkscape:window-y="362"
     inkscape:window-maximized="0"
     inkscape:current-layer="svg5863"
     fit-margin-top="0"
     fit-margin-left="0"
     fit-margin-right="0"
     fit-margin-bottom="0" />
  <path
     style="fill:#000000;stroke-width:0.95999998"
     d="m 1.6944802,115.94107 c -0.01899,-1.52188 1.738887,-5.16624 4.287811,-8.88933 2.376,-3.47051 4.3199998,-6.95381 4.3199998,-7.740685 0,-1.9386 -4.7032758,-1.8716 -7.5284748,0.10725 -1.207628,0.845865 -2.42123295,1.312375 -2.69689995,1.036705 -0.694193,-0.694195 3.45928295,-3.184775 6.47015495,-3.879745 1.465424,-0.33826 3.234299,-0.0255 4.3118038,0.7624 1.786017,1.30598 1.778066,1.43673 -0.354261,5.825715 l -2.1812858,4.48973 2.7547428,-1.96155 c 1.515108,-1.07884 3.332912,-2.6582 4.039562,-3.50966 0.706651,-0.85146 2.512044,-2.182735 4.011986,-2.958385 2.432577,-1.25794 2.789898,-1.24679 3.30791,0.10312 0.319409,0.832375 -0.336351,3.909925 -1.457246,6.839005 -2.321774,6.06717 -2.331155,6.11475 -1.205563,6.11475 0.457836,0 1.987856,-1.74597 3.400044,-3.87993 5.623901,-8.498285 15.679462,-15.952135 18.165859,-13.465735 0.727557,0.72755 0.254105,1.02566 -1.62894,1.02566 -3.360521,0 -11.326964,7.760675 -15.991467,15.578405 -3.784164,6.34228 -5.392258,7.3506 -6.798991,4.26316 -0.948847,-2.08249 -0.04911,-5.79637 3.496645,-14.43324 0.636598,-1.550655 0.480556,-1.655215 -1.159902,-0.77726 -2.53917,1.35892 -10.7404728,9.32803 -14.4994348,14.08894 -2.986097,3.78204 -3.032349,3.80106 -3.064053,1.26068 z m 34.5319208,0.89932 c 0.0023,-0.66 1.294318,-3.144 2.871239,-5.52 3.058006,-4.6076 2.2761,-6.36673 -1.325845,-2.98287 -1.184287,1.11258 -2.557407,2.02072 -3.051377,2.0181 -1.357149,-0.008 4.674733,-4.72093 6.092003,-4.76071 2.060738,-0.0578 2.43454,2.7175 0.718717,5.33618 -0.892243,1.36174 -1.3708,2.72735 -1.063459,3.03469 0.650528,0.65053 -2.235368,4.07461 -3.434176,4.07461 -0.446166,0 -0.809362,-0.54 -0.807102,-1.2 z m 7.25911,0.34229 c -0.302197,-0.48896 -0.258634,-1.64688 0.09681,-2.57314 0.485455,-1.26508 0.307079,-1.49527 -0.716885,-0.92516 -0.749728,0.41743 -0.20853,-0.36223 1.202662,-1.73256 1.41119,-1.37034 2.844302,-3.369 3.184691,-4.44148 0.636512,-2.00547 2.409506,-2.71877 2.409506,-0.96937 0,0.53932 -1.143218,2.7081 -2.540485,4.81952 -3.168127,4.78736 -2.373714,5.83322 1.779939,2.34332 4.766069,-4.00446 6.138258,-6.22812 4.488159,-7.2732 -0.988883,-0.62629 -0.776505,-0.84457 0.832387,-0.85552 1.188,-0.008 2.169606,-0.3387 2.181347,-0.7347 0.01174,-0.396 0.915954,-1.8 2.009363,-3.12 1.962474,-2.369165 2.006424,-1.825695 0.206705,2.55604 -0.252116,0.61381 0.329328,1.3197 1.292097,1.56863 1.411102,0.36486 1.33404,0.4742 -0.397469,0.56397 -2.270492,0.11772 -6.972043,6.40441 -6.972043,9.32269 0,1.42125 0.24935,1.40902 2.64,-0.12953 l 2.64,-1.69902 -1.828788,2.06861 c -2.632449,2.97765 -5.371216,2.72336 -5.371216,-0.49873 v -2.56734 l -2.16,1.94452 c -3.055116,2.75036 -4.344912,3.35484 -4.97678,2.33245 z m 15.867395,-1.30229 c -1.500043,-4.01244 6.963319,-12.29006 9.733493,-9.51989 1.37051,1.37051 0.313806,3.65065 -2.32988,5.02738 l -2.214228,1.15308 2.327341,-2.53028 c 1.706006,-1.85478 1.942901,-2.53029 0.887342,-2.53029 -1.593554,0 -4.783776,3.17265 -6.457314,6.42174 -1.816809,3.52724 0.555242,3.64361 5.952682,0.29203 3.875095,-2.40627 4.547482,-2.61811 3.052216,-0.96166 -2.221385,2.46084 -6.432074,4.80789 -8.625528,4.80789 -0.835236,0 -1.881991,-0.972 -2.326124,-2.16 z m 32.774635,1.14236 c -5.30474,-1.04582 -5.98525,-1.52352 -5.98525,-4.20147 0,-2.7977 1.36509,-3.93489 10.44459,-8.70089 4.028739,-2.11476 7.315409,-4.470795 7.315409,-5.243995 0,-3.66157 -15.665919,-3.18871 -19.851519,0.59921 -2.20161,1.992435 -3.354262,1.107715 -1.271,-0.97557 3.52182,-3.52181 18.479459,-4.56993 22.118389,-1.54989 3.70544,3.075255 0.32732,6.995435 -8.939969,10.374465 -6.34256,2.31261 -9.83767,5.31801 -8.14871,7.00697 0.57522,0.57522 3.0274,1.26919 5.44933,1.54218 2.42192,0.27298 4.40348,0.87215 4.40348,1.33148 0,0.931 0.13592,0.93547 -5.53475,-0.18249 z m 28.061029,0.003 c -1.08311,-1.75249 0.32606,-5.14901 3.4707,-8.36541 3.30297,-3.37836 5.42668,-3.92507 6.30958,-1.62426 0.60435,1.57492 -2.14292,5.25847 -3.89535,5.22289 -0.57816,-0.0117 0.0224,-0.84619 1.33445,-1.85434 1.31211,-1.00815 2.06104,-2.15762 1.66428,-2.55437 -1.09717,-1.09718 -5.85203,2.85516 -6.86867,5.70939 -1.22377,3.43576 -0.34416,3.95696 3.44952,2.04398 4.78272,-2.41172 9.44921,-7.22756 9.44921,-9.75164 0,-1.21642 0.432,-2.21167 0.96,-2.21167 0.528,0 0.96,0.648 0.96,1.44 0,0.792 0.66156,1.44 1.47012,1.44 2.2385,0 2.71126,2.47758 1.09208,5.72329 -1.79519,3.59855 -1.08237,3.69763 2.42527,0.3371 1.48089,-1.41878 2.69253,-2.10308 2.69253,-1.52067 0,0.58242 -1.72771,2.42731 -3.83937,4.09978 -3.16398,2.50593 -3.94034,2.77771 -4.41336,1.54503 -0.31569,-0.82269 0.33203,-2.96175 1.43937,-4.75348 2.47539,-4.00526 2.49401,-4.47105 0.17869,-4.47105 -1.00905,0 -2.91358,1.28223 -4.23226,2.84939 -4.86731,5.78446 -12.03621,9.30202 -13.64679,6.69604 z m 47.5748,-0.66524 c 0.0116,-0.924 0.85448,-3.516 1.87307,-5.76 l 1.85198,-4.08 h -6.2035 -6.20349 l -2.58955,5.28 c -1.42426,2.904 -2.93156,5.28 -3.34958,5.28 -1.2408,0 -0.86948,-2.76366 0.80688,-6.00538 1.08343,-2.09512 1.23153,-3.14182 0.48,-3.39232 -1.81193,-0.60398 -1.21903,-1.70376 1.00897,-1.8716 2.07592,-0.15637 2.56376,-0.69242 5.82414,-6.399855 1.3488,-2.36113 1.68,-2.56013 1.68,-1.00947 0,1.06227 -0.69206,2.919475 -1.53792,4.127095 -0.84586,1.20764 -1.33426,2.39935 -1.08535,2.64827 0.24892,0.24892 3.07987,0.11298 6.29099,-0.30208 5.71319,-0.73847 5.91728,-0.8679 9.51568,-6.034665 2.57118,-3.69181 4.39005,-5.34931 6.04694,-5.51044 2.28101,-0.22182 2.29166,-0.19707 0.28447,0.66139 -1.84397,0.78866 -7.03481,8.195555 -7.03481,10.038095 0,0.38519 0.864,0.42612 1.92,0.091 3.02486,-0.96006 2.23826,0.46893 -0.85092,1.54582 -1.99415,0.69516 -3.20518,2.10302 -4.32,5.02216 -0.852,2.23092 -1.54908,4.79777 -1.54908,5.70411 0,0.90635 -0.648,1.64791 -1.44,1.64791 -0.792,0 -1.43052,-0.756 -1.41892,-1.68 z m 22.39344,0 c -0.88075,-1.35047 -1.34113,-1.44463 -2.34709,-0.48 -2.08053,1.99502 -3.74743,1.38136 -3.74743,-1.37961 v -2.5796 l -2.69253,2.5796 c -2.96242,2.83818 -5.94747,3.39981 -5.94747,1.11903 0,-1.14353 2.56377,-5.81225 5.48007,-9.97942 0.15396,-0.22 0.53401,-0.14591 0.84456,0.16464 0.31055,0.31055 -0.60593,2.56205 -2.03663,5.00336 -1.43069,2.4413 -2.33792,4.70207 -2.01606,5.02393 0.32186,0.32187 2.8172,-1.64679 5.54521,-4.37478 2.72799,-2.72801 5.13927,-4.78073 5.35839,-4.56161 0.21912,0.21912 -0.52587,2.21012 -1.65554,4.42446 -1.12967,2.21434 -1.80611,4.2739 -1.50319,4.57682 0.70734,0.70733 5.3439,-3.61949 5.34097,-4.98416 -0.004,-1.75036 9.00795,-14.335475 9.40726,-13.137535 0.20651,0.61952 -0.31016,2.08455 -1.14816,3.255635 -0.83799,1.17108 -2.21167,3.0777 -3.05262,4.23694 -1.51518,2.08865 -1.50235,2.09765 1.41996,0.9946 2.25406,-0.85082 3.21745,-0.84463 4.08833,0.0262 1.74758,1.74757 -0.36575,5.43842 -5.06177,8.8402 -4.69906,3.40398 -4.84108,3.43184 -6.27626,1.23124 z m 6.63234,-4.16676 c 4.41443,-3.78371 5.08072,-5.67324 2.00048,-5.67324 -1.94953,0 -8.00734,6.10068 -8.00734,8.064 0,2.30146 0.99409,1.9058 6.00686,-2.39076 z m -167.239055,3.44664 c -0.01683,-2.48181 8.400043,-17.742195 9.792196,-17.753935 1.303083,-0.011 0.759667,1.47562 -2.297782,6.285985 -1.65978,2.61137 -3.06378,5.40685 -3.12,6.21215 -0.05622,0.80532 -1.060532,2.74932 -2.231805,4.32 -1.822563,2.44408 -2.131464,2.57899 -2.142609,0.9358 z m 50.849591,-0.53205 c -0.01651,-2.32444 3.260635,-8.11592 7.575605,-13.38795 2.6016,-3.178665 2.54385,-1.3542 -0.0912,2.88 -1.15006,1.848 -3.30061,5.52 -4.77902,8.16 -2.281574,4.07419 -2.690658,4.42923 -2.705414,2.34795 z m 21.102604,0.90197 c 0,-1.9999 5.07,-10.39636 5.94941,-9.85286 0.4812,0.2974 0.20344,1.58073 -0.61724,2.85184 -0.8207,1.2711 -2.18985,3.3911 -3.04258,4.7111 -1.14087,1.76604 -1.2284,2.4 -0.33135,2.4 1.74422,0 8.60176,-7.45598 8.60176,-9.35243 0,-1.16871 0.28386,-1.30771 1.0684,-0.52317 0.78455,0.78455 0.48412,2.10802 -1.13073,4.98127 -1.20954,2.15207 -1.9438,4.16821 -1.63171,4.4803 1.15357,1.15356 5.43594,-2.70649 7.32726,-6.60466 1.48158,-3.05364 1.9626,-3.50957 1.99893,-1.89472 0.0565,2.50745 -4.955,8.54371 -7.85812,9.46513 -1.34591,0.42717 -2.41333,0.11624 -3.1745,-0.92472 -1.01896,-1.3935 -1.28095,-1.40661 -2.3507,-0.11765 -1.39731,1.68366 -4.80883,1.95364 -4.80883,0.38057 z M 50.442291,102.0246 c 0.693,-0.27731 1.521,-0.24321 1.84,0.0757 0.319,0.319 -0.248,0.54589 -1.26,0.50421 -1.118345,-0.0461 -1.345824,-0.27354 -0.58,-0.57999 z m 57.779999,0.2785 c 0,-0.20751 0.648,-0.62595 1.44,-0.92987 0.792,-0.30392 1.44,-0.13414 1.44,0.37728 0,0.51144 -0.648,0.92988 -1.44,0.92988 -0.792,0 -1.44,-0.16979 -1.44,-0.37729 z M 25.053995,86.743955 c 9.608598,-1.73571 17.64064,-5.17231 30.646153,-13.11233 22.227505,-13.570148 41.499613,-18.670912 55.186662,-14.606296 2.71315,0.805719 5.19224,1.884413 5.5091,2.397098 0.36431,0.58946 -0.34937,0.580289 -1.94125,-0.02494 -1.38455,-0.526404 -5.40523,-0.956757 -8.93487,-0.956341 -5.14865,6.08e-4 -7.556349,0.557648 -12.177499,2.817358 -5.40699,2.643978 -11.365555,6.713161 -9.89957,6.760531 0.36324,0.0117 3.60324,-0.67008 7.2,-1.515165 8.11905,-1.907616 17.212059,-1.244294 26.102309,1.904135 3.49649,1.23825 10.77059,3.80598 16.16467,5.70605 14.13539,4.97923 23.90095,6.75549 33.81056,6.14985 4.52212,-0.27637 9.08603,-0.77007 10.14203,-1.0971 1.056,-0.32702 0.408,0.13709 -1.44,1.03137 -2.27287,1.09987 -6.62139,1.75367 -13.44,2.0207 -10.69183,0.4187 -12.08435,0.18195 -33.12,-5.63087 -10.13156,-2.79967 -12.96629,-3.18843 -23.52,-3.22548 -11.999159,-0.0422 -12.000549,-0.0419 -19.922929,3.71063 -6.834468,3.23719 -8.252236,3.60271 -10.319998,2.66057 -3.241594,-1.47697 -3.198002,-5.18772 0.08622,-7.33963 7.364918,-4.82569 -7.170487,-0.82179 -23.115413,6.36732 -11.115217,5.01154 -21.334889,7.57672 -29.61233,7.43282 -4.875633,-0.0848 -4.833764,-0.10814 2.596153,-1.45028 z M 134.47656,71.236185 c 0.35708,-0.57777 -0.11205,-1.24907 -1.04252,-1.49179 -1.25204,-0.32659 -1.11393,-0.47023 0.53136,-0.55265 4.28866,-0.214829 5.93689,-1.838515 5.93689,-5.84848 0,-4.520784 -0.67253,-5.046623 -4.90277,-3.833406 -2.15196,0.617176 -3.36483,0.607743 -3.57668,-0.02781 -0.1763,-0.528916 -1.82204,-0.961663 -3.65721,-0.961663 -4.38066,0 -3.36027,-1.499201 1.55539,-2.285246 2.1237,-0.339595 3.86127,-1.008609 3.86127,-1.4867 0,-0.47809 -2.052,-1.624388 -4.56,-2.547328 -6.42046,-2.362717 -6.83101,-3.031478 -2.87561,-4.684149 4.64856,-1.942294 5.39025,-3.396577 1.73227,-3.396577 -3.86365,0 -3.71564,-1.198145 0.42334,-3.427136 3.65868,-1.970326 4.3207,-3.278096 1.68,-3.318689 -1.24538,-0.01914 -0.81077,-0.784786 1.68,-2.959559 2.52492,-2.204591 2.87577,-2.830757 1.41165,-2.519399 -1.07159,0.227885 -2.45781,-0.131049 -3.08049,-0.79763 -0.89088,-0.953689 -0.18496,-1.689925 3.31253,-3.454777 4.54958,-2.29574 5.34167,-4.380982 1.47631,-3.886475 -3.36878,0.430979 -2.63044,-2.124046 1.68,-5.81362 4.25971,-3.646151 4.87237,-4.999761 1.82523,-4.032635 -1.76406,0.55989 -1.92746,0.358886 -1.31311,-1.615309 0.38592,-1.240124 1.07657,-2.3987706 1.53477,-2.5747706 1.48521,-0.570474 0.88101,-2.079016 -0.84689,-2.114524 -1.36267,-0.028 -1.20699,-0.436001 0.82421,-2.16 1.37732,-1.169012 2.98418,-2.989476 3.5708,-4.045476 1.03003,-1.85414997 1.06761,-1.85654797 1.0958,-0.06992 0.016,1.017548 1.43319,3.089368 3.14919,4.604044 2.64227,2.332273 2.78926,2.66381 0.96,2.165221 -2.08716,-0.568885 -3.04932,0.797711 -1.31588,1.869031 0.46426,0.2869326 1.08209,1.4316866 1.37294,2.5438966 0.46452,1.776333 0.22316,1.945487 -1.98512,1.391243 -2.35207,-0.590332 -2.25502,-0.350075 1.50706,3.73131 4.91473,5.331847 5.31548,7.722037 1.141,6.805167 -4.31397,-0.947507 -3.48623,0.606906 2.16,4.056256 2.96499,1.81135 4.325,3.092325 3.30334,3.11137 -0.95516,0.01781 -1.45896,0.48169 -1.11956,1.030853 0.40344,0.652772 -0.32481,0.779949 -2.10334,0.367315 l -2.72044,-0.631158 3.36,2.95367 c 2.8555,2.510181 3.07171,2.964361 1.44,3.024874 -1.56235,0.05795 -1.21333,0.646389 1.87366,3.159015 l 3.79366,3.087811 -3.79366,0.492274 -3.79366,0.492274 4.07261,2.387726 c 2.23993,1.313249 4.07593,2.64923 4.08,2.968846 0.004,0.319615 -2.22611,1.183615 -4.95593,1.92 -2.72982,0.736384 -5.12327,1.823204 -5.31876,2.415154 -0.19583,0.592986 1.70958,1.656716 4.24332,2.36891 l 4.59876,1.292636 -4.14894,0.329656 c -3.48329,0.276767 -3.965,0.551293 -3.00246,1.711091 0.93451,1.126003 0.78023,1.381433 -0.8344,1.381433 -1.08948,0 -2.24788,-0.432 -2.5742,-0.96 -1.49145,-2.413215 -2.91668,-0.812658 -2.56453,2.88 0.2014,2.112 0.67026,3.84 1.04188,3.84 0.37163,0 1.51425,0.634992 2.53917,1.4111 1.68476,1.27577 1.56425,1.30162 -1.25652,0.26953 -3.09429,-1.132163 -3.51203,-1.061795 -10.23748,1.72442 -1.24003,0.51372 -1.62639,0.41967 -1.18825,-0.28925 z M 53.262291,63.198761 c 1.49878,-0.785319 2.16,-2.001853 2.16,-3.974037 0,-2.611996 -0.233319,-2.808014 -2.88,-2.419563 -1.584,0.232481 -2.88,0.105957 -2.88,-0.281166 0,-0.387123 -0.931552,-0.460254 -2.070117,-0.162513 -1.418354,0.370908 -1.853891,0.191487 -1.383344,-0.569874 0.377726,-0.611172 1.525278,-1.111223 2.550117,-1.111223 2.908635,0 2.190105,-1.617345 -1.256656,-2.828614 l -3.12,-1.096439 2.4,-1.856127 c 1.941225,-1.501317 2.078857,-1.860208 0.72,-1.877473 -2.320636,-0.02949 -2.112278,-1.674763 0.309428,-2.443383 1.224976,-0.388792 1.784526,-1.165389 1.456185,-2.021032 -0.293284,-0.764287 0.107473,-1.635478 0.890572,-1.935981 0.783098,-0.300503 1.423815,-0.957645 1.423815,-1.460317 0,-0.50267 -0.40215,-0.665405 -0.893666,-0.361631 -0.491516,0.303774 -1.153641,0.131667 -1.471388,-0.382459 -0.317748,-0.514126 0.840402,-1.696813 2.573666,-2.628193 2.909353,-1.56336 2.985494,-1.719089 0.991388,-2.027653 -2.773365,-0.429147 -2.722156,-1.257897 0.250274,-4.05035 1.698204,-1.595381 2.070959,-2.474045 1.261731,-2.974175 -0.879938,-0.543831 -0.85485,-1.063719 0.107272,-2.223007 1.006267,-1.212477 1.012125,-1.513166 0.02948,-1.513166 -0.823051,0 -0.652616,-0.633952 0.518274,-1.927772 1.641491,-1.813826 1.850226,-1.83219 3.531477,-0.310678 1.224876,1.108496 1.445564,1.82803 0.701686,2.287771 -0.789017,0.487641 -0.795209,0.849891 -0.02268,1.327335 0.584368,0.361161 1.062489,1.304657 1.062489,2.096657 0,0.792 -0.432,1.173009 -0.96,0.846687 -1.728738,-1.06842 -1.005523,1.101226 0.96,2.88 2.259264,2.044606 2.578812,4.512551 0.48,3.707161 -2.462104,-0.944797 -1.57696,1.551598 0.96,2.707515 2.734452,1.245899 3.172071,2.705324 0.811212,2.705324 -1.477622,0 -1.477475,0.123 0.0021,1.757906 0.874985,0.966848 1.297476,2.051311 0.938869,2.409919 -0.358608,0.358608 0.180449,1.281811 1.197905,2.051563 1.679792,1.27084 1.695419,1.402357 0.169919,1.430081 -2.411973,0.04383 -2.071377,1.268352 0.844979,3.037893 l 2.524979,1.532067 -3.451302,0.647468 c -4.654432,0.873177 -5.220373,2.226286 -1.392869,3.330209 3.129107,0.902492 3.13275,0.910421 0.457557,0.996314 -1.768022,0.05676 -2.462542,0.465384 -2.016813,1.186589 0.47845,0.77415 -0.07354,0.910924 -1.863344,0.46171 -2.052799,-0.515217 -2.543195,-0.301566 -2.543195,1.107991 0,0.96046 0.425828,2.172118 0.946285,2.692575 0.621715,0.621715 0.374759,0.984896 -0.72,1.058852 -0.916457,0.06191 -2.746285,0.381767 -4.066285,0.710791 -2.365666,0.589669 -2.369099,0.582036 -0.24,-0.533552 z m 42.83643,-16.982932 c 2.01858,-2.274216 1.42995,-5.497973 -0.84452,-4.625177 -0.78755,0.30221 -2.15633,0.27149 -3.04172,-0.06827 -1.43862,-0.55205 -1.4131,-0.690735 0.24,-1.304143 1.65009,-0.612294 1.54945,-0.804728 -0.93229,-1.782392 -2.66105,-1.048307 -2.70281,-1.155999 -0.96,-2.475197 1.4162,-1.071969 1.50132,-1.392809 0.3821,-1.440269 -1.10564,-0.04689 -1.00731,-0.388336 0.42348,-1.470531 1.02492,-0.775205 1.51202,-1.409465 1.08245,-1.409465 -0.42956,0 -0.29987,-0.579748 0.28819,-1.288329 0.58807,-0.70858 0.75257,-1.604982 0.36554,-1.992003 -0.38701,-0.387021 0.0488,-1.124738 0.96834,-1.639373 0.9196,-0.514635 1.672,-1.371729 1.672,-1.904654 0,-0.532925 -0.432,-0.701963 -0.96,-0.375641 -1.51303,0.935103 -1.11878,-1.073125 0.46943,-2.391228 0.78618,-0.652476 1.21509,-1.53312 0.95314,-1.956987 -0.26197,-0.423866 -0.0341,-1.933872 0.50647,-3.355568 0.78453,-2.063476 1.25204,-2.361442 2.31757,-1.477126 0.73413,0.609276 1.209449,2.249565 1.056259,3.645085 -0.153189,1.395522 0.39615,3.211977 1.22075,4.036568 1.35904,1.359015 1.33219,1.531438 -0.28693,1.843304 -1.615319,0.31113 -1.562829,0.515744 0.54855,2.138653 1.35953,1.045002 1.78442,1.803522 1.01722,1.815952 -1.06217,0.01721 -1.0859,0.300472 -0.12246,1.461347 0.6573,0.792 0.8182,1.45374 0.35754,1.470531 -0.46064,0.01679 9.6e-4,0.664792 1.02594,1.44 1.84465,1.395221 1.84465,1.409792 0,1.441407 -1.74827,0.02996 -1.73099,0.142495 0.2796,1.820177 l 2.14307,1.788238 -2.38307,0.598113 c -2.72865,0.684848 -3.21501,2.448121 -0.70308,2.549008 1.42381,0.05719 1.38722,0.183318 -0.24,0.82715 -1.056,0.417822 -2.46,0.557239 -3.119999,0.309817 -0.71862,-0.269398 -1.2,0.348002 -1.2,1.539073 0,1.093913 -0.972,2.498992 -2.16,3.122398 -2.13773,1.121778 -2.14147,1.112596 -0.36357,-0.890468 z"
     id="path6416"
     inkscape:connector-curvature="0"
     sodipodi:nodetypes="csscccscccsccssscsssscsccscccccsccccccscscccscccscccsccccscccssssscssssscccscssccscccscsssscsssccssccsccccssccssccscccscscssccccsccscscccsscccccccsccssssccscccccccccscccssscccccccscccccssssscssssssccccccccscccssccccccsscssssssccscssssscccsccssccscssccccscscccscscscscsccsccscssssscsscscssssscsssscsssccssssssccscscsscscsssssccccccccscccsscccssccssssccccscssssc" />
</svg>
