<?xml version="1.0" encoding="UTF-8" standalone="no"?>
<!-- Created with Inkscape (http://www.inkscape.org/) -->

<svg
   xmlns:dc="http://purl.org/dc/elements/1.1/"
   xmlns:cc="http://creativecommons.org/ns#"
   xmlns:rdf="http://www.w3.org/1999/02/22-rdf-syntax-ns#"
   xmlns:svg="http://www.w3.org/2000/svg"
   xmlns="http://www.w3.org/2000/svg"
   xmlns:sodipodi="http://sodipodi.sourceforge.net/DTD/sodipodi-0.dtd"
   xmlns:inkscape="http://www.inkscape.org/namespaces/inkscape"
   version="1.1"
   id="svg2"
   width="2890.4788"
   height="1524.7433"
   viewBox="0 0 2890.4788 1524.7433"
   sodipodi:docname="williams.svg"
   inkscape:version="0.92.3 (2405546, 2018-03-11)">
  <metadata
     id="metadata8">
    <rdf:RDF>
      <cc:Work
         rdf:about="">
        <dc:format>image/svg+xml</dc:format>
        <dc:type
           rdf:resource="http://purl.org/dc/dcmitype/StillImage" />
        <dc:title></dc:title>
      </cc:Work>
    </rdf:RDF>
  </metadata>
  <defs
     id="defs6" />
  <sodipodi:namedview
     pagecolor="#ffffff"
     bordercolor="#666666"
     borderopacity="1"
     objecttolerance="10"
     gridtolerance="10"
     guidetolerance="10"
     inkscape:pageopacity="0"
     inkscape:pageshadow="2"
     inkscape:window-width="769"
     inkscape:window-height="541"
     id="namedview4"
     showgrid="false"
     inkscape:zoom="0.0472"
     inkscape:cx="-1902.1912"
     inkscape:cy="762.39282"
     inkscape:window-x="67"
     inkscape:window-y="27"
     inkscape:window-maximized="0"
     inkscape:current-layer="svg2"
     fit-margin-top="0"
     fit-margin-left="0"
     fit-margin-right="0"
     fit-margin-bottom="0" />
  <path
     style="fill:#000000"
     d="m 228.76646,1523.7898 c -30.7894,-1.9286 -50.3925,-4.0393 -65.011,-6.9997 -19.7145,-3.9924 -44.1059,-10.2233 -51.3615,-13.1204 -14.040102,-5.6061 -27.938302,-15.8224 -39.259402,-28.8586 -11.3602,-13.0812 -13.3888,-19.8238 -13.2261,-43.9606 0.1389,-20.6122 1.3919,-30.0593 5.3471,-40.3156 4.885,-12.6672 1.1539,-11.9954 34.5172,-6.2145 l 28.993702,5.0237 h 60.6116 60.6116 l 8.5928,4.0267 c 17.2873,8.1012 38.1115,13.612 66.684,17.647 10.4331,1.4734 20.0234,1.7703 58,1.7958 44.4115,0.03 45.9187,-0.034 63,-2.6502 9.625,-1.4745 24.025,-3.1882 32,-3.8084 35.502,-2.7609 75.3275,-10.6003 185.5,-36.5146 95.5406,-22.4727 109.4868,-26.3931 192,-53.9735 35.2,-11.7658 75.475,-25.0652 89.5,-29.5544 42.025,-13.4514 76.61644,-26.2747 140.00004,-51.8991 20.075,-8.1158 50.675,-20.2923 68,-27.0588 64.5218,-25.1999 148.9104,-62.5045 224.5034,-99.2434 21.9981,-10.6913 54.6216,-26.5018 72.4966,-35.1345 17.875,-8.6327 41.5,-20.4251 52.5,-26.2052 11,-5.7801 25.1512,-13.0784 31.447,-16.2184 l 11.447,-5.709 81.3921,-0.2673 c 62.5962,-0.2056 81.3005,0.01 80.9953,0.9231 -0.7694,2.3082 -66.7701,38.3732 -112.7814,61.6277 -18.975,9.5901 -41.5362,21.2143 -50.1359,25.8316 -16.9469,9.099 -21.8222,11.452 -74.3641,35.8902 -19.25,8.9535 -51.2,24.0219 -71,33.4854 -58.4387,27.931 -83.4387,39.1948 -131,59.0223 -24.75,10.3178 -51.2269,21.5221 -58.8375,24.8984 -37.5389,16.6534 -91.8163,38.346 -176.6625,70.6052 -59.14854,22.4887 -226.91584,79.6176 -272.89194,92.9263 -66.6473,19.2924 -150.9632,41.0711 -232.1081,59.9531 -47.4722,11.0465 -57.8697,13.0846 -79.372,15.5581 -9.8295,1.1307 -30.9795,4.0656 -47,6.5219 -37.3268,5.7232 -49.0839,7.1042 -76.628,9.0007 -12.375,0.8521 -28.8,1.9804 -36.5,2.5074 -25.6117,1.7527 -37.8088,1.8453 -60,0.4552 z m -79.5579,-167.5337 c -33.0333,-2.1153 -71.008602,-10.7538 -94.860502,-21.5786 -25.9922,-11.7961 -45.4340001,-33.408 -52.2081001,-58.0355 -6.9459,-25.2521 3.2713,-65.0769 26.9515001,-105.0526 23.4667,-39.6153 58.9136,-84.3187 93.755602,-118.2389 4.8021,-4.675 11.8357,-12.1843 15.6302,-16.6874 10.7491,-12.7563 8.9957,-12.3126 48.6578,-12.3126 h 33.2372 l -8.35,9.25 c -32.4591,35.9577 -55.874,74.3042 -63.3513,103.75 -1.4247,5.6104 -1.8935,10.9014 -1.8607,21 0.039,12.0498 0.3366,14.3409 2.7691,21.3278 7.6562,21.9914 24.2391,36.3525 56.1018,48.5854 42.9664,16.4959 104.9779,21.0711 183.0853,13.5081 34.373,-3.3283 56.5156,-6.7807 115,-17.9306 21.45,-4.0894 49.4729,-9.2561 62.2732,-11.4816 30.5463,-5.3109 33.7759,-6.014 60.2268,-13.1112 68.6144,-18.4103 105.7167,-29.2651 153,-44.7622 15.125,-4.9572 37.85,-12.1718 50.5,-16.0324 42.5844,-12.9961 48.7511,-15.1696 113,-39.8276 23.65,-9.0766 51.5369,-19.6224 61.97084,-23.4351 20.3944,-7.4524 59.4145,-23.3763 98.0292,-40.0053 l 24,-10.3353 94.5,-0.217 94.5,-0.2169 -3.9072,2.0715 c -8.5504,4.5332 -49.1206,23.0618 -66.0928,30.1849 -9.9,4.155 -25.7807,10.9439 -35.2905,15.0865 -9.5098,4.1426 -34.2598,14.3417 -55,22.6646 -20.7402,8.323 -53.9095,21.891 -73.7095,30.1513 -45.1359,18.83 -62.898,25.7866 -87.50004,34.27 -10.725,3.6983 -45.825,16.3978 -78,28.2212 -83.0227,30.5085 -96.031,35.0552 -129.609,45.3016 -16.44,5.0167 -49.3681,15.1726 -73.1734,22.5687 -98.2532,30.5264 -116.5773,35.7435 -159.2176,45.3321 -14.575,3.2775 -42.475,9.8396 -62,14.5826 -45.1784,10.9745 -68.0724,15.538 -127.5,25.4149 -81.39,13.527 -91.7476,14.6857 -143.9827,16.1076 -38.6818,1.0529 -53.6757,1.0282 -71.5752,-0.118 z m 100.0579,-148.9034 c -18.8912,-5.3949 -29.7366,-10.0013 -28.4498,-12.0834 3.0132,-4.8755 56.9702,-49.3806 99.4498,-82.0289 32.5131,-24.9883 111.0691,-80.9966 120.1414,-85.6576 l 6.3604,-3.2677 25.3322,0.2677 25.3322,0.2677 -29.1473,22 c -16.0311,12.1 -42.956,32.2497 -59.8331,44.7771 -16.8772,12.5274 -33.6108,25.2963 -37.1858,28.3754 -12.9761,11.176 -81.3974,77.6129 -89.173,86.5867 l -3.673,4.239 -7.827,0.1897 c -6.4524,0.1564 -10.198,-0.4874 -21.327,-3.6657 z M 1449.9013,963.21587 c -37.1293,-4.7682 -66.655,-26.3431 -77.661,-56.7483 -5.4327,-15.0082 -6.476,-21.7362 -6.4532,-41.6171 0.029,-24.9139 3.5539,-40.0437 14.9126,-64 19.3109,-40.7282 47.7378,-67.8059 95.0668,-90.555 35.9648,-17.2868 73.754,-27.8521 136.2636,-38.0974 l 26.2637,-4.3046 2.0907,-5.5215 c 2.5228,-6.6628 4.7994,-18.6675 4.8471,-25.5596 0.069,-9.8975 -5.6694,-16.8839 -16.4023,-19.9711 -19.634,-5.6476 -40.447,-2.7305 -64.0628,8.9789 -14.8126,7.3445 -22.4139,13.2353 -39.2048,30.3824 l -14.2048,14.5061 -4.7952,-4.4384 c -2.6374,-2.4412 -19.0854,-17.4185 -36.5511,-33.2829 l -31.756,-28.8444 2.7046,-5.1463 c 3.7358,-7.1084 28.2832,-31.427 40.0446,-39.6712 20.9402,-14.6782 46.9715,-27.5642 73.4959,-36.3819 17.8224,-5.9248 30.8757,-8.4614 49.608,-9.6402 20.8385,-1.3113 59.8998,0.2809 73.4566,2.9942 46.4699,9.3008 74.4918,30.1123 85.624,63.592 4.7746,14.3595 6.3242,25.5967 6.338,45.9609 0.021,30.4643 -1.3582,38.8167 -21.7917,132 -23.5925,107.5894 -30.2028,138.1739 -32.096,148.5 -1.8539,10.1117 -2.1158,29.7096 -0.5646,42.25 l 0.835,6.75 h -63.3213 -63.3212 l -0.088,-5.75 c -0.048,-3.1625 -0.3857,-7.849 -0.75,-10.4145 l -0.6624,-4.6645 -14.2645,6.3544 c -29.9351,13.3354 -51.8843,19.6144 -78.4461,22.4412 -11.3833,1.2114 -35.3514,1.1577 -45.1546,-0.1012 z m 88.9172,-105.4009 c 11.9364,-3.4489 24.9679,-9.2493 39.5525,-17.605 22.9847,-13.1683 26.1964,-15.9089 28.0541,-23.9391 3.7056,-16.0183 10.6148,-49.4803 10.2848,-49.8103 -0.7862,-0.7863 -31.1933,5.1934 -43.3759,8.53 -42.3193,11.5907 -68.2254,30.6724 -74.5363,54.9015 -3.9831,15.2921 0.1398,27.2483 10.4688,30.3593 5.3976,1.6257 19.5241,0.461 29.552,-2.4364 z m 979.448,104.9886 c -54.8307,-7.6642 -95.4897,-35.5119 -118.2533,-80.9926 -5.7096,-11.4076 -9.3227,-21.3176 -8.1483,-22.3493 0.8405,-0.7384 95.487,-61.0333 98.086,-62.4861 0.7717,-0.4313 3.5326,3.7875 7.9228,12.1064 7.8312,14.8394 12.2713,21.6183 19.2087,29.3267 13.9441,15.494 30.0302,22.9122 49.6841,22.9122 17.0998,0 30.1732,-4.9241 41.5385,-15.6455 7.0693,-6.6688 12.9615,-16.2309 12.9615,-21.0343 0,-10.0768 -12.4423,-17.7349 -67.6912,-41.6632 -44.4488,-19.2508 -54.0467,-24.6237 -68.2821,-38.2241 -10.3693,-9.9068 -16.9522,-18.8569 -22.4601,-30.5366 -7.1827,-15.2313 -8.0446,-19.6033 -8.0563,-40.8667 -0.01,-15.7235 0.3373,-20.0524 2.306,-28.8437 11.66,-52.069 42.2867,-90.1235 91.4588,-113.6398 29.6025,-14.1573 55.8091,-19.2559 93.7249,-18.2347 34.7902,0.937 59.6338,7.1544 83.6981,20.9464 24.3385,13.9492 39.0549,28.153 51.8621,50.0554 4.1931,7.1709 5.1119,9.4591 4.1606,10.3619 -2.1981,2.086 -94.9254,69.4855 -95.1575,69.1659 -11.5354,-15.884 -16.5713,-22.0269 -24.4507,-29.826 -14.338,-14.1917 -24.9439,-18.9854 -42.0046,-18.9854 -16.0097,0 -31.5331,5.8756 -38.677,14.6394 -8.4426,10.3567 -9.2878,18.1927 -2.7435,25.4364 4.6931,5.1948 24.3591,14.8611 54.8125,26.9418 38.0188,15.0819 55.7202,24.6094 72.4095,38.9734 31.5623,27.1649 41.3086,66.906 28.5732,116.509 -6.7026,26.106 -16.9852,46.3932 -33.4623,66.0197 -24.0188,28.6098 -64.3486,49.5346 -113.0204,58.6396 -14.3464,2.6838 -54.7177,3.4299 -70,1.2938 z m 301.7596,0.468 c -25.0883,-2.8063 -45.7381,-20.5252 -52.3512,-44.9211 -2.3249,-8.5764 -2.3104,-24.2439 0.031,-32.9829 10.6924,-39.9168 52.2096,-58.0495 90.3154,-39.4453 13.9427,6.8071 24.9957,19.7054 29.864,34.8498 2.2277,6.93 2.5964,9.8553 2.5935,20.5784 0,10.7043 -0.376,13.6605 -2.5969,20.5784 -9.2092,28.6856 -35.8575,44.9218 -67.8553,41.3427 z m 24.1494,-13.8157 c 23.9986,-7.4692 37.4217,-33.0101 31.6526,-60.2274 -4.136,-19.5129 -18.6692,-33.1994 -39.8116,-37.4923 -7.05,-1.4314 -8.45,-1.4314 -15.5,0 -21.312,4.3273 -35.577,17.9293 -39.6657,37.8221 -1.9419,9.4478 -1.9754,15.2832 -0.1374,23.9553 3.8365,18.1008 16.3033,31.6582 33.4649,36.3924 7.277,2.0074 22.8522,1.7737 29.9972,-0.4501 z m 2.481,-12.4979 c -1.1605,-0.8386 -5.2105,-6.5302 -9,-12.6479 -3.7895,-6.1177 -8.0511,-12.5164 -9.4702,-14.2192 -2.4603,-2.9523 -2.7856,-3.0529 -7,-2.165 l -4.4198,0.9311 -0.2775,14.2468 -0.2774,14.2467 h -4.8656 c -3.691,0 -5.0259,-0.4179 -5.5298,-1.731 -2.4981,-6.5101 -2.5044,-66.2317 -0.01,-68.3043 2.3619,-1.9602 18.3118,-3.0908 28.1408,-1.9948 15.7843,1.7601 21.1259,5.2504 23.2593,15.198 2.2516,10.4991 -0.6156,17.5842 -9.6784,23.9157 l -5.1799,3.6188 8.041,13.7656 c 5.1495,8.8155 7.6951,14.1116 7.079,14.7277 -1.7761,1.7761 -8.5684,2.0347 -10.8143,0.4118 z m -12.39,-41.678 c 4.1767,-0.689 6.1617,-1.6356 8.25,-3.9342 3.1509,-3.4681 3.3509,-4.9326 1.2331,-9.028 -2.4092,-4.6589 -6.1222,-5.9673 -16.9334,-5.9673 h -9.5497 v 10.4277 10.4278 l 5.75,-0.5094 c 3.1625,-0.2801 8.225,-0.9176 11.25,-1.4166 z M 20.631458,955.13207 c -1.3921,-2.2524 -1.6232,-23.5528 -0.4665,-42.9954 0.6544,-10.9998 1.5649,-78.0925 2.1193,-156.1559 1.3623,-191.8445 4.3775,-387.7874 6.0357,-392.2318 0.6993,-1.8742 1.8472,-2.17 10.6153,-2.7362 29.1905,-1.8848 117.851202,-1.5988 119.676602,0.386 0.2284,0.2484 -0.1878,13.6936 -0.925,29.8781 -0.7373,16.1845 -1.8012,49.9345 -2.3644,75 -0.5632,25.0655 -1.2666,51.8736 -1.5631,59.5736 -2.322,60.2958 -4.552,132.3961 -4.2992,139 l 0.3063,8 5.6495,-11 c 3.1072,-6.05 9.4754,-20 14.1515,-31 4.6761,-11 17.3626,-40.475 28.1922,-65.5 10.8295,-25.025 29.9601,-69.35 42.5124,-98.5 12.5523,-29.15 28.1737,-64.925 34.7142,-79.5 l 11.8918,-26.5 68.1942,-0.2569 68.1942,-0.257 v 18.757 c 0,10.3163 -0.6622,37.2069 -1.4683,59.7569 -0.806,22.55 -2.1715,71.375 -3.0343,108.5 -0.8628,37.125 -2.0021,73.0778 -2.5317,79.8952 -1.146,14.7502 -1.1707,38.9941 -0.046,44.6048 l 0.8021,4 2.6893,-6 c 1.479,-3.3 31.6242,-74.175 66.9891,-157.5 l 64.2999,-151.5 66.2638,-0.2572 66.2637,-0.2572 -0.6746,3.7572 c -0.371,2.0665 -32.4229,78.0072 -71.2264,168.7572 -38.8035,90.75 -77.1855,180.525 -85.2933,199.5 -65.3249,152.8819 -94.464,219.7112 -96.688,221.75 l -2.4545,2.25 h -65.579 -65.579 l 0.6307,-87.25 c 0.3468,-47.9875 0.9189,-122.491 1.2713,-165.5634 0.4132,-50.5065 0.2939,-78.6602 -0.336,-79.2901 -0.6355,-0.6355 -3.8107,5.4114 -9.0909,17.3134 -8.8857,20.029 -80.1601,188.3624 -110.4217,260.7901 -21.9659,52.573 -21.9526,52.5446 -24.9887,53.3579 -1.2624,0.3381 -31.4061,0.6209 -66.986202,0.6284 -49.7921,0.011 -64.8644,-0.2669 -65.444,-1.2047 z m 579.291302,0.4795 c -4.4096,-0.3444 -4.7946,-0.5747 -4.2959,-2.5697 0.3012,-1.2053 2.3413,-10.7414 4.5333,-21.1914 5.3699,-25.5991 31.7233,-144.765 50.0902,-226.5 8.2189,-36.575 18.3413,-82.25 22.4943,-101.5 4.153,-19.25 9.8601,-44.9 12.6824,-57 2.8224,-12.1 5.3372,-22.9808 5.5886,-24.1795 0.3474,-1.6569 1.4515,-2.3495 4.6039,-2.8881 2.2808,-0.3897 24.1719,-0.7144 48.6469,-0.7216 43.9398,-0.013 71.6201,0.8184 73.8861,2.2188 0.8362,0.5168 -12.2953,61.3867 -46.6795,216.3796 -26.3136,118.6132 -48.1332,215.9507 -48.488,216.3056 -1.5097,1.5096 -26.2836,2.2619 -70.7186,2.1472 -26.125,-0.067 -49.6797,-0.2928 -52.3437,-0.5009 z m 383.9997,-2.0111 c 0.3818,-1.5125 30.02314,-135.1703 65.86974,-297.0173 35.8466,-161.847 65.4608,-294.5526 65.8095,-294.9012 1.5606,-1.5606 52.871,-2.3421 86.1648,-1.3123 39.2444,1.2139 41.7918,1.4526 41.0646,3.8487 -0.2724,0.8977 -23.7112,106.4821 -52.0862,234.6321 -75.0241,338.8311 -77.305,349.0261 -79.0778,353.4567 l -1.6178,4.0433 h -63.4104 -63.41054 z m 192.37924,0.8157 c -0.5694,-1.0638 -1.0352,-2.8742 -1.0352,-4.0231 0,-1.149 7.6803,-35.941 17.0674,-77.3158 19.8602,-87.5365 28.2438,-125.4292 48.9455,-221.2268 18.197,-84.2074 28.4975,-129.4104 29.7814,-130.6943 1.6596,-1.6596 71.2793,-3.2011 99.8736,-2.2114 14.3923,0.4981 26.3875,1.1307 26.656,1.4057 0.677,0.6934 -12.2107,59.9318 -48.8412,224.5 -28.1016,126.2512 -46.4827,209.6996 -46.4827,211.0277 0,0.2598 -28.1092,0.4723 -62.4648,0.4723 -60.7337,0 -62.4935,-0.054 -63.5,-1.9343 z m -386.03524,-0.4921 c 0,-4.0873 17.2572,-82.9372 56.3729,-257.5736 12.3806,-55.275 33.5596,-150.45 47.0643,-211.5 13.5047,-61.05 25.3844,-113.925 26.3994,-117.5 l 1.8453,-6.5 63.7693,-0.2574 63.76944,-0.2575 -0.5976,2.3808 c -0.4611,1.837 -105.36544,474.9589 -126.96904,572.6341 l -4.3129,19.5 -63.6706,0.2574 c -54.8945,0.2219 -63.6705,0.059 -63.6705,-1.1838 z m 964.30074,-0.8236 c 0.2846,-1.2375 22.0282,-99.3375 48.3191,-218 l 47.8017,-215.75 h 59.3346 59.3345 l -0.5615,3.25 c -0.6656,3.8526 -2.4809,16.9067 -2.5093,18.0443 -0.011,0.4369 5.9427,-2.351 13.2302,-6.1953 20.1791,-10.6449 34.5312,-15.692 56.25,-19.7811 11.1874,-2.1063 43.8194,-2.873 57.5843,-1.353 32.5208,3.5912 54.4682,16.1449 71.6481,40.982 2.0722,2.9957 4.2176,5.3513 4.7676,5.2345 0.55,-0.1168 7.9281,-4.5343 16.3957,-9.8168 29.0252,-18.1072 54.6797,-28.6209 82.8652,-33.9598 18.1716,-3.442 47.0458,-4.3736 64.3974,-2.0776 39.7349,5.2579 61.7922,25.1856 72.6087,65.599 2.2891,8.5527 2.5668,11.4935 2.604,27.5738 0.03,13.1616 -0.436,20.5536 -1.7348,27.5 -0.977,5.225 -11.8428,55.85 -24.1464,112.5 -34.6083,159.3494 -44.9008,205.0854 -46.6187,207.1553 -0.913,1.1002 -12.5509,1.3447 -63.9935,1.3447 -34.5827,0 -62.8776,-0.3658 -62.8776,-0.8129 0,-4.4627 39.13,-182.3771 59.0943,-268.6871 6.2092,-26.8434 7.236,-32.6398 7.6582,-43.2299 l 0.4876,-12.23 -3.4037,-3.4037 c -2.7447,-2.7447 -4.9198,-3.741 -11.2342,-5.1458 -9.2146,-2.0501 -14.2334,-1.655 -25.2492,1.9875 -16.7334,5.533 -48.0126,23.0763 -57.5838,32.2964 -2.1224,2.0445 -4.3742,5.5624 -5.2232,8.1597 -1.4901,4.559 -49.1846,219.4637 -58.1612,262.0658 -2.6075,12.375 -5.3418,23.9625 -6.0763,25.75 l -1.3353,3.25 h -63.554 c -60.0665,0 -63.5244,-0.096 -63.0144,-1.75 0.2968,-0.9625 10.8764,-48.775 23.5104,-106.25 12.6339,-57.475 27.5438,-124.975 33.1331,-150 11.7626,-52.6642 13.0442,-62.7471 8.7707,-69 -3.0022,-4.3926 -7.6196,-6.0337 -18.9402,-6.7314 -7.3748,-0.4545 -9.9773,-0.1435 -18,2.1512 -5.1584,1.4753 -13.8788,4.8356 -19.3788,7.4672 -13.5019,6.4604 -40.0007,24.2468 -42.0618,28.2326 -0.865,1.6727 -4.4871,15.9426 -8.0491,31.7108 -19.6778,87.1095 -46.9418,209.8597 -51.3448,231.1696 -2.7843,13.475 -5.7704,26.4125 -6.636,28.75 l -1.5737,4.25 h -63.5257 -63.5257 z M 722.76646,474.32377 c -9.9,-0.35 -18.0624,-0.7122 -18.1387,-0.8049 -0.076,-0.093 -0.4221,-1.6791 -0.7685,-3.5255 -0.4108,-2.1897 0.5716,-8.884 2.825,-19.25 3.1729,-14.5964 19.9441,-88.9334 21.2395,-94.1429 l 0.5595,-2.25 h 62.8916 62.8916 l -0.01,4.25 c -0.01,4.5277 -3.6066,22.7328 -9.3365,47.25 -1.9282,8.25 -6.0798,26.5444 -9.2259,40.6541 l -5.7201,25.6541 -3.1044,0.6344 c -3.7941,0.7754 -62.2517,2.5695 -76.1044,2.3358 -5.5,-0.093 -18.1,-0.4551 -28,-0.8051 z m 559.99824,-6.2158 c 0.831,-7.4683 2.2323,-14.5081 7.5157,-37.7575 2.1873,-9.625 5.7558,-25.6 7.9301,-35.5 2.1742,-9.9 5.1478,-23.0625 6.608,-29.25 l 2.6549,-11.25 h 63.8966 c 35.1431,0 63.8758,0.3375 63.8505,0.75 -0.025,0.4125 -6.0065,27.3 -13.2917,59.75 l -13.2458,59 -63.3073,0.2575 -63.3073,0.2575 z m 212.1005,-14.8916 -11.9014,-6.0339 4.4014,-2.5305 c 2.4207,-1.3918 28.7013,-12.1109 58.4013,-23.8204 29.7,-11.7094 68.175,-26.9089 85.5,-33.7767 74.7803,-29.6436 215.6746,-78.5853 284.5,-98.8253 18.7,-5.4993 46.825,-13.9972 62.5,-18.8842 39.0517,-12.1752 99.5516,-30.0039 116.5,-34.3313 26.6859,-6.8138 87.1873,-19.6235 126,-26.6775 21.45,-3.8985 52.95,-9.7836 70,-13.078 36.7715,-7.1051 50.168,-9.17 77.3868,-11.9279 11.2127,-1.1361 26.4018,-2.856 33.7535,-3.8219 l 13.3668,-1.7561 -0.6352,2.0489 c -2.1827,7.0401 -13.2423,26.4608 -22.0074,38.6451 l -5.4646,7.5963 -26.1999,0.6217 c -25.1136,0.596 -41.5511,1.9418 -63.2,5.1745 -5.5,0.8212 -15.625,1.9554 -22.5,2.5203 -37.4455,3.0769 -77.8567,10.0225 -137.5,23.6326 -43.6164,9.9528 -58.4836,13.8436 -167.3446,43.7945 -67.3812,18.5386 -124.3716,36.0815 -174.1554,53.6089 -9.625,3.3887 -37.3,12.8172 -61.5,20.9522 -60.8445,20.4534 -83.3198,28.6975 -154,56.4881 -32.2981,12.6992 -45.8572,17.5469 -73,26.0995 -0.55,0.1733 -6.3556,-2.4002 -12.9013,-5.7189 z m 707.4013,-5.2831 c 0,-0.6607 44.7786,-39.7115 66.465,-57.9632 43.5404,-36.6443 54.1893,-46.1459 72.9046,-65.0498 35.7298,-36.0899 58.0674,-61.513 81.7737,-93.0698 28.7365,-38.2526 43.3979,-68.61 46.9737,-97.2617 1.0915,-8.7461 1.0338,-11.0614 -0.4657,-18.6932 -6.8983,-35.108904 -40.4412,-57.310204 -99.6513,-65.956804 -28.2995,-4.1327 -76.7183,-4.3642 -106.5,-0.5093 -8.25,1.0679 -23.2315,2.8367 -33.2923,3.9307 -44.0355,4.7884 -94.7784,13.7089 -147.5511,25.939 -12.0139,2.7842 -35.0199,7.7619 -51.1244,11.0614 -56.007,11.475004 -88.1702,20.212504 -173.4096,47.108904 -15.6075,4.9248 -43.7325,13.4065 -62.5,18.8482 -51.0996,14.8167 -115.5969,36.3136 -175.8296,58.604 -17.2111,6.3694 -55.593,20.3659 -85.293,31.1034 -71.871,25.9837 -89.2653,32.5855 -115.6919,43.9096 -26.9685,11.5563 -32.3159,13.4158 -38.5802,13.4158 -5.5794,0 -12.8574,-3.2389 -18.7776,-8.3565 l -3.8478,-3.3262 4.5812,-2.6848 c 2.5197,-1.4767 9.9217,-4.8731 16.4488,-7.5476 6.5271,-2.6746 21.0925,-8.7717 32.3675,-13.5491 62.7209,-26.5763 126.669,-51.5811 194.5,-76.0529 12.65,-4.5638 35.15,-12.7775 50,-18.2526 30.6684,-11.3072 51.7266,-18.3579 72,-24.1069 7.7,-2.1835 21.875,-6.7609 31.5,-10.1719 80.7637,-28.6218 153.8973,-51.315404 214.1781,-66.460204 16.6771,-4.1899 44.8141,-11.4295 62.5267,-16.0879 37.0887,-9.7544 62.3472,-15.7768 101.7952,-24.2709 57.8807,-12.463 77.816,-16.0256 101.5,-18.1385 6.325,-0.5643 20.275,-2.5721 31,-4.4620003 28.2405,-4.9761 35.5494,-5.7983 67,-7.5371 59.8949,-3.31140001 128.9868,-3.08810001 152,0.4911 19.6686,3.059 46.1036,8.6068003 55.3126,11.6082003 34.5871,11.2725 60.6934,34.3541 69.2063,61.1881 6.4946,20.4718 5.1041,39.328504 -5.0757,68.834104 -9.4547,27.4037 -29.983,61.2831 -62.373,102.9385 -18.946,24.3658 -47.7206,55.6323 -77.2785,83.971 -24.277,23.2755 -32.5441,30.7006 -56.7917,51.0075 -10.725,8.9819 -29.1255,24.6864 -40.89,34.8987 -28.3414,24.6021 -28.7499,24.9273 -35.11,27.9521 l -5.5,2.6158 -64.25,0.2782 c -35.3375,0.153 -64.25,0.065 -64.25,-0.1954 z m 250.3684,-0.3481 c -0.724,-0.4701 2.455,-4.6971 8.8254,-11.7347 44.7719,-49.4615 66.3367,-82.9861 76.3592,-118.7079 2.9941,-10.6716 1.8728,-9.0387 26.9824,-39.2921 30.7404,-37.0375 39.8461,-49.477 48.312,-66 6.5247,-12.7343 6.0958,-12.4317 12.9119,-9.1094 29.9313,14.589 46.0071,37.6314 47.8661,68.6094 1.1395,18.9892 -4.5799,41.6741 -17.0402,67.5857 -7.9306,16.492 -14.571,27.8122 -28.1453,47.9802 -21.9247,32.5746 -40.1593,54.6204 -48.6967,58.8748 l -5.1359,2.5593 -60.5536,-0.015 c -33.3046,-0.01 -61.0629,-0.3459 -61.6853,-0.75 z"
     id="path817"
     inkscape:connector-curvature="0" />
</svg>
